<svg width="23" height="20" viewBox="0 0 23 20" fill="none" xmlns="http://www.w3.org/2000/svg">
<path d="M22.0417 2.5H17.8889V0.9375C17.8889 0.417969 17.4616 0 16.9306 0H6.06944C5.53837 0 5.11111 0.417969 5.11111 0.9375V2.5H0.958333C0.427257 2.5 0 2.91797 0 3.4375V5.625C0 7.01953 0.898438 8.45312 2.4717 9.55859C3.72951 10.4453 5.25885 11.0078 6.86406 11.1875C8.11788 13.2227 9.58333 14.0625 9.58333 14.0625V16.875H7.66667C6.25712 16.875 5.11111 17.6836 5.11111 19.0625V19.5312C5.11111 19.7891 5.32674 20 5.59028 20H17.4097C17.6733 20 17.8889 19.7891 17.8889 19.5312V19.0625C17.8889 17.6836 16.7429 16.875 15.3333 16.875H13.4167V14.0625C13.4167 14.0625 14.8821 13.2227 16.1359 11.1875C17.7451 11.0078 19.2745 10.4453 20.5283 9.55859C22.0976 8.45312 23 7.01953 23 5.625V3.4375C23 2.91797 22.5727 2.5 22.0417 2.5ZM3.9651 7.53125C2.9908 6.84375 2.55556 6.07812 2.55556 5.625V5H5.1191C5.15903 6.27344 5.35069 7.39062 5.63021 8.36719C5.02726 8.16406 4.46424 7.88281 3.9651 7.53125ZM20.4444 5.625C20.4444 6.25391 19.7377 7.03516 19.0349 7.53125C18.5358 7.88281 17.9688 8.16406 17.3658 8.36719C17.6453 7.39062 17.837 6.27344 17.8769 5H20.4444V5.625Z" fill="currentColor"/>
</svg>
