<svg width="18" height="23" viewBox="0 0 18 23" fill="none" xmlns="http://www.w3.org/2000/svg">
<path d="M13.4059 0.0110868C13.3588 -0.0415293 11.6627 0.0318563 10.1867 1.63388C8.71063 3.23452 8.93771 5.07054 8.97094 5.11762C9.00417 5.1647 11.0756 5.23808 12.3979 3.37575C13.7202 1.51341 13.453 0.0650875 13.4059 0.0110868ZM17.9946 16.257C17.9281 16.1241 14.7753 14.5484 15.0689 11.5188C15.3624 8.4892 17.3881 7.65704 17.42 7.56704C17.4518 7.47704 16.5934 6.47318 15.6837 5.96501C15.0156 5.60709 14.2764 5.40185 13.5195 5.36408C13.3699 5.35993 12.8507 5.23254 11.7831 5.5247C11.0797 5.71716 9.49433 6.34025 9.05818 6.36517C8.62063 6.3901 7.31907 5.64239 5.91921 5.44439C5.02335 5.27131 4.07349 5.62578 3.39364 5.89855C2.71517 6.16994 1.42469 6.94257 0.521904 8.99598C-0.380877 11.048 0.0912831 14.2991 0.429134 15.3099C0.766985 16.3207 1.29453 17.9739 2.19177 19.1813C2.98932 20.5438 4.04718 21.4895 4.48888 21.8108C4.93058 22.132 6.17675 22.3452 7.04076 21.9035C7.73585 21.4771 8.99033 21.232 9.48603 21.25C9.98034 21.268 10.9551 21.4632 11.9534 21.9963C12.7441 22.2691 13.4918 22.1555 14.2409 21.8509C14.9899 21.5449 16.0741 20.3846 17.3397 18.0321C17.8197 16.9382 18.038 16.3465 17.9946 16.257Z" fill="white"/>
</svg>
