<svg width="18" height="20" viewBox="0 0 18 20" fill="none" xmlns="http://www.w3.org/2000/svg">
<path d="M13.6779 1H2.73121C2.26662 1 1.88965 1.37697 1.88965 1.84236V17.8408C1.88965 18.3061 2.26662 18.6831 2.73121 18.6831H13.6787C14.1433 18.6831 14.5203 18.3061 14.5203 17.8408V1.84236C14.5203 1.37697 14.1433 1 13.6779 1Z" fill="#C77F67"/>
<path d="M11.1522 7.31537C11.1522 7.42708 11.1078 7.53421 11.0288 7.61319C10.9498 7.69218 10.8427 7.73655 10.731 7.73655H6.52079C6.40909 7.73655 6.30196 7.69218 6.22297 7.61319C6.14398 7.53421 6.09961 7.42708 6.09961 7.31537V4.7891C6.09961 4.6774 6.14398 4.57027 6.22297 4.49128C6.30196 4.41229 6.40909 4.36792 6.52079 4.36792H10.731C10.8427 4.36792 10.9498 4.41229 11.0288 4.49128C11.1078 4.57027 11.1522 4.6774 11.1522 4.7891V7.31537Z" fill="white"/>
<path d="M1.04688 3.52625H3.57316M1.04688 7.73563H3.57316M1.04688 11.9474H3.57316M1.04688 16.1568H3.57316" stroke="#191919" stroke-linecap="round" stroke-linejoin="round"/>
<path d="M17.0468 3.52613V6.0524H14.5205V2.68457H16.2044C16.4276 2.68499 16.6415 2.77377 16.7993 2.93148C16.9572 3.08918 17.0462 3.30299 17.0468 3.52613Z" fill="#66E1FF"/>
<path d="M17.0468 6.05261H14.5205V9.42044H17.0468V6.05261Z" fill="#FFEF5E"/>
<path d="M17.0468 9.42029H14.5205V12.7881H17.0468V9.42029Z" fill="#FF808C"/>
<path d="M17.0468 12.7889V15.3152C17.0462 15.5384 16.9572 15.7522 16.7993 15.9099C16.6415 16.0676 16.4276 16.1563 16.2044 16.1568H14.5205V12.7889H17.0468Z" fill="#B2FFC0"/>
<path d="M13.6779 1H2.73121C2.26662 1 1.88965 1.37697 1.88965 1.84236V17.8408C1.88965 18.3061 2.26662 18.6831 2.73121 18.6831H13.6787C14.1433 18.6831 14.5203 18.3061 14.5203 17.8408V1.84236C14.5203 1.37697 14.1433 1 13.6779 1Z" stroke="#191919" stroke-linecap="round" stroke-linejoin="round"/>
<path d="M17.0471 6.0524V3.52613C17.0465 3.30299 16.9575 3.08918 16.7996 2.93148C16.6418 2.77377 16.4279 2.68499 16.2048 2.68457H14.5208V6.0524M17.0471 6.0524H14.5208M17.0471 6.0524V9.42023M14.5208 6.0524V9.42023M14.5208 9.42023H17.0471M14.5208 9.42023V12.7881M17.0471 9.42023V12.7881M14.5208 12.7881H17.0471M14.5208 12.7881V16.1567H16.2048C16.4279 16.1563 16.6418 16.0675 16.7996 15.9098C16.9575 15.7521 17.0465 15.5383 17.0471 15.3151V12.7881M11.1522 7.31513C11.1522 7.42684 11.1078 7.53397 11.0288 7.61295C10.9498 7.69194 10.8427 7.73631 10.731 7.73631H6.52079C6.40909 7.73631 6.30196 7.69194 6.22297 7.61295C6.14398 7.53397 6.09961 7.42684 6.09961 7.31513V4.78886C6.09961 4.67716 6.14398 4.57003 6.22297 4.49104C6.30196 4.41206 6.40909 4.36768 6.52079 4.36768H10.731C10.8427 4.36768 10.9498 4.41206 11.0288 4.49104C11.1078 4.57003 11.1522 4.67716 11.1522 4.78886V7.31513Z" stroke="#191919" stroke-linecap="round" stroke-linejoin="round"/>
</svg>
