<svg width="15" height="17" viewBox="0 0 15 17" fill="none" xmlns="http://www.w3.org/2000/svg">
<path d="M5.52395 12.5453C5.52395 11.5012 5.82 10.5299 6.33079 9.71153H1.77632C1.30521 9.71153 0.853395 9.90341 0.520271 10.245C0.187147 10.5865 0 11.0497 0 11.5327V12.2774C0 12.7404 0.140526 13.1921 0.402632 13.5693C1.51026 15.1622 3.25816 16.0251 5.59737 16.1675L6.00947 14.781C5.68947 14.0814 5.5237 13.3181 5.52395 12.5453ZM6.31421 0C7.36133 0 8.36556 0.42648 9.10598 1.18562C9.8464 1.94476 10.2624 2.97437 10.2624 4.04796C10.2624 5.12154 9.8464 6.15115 9.10598 6.91029C8.36556 7.66943 7.36133 8.09591 6.31421 8.09591C5.26709 8.09591 4.26286 7.66943 3.52244 6.91029C2.78202 6.15115 2.36605 5.12154 2.36605 4.04796C2.36605 2.97437 2.78202 1.94476 3.52244 1.18562C4.26286 0.42648 5.26709 0 6.31421 0ZM15 12.5453C15.0005 13.3206 14.8035 14.0825 14.4285 14.7557C14.0536 15.4289 13.5137 15.9901 12.8622 16.3836C12.2108 16.7772 11.4704 16.9895 10.7144 16.9996C9.9583 17.0097 9.21278 16.8172 8.55158 16.4411L6.825 16.9794C6.75654 17.0008 6.68371 17.0027 6.61428 16.9849C6.54486 16.9671 6.48145 16.9303 6.43085 16.8784C6.38025 16.8265 6.34436 16.7615 6.32701 16.6904C6.30966 16.6192 6.31152 16.5445 6.33237 16.4743L6.85816 14.7041C6.53697 14.1096 6.35276 13.4477 6.31964 12.769C6.28651 12.0902 6.40535 11.4128 6.66705 10.7884C6.92876 10.164 7.32637 9.60937 7.82945 9.1669C8.33252 8.72443 8.9277 8.40589 9.56939 8.23569C10.2111 8.06549 10.8823 8.04813 11.5315 8.18496C12.1808 8.32179 12.7908 8.60916 13.315 9.02507C13.8392 9.44098 14.2636 9.97439 14.5557 10.5844C14.8477 11.1945 14.9997 11.865 15 12.5445M9.07816 11.3304C8.97347 11.3304 8.87306 11.373 8.79904 11.4489C8.72501 11.5248 8.68342 11.6278 8.68342 11.7351C8.68342 11.8424 8.72501 11.9454 8.79904 12.0213C8.87306 12.0972 8.97347 12.1398 9.07816 12.1398H12.2361C12.3407 12.1398 12.4411 12.0972 12.5152 12.0213C12.5892 11.9454 12.6308 11.8424 12.6308 11.7351C12.6308 11.6278 12.5892 11.5248 12.5152 11.4489C12.4411 11.373 12.3407 11.3304 12.2361 11.3304H9.07816ZM8.68342 13.354C8.68342 13.4613 8.72501 13.5642 8.79904 13.6401C8.87306 13.716 8.97347 13.7587 9.07816 13.7587H10.6571C10.7618 13.7587 10.8622 13.716 10.9362 13.6401C11.0103 13.5642 11.0518 13.4613 11.0518 13.354C11.0518 13.2466 11.0103 13.1437 10.9362 13.0678C10.8622 12.9919 10.7618 12.9493 10.6571 12.9493H9.07816C8.97347 12.9493 8.87306 12.9919 8.79904 13.0678C8.72501 13.1437 8.68342 13.2466 8.68342 13.354Z" fill="currentColor"/>
</svg>
