<svg width="20" height="20" viewBox="0 0 20 20" fill="none" xmlns="http://www.w3.org/2000/svg">
<path d="M10 0.5C11.2476 0.5 12.4831 0.745237 13.6357 1.22266C14.7883 1.70008 15.8356 2.40008 16.7178 3.28223C17.5999 4.16437 18.2999 5.21168 18.7773 6.36426C19.2548 7.51685 19.5 8.75244 19.5 10C19.5 11.2476 19.2548 12.4831 18.7773 13.6357C18.2999 14.7883 17.5999 15.8356 16.7178 16.7178C15.8356 17.5999 14.7883 18.2999 13.6357 18.7773C12.4831 19.2548 11.2476 19.5 10 19.5C7.48044 19.5 5.06382 18.4994 3.28223 16.7178C1.50063 14.9362 0.5 12.5196 0.5 10C0.5 7.48044 1.50063 5.06382 3.28223 3.28223C5.06382 1.50063 7.48044 0.5 10 0.5ZM9.31641 11.8389L8.96582 12.2598L6.70605 10L6 10.707L9.0332 13.7402L14.0635 7.7041L13.2959 7.06348L9.31641 11.8389Z" fill="#6EFFDC" stroke="white"/>
</svg>
