<svg width="26" height="26" viewBox="0 0 26 26" fill="none" xmlns="http://www.w3.org/2000/svg">
<path d="M12.9873 0.5C19.8161 0.5 25.5 6.17003 25.5 13C25.5 19.8411 19.829 25.4999 13 25.5C6.15899 25.5 0.5 19.8408 0.5 13C0.5 6.17179 6.14603 0.50022 12.9873 0.5ZM17.2119 8.2998C17.1041 8.29988 17.02 8.32757 16.9053 8.44922L16.8936 8.46094L13.3408 11.9902L12.9873 12.3408L12.6348 11.9893L9.10645 8.47168L9.09473 8.45996C9.01133 8.37112 8.90708 8.32324 8.77637 8.32324C8.48763 8.32337 8.27637 8.54709 8.27637 8.7998V8.80176C8.27606 8.8594 8.28793 8.91713 8.31152 8.96973C8.3233 8.99593 8.33754 9.02095 8.35449 9.04395L8.41309 9.10742L8.42578 9.11816L8.4375 9.12988L11.9434 12.6602L12.293 13.0117L11.9434 13.3643L8.4375 16.8936L8.43066 16.8994L8.4248 16.9053C8.32454 16.9994 8.27637 17.1077 8.27637 17.2236L8.28613 17.3213C8.29246 17.3533 8.30193 17.3847 8.31445 17.415C8.33951 17.4756 8.37649 17.5308 8.42285 17.5771C8.46924 17.6235 8.52434 17.6605 8.58496 17.6855C8.64557 17.7106 8.71077 17.7237 8.77637 17.7236H8.78223C8.84576 17.7243 8.90913 17.7119 8.96777 17.6875C9.02637 17.663 9.0798 17.6266 9.12402 17.5811L9.12793 17.5771L12.6338 14.0479L12.9883 13.6914L13.3428 14.0469L16.8604 17.5762L16.8652 17.5811C16.9088 17.626 16.9609 17.6621 17.0186 17.6865C17.0762 17.7109 17.1386 17.7236 17.2012 17.7236C17.2665 17.7236 17.3312 17.7105 17.3916 17.6855C17.4522 17.6605 17.5073 17.6235 17.5537 17.5771C17.6001 17.5308 17.637 17.4757 17.6621 17.415C17.6872 17.3544 17.7003 17.2892 17.7002 17.2236L17.6904 17.1279C17.6715 17.036 17.624 16.9498 17.5459 16.8652L14.0361 13.3652L13.6816 13.0127L14.0342 12.6582L17.5645 9.11816L17.5693 9.1123L17.5752 9.10645C17.6733 9.01396 17.7119 8.92212 17.7119 8.78809C17.7117 8.5264 17.4919 8.2998 17.2119 8.2998Z" fill="#BABABA" stroke="white"/>
</svg>
