<svg width="21" height="20" viewBox="0 0 21 20" fill="none" xmlns="http://www.w3.org/2000/svg">
<path d="M10.4854 0.5C15.8505 0.5 20.1836 4.76248 20.1836 10C20.1836 15.2375 15.8505 19.5 10.4854 19.5C5.12038 19.4997 0.788086 15.2374 0.788086 10C0.788086 4.76263 5.12038 0.500252 10.4854 0.5Z" stroke="white"/>
<path d="M10.0245 6.20474L6.19834 10.1544C5.93389 10.4274 5.93389 10.8688 6.19834 11.1389L6.83417 11.7953C7.09862 12.0682 7.52626 12.0682 7.7879 11.7953L10.5 8.99564L13.2121 11.7953C13.4766 12.0682 13.9042 12.0682 14.1658 11.7953L14.8017 11.1389C15.0661 10.8659 15.0661 10.4245 14.8017 10.1544L10.9755 6.20474C10.7166 5.93175 10.289 5.93175 10.0245 6.20474Z" fill="white"/>
</svg>
