<svg width="21" height="20" viewBox="0 0 21 20" fill="none" xmlns="http://www.w3.org/2000/svg">
<path d="M10.4854 0.5C15.8505 0.5 20.1836 4.76248 20.1836 10C20.1836 15.2375 15.8505 19.5 10.4854 19.5C5.12038 19.4997 0.788086 15.2374 0.788086 10C0.788086 4.76263 5.12038 0.500252 10.4854 0.5Z" stroke="white"/>
<path d="M10.0245 12.7953L6.19834 8.8456C5.93389 8.5726 5.93389 8.13117 6.19834 7.86108L6.83417 7.20474C7.09862 6.93175 7.52626 6.93175 7.7879 7.20474L10.5 10.0044L13.2121 7.20474C13.4766 6.93175 13.9042 6.93175 14.1658 7.20474L14.8017 7.86108C15.0661 8.13408 15.0661 8.57551 14.8017 8.8456L10.9755 12.7953C10.7166 13.0682 10.289 13.0682 10.0245 12.7953Z" fill="white"/>
</svg>
