<svg width="23" height="20" viewBox="0 0 23 20" fill="none" xmlns="http://www.w3.org/2000/svg">
<path d="M11.5 0C10.4835 0 9.50866 0.395074 8.7899 1.09831C8.07113 1.80155 7.66734 2.75534 7.66734 3.74986C7.66734 4.74439 8.07113 5.69818 8.7899 6.40142C9.50866 7.10465 10.4835 7.49973 11.5 7.49973C12.5165 7.49973 13.4913 7.10465 14.2101 6.40142C14.9289 5.69818 15.3326 4.74439 15.3326 3.74986C15.3326 2.75534 14.9289 1.80155 14.2101 1.09831C13.4913 0.395074 12.5165 0 11.5 0ZM5.17994 9.99464C5.13651 10.198 5.11479 10.408 5.11479 10.6246V14.9995C5.11396 15.9069 5.31552 16.8036 5.70541 17.627C6.09531 18.4504 6.66414 19.1807 7.37222 19.7668L7.15376 19.8293C6.5055 19.9994 5.82932 20.0429 5.16386 19.9574C4.4984 19.8718 3.85669 19.6588 3.27538 19.3305C2.69406 19.0023 2.18453 18.5652 1.77589 18.0443C1.36725 17.5233 1.0675 16.9287 0.89376 16.2944L0.0671839 13.2758C0.00208058 13.0379 -0.0145013 12.7899 0.0183853 12.5457C0.0512718 12.3016 0.132983 12.0662 0.258852 11.853C0.384721 11.6398 0.552284 11.4529 0.751972 11.3031C0.95166 11.1532 1.17956 11.0433 1.42267 10.9796L5.17994 9.99464ZM15.6329 19.7668C16.341 19.1807 16.9098 18.4504 17.2997 17.627C17.6896 16.8036 17.8911 15.9069 17.8903 14.9995V10.6246C17.8895 10.408 17.8682 10.198 17.8264 9.99464L21.5824 10.9796C22.0732 11.1085 22.4915 11.4228 22.7454 11.8534C22.9994 12.2839 23.0682 12.7956 22.9366 13.2758L22.1101 16.2944C21.9313 16.9467 21.6194 17.5568 21.1931 18.0878C20.7668 18.6189 20.235 19.06 19.6297 19.3845C19.0244 19.709 18.3582 19.9102 17.6713 19.9759C16.9843 20.0416 16.2909 19.9705 15.6329 19.7668ZM19.8041 2.49991C18.957 2.49991 18.1446 2.82914 17.5457 3.41517C16.9467 4.0012 16.6102 4.79602 16.6102 5.6248C16.6102 6.45357 16.9467 7.24839 17.5457 7.83442C18.1446 8.42045 18.957 8.74968 19.8041 8.74968C20.6511 8.74968 21.4635 8.42045 22.0625 7.83442C22.6615 7.24839 22.998 6.45357 22.998 5.6248C22.998 4.79602 22.6615 4.0012 22.0625 3.41517C21.4635 2.82914 20.6511 2.49991 19.8041 2.49991ZM3.19591 2.49991C2.34884 2.49991 1.53646 2.82914 0.937494 3.41517C0.338526 4.0012 0.00202882 4.79602 0.00202882 5.6248C0.00202882 6.45357 0.338526 7.24839 0.937494 7.83442C1.53646 8.42045 2.34884 8.74968 3.19591 8.74968C4.04298 8.74968 4.85535 8.42045 5.45432 7.83442C6.05329 7.24839 6.38979 6.45357 6.38979 5.6248C6.38979 4.79602 6.05329 4.0012 5.45432 3.41517C4.85535 2.82914 4.04298 2.49991 3.19591 2.49991ZM8.30611 8.74968C7.79787 8.74968 7.31045 8.94722 6.95106 9.29884C6.59168 9.65045 6.38979 10.1274 6.38979 10.6246V14.9995C6.38979 16.3255 6.92818 17.5972 7.88653 18.5349C8.84488 19.4725 10.1447 19.9993 11.5 19.9993C12.8553 19.9993 14.1551 19.4725 15.1135 18.5349C16.0718 17.5972 16.6102 16.3255 16.6102 14.9995V10.6246C16.6102 10.1274 16.4083 9.65045 16.0489 9.29884C15.6895 8.94722 15.2021 8.74968 14.6939 8.74968H8.30611Z" fill="currentColor"/>
</svg>
