<svg width="13" height="11" viewBox="0 0 13 11" fill="none" xmlns="http://www.w3.org/2000/svg">
<path d="M10.8604 3.8331C11.3687 3.8331 11.8562 4.03502 12.2157 4.39444C12.5751 4.75387 12.777 5.24135 12.777 5.74965V7.6662C12.777 8.1745 12.5751 8.66198 12.2157 9.0214C11.8562 9.38083 11.3687 9.58275 10.8604 9.58275V10.1999C10.8604 10.8771 10.0708 11.247 9.55081 10.8132L8.07378 9.58275H6.3885C5.8802 9.58275 5.39272 9.38083 5.03329 9.0214C4.67387 8.66198 4.47195 8.1745 4.47195 7.6662V5.74965C4.47195 5.24135 4.67387 4.75387 5.03329 4.39444C5.39272 4.03502 5.8802 3.8331 6.3885 3.8331H10.8604ZM8.9439 0C9.4522 0 9.93968 0.201922 10.2991 0.561344C10.6585 0.920767 10.8604 1.40825 10.8604 1.91655V2.5554H5.74965C5.07191 2.5554 4.42194 2.82463 3.94271 3.30386C3.46348 3.78309 3.19425 4.43306 3.19425 5.1108V7.6662C3.19425 8.33316 3.44979 8.94134 3.86887 9.3962L3.19425 9.90217C2.66784 10.297 1.91655 9.92134 1.91655 9.26332V8.30505C1.40825 8.30505 0.920767 8.10313 0.561344 7.7437C0.201922 7.38428 0 6.8968 0 6.3885V1.91655C0 1.40825 0.201922 0.920767 0.561344 0.561344C0.920767 0.201922 1.40825 0 1.91655 0H8.9439Z" fill="currentColor"/>
</svg>
