<svg width="120" height="61" viewBox="0 0 120 61" fill="none" xmlns="http://www.w3.org/2000/svg">
<mask id="path-1-inside-1_2963_64007" fill="white">
<path d="M60 0C62.3676 0 63.9506 2.84049 67.1182 8.52051L67.9355 9.99023C68.8355 11.6051 69.2854 12.4128 69.9854 12.9453C70.6879 13.4778 71.5631 13.6753 73.3105 14.0703L74.9004 14.4297C81.0506 15.8197 84.1264 16.5176 84.8564 18.8701C85.5889 21.2226 83.4934 23.6753 79.3008 28.5752L78.2158 29.8428C77.0234 31.2352 76.4286 31.933 76.1611 32.793C75.8937 33.6554 75.9837 34.5852 76.1611 36.4424L76.2109 36.918H76.209L76.3291 38.1348C76.9616 44.6773 77.2789 47.9473 75.3613 49.4023C73.4488 50.8523 70.569 49.5279 64.8115 46.8779L63.3242 46.1924C61.6867 45.4374 60.8685 45.0625 60.001 45.0625C59.1335 45.0625 58.3156 45.4374 56.6807 46.1924L55.1885 46.8779C49.4333 49.5304 46.5528 50.8529 44.6377 49.4004C42.7228 47.9478 43.0404 44.6771 43.6729 38.1348L43.8379 36.4424C44.0179 34.5853 44.1082 33.6553 43.8408 32.793C43.5733 31.933 42.9752 31.2353 41.7852 29.8428L40.7002 28.5752C36.5076 23.6728 34.4126 21.2201 35.1426 18.8701C35.8751 16.5176 38.9504 15.8222 45.1006 14.4297L46.6885 14.0703C48.4384 13.6753 49.3137 13.4778 50.0137 12.9453C50.113 12.8721 50.2065 12.7912 50.2939 12.7041L50.2949 12.7021C50.2925 12.7045 50.2895 12.7066 50.2871 12.709C50.8435 12.1758 51.2857 11.3841 52.0625 9.99023L52.8828 8.52051C56.0503 2.84069 57.6326 0.000202287 60 0ZM50.2197 12.7705C50.1532 12.8312 50.0854 12.8908 50.0127 12.9453C50.0845 12.8907 50.1524 12.8315 50.2197 12.7705ZM50.2871 12.709C50.265 12.7301 50.2422 12.7502 50.2197 12.7705C50.2422 12.75 50.2653 12.7302 50.2871 12.709Z"/>
</mask>
<path d="M60 0C62.3676 0 63.9506 2.84049 67.1182 8.52051L67.9355 9.99023C68.8355 11.6051 69.2854 12.4128 69.9854 12.9453C70.6879 13.4778 71.5631 13.6753 73.3105 14.0703L74.9004 14.4297C81.0506 15.8197 84.1264 16.5176 84.8564 18.8701C85.5889 21.2226 83.4934 23.6753 79.3008 28.5752L78.2158 29.8428C77.0234 31.2352 76.4286 31.933 76.1611 32.793C75.8937 33.6554 75.9837 34.5852 76.1611 36.4424L76.2109 36.918H76.209L76.3291 38.1348C76.9616 44.6773 77.2789 47.9473 75.3613 49.4023C73.4488 50.8523 70.569 49.5279 64.8115 46.8779L63.3242 46.1924C61.6867 45.4374 60.8685 45.0625 60.001 45.0625C59.1335 45.0625 58.3156 45.4374 56.6807 46.1924L55.1885 46.8779C49.4333 49.5304 46.5528 50.8529 44.6377 49.4004C42.7228 47.9478 43.0404 44.6771 43.6729 38.1348L43.8379 36.4424C44.0179 34.5853 44.1082 33.6553 43.8408 32.793C43.5733 31.933 42.9752 31.2353 41.7852 29.8428L40.7002 28.5752C36.5076 23.6728 34.4126 21.2201 35.1426 18.8701C35.8751 16.5176 38.9504 15.8222 45.1006 14.4297L46.6885 14.0703C48.4384 13.6753 49.3137 13.4778 50.0137 12.9453C50.113 12.8721 50.2065 12.7912 50.2939 12.7041L50.2949 12.7021C50.2925 12.7045 50.2895 12.7066 50.2871 12.709C50.8435 12.1758 51.2857 11.3841 52.0625 9.99023L52.8828 8.52051C56.0503 2.84069 57.6326 0.000202287 60 0ZM50.2197 12.7705C50.1532 12.8312 50.0854 12.8908 50.0127 12.9453C50.0845 12.8907 50.1524 12.8315 50.2197 12.7705ZM50.2871 12.709C50.265 12.7301 50.2422 12.7502 50.2197 12.7705C50.2422 12.75 50.2653 12.7302 50.2871 12.709Z" fill="#FFD700"/>
<path d="M60 0V-1H59.9999L60 0ZM67.1182 8.52051L67.9921 8.03447L67.9915 8.03345L67.1182 8.52051ZM67.9355 9.99023L67.0616 10.4763L67.062 10.477L67.9355 9.99023ZM69.9854 12.9453L69.3799 13.7412L69.3813 13.7422L69.9854 12.9453ZM73.3105 14.0703L73.531 13.0949L73.531 13.0949L73.3105 14.0703ZM74.9004 14.4297L74.6799 15.4051L74.6799 15.4051L74.9004 14.4297ZM84.8564 18.8701L83.9014 19.1665L83.9016 19.1674L84.8564 18.8701ZM79.3008 28.5752L80.0605 29.2255L80.0606 29.2253L79.3008 28.5752ZM78.2158 29.8428L78.9754 30.4932L78.9755 30.493L78.2158 29.8428ZM76.1611 32.793L75.2063 32.4959L75.206 32.4968L76.1611 32.793ZM76.1611 36.4424L75.1656 36.5375L75.1666 36.5465L76.1611 36.4424ZM76.2109 36.918V37.918H77.3211L77.2055 36.8138L76.2109 36.918ZM76.209 36.918V35.918H75.1054L75.2138 37.0162L76.209 36.918ZM76.3291 38.1348L77.3245 38.0385L77.3243 38.0365L76.3291 38.1348ZM75.3613 49.4023L75.9655 50.1992L75.9658 50.199L75.3613 49.4023ZM64.8115 46.8779L64.3929 47.7861L64.3934 47.7863L64.8115 46.8779ZM63.3242 46.1924L62.9055 47.1005L62.9056 47.1006L63.3242 46.1924ZM60.001 45.0625V44.0625H60.0009L60.001 45.0625ZM56.6807 46.1924L57.0981 47.1011L57.0999 47.1003L56.6807 46.1924ZM55.1885 46.8779L54.771 45.9692L54.7699 45.9697L55.1885 46.8779ZM44.6377 49.4004L44.0333 50.1971L44.0334 50.1971L44.6377 49.4004ZM43.6729 38.1348L42.6776 38.0377L42.6775 38.0385L43.6729 38.1348ZM43.8379 36.4424L44.8332 36.5394L44.8332 36.5388L43.8379 36.4424ZM43.8408 32.793L44.796 32.4968L44.7957 32.4959L43.8408 32.793ZM41.7852 29.8428L42.5454 29.1931L42.5449 29.1925L41.7852 29.8428ZM40.7002 28.5752L39.9402 29.2251L39.9405 29.2255L40.7002 28.5752ZM35.1426 18.8701L34.1878 18.5728L34.1876 18.5735L35.1426 18.8701ZM45.1006 14.4297L44.8798 13.4544L44.8798 13.4544L45.1006 14.4297ZM46.6885 14.0703L46.4683 13.0949L46.4677 13.095L46.6885 14.0703ZM50.0137 12.9453L49.4206 12.1402L49.4144 12.1447L49.4082 12.1494L50.0137 12.9453ZM50.2939 12.7041L50.9993 13.413L51.1152 13.2976L51.1884 13.1513L50.2939 12.7041ZM50.2949 12.7021L51.1893 13.1494L49.5946 11.9883L50.2949 12.7021ZM52.0625 9.99023L51.1893 9.50287L51.189 9.50343L52.0625 9.99023ZM52.8828 8.52051L53.756 9.00787L53.7562 9.00757L52.8828 8.52051ZM50.0127 12.9453L49.4072 12.1494L50.6127 13.7453L50.0127 12.9453ZM60 0V1C60.7043 1 61.4331 1.39068 62.4652 2.73828C63.4978 4.08657 64.6447 6.13827 66.2448 9.00757L67.1182 8.52051L67.9915 8.03345C66.4241 5.22273 65.1956 3.01417 64.053 1.52221C62.9098 0.0295589 61.6633 -1 60 -1V0ZM67.1182 8.52051L66.2442 9.00655L67.0616 10.4763L67.9355 9.99023L68.8095 9.5042L67.9921 8.03447L67.1182 8.52051ZM67.9355 9.99023L67.062 10.477C67.9184 12.0137 68.4742 13.0522 69.3799 13.7412L69.9854 12.9453L70.5908 12.1494C70.0965 11.7734 69.7526 11.1965 68.8091 9.50343L67.9355 9.99023ZM69.9854 12.9453L69.3813 13.7422C70.2962 14.4357 71.4287 14.6702 73.0901 15.0457L73.3105 14.0703L73.531 13.0949C71.6974 12.6805 71.0795 12.5199 70.5894 12.1484L69.9854 12.9453ZM73.3105 14.0703L73.0901 15.0457L74.6799 15.4051L74.9004 14.4297L75.1209 13.4543L73.531 13.0949L73.3105 14.0703ZM74.9004 14.4297L74.6799 15.4051C77.7888 16.1077 80.0041 16.612 81.5442 17.2193C83.0655 17.8191 83.67 18.4209 83.9014 19.1665L84.8564 18.8701L85.8115 18.5737C85.3129 16.9668 84.0144 16.0434 82.2778 15.3587C80.5599 14.6813 78.1622 14.1417 75.1208 13.4543L74.9004 14.4297ZM84.8564 18.8701L83.9016 19.1674C84.1373 19.9242 83.9802 20.8029 83.0791 22.2347C82.1712 23.6774 80.6586 25.4501 78.541 27.9251L79.3008 28.5752L80.0606 29.2253C82.1355 26.8003 83.767 24.8967 84.7718 23.3C85.7835 21.6924 86.308 20.1685 85.8112 18.5729L84.8564 18.8701ZM79.3008 28.5752L78.5411 27.9249L77.4561 29.1925L78.2158 29.8428L78.9755 30.493L80.0605 29.2255L79.3008 28.5752ZM78.2158 29.8428L77.4563 29.1923C76.3168 30.5229 75.549 31.3941 75.2063 32.4959L76.1611 32.793L77.116 33.09C77.3083 32.4719 77.7299 31.9475 78.9754 30.4932L78.2158 29.8428ZM76.1611 32.793L75.206 32.4968C74.8652 33.5958 74.9962 34.7641 75.1657 36.5375L76.1611 36.4424L77.1566 36.3473C76.9711 34.4062 76.9222 33.7149 77.1163 33.0891L76.1611 32.793ZM76.1611 36.4424L75.1666 36.5465L75.2164 37.0221L76.2109 36.918L77.2055 36.8138L77.1557 36.3382L76.1611 36.4424ZM76.2109 36.918V35.918H76.209V36.918V37.918H76.2109V36.918ZM76.209 36.918L75.2138 37.0162L75.3339 38.233L76.3291 38.1348L77.3243 38.0365L77.2041 36.8197L76.209 36.918ZM76.3291 38.1348L75.3337 38.231C75.6531 41.5345 75.8799 43.9024 75.8025 45.6317C75.7252 47.3589 75.3527 48.1536 74.7569 48.6057L75.3613 49.4023L75.9658 50.199C77.2875 49.1961 77.7152 47.6282 77.8005 45.7211C77.8857 43.8159 77.6376 41.2776 77.3245 38.0385L76.3291 38.1348ZM75.3613 49.4023L74.7572 48.6055C74.1805 49.0427 73.3788 49.1677 71.8038 48.7163C70.2165 48.2614 68.1401 47.3091 65.2296 45.9695L64.8115 46.8779L64.3934 47.7863C67.2404 49.0967 69.4827 50.1316 71.2528 50.6389C73.0351 51.1497 74.6296 51.212 75.9655 50.1992L75.3613 49.4023ZM64.8115 46.8779L65.2301 45.9698L63.7428 45.2842L63.3242 46.1924L62.9056 47.1006L64.3929 47.7861L64.8115 46.8779ZM63.3242 46.1924L63.7429 45.2843C62.1874 44.5671 61.1389 44.0625 60.001 44.0625V45.0625V46.0625C60.5981 46.0625 61.1859 46.3077 62.9055 47.1005L63.3242 46.1924ZM60.001 45.0625L60.0009 44.0625C58.8629 44.0626 57.8147 44.5673 56.2614 45.2845L56.6807 46.1924L57.0999 47.1003C58.8165 46.3076 59.4042 46.0625 60.001 46.0625L60.001 45.0625ZM56.6807 46.1924L56.2632 45.2837L54.771 45.9692L55.1885 46.8779L55.6059 47.7866L57.0981 47.1011L56.6807 46.1924ZM55.1885 46.8779L54.7699 45.9697C51.8608 47.3105 49.785 48.2628 48.1978 48.7171C46.6234 49.1678 45.8205 49.0424 45.242 48.6036L44.6377 49.4004L44.0334 50.1971C45.37 51.2109 46.9648 51.1504 48.7483 50.6399C50.519 50.133 52.761 49.0978 55.607 47.7861L55.1885 46.8779ZM44.6377 49.4004L45.2421 48.6037C44.6481 48.1531 44.276 47.3594 44.199 45.6317C44.122 43.9025 44.3488 41.5344 44.6682 38.231L43.6729 38.1348L42.6775 38.0385C42.3644 41.2775 42.1162 43.8158 42.201 45.7207C42.2859 47.6271 42.7125 49.1951 44.0333 50.1971L44.6377 49.4004ZM43.6729 38.1348L44.6681 38.2318L44.8332 36.5394L43.8379 36.4424L42.8426 36.3453L42.6776 38.0377L43.6729 38.1348ZM43.8379 36.4424L44.8332 36.5388C45.0051 34.7651 45.1369 33.5964 44.796 32.4968L43.8408 32.793L42.8857 33.0891C43.0795 33.7143 43.0306 34.4055 42.8426 36.3459L43.8379 36.4424ZM43.8408 32.793L44.7957 32.4959C44.4529 31.3939 43.6803 30.5212 42.5454 29.1931L41.7852 29.8428L41.0249 30.4925C42.2701 31.9494 42.6937 32.472 42.8859 33.09L43.8408 32.793ZM41.7852 29.8428L42.5449 29.1925L41.4599 27.9249L40.7002 28.5752L39.9405 29.2255L41.0254 30.493L41.7852 29.8428ZM40.7002 28.5752L41.4602 27.9253C39.3425 25.4491 37.8299 23.6756 36.9217 22.2328C36.0202 20.8005 35.8629 19.9223 36.0976 19.1668L35.1426 18.8701L34.1876 18.5735C33.6923 20.1679 34.2175 21.6911 35.2291 23.2982C36.2341 24.8948 37.8653 26.7989 39.9402 29.2251L40.7002 28.5752ZM35.1426 18.8701L36.0974 19.1674C36.3297 18.4213 36.9349 17.8199 38.4566 17.2203C39.9971 16.6132 42.2123 16.109 45.3214 15.405L45.1006 14.4297L44.8798 13.4544C41.8387 14.1429 39.4412 14.6826 37.7233 15.3595C35.9867 16.0439 34.688 16.9664 34.1878 18.5728L35.1426 18.8701ZM45.1006 14.4297L45.3213 15.405L46.9092 15.0456L46.6885 14.0703L46.4677 13.095L44.8798 13.4544L45.1006 14.4297ZM46.6885 14.0703L46.9086 15.0458C48.5718 14.6704 49.7059 14.4359 50.6191 13.7412L50.0137 12.9453L49.4082 12.1494C48.9214 12.5197 48.3049 12.6803 46.4683 13.0949L46.6885 14.0703ZM50.0137 12.9453L50.6068 13.7505C50.7486 13.646 50.8793 13.5324 50.9993 13.413L50.2939 12.7041L49.5886 11.9953C49.5336 12.05 49.4775 12.0983 49.4206 12.1402L50.0137 12.9453ZM50.2939 12.7041L51.1884 13.1513L51.1893 13.1494L50.2949 12.7021L49.4005 12.2549L49.3995 12.2569L50.2939 12.7041ZM50.2949 12.7021L49.5946 11.9883C49.6045 11.9786 49.6133 11.9704 49.6206 11.9637C49.6279 11.9571 49.6342 11.9516 49.6389 11.9475C49.6436 11.9434 49.6474 11.9403 49.6495 11.9385C49.6515 11.9368 49.6531 11.9355 49.6526 11.9359C49.6526 11.9359 49.6519 11.9364 49.6513 11.937C49.6506 11.9375 49.6495 11.9385 49.6482 11.9396C49.6455 11.9418 49.6413 11.9453 49.6362 11.9497C49.631 11.9542 49.6243 11.96 49.6166 11.967C49.6089 11.974 49.5997 11.9826 49.5894 11.9926L50.2871 12.709L50.9849 13.4253C50.9752 13.4348 50.9665 13.4428 50.9594 13.4492C50.9524 13.4556 50.9463 13.4609 50.9418 13.4648C50.9374 13.4686 50.9338 13.4716 50.9319 13.4732C50.9302 13.4747 50.9287 13.4759 50.9295 13.4752C50.9296 13.4751 50.9319 13.4732 50.9345 13.471C50.9374 13.4686 50.9418 13.4649 50.9472 13.4603C50.9525 13.4556 50.9594 13.4495 50.9674 13.4423C50.9753 13.4351 50.9848 13.4263 50.9953 13.416L50.2949 12.7021ZM50.2871 12.709L50.979 13.431C51.6702 12.7687 52.1918 11.8124 52.936 10.477L52.0625 9.99023L51.189 9.50343C50.3796 10.9557 50.0169 11.5829 49.5952 11.987L50.2871 12.709ZM52.0625 9.99023L52.9357 10.4776L53.756 9.00787L52.8828 8.52051L52.0096 8.03314L51.1893 9.50287L52.0625 9.99023ZM52.8828 8.52051L53.7562 9.00757C55.3563 6.13833 56.503 4.08667 57.5354 2.73836C58.5673 1.39074 59.2959 1.00006 60.0001 1L60 0L59.9999 -1C58.3366 -0.999858 57.0904 0.0298088 55.9475 1.52244C54.805 3.01437 53.5768 5.22287 52.0094 8.03345L52.8828 8.52051ZM50.2197 12.7705L49.5458 12.0317C49.4863 12.086 49.4465 12.1199 49.4127 12.1453L50.0127 12.9453L50.6127 13.7453C50.7242 13.6616 50.8201 13.5764 50.8936 13.5093L50.2197 12.7705ZM50.0127 12.9453L50.6181 13.7412C50.7236 13.661 50.8159 13.5797 50.8913 13.5115L50.2197 12.7705L49.5482 12.0295C49.4888 12.0833 49.4455 12.1203 49.4072 12.1494L50.0127 12.9453ZM50.2871 12.709L49.5952 11.987C49.5865 11.9954 49.5873 11.9941 49.5482 12.0295L50.2197 12.7705L50.8913 13.5115C50.8971 13.5062 50.9436 13.4649 50.979 13.431L50.2871 12.709ZM50.2197 12.7705L50.8936 13.5093C50.9019 13.5018 50.902 13.5019 50.9221 13.4838C50.9366 13.4708 50.9595 13.45 50.9849 13.4253L50.2871 12.709L49.5894 11.9926C49.5929 11.9892 49.5934 11.9889 49.5853 11.9962C49.5807 12.0003 49.5775 12.0031 49.57 12.0099C49.5636 12.0156 49.5551 12.0233 49.5458 12.0317L50.2197 12.7705Z" fill="white" mask="url(#path-1-inside-1_2963_64007)"/>
<path d="M60.001 0.5C60.9448 0.500151 61.8028 1.05033 62.8623 2.43359C63.9223 3.81757 65.0899 5.90838 66.6816 8.7627L67.499 10.2334C68.3773 11.8094 68.8807 12.7321 69.6836 13.3428V13.3438C70.4922 13.9567 71.4961 14.1724 73.2002 14.5576L74.791 14.918C77.8826 15.6167 80.1432 16.1293 81.7275 16.7539C83.2038 17.336 83.9804 17.972 84.3174 18.8408L84.3789 19.0186C84.6799 19.9851 84.4315 21.0253 83.5029 22.501C82.5709 23.9821 81.0279 25.7875 78.9209 28.25L77.8359 29.5176C76.7432 30.7936 76.0757 31.5627 75.7451 32.4619L75.6836 32.6445C75.3794 33.6253 75.4896 34.6747 75.6631 36.4902L75.6641 36.4951L75.667 36.5264C72.4606 37.2255 69.1323 37.1572 65.9551 36.3193C62.6367 35.4442 59.5866 33.76 57.0791 31.417C54.5717 29.0741 52.6849 26.1457 51.5869 22.8945C50.5052 19.6912 50.224 16.2725 50.7646 12.9365C51.333 12.3371 51.797 11.4949 52.5 10.2334L52.499 10.2324L53.3193 8.76367C54.9113 5.90901 56.0786 3.81768 57.1387 2.43359C58.1983 1.05007 59.057 0.5 60.001 0.5Z" fill="#8D7FFF" stroke="white"/>
<mask id="path-4-inside-2_2963_64007" fill="white">
<path d="M12.2227 31.1722C12.6709 30.7456 13.0259 30.1121 13.6504 28.9916L14.3057 27.8158C16.8397 23.2719 18.106 20.9995 20 20.9994C21.8941 20.9994 23.1602 23.2718 25.6943 27.8158L26.3486 28.9916C27.0686 30.2834 27.4283 30.9299 27.9883 31.3558C28.5503 31.7818 29.2506 31.9393 30.6484 32.2552L31.9209 32.5433C36.8406 33.6552 39.3006 34.2134 39.8848 36.0951C40.4708 37.9771 38.7946 39.9397 35.4404 43.8597L34.5723 44.8734C33.6183 45.9873 33.1427 46.5458 32.9287 47.2338C32.7148 47.9237 32.7867 48.6678 32.9287 50.1537L32.9688 50.5336H32.9678L33.0635 51.5072C33.5695 56.7412 33.8231 59.3578 32.2891 60.5219C30.759 61.6815 28.4545 60.6212 23.8486 58.5013L22.6592 57.9535C21.3492 57.3495 20.695 57.0492 20.001 57.0492C19.307 57.0492 18.6528 57.3495 17.3447 57.9535L16.1504 58.5013C11.5463 60.6233 9.242 61.6819 7.70996 60.5199C6.17807 59.3578 6.43247 56.7411 6.93848 51.5072L7.07031 50.1537C7.21431 48.6678 7.28621 47.9237 7.07227 47.2338C6.85826 46.5458 6.38068 45.9873 5.42871 44.8734L4.56055 43.8597C1.20643 39.9377 -0.469763 37.9751 0.114258 36.0951C0.700503 34.2135 3.16047 33.6572 8.08008 32.5433L9.35059 32.2552C10.7505 31.9393 11.4508 31.7818 12.0107 31.3558C12.0785 31.3059 12.1412 31.2498 12.2021 31.1918C12.1993 31.1944 12.1962 31.1969 12.1934 31.1996C12.2023 31.1913 12.2119 31.1836 12.2207 31.1752C12.2199 31.176 12.2186 31.1763 12.2178 31.1771C12.2194 31.1755 12.221 31.1739 12.2227 31.1722ZM12.1934 31.1996C12.1348 31.2541 12.0744 31.3074 12.0098 31.3558C12.0736 31.3073 12.1339 31.2545 12.1934 31.1996ZM12.2363 31.1615C12.2315 31.1663 12.2256 31.1704 12.2207 31.1752C12.2215 31.1744 12.2218 31.173 12.2227 31.1722C12.2268 31.1682 12.2322 31.1656 12.2363 31.1615Z"/>
</mask>
<path d="M12.2227 31.1722C12.6709 30.7456 13.0259 30.1121 13.6504 28.9916L14.3057 27.8158C16.8397 23.2719 18.106 20.9995 20 20.9994C21.8941 20.9994 23.1602 23.2718 25.6943 27.8158L26.3486 28.9916C27.0686 30.2834 27.4283 30.9299 27.9883 31.3558C28.5503 31.7818 29.2506 31.9393 30.6484 32.2552L31.9209 32.5433C36.8406 33.6552 39.3006 34.2134 39.8848 36.0951C40.4708 37.9771 38.7946 39.9397 35.4404 43.8597L34.5723 44.8734C33.6183 45.9873 33.1427 46.5458 32.9287 47.2338C32.7148 47.9237 32.7867 48.6678 32.9287 50.1537L32.9688 50.5336H32.9678L33.0635 51.5072C33.5695 56.7412 33.8231 59.3578 32.2891 60.5219C30.759 61.6815 28.4545 60.6212 23.8486 58.5013L22.6592 57.9535C21.3492 57.3495 20.695 57.0492 20.001 57.0492C19.307 57.0492 18.6528 57.3495 17.3447 57.9535L16.1504 58.5013C11.5463 60.6233 9.242 61.6819 7.70996 60.5199C6.17807 59.3578 6.43247 56.7411 6.93848 51.5072L7.07031 50.1537C7.21431 48.6678 7.28621 47.9237 7.07227 47.2338C6.85826 46.5458 6.38068 45.9873 5.42871 44.8734L4.56055 43.8597C1.20643 39.9377 -0.469763 37.9751 0.114258 36.0951C0.700503 34.2135 3.16047 33.6572 8.08008 32.5433L9.35059 32.2552C10.7505 31.9393 11.4508 31.7818 12.0107 31.3558C12.0785 31.3059 12.1412 31.2498 12.2021 31.1918C12.1993 31.1944 12.1962 31.1969 12.1934 31.1996C12.2023 31.1913 12.2119 31.1836 12.2207 31.1752C12.2199 31.176 12.2186 31.1763 12.2178 31.1771C12.2194 31.1755 12.221 31.1739 12.2227 31.1722ZM12.1934 31.1996C12.1348 31.2541 12.0744 31.3074 12.0098 31.3558C12.0736 31.3073 12.1339 31.2545 12.1934 31.1996ZM12.2363 31.1615C12.2315 31.1663 12.2256 31.1704 12.2207 31.1752C12.2215 31.1744 12.2218 31.173 12.2227 31.1722C12.2268 31.1682 12.2322 31.1656 12.2363 31.1615Z" fill="#FFD700"/>
<path d="M13.6504 28.9916L12.7769 28.5048L12.7769 28.5048L13.6504 28.9916ZM14.3057 27.8158L13.4323 27.3287L13.4322 27.329L14.3057 27.8158ZM20 20.9994V19.9994H19.9999L20 20.9994ZM25.6943 27.8158L26.5682 27.3295L26.5677 27.3287L25.6943 27.8158ZM26.3486 28.9916L25.4748 29.4778L25.4751 29.4784L26.3486 28.9916ZM27.9883 31.3558L27.3828 32.1517L27.3843 32.1528L27.9883 31.3558ZM30.6484 32.2552L30.8692 31.2799L30.8689 31.2799L30.6484 32.2552ZM31.9209 32.5433L31.7001 33.5187L31.7004 33.5187L31.9209 32.5433ZM39.8848 36.0951L38.9297 36.3916L38.93 36.3924L39.8848 36.0951ZM35.4404 43.8597L36.1999 44.5102L36.2002 44.5099L35.4404 43.8597ZM34.5723 44.8734L33.8128 44.2229L33.8127 44.2229L34.5723 44.8734ZM32.9287 47.2338L31.9738 46.9367L31.9736 46.9376L32.9287 47.2338ZM32.9287 50.1537L31.9332 50.2488L31.9342 50.2585L32.9287 50.1537ZM32.9688 50.5336V51.5336H34.0797L33.9632 50.4288L32.9688 50.5336ZM32.9678 50.5336V49.5336H31.8647L31.9726 50.6314L32.9678 50.5336ZM33.0635 51.5072L34.0588 51.411L34.0587 51.4094L33.0635 51.5072ZM32.2891 60.5219L32.8931 61.3188L32.8935 61.3185L32.2891 60.5219ZM23.8486 58.5013L23.4303 59.4096L23.4305 59.4097L23.8486 58.5013ZM22.6592 57.9535L22.2405 58.8616L22.2408 58.8618L22.6592 57.9535ZM20.001 57.0492L20.001 56.0492H20.001V57.0492ZM17.3447 57.9535L17.7617 58.8624L17.764 58.8614L17.3447 57.9535ZM16.1504 58.5013L15.7335 57.5924L15.7318 57.5932L16.1504 58.5013ZM7.70996 60.5199L7.1056 61.3166L7.10566 61.3167L7.70996 60.5199ZM6.93848 51.5072L5.94319 51.4103L5.94312 51.411L6.93848 51.5072ZM7.07031 50.1537L8.0656 50.2506L8.06565 50.2501L7.07031 50.1537ZM7.07227 47.2338L8.0274 46.9376L8.02714 46.9367L7.07227 47.2338ZM5.42871 44.8734L6.18892 44.2237L6.18823 44.2229L5.42871 44.8734ZM4.56055 43.8597L3.80056 44.5097L3.80103 44.5102L4.56055 43.8597ZM0.114258 36.0951L-0.840477 35.7976L-0.840724 35.7984L0.114258 36.0951ZM8.08008 32.5433L8.3009 33.5186L8.30121 33.5186L8.08008 32.5433ZM9.35059 32.2552L9.13042 31.2798L9.12945 31.28L9.35059 32.2552ZM12.0107 31.3558L11.4177 30.5506L11.4115 30.5552L11.4053 30.5599L12.0107 31.3558ZM12.2021 31.1918L12.8918 31.9159L11.5205 30.4601L12.2021 31.1918ZM12.2178 31.1771L11.5204 30.4604L12.9053 31.9033L12.2178 31.1771ZM12.0098 31.3558L11.4043 30.5599L12.6098 32.1558L12.0098 31.3558ZM12.2363 31.1615L12.9423 31.8697L11.536 30.4477L12.2363 31.1615ZM12.2227 31.1722L12.9121 31.8966C13.4968 31.34 13.9317 30.5411 14.5239 29.4784L13.6504 28.9916L12.7769 28.5048C12.1202 29.6832 11.8449 30.1512 11.5332 30.4479L12.2227 31.1722ZM13.6504 28.9916L14.5239 29.4784L15.1792 28.3026L14.3057 27.8158L13.4322 27.329L12.7769 28.5048L13.6504 28.9916ZM14.3057 27.8158L15.179 28.3029C16.4624 26.0016 17.3717 24.376 18.1868 23.3117C19.0013 22.2481 19.5326 21.9994 20.0001 21.9994L20 20.9994L19.9999 19.9994C18.5734 19.9995 17.5245 20.887 16.5989 22.0956C15.6738 23.3036 14.683 25.0861 13.4323 27.3287L14.3057 27.8158ZM20 20.9994V21.9994C20.4675 21.9994 20.9987 22.248 21.8132 23.3116C22.6283 24.3759 23.5376 26.0015 24.821 28.3029L25.6943 27.8158L26.5677 27.3287C25.317 25.086 24.3262 23.3035 23.4011 22.0956C22.4755 20.8869 21.4266 19.9994 20 19.9994V20.9994ZM25.6943 27.8158L24.8205 28.3021L25.4748 29.4778L26.3486 28.9916L27.2224 28.5053L26.5682 27.3295L25.6943 27.8158ZM26.3486 28.9916L25.4751 29.4784C26.1513 30.6917 26.6171 31.5692 27.3829 32.1517L27.9883 31.3558L28.5937 30.5599C28.2395 30.2905 27.9858 29.8751 27.2221 28.5048L26.3486 28.9916ZM27.9883 31.3558L27.3843 32.1528C28.1588 32.7398 29.1168 32.9343 30.428 33.2306L30.6484 32.2552L30.8689 31.2799C29.3843 30.9443 28.9418 30.8237 28.5923 30.5589L27.9883 31.3558ZM30.6484 32.2552L30.4276 33.2306L31.7001 33.5187L31.9209 32.5433L32.1417 31.568L30.8692 31.2799L30.6484 32.2552ZM31.9209 32.5433L31.7004 33.5187C34.1941 34.0823 35.9478 34.4822 37.1618 34.9608C38.3572 35.4321 38.7713 35.8813 38.9297 36.3916L39.8848 36.0951L40.8398 35.7986C40.414 34.4272 39.3061 33.6564 37.8954 33.1002C36.5035 32.5514 34.5674 32.1162 32.1413 31.5679L31.9209 32.5433ZM39.8848 36.0951L38.93 36.3924C39.0924 36.914 39.0035 37.5526 38.2938 38.6806C37.5772 39.8194 36.379 41.2247 34.6806 43.2096L35.4404 43.8597L36.2002 44.5099C37.856 42.5748 39.173 41.0387 39.9865 39.7457C40.8069 38.4419 41.2631 37.1582 40.8396 35.7978L39.8848 36.0951ZM35.4404 43.8597L34.6809 43.2093L33.8128 44.2229L34.5723 44.8734L35.3318 45.5239L36.1999 44.5102L35.4404 43.8597ZM34.5723 44.8734L33.8127 44.2229C32.9116 45.2752 32.263 46.007 31.9738 46.9367L32.9287 47.2338L33.8836 47.5308C34.0224 47.0846 34.3251 46.6994 35.3318 45.5239L34.5723 44.8734ZM32.9287 47.2338L31.9736 46.9376C31.6863 47.8641 31.7993 48.8468 31.9332 50.2488L32.9287 50.1537L33.9242 50.0586C33.7742 48.4889 33.7433 47.9833 33.8839 47.5299L32.9287 47.2338ZM32.9287 50.1537L31.9342 50.2585L31.9743 50.6384L32.9688 50.5336L33.9632 50.4288L33.9232 50.0489L32.9287 50.1537ZM32.9688 50.5336V49.5336H32.9678V50.5336V51.5336H32.9688V50.5336ZM32.9678 50.5336L31.9726 50.6314L32.0683 51.605L33.0635 51.5072L34.0587 51.4094L33.963 50.4357L32.9678 50.5336ZM33.0635 51.5072L32.0681 51.6034C32.3242 54.2526 32.5035 56.1301 32.4423 57.4961C32.3812 58.86 32.0887 59.4186 31.6846 59.7252L32.2891 60.5219L32.8935 61.3185C34.0235 60.4611 34.3712 59.1293 34.4403 57.5855C34.5093 56.0436 34.3087 53.9958 34.0588 51.411L33.0635 51.5072ZM32.2891 60.5219L31.685 59.7249C31.2997 60.0169 30.7376 60.1356 29.4979 59.7802C28.2461 59.4212 26.6015 58.6675 24.2667 57.5929L23.8486 58.5013L23.4305 59.4097C25.7017 60.4551 27.5123 61.2914 28.9467 61.7027C30.3932 62.1175 31.7483 62.1865 32.8931 61.3188L32.2891 60.5219ZM23.8486 58.5013L24.267 57.5931L23.0775 57.0452L22.6592 57.9535L22.2408 58.8618L23.4303 59.4096L23.8486 58.5013ZM22.6592 57.9535L23.0779 57.0454C21.8504 56.4795 20.9655 56.0492 20.001 56.0492L20.001 57.0492L20.0009 58.0492C20.4244 58.0492 20.848 58.2196 22.2405 58.8616L22.6592 57.9535ZM20.001 57.0492V56.0492C19.0362 56.0492 18.1514 56.4795 16.9255 57.0456L17.3447 57.9535L17.764 58.8614C19.1541 58.2195 19.5777 58.0492 20.001 58.0492V57.0492ZM17.3447 57.9535L16.9278 57.0446L15.7335 57.5924L16.1504 58.5013L16.5673 59.4103L17.7617 58.8624L17.3447 57.9535ZM16.1504 58.5013L15.7318 57.5932C13.3982 58.6687 11.7542 59.4224 10.5029 59.7807C9.26419 60.1355 8.70113 60.0166 8.31427 59.7231L7.70996 60.5199L7.10566 61.3167C8.25083 62.1852 9.60595 62.118 11.0535 61.7035C12.4883 61.2925 14.2985 60.4559 16.569 59.4095L16.1504 58.5013ZM7.70996 60.5199L8.31433 59.7232C7.91186 59.4179 7.61969 58.8604 7.55902 57.4961C7.49829 56.1302 7.67772 54.2526 7.93384 51.6034L6.93848 51.5072L5.94312 51.411C5.69323 53.9957 5.49246 56.0434 5.561 57.5849C5.6296 59.1279 5.97617 60.4599 7.1056 61.3166L7.70996 60.5199ZM6.93848 51.5072L7.93377 51.6041L8.0656 50.2506L7.07031 50.1537L6.07502 50.0567L5.94319 51.4103L6.93848 51.5072ZM7.07031 50.1537L8.06565 50.2501C8.20161 48.8472 8.31488 47.8647 8.0274 46.9376L7.07227 47.2338L6.11713 47.5299C6.25755 47.9828 6.227 48.4884 6.07498 50.0572L7.07031 50.1537ZM7.07227 47.2338L8.02714 46.9367C7.73792 46.007 7.08653 45.2741 6.18892 44.2237L5.42871 44.8734L4.6685 45.5231C5.67484 46.7006 5.97861 47.0846 6.11739 47.5308L7.07227 47.2338ZM5.42871 44.8734L6.18823 44.2229L5.32006 43.2093L4.56055 43.8597L3.80103 44.5102L4.6692 45.5239L5.42871 44.8734ZM4.56055 43.8597L5.32053 43.2098C3.62214 41.2238 2.42384 39.818 1.70691 38.679C0.996597 37.5504 0.907542 36.9123 1.06924 36.3918L0.114258 36.0951L-0.840724 35.7984C-1.26305 37.1579 -0.806019 38.4411 0.0142837 39.7443C0.827979 41.0371 2.14483 42.5736 3.80056 44.5097L4.56055 43.8597ZM0.114258 36.0951L1.06899 36.3926C1.22812 35.8818 1.64299 35.4328 2.83875 34.9617C4.05332 34.4831 5.80708 34.0833 8.3009 33.5186L8.08008 32.5433L7.85925 31.568C5.43347 32.1173 3.49744 32.5525 2.10556 33.1009C0.694875 33.6568 -0.413356 34.4267 -0.840477 35.7976L0.114258 36.0951ZM8.08008 32.5433L8.30121 33.5186L9.57172 33.2305L9.35059 32.2552L9.12945 31.28L7.85894 31.5681L8.08008 32.5433ZM9.35059 32.2552L9.57075 33.2307C10.8833 32.9345 11.8428 32.74 12.6162 32.1517L12.0107 31.3558L11.4053 30.5599C11.0587 30.8236 10.6177 30.9441 9.13042 31.2798L9.35059 32.2552ZM12.0107 31.3558L12.6038 32.161C12.7205 32.075 12.818 31.9862 12.8918 31.9159L12.2021 31.1918L11.5125 30.4676C11.4645 30.5133 11.4365 30.5368 11.4177 30.5506L12.0107 31.3558ZM12.2021 31.1918L11.5205 30.4601C11.5276 30.4535 11.5334 30.4483 11.5367 30.4453C11.5398 30.4426 11.5422 30.4405 11.5413 30.4413C11.5413 30.4413 11.5402 30.4423 11.5391 30.4432C11.538 30.4442 11.5362 30.4458 11.534 30.4477C11.5298 30.4514 11.5231 30.4574 11.515 30.4648L12.1934 31.1996L12.8717 31.9343C12.8651 31.9404 12.8599 31.9451 12.8571 31.9475C12.8547 31.9496 12.8526 31.9515 12.8542 31.9501C12.8548 31.9496 12.8587 31.9462 12.8632 31.9422C12.868 31.9379 12.8752 31.9314 12.8838 31.9235L12.2021 31.1918ZM12.1934 31.1996L12.8752 31.9311C12.8678 31.9379 12.8623 31.9428 12.8603 31.9446C12.8592 31.9456 12.8575 31.947 12.862 31.9431C12.8648 31.9407 12.872 31.9345 12.8803 31.9271C12.8889 31.9194 12.9008 31.9085 12.9145 31.8954L12.2207 31.1752L11.527 30.455C11.5362 30.446 11.5436 30.4394 11.5477 30.4357C11.5514 30.4324 11.554 30.4302 11.5522 30.4317C11.5518 30.4321 11.5515 30.4323 11.5507 30.433C11.5501 30.4336 11.5492 30.4343 11.5482 30.4352C11.5462 30.4369 11.5433 30.4394 11.54 30.4423C11.5334 30.4481 11.5233 30.4571 11.5115 30.4681L12.1934 31.1996ZM12.2207 31.1752L11.5322 30.4499C11.5633 30.4204 11.5926 30.3964 11.6179 30.3773C11.6431 30.3583 11.6653 30.3434 11.6825 30.3324C11.6995 30.3216 11.7136 30.3134 11.7219 30.3086C11.7262 30.3061 11.7296 30.3042 11.7317 30.303C11.7336 30.302 11.7352 30.3011 11.7349 30.3013C11.7349 30.3013 11.7349 30.3013 11.7349 30.3013C11.7349 30.3013 11.7349 30.3013 11.7348 30.3013C11.7348 30.3013 11.7347 30.3014 11.7347 30.3014C11.7345 30.3015 11.7343 30.3016 11.734 30.3018C11.7335 30.3021 11.7326 30.3026 11.7315 30.3032C11.7293 30.3044 11.7258 30.3064 11.7214 30.3089C11.7129 30.3137 11.6987 30.322 11.6815 30.333C11.6642 30.344 11.6418 30.359 11.6164 30.3781C11.591 30.3973 11.5615 30.4214 11.5302 30.451L12.2178 31.1771L12.9053 31.9033C12.8743 31.9327 12.845 31.9566 12.8198 31.9756C12.7947 31.9945 12.7725 32.0093 12.7554 32.0202C12.7385 32.031 12.7245 32.0391 12.7163 32.0439C12.7121 32.0463 12.7086 32.0482 12.7066 32.0493C12.7048 32.0504 12.7032 32.0512 12.7036 32.051C12.7036 32.051 12.7037 32.051 12.7039 32.0509C12.704 32.0508 12.7042 32.0507 12.7045 32.0505C12.7051 32.0502 12.706 32.0497 12.7072 32.049C12.7094 32.0478 12.713 32.0458 12.7174 32.0433C12.726 32.0383 12.7402 32.03 12.7575 32.019C12.7749 32.0079 12.7975 31.9928 12.8228 31.9736C12.8483 31.9543 12.8779 31.9301 12.9092 31.9004L12.2207 31.1752ZM12.2178 31.1771L12.9151 31.8939C12.9199 31.8892 12.9239 31.8852 12.9266 31.8826C12.9291 31.8801 12.9312 31.8779 12.9316 31.8775C12.9325 31.8766 12.9314 31.8777 12.9302 31.8789C12.9288 31.8803 12.926 31.8831 12.9225 31.8866L12.2227 31.1722L11.5228 30.4579C11.5185 30.4622 11.5149 30.4658 11.5127 30.468C11.5115 30.4692 11.5106 30.4701 11.51 30.4707C11.5097 30.471 11.5094 30.4713 11.5092 30.4715C11.5091 30.4716 11.5091 30.4717 11.509 30.4717C11.5089 30.4718 11.5089 30.4718 11.5089 30.4718C11.5085 30.4723 11.5098 30.471 11.5114 30.4693C11.5133 30.4674 11.5164 30.4643 11.5204 30.4604L12.2178 31.1771ZM12.1934 31.1996L11.5115 30.4681C11.4654 30.5111 11.4341 30.5376 11.4098 30.5558L12.0098 31.3558L12.6098 32.1558C12.7146 32.0772 12.8042 31.9972 12.8752 31.9311L12.1934 31.1996ZM12.0098 31.3558L12.6152 32.1517C12.7144 32.0763 12.8006 32 12.8717 31.9343L12.1934 31.1996L11.515 30.4648C11.4672 30.509 11.4328 30.5383 11.4043 30.5599L12.0098 31.3558ZM12.2363 31.1615L11.536 30.4477C11.5539 30.4302 11.5687 30.417 11.5772 30.4097C11.5816 30.4059 11.585 30.4029 11.587 30.4013C11.5888 30.3997 11.5901 30.3986 11.5895 30.3992C11.5895 30.3992 11.5887 30.3999 11.588 30.4004C11.5872 30.4011 11.5861 30.402 11.5847 30.4032C11.582 30.4054 11.5777 30.409 11.5726 30.4134C11.5627 30.422 11.5462 30.4364 11.527 30.455L12.2207 31.1752L12.9145 31.8954C12.8976 31.9116 12.8838 31.9237 12.8765 31.93C12.8727 31.9333 12.8697 31.9357 12.8684 31.9369C12.8673 31.9378 12.8662 31.9387 12.8676 31.9375C12.8683 31.9369 12.8709 31.9347 12.8741 31.9321C12.8774 31.9293 12.8822 31.9253 12.8879 31.9203C12.8989 31.9107 12.9164 31.8952 12.9367 31.8753L12.2363 31.1615ZM12.2207 31.1752L12.9092 31.9004C12.9503 31.8614 12.9832 31.8236 13.0087 31.7908C13.0342 31.7583 13.0537 31.7292 13.0677 31.707C13.0816 31.6849 13.0919 31.6665 13.0979 31.6557C13.1009 31.6501 13.1034 31.6456 13.1048 31.6428C13.1056 31.6414 13.1062 31.6402 13.1066 31.6395C13.1068 31.6391 13.1069 31.6388 13.107 31.6386C13.1071 31.6385 13.1072 31.6383 13.1072 31.6383C13.1074 31.6379 13.1064 31.6399 13.1051 31.6423C13.1037 31.6449 13.1014 31.6493 13.0984 31.6547C13.0926 31.6652 13.0825 31.6832 13.0689 31.7049C13.0551 31.7268 13.0358 31.7556 13.0107 31.7878C12.9854 31.8203 12.9529 31.8578 12.9121 31.8966L12.2227 31.1722L11.5332 30.4479C11.4922 30.4869 11.4595 30.5246 11.4341 30.5573C11.4087 30.5897 11.3893 30.6188 11.3754 30.6409C11.3615 30.6629 11.3513 30.6812 11.3454 30.6919C11.3423 30.6975 11.3399 30.702 11.3385 30.7047C11.3377 30.7061 11.3371 30.7073 11.3368 30.708C11.3366 30.7083 11.3364 30.7086 11.3363 30.7088C11.3363 30.7089 11.3362 30.709 11.3362 30.709C11.3362 30.709 11.3362 30.7091 11.3362 30.7091C11.3362 30.7091 11.3362 30.7091 11.3362 30.7091C11.336 30.7095 11.337 30.7074 11.3383 30.705C11.3397 30.7024 11.3421 30.698 11.3451 30.6925C11.3509 30.6819 11.3611 30.6639 11.3748 30.642C11.3886 30.62 11.408 30.5912 11.4332 30.5589C11.4586 30.5264 11.4913 30.4888 11.5322 30.4499L12.2207 31.1752ZM12.2227 31.1722L12.9225 31.8866C12.903 31.9057 12.885 31.9217 12.8697 31.9346C12.8544 31.9475 12.8411 31.9579 12.831 31.9656C12.8209 31.9733 12.8128 31.9791 12.8083 31.9824C12.8043 31.9852 12.8008 31.9877 12.8024 31.9865C12.8027 31.9863 12.8077 31.9828 12.8136 31.9786C12.8199 31.9741 12.8297 31.967 12.8415 31.958C12.8533 31.9489 12.8683 31.937 12.8851 31.9226C12.902 31.9081 12.9214 31.8905 12.9423 31.8697L12.2363 31.1615L11.5304 30.4532C11.5502 30.4335 11.5686 30.4168 11.5844 30.4033C11.6001 30.3899 11.614 30.3789 11.6246 30.3707C11.6352 30.3626 11.6439 30.3563 11.649 30.3526C11.6516 30.3508 11.6537 30.3493 11.6549 30.3484C11.656 30.3477 11.6569 30.3471 11.6566 30.3473C11.6566 30.3473 11.6562 30.3476 11.6558 30.3478C11.6554 30.3481 11.6547 30.3486 11.654 30.3491C11.6525 30.3502 11.6501 30.3519 11.6471 30.3539C11.6414 30.358 11.6321 30.3647 11.6209 30.3732C11.6096 30.3818 11.5952 30.3931 11.5788 30.407C11.5624 30.4208 11.5434 30.4378 11.5228 30.4579L12.2227 31.1722Z" fill="white" mask="url(#path-4-inside-2_2963_64007)"/>
<path d="M20.001 21.4994C20.7081 21.4995 21.3688 21.9077 22.2109 23.0072C23.0534 24.1073 23.9826 25.7724 25.2578 28.059V28.058L25.9121 29.2347C26.6104 30.4877 27.0237 31.2491 27.6865 31.7533V31.7543C28.3547 32.2608 29.1841 32.4373 30.5391 32.7435L31.8105 33.0306V33.0316C34.2873 33.5914 36.0871 33.9993 37.3457 34.4955C38.5949 34.988 39.183 35.5178 39.4082 36.2435V36.2445C39.6357 36.9757 39.4549 37.7752 38.7178 38.9467C37.977 40.1239 36.7493 41.5621 35.0615 43.5345L34.1934 44.5482C33.266 45.6311 32.7038 46.2764 32.4521 47.0853H32.4512C32.2039 47.8825 32.291 48.7334 32.4258 50.142C29.9029 50.6778 27.2878 50.6171 24.79 49.9584C22.1514 49.2625 19.7264 47.923 17.7324 46.0599C15.7384 44.1968 14.2373 41.8681 13.3643 39.2826C12.5068 36.7435 12.2827 34.0347 12.707 31.39C13.1633 30.8988 13.538 30.2197 14.0869 29.2347L14.7432 28.059C16.0183 25.7724 16.9475 24.1073 17.79 23.0072C18.6323 21.9075 19.2937 21.4994 20.001 21.4994Z" fill="#8D7FFF" stroke="white"/>
<mask id="path-7-inside-3_2963_64007" fill="white">
<path d="M92.2227 31.1729C92.6709 30.7462 93.0259 30.1127 93.6504 28.9922L94.3057 27.8164C96.8397 23.2725 98.106 21.0001 100 21C101.894 21 103.16 23.2724 105.694 27.8164L106.349 28.9922C107.069 30.284 107.428 30.9305 107.988 31.3564C108.55 31.7824 109.251 31.9399 110.648 32.2559L111.921 32.5439C116.841 33.6558 119.301 34.214 119.885 36.0957C120.471 37.9777 118.795 39.9403 115.44 43.8604L114.572 44.874C113.618 45.9879 113.143 46.5464 112.929 47.2344C112.715 47.9243 112.787 48.6685 112.929 50.1543L112.969 50.5342H112.968L113.063 51.5078C113.569 56.7418 113.823 59.3585 112.289 60.5225C110.759 61.6821 108.455 60.6218 103.849 58.502L102.659 57.9541C101.349 57.3501 100.695 57.0498 100.001 57.0498C99.307 57.0498 98.6528 57.3501 97.3447 57.9541L96.1504 58.502C91.5463 60.6239 89.242 61.6825 87.71 60.5205C86.1781 59.3584 86.4325 56.7417 86.9385 51.5078L87.0703 50.1543C87.2143 48.6684 87.2862 47.9243 87.0723 47.2344C86.8583 46.5464 86.3807 45.988 85.4287 44.874L84.5605 43.8604C81.2064 39.9383 79.5302 37.9757 80.1143 36.0957C80.7005 34.2141 83.1605 33.6578 88.0801 32.5439L89.3506 32.2559C90.7505 31.9399 91.4508 31.7824 92.0107 31.3564C92.0785 31.3065 92.1412 31.2504 92.2021 31.1924C92.1993 31.1951 92.1962 31.1975 92.1934 31.2002C92.2023 31.1919 92.2119 31.1843 92.2207 31.1758C92.2199 31.1766 92.2186 31.1769 92.2178 31.1777C92.2194 31.1761 92.221 31.1745 92.2227 31.1729ZM92.1934 31.2002C92.1348 31.2548 92.0744 31.308 92.0098 31.3564C92.0736 31.3079 92.1339 31.2551 92.1934 31.2002ZM92.2363 31.1621C92.2315 31.1669 92.2256 31.1711 92.2207 31.1758C92.2215 31.175 92.2218 31.1736 92.2227 31.1729C92.2268 31.1688 92.2322 31.1662 92.2363 31.1621Z"/>
</mask>
<path d="M92.2227 31.1729C92.6709 30.7462 93.0259 30.1127 93.6504 28.9922L94.3057 27.8164C96.8397 23.2725 98.106 21.0001 100 21C101.894 21 103.16 23.2724 105.694 27.8164L106.349 28.9922C107.069 30.284 107.428 30.9305 107.988 31.3564C108.55 31.7824 109.251 31.9399 110.648 32.2559L111.921 32.5439C116.841 33.6558 119.301 34.214 119.885 36.0957C120.471 37.9777 118.795 39.9403 115.44 43.8604L114.572 44.874C113.618 45.9879 113.143 46.5464 112.929 47.2344C112.715 47.9243 112.787 48.6685 112.929 50.1543L112.969 50.5342H112.968L113.063 51.5078C113.569 56.7418 113.823 59.3585 112.289 60.5225C110.759 61.6821 108.455 60.6218 103.849 58.502L102.659 57.9541C101.349 57.3501 100.695 57.0498 100.001 57.0498C99.307 57.0498 98.6528 57.3501 97.3447 57.9541L96.1504 58.502C91.5463 60.6239 89.242 61.6825 87.71 60.5205C86.1781 59.3584 86.4325 56.7417 86.9385 51.5078L87.0703 50.1543C87.2143 48.6684 87.2862 47.9243 87.0723 47.2344C86.8583 46.5464 86.3807 45.988 85.4287 44.874L84.5605 43.8604C81.2064 39.9383 79.5302 37.9757 80.1143 36.0957C80.7005 34.2141 83.1605 33.6578 88.0801 32.5439L89.3506 32.2559C90.7505 31.9399 91.4508 31.7824 92.0107 31.3564C92.0785 31.3065 92.1412 31.2504 92.2021 31.1924C92.1993 31.1951 92.1962 31.1975 92.1934 31.2002C92.2023 31.1919 92.2119 31.1843 92.2207 31.1758C92.2199 31.1766 92.2186 31.1769 92.2178 31.1777C92.2194 31.1761 92.221 31.1745 92.2227 31.1729ZM92.1934 31.2002C92.1348 31.2548 92.0744 31.308 92.0098 31.3564C92.0736 31.3079 92.1339 31.2551 92.1934 31.2002ZM92.2363 31.1621C92.2315 31.1669 92.2256 31.1711 92.2207 31.1758C92.2215 31.175 92.2218 31.1736 92.2227 31.1729C92.2268 31.1688 92.2322 31.1662 92.2363 31.1621Z" fill="#FFD700"/>
<path d="M93.6504 28.9922L92.7769 28.5054L92.7769 28.5054L93.6504 28.9922ZM94.3057 27.8164L93.4323 27.3293L93.4322 27.3296L94.3057 27.8164ZM100 21V20H99.9999L100 21ZM105.694 27.8164L106.568 27.3301L106.568 27.3293L105.694 27.8164ZM106.349 28.9922L105.475 29.4784L105.475 29.479L106.349 28.9922ZM107.988 31.3564L107.383 32.1523L107.384 32.1534L107.988 31.3564ZM110.648 32.2559L110.869 31.2805L110.869 31.2805L110.648 32.2559ZM111.921 32.5439L111.7 33.5193L111.7 33.5193L111.921 32.5439ZM119.885 36.0957L118.93 36.3922L118.93 36.393L119.885 36.0957ZM115.44 43.8604L116.2 44.5108L116.2 44.5105L115.44 43.8604ZM114.572 44.874L113.813 44.2235L113.813 44.2236L114.572 44.874ZM112.929 47.2344L111.974 46.9374L111.974 46.9382L112.929 47.2344ZM112.929 50.1543L111.933 50.2494L111.934 50.2591L112.929 50.1543ZM112.969 50.5342V51.5342H114.08L113.963 50.4294L112.969 50.5342ZM112.968 50.5342V49.5342H111.865L111.973 50.632L112.968 50.5342ZM113.063 51.5078L114.059 51.4116L114.059 51.41L113.063 51.5078ZM112.289 60.5225L112.893 61.3194L112.894 61.3191L112.289 60.5225ZM103.849 58.502L103.43 59.4102L103.431 59.4104L103.849 58.502ZM102.659 57.9541L102.24 58.8622L102.241 58.8624L102.659 57.9541ZM100.001 57.0498L100.001 56.0498H100.001V57.0498ZM97.3447 57.9541L97.7617 58.863L97.764 58.862L97.3447 57.9541ZM96.1504 58.502L95.7335 57.593L95.7318 57.5938L96.1504 58.502ZM87.71 60.5205L87.1056 61.3172L87.1057 61.3173L87.71 60.5205ZM86.9385 51.5078L85.9432 51.4109L85.9431 51.4116L86.9385 51.5078ZM87.0703 50.1543L88.0656 50.2512L88.0656 50.2508L87.0703 50.1543ZM87.0723 47.2344L88.0274 46.9382L88.0271 46.9374L87.0723 47.2344ZM85.4287 44.874L86.1889 44.2243L86.1882 44.2235L85.4287 44.874ZM84.5605 43.8604L83.8006 44.5103L83.801 44.5108L84.5605 43.8604ZM80.1143 36.0957L79.1595 35.7982L79.1593 35.799L80.1143 36.0957ZM88.0801 32.5439L88.3009 33.5193L88.3012 33.5192L88.0801 32.5439ZM89.3506 32.2559L89.1304 31.2804L89.1295 31.2806L89.3506 32.2559ZM92.0107 31.3564L91.4177 30.5513L91.4115 30.5558L91.4053 30.5605L92.0107 31.3564ZM92.2021 31.1924L92.8918 31.9166L91.5205 30.4607L92.2021 31.1924ZM92.2178 31.1777L91.5204 30.461L92.9053 31.9039L92.2178 31.1777ZM92.0098 31.3564L91.4043 30.5605L92.6098 32.1565L92.0098 31.3564ZM92.2363 31.1621L92.9423 31.8704L91.536 30.4483L92.2363 31.1621ZM92.2227 31.1729L92.9121 31.8972C93.4968 31.3407 93.9317 30.5417 94.5239 29.479L93.6504 28.9922L92.7769 28.5054C92.1202 29.6838 91.8449 30.1518 91.5332 30.4485L92.2227 31.1729ZM93.6504 28.9922L94.5239 29.479L95.1792 28.3032L94.3057 27.8164L93.4322 27.3296L92.7769 28.5054L93.6504 28.9922ZM94.3057 27.8164L95.179 28.3035C96.4624 26.0022 97.3717 24.3766 98.1868 23.3123C99.0013 22.2487 99.5326 22 100 22L100 21L99.9999 20C98.5734 20.0001 97.5245 20.8876 96.5989 22.0963C95.6738 23.3042 94.683 25.0867 93.4323 27.3293L94.3057 27.8164ZM100 21V22C100.467 22 100.999 22.2486 101.813 23.3122C102.628 24.3765 103.538 26.0022 104.821 28.3035L105.694 27.8164L106.568 27.3293C105.317 25.0866 104.326 23.3041 103.401 22.0962C102.475 20.8876 101.427 20 100 20V21ZM105.694 27.8164L104.821 28.3027L105.475 29.4784L106.349 28.9922L107.222 28.5059L106.568 27.3301L105.694 27.8164ZM106.349 28.9922L105.475 29.479C106.151 30.6923 106.617 31.5698 107.383 32.1523L107.988 31.3564L108.594 30.5605C108.239 30.2911 107.986 29.8757 107.222 28.5054L106.349 28.9922ZM107.988 31.3564L107.384 32.1534C108.159 32.7404 109.117 32.9349 110.428 33.2313L110.648 32.2559L110.869 31.2805C109.384 30.9449 108.942 30.8243 108.592 30.5595L107.988 31.3564ZM110.648 32.2559L110.428 33.2312L111.7 33.5193L111.921 32.5439L112.142 31.5686L110.869 31.2805L110.648 32.2559ZM111.921 32.5439L111.7 33.5193C114.194 34.0829 115.948 34.4828 117.162 34.9614C118.357 35.4327 118.771 35.8819 118.93 36.3922L119.885 36.0957L120.84 35.7992C120.414 34.4278 119.306 33.657 117.895 33.1008C116.504 32.5521 114.567 32.1169 112.141 31.5685L111.921 32.5439ZM119.885 36.0957L118.93 36.393C119.092 36.9146 119.004 37.5532 118.294 38.6812C117.577 39.82 116.379 41.2253 114.681 43.2102L115.44 43.8604L116.2 44.5105C117.856 42.5754 119.173 41.0393 119.987 39.7463C120.807 38.4426 121.263 37.1588 120.84 35.7984L119.885 36.0957ZM115.44 43.8604L114.681 43.2099L113.813 44.2235L114.572 44.874L115.332 45.5245L116.2 44.5108L115.44 43.8604ZM114.572 44.874L113.813 44.2236C112.912 45.2758 112.263 46.0076 111.974 46.9374L112.929 47.2344L113.884 47.5314C114.022 47.0852 114.325 46.7 115.332 45.5245L114.572 44.874ZM112.929 47.2344L111.974 46.9382C111.686 47.8647 111.799 48.8474 111.933 50.2494L112.929 50.1543L113.924 50.0592C113.774 48.4895 113.743 47.9839 113.884 47.5305L112.929 47.2344ZM112.929 50.1543L111.934 50.2591L111.974 50.639L112.969 50.5342L113.963 50.4294L113.923 50.0495L112.929 50.1543ZM112.969 50.5342V49.5342H112.968V50.5342V51.5342H112.969V50.5342ZM112.968 50.5342L111.973 50.632L112.068 51.6056L113.063 51.5078L114.059 51.41L113.963 50.4364L112.968 50.5342ZM113.063 51.5078L112.068 51.604C112.324 54.2533 112.503 56.1307 112.442 57.4967C112.381 58.8607 112.089 59.4192 111.685 59.7258L112.289 60.5225L112.894 61.3191C114.024 60.4617 114.371 59.1299 114.44 57.5861C114.509 56.0442 114.309 53.9964 114.059 51.4116L113.063 51.5078ZM112.289 60.5225L111.685 59.7255C111.3 60.0175 110.738 60.1362 109.498 59.7808C108.246 59.4219 106.601 58.6681 104.267 57.5936L103.849 58.502L103.431 59.4104C105.702 60.4557 107.512 61.292 108.947 61.7033C110.393 62.1181 111.748 62.1871 112.893 61.3194L112.289 60.5225ZM103.849 58.502L104.267 57.5937L103.078 57.0458L102.659 57.9541L102.241 58.8624L103.43 59.4102L103.849 58.502ZM102.659 57.9541L103.078 57.046C101.85 56.4801 100.965 56.0499 100.001 56.0498L100.001 57.0498L100.001 58.0498C100.424 58.0498 100.848 58.2202 102.24 58.8622L102.659 57.9541ZM100.001 57.0498V56.0498C99.0362 56.0498 98.1514 56.4801 96.9255 57.0462L97.3447 57.9541L97.764 58.862C99.1541 58.2201 99.5777 58.0498 100.001 58.0498V57.0498ZM97.3447 57.9541L96.9278 57.0452L95.7335 57.593L96.1504 58.502L96.5673 59.4109L97.7617 58.863L97.3447 57.9541ZM96.1504 58.502L95.7318 57.5938C93.3982 58.6693 91.7542 59.423 90.5029 59.7814C89.2642 60.1361 88.7011 60.0172 88.3143 59.7238L87.71 60.5205L87.1057 61.3173C88.2508 62.1858 89.606 62.1186 91.0535 61.7041C92.4883 61.2931 94.2985 60.4566 96.569 59.4101L96.1504 58.502ZM87.71 60.5205L88.3143 59.7238C87.9119 59.4185 87.6197 58.861 87.559 57.4967C87.4983 56.1308 87.6777 54.2532 87.9338 51.604L86.9385 51.5078L85.9431 51.4116C85.6932 53.9963 85.4925 56.044 85.561 57.5855C85.6296 59.1285 85.9762 60.4605 87.1056 61.3172L87.71 60.5205ZM86.9385 51.5078L87.9338 51.6048L88.0656 50.2512L87.0703 50.1543L86.075 50.0574L85.9432 51.4109L86.9385 51.5078ZM87.0703 50.1543L88.0656 50.2508C88.2016 48.8478 88.3149 47.8653 88.0274 46.9382L87.0723 47.2344L86.1171 47.5306C86.2575 47.9834 86.227 48.489 86.075 50.0578L87.0703 50.1543ZM87.0723 47.2344L88.0271 46.9374C87.7379 46.0076 87.0865 45.2747 86.1889 44.2243L85.4287 44.874L84.6685 45.5237C85.6748 46.7012 85.9786 47.0852 86.1174 47.5314L87.0723 47.2344ZM85.4287 44.874L86.1882 44.2235L85.3201 43.2099L84.5605 43.8604L83.801 44.5108L84.6692 45.5245L85.4287 44.874ZM84.5605 43.8604L85.3205 43.2104C83.6221 41.2245 82.4238 39.8186 81.7069 38.6796C80.9966 37.5511 80.9075 36.9129 81.0692 36.3924L80.1143 36.0957L79.1593 35.799C78.737 37.1585 79.194 38.4417 80.0143 39.745C80.828 41.0377 82.1448 42.5742 83.8006 44.5103L84.5605 43.8604ZM80.1143 36.0957L81.069 36.3932C81.2281 35.8824 81.643 35.4335 82.8387 34.9623C84.0533 34.4837 85.8071 34.0839 88.3009 33.5193L88.0801 32.5439L87.8593 31.5686C85.4335 32.1179 83.4974 32.5531 82.1056 33.1015C80.6949 33.6574 79.5866 34.4273 79.1595 35.7982L80.1143 36.0957ZM88.0801 32.5439L88.3012 33.5192L89.5717 33.2311L89.3506 32.2559L89.1295 31.2806L87.8589 31.5687L88.0801 32.5439ZM89.3506 32.2559L89.5708 33.2313C90.8833 32.9351 91.8428 32.7406 92.6162 32.1524L92.0107 31.3564L91.4053 30.5605C91.0587 30.8242 90.6177 30.9447 89.1304 31.2804L89.3506 32.2559ZM92.0107 31.3564L92.6038 32.1616C92.7205 32.0756 92.818 31.9868 92.8918 31.9166L92.2021 31.1924L91.5125 30.4682C91.4645 30.5139 91.4365 30.5374 91.4177 30.5513L92.0107 31.3564ZM92.2021 31.1924L91.5205 30.4607C91.5276 30.4541 91.5334 30.4489 91.5367 30.4459C91.5398 30.4432 91.5422 30.4411 91.5413 30.4419C91.5413 30.442 91.5402 30.4429 91.5391 30.4438C91.538 30.4448 91.5362 30.4464 91.534 30.4483C91.5298 30.4521 91.5231 30.458 91.515 30.4655L92.1934 31.2002L92.8717 31.9349C92.8651 31.941 92.8599 31.9457 92.8571 31.9481C92.8547 31.9502 92.8526 31.9521 92.8542 31.9507C92.8548 31.9502 92.8587 31.9468 92.8632 31.9428C92.868 31.9385 92.8752 31.932 92.8838 31.9241L92.2021 31.1924ZM92.1934 31.2002L92.8752 31.9317C92.8678 31.9386 92.8623 31.9434 92.8603 31.9452C92.8592 31.9462 92.8575 31.9476 92.862 31.9438C92.8648 31.9413 92.872 31.9351 92.8803 31.9277C92.8889 31.92 92.9008 31.9091 92.9145 31.896L92.2207 31.1758L91.527 30.4556C91.5362 30.4467 91.5436 30.44 91.5477 30.4363C91.5514 30.433 91.554 30.4308 91.5522 30.4323C91.5518 30.4327 91.5515 30.433 91.5507 30.4336C91.5501 30.4342 91.5492 30.4349 91.5482 30.4358C91.5462 30.4375 91.5433 30.44 91.54 30.4429C91.5334 30.4487 91.5233 30.4577 91.5115 30.4687L92.1934 31.2002ZM92.2207 31.1758L91.5322 30.4506C91.5633 30.421 91.5926 30.397 91.6179 30.3779C91.6431 30.3589 91.6653 30.344 91.6825 30.333C91.6995 30.3222 91.7136 30.314 91.7219 30.3092C91.7262 30.3068 91.7296 30.3048 91.7317 30.3037C91.7336 30.3026 91.7352 30.3017 91.7349 30.3019C91.7349 30.3019 91.7349 30.3019 91.7349 30.3019C91.7349 30.3019 91.7349 30.3019 91.7348 30.3019C91.7348 30.3019 91.7347 30.302 91.7347 30.302C91.7345 30.3021 91.7343 30.3022 91.734 30.3024C91.7335 30.3027 91.7326 30.3032 91.7315 30.3038C91.7293 30.305 91.7258 30.307 91.7214 30.3095C91.7129 30.3143 91.6987 30.3226 91.6815 30.3336C91.6642 30.3446 91.6418 30.3596 91.6164 30.3787C91.591 30.3979 91.5615 30.422 91.5302 30.4516L92.2178 31.1777L92.9053 31.9039C92.8743 31.9333 92.845 31.9572 92.8198 31.9762C92.7947 31.9951 92.7725 32.01 92.7554 32.0208C92.7385 32.0316 92.7245 32.0398 92.7163 32.0445C92.7121 32.0469 92.7086 32.0488 92.7066 32.0499C92.7048 32.051 92.7032 32.0518 92.7036 32.0516C92.7036 32.0516 92.7037 32.0516 92.7039 32.0515C92.704 32.0514 92.7042 32.0513 92.7045 32.0511C92.7051 32.0508 92.706 32.0503 92.7072 32.0496C92.7094 32.0484 92.713 32.0464 92.7174 32.0439C92.726 32.0389 92.7402 32.0306 92.7575 32.0196C92.7749 32.0085 92.7975 31.9934 92.8228 31.9742C92.8483 31.9549 92.8779 31.9307 92.9092 31.901L92.2207 31.1758ZM92.2178 31.1777L92.9151 31.8945C92.9199 31.8898 92.9239 31.8858 92.9266 31.8832C92.9291 31.8807 92.9312 31.8785 92.9316 31.8781C92.9325 31.8772 92.9314 31.8783 92.9302 31.8795C92.9288 31.8809 92.926 31.8837 92.9225 31.8872L92.2227 31.1729L91.5228 30.4585C91.5185 30.4628 91.5149 30.4664 91.5127 30.4686C91.5115 30.4698 91.5106 30.4707 91.51 30.4713C91.5097 30.4716 91.5094 30.4719 91.5092 30.4721C91.5091 30.4722 91.5091 30.4723 91.509 30.4723C91.5089 30.4724 91.5089 30.4724 91.5089 30.4724C91.5085 30.4729 91.5098 30.4716 91.5114 30.4699C91.5133 30.468 91.5164 30.4649 91.5204 30.461L92.2178 31.1777ZM92.1934 31.2002L91.5115 30.4687C91.4654 30.5117 91.4341 30.5382 91.4098 30.5564L92.0098 31.3564L92.6098 32.1565C92.7146 32.0778 92.8042 31.9978 92.8752 31.9317L92.1934 31.2002ZM92.0098 31.3564L92.6152 32.1523C92.7144 32.0769 92.8006 32.0006 92.8717 31.9349L92.1934 31.2002L91.515 30.4655C91.4672 30.5096 91.4328 30.5389 91.4043 30.5605L92.0098 31.3564ZM92.2363 31.1621L91.536 30.4483C91.5539 30.4308 91.5687 30.4176 91.5772 30.4103C91.5816 30.4065 91.585 30.4035 91.587 30.4019C91.5888 30.4004 91.5901 30.3993 91.5895 30.3998C91.5895 30.3998 91.5887 30.4005 91.588 30.401C91.5872 30.4017 91.5861 30.4026 91.5847 30.4038C91.582 30.4061 91.5777 30.4096 91.5726 30.4141C91.5627 30.4226 91.5462 30.437 91.527 30.4556L92.2207 31.1758L92.9145 31.896C92.8976 31.9122 92.8838 31.9243 92.8765 31.9306C92.8727 31.9339 92.8697 31.9363 92.8684 31.9375C92.8673 31.9384 92.8662 31.9393 92.8676 31.9381C92.8683 31.9376 92.8709 31.9353 92.8741 31.9327C92.8774 31.9299 92.8822 31.9259 92.8879 31.9209C92.8989 31.9113 92.9164 31.8958 92.9367 31.8759L92.2363 31.1621ZM92.2207 31.1758L92.9092 31.901C92.9503 31.862 92.9832 31.8242 93.0087 31.7915C93.0342 31.7589 93.0537 31.7298 93.0677 31.7076C93.0816 31.6855 93.0919 31.6672 93.0979 31.6563C93.1009 31.6507 93.1034 31.6462 93.1048 31.6434C93.1056 31.642 93.1062 31.6408 93.1066 31.6401C93.1068 31.6397 93.1069 31.6394 93.107 31.6392C93.1071 31.6391 93.1072 31.6389 93.1072 31.6389C93.1074 31.6385 93.1064 31.6405 93.1051 31.6429C93.1037 31.6455 93.1014 31.6499 93.0984 31.6553C93.0926 31.6658 93.0825 31.6838 93.0689 31.7055C93.0551 31.7274 93.0358 31.7562 93.0107 31.7885C92.9854 31.8209 92.9529 31.8584 92.9121 31.8972L92.2227 31.1729L91.5332 30.4485C91.4922 30.4875 91.4595 30.5252 91.4341 30.5579C91.4087 30.5903 91.3893 30.6194 91.3754 30.6415C91.3615 30.6635 91.3513 30.6818 91.3454 30.6925C91.3423 30.6981 91.3399 30.7026 91.3385 30.7054C91.3377 30.7068 91.3371 30.7079 91.3368 30.7086C91.3366 30.7089 91.3364 30.7092 91.3363 30.7094C91.3363 30.7095 91.3362 30.7096 91.3362 30.7096C91.3362 30.7097 91.3362 30.7097 91.3362 30.7097C91.3362 30.7097 91.3362 30.7097 91.3362 30.7097C91.336 30.7101 91.337 30.7081 91.3383 30.7056C91.3397 30.703 91.3421 30.6986 91.3451 30.6931C91.3509 30.6825 91.3611 30.6645 91.3748 30.6426C91.3886 30.6206 91.408 30.5918 91.4332 30.5595C91.4586 30.527 91.4913 30.4894 91.5322 30.4506L92.2207 31.1758ZM92.2227 31.1729L92.9225 31.8872C92.903 31.9063 92.885 31.9223 92.8697 31.9352C92.8544 31.9481 92.8411 31.9585 92.831 31.9663C92.8209 31.9739 92.8128 31.9797 92.8083 31.983C92.8043 31.9858 92.8008 31.9883 92.8024 31.9871C92.8027 31.9869 92.8077 31.9834 92.8136 31.9792C92.8199 31.9747 92.8297 31.9676 92.8415 31.9586C92.8533 31.9495 92.8683 31.9376 92.8851 31.9232C92.902 31.9088 92.9214 31.8912 92.9423 31.8704L92.2363 31.1621L91.5304 30.4539C91.5502 30.4341 91.5686 30.4175 91.5844 30.4039C91.6001 30.3905 91.614 30.3795 91.6246 30.3713C91.6352 30.3632 91.6439 30.3569 91.649 30.3533C91.6516 30.3514 91.6537 30.3499 91.6549 30.3491C91.656 30.3483 91.6569 30.3477 91.6566 30.3479C91.6566 30.3479 91.6562 30.3482 91.6558 30.3484C91.6554 30.3487 91.6547 30.3492 91.654 30.3497C91.6525 30.3508 91.6501 30.3525 91.6471 30.3545C91.6414 30.3586 91.6321 30.3653 91.6209 30.3738C91.6096 30.3824 91.5952 30.3938 91.5788 30.4076C91.5624 30.4214 91.5434 30.4384 91.5228 30.4585L92.2227 31.1729Z" fill="white" mask="url(#path-7-inside-3_2963_64007)"/>
<path d="M100.001 21.5C100.708 21.5001 101.369 21.9083 102.211 23.0078C103.053 24.1079 103.983 25.773 105.258 28.0596V28.0586L105.912 29.2354C106.61 30.4884 107.024 31.2497 107.687 31.7539V31.7549C108.355 32.2614 109.184 32.4379 110.539 32.7441L111.811 33.0312V33.0322C114.287 33.592 116.087 33.9999 117.346 34.4961C118.595 34.9886 119.183 35.5185 119.408 36.2441V36.2451C119.636 36.9763 119.455 37.7758 118.718 38.9473C117.977 40.1245 116.749 41.5627 115.062 43.5352L114.193 44.5488C113.266 45.6317 112.704 46.277 112.452 47.0859H112.451C112.204 47.8832 112.291 48.734 112.426 50.1426C109.903 50.6785 107.288 50.6177 104.79 49.959C102.151 49.2631 99.7264 47.9236 97.7324 46.0605C95.7384 44.1974 94.2373 41.8687 93.3643 39.2832C92.5068 36.7441 92.2827 34.0353 92.707 31.3906C93.1633 30.8994 93.538 30.2203 94.0869 29.2354L94.7432 28.0596C96.0183 25.773 96.9475 24.1079 97.79 23.0078C98.6323 21.9081 99.2937 21.5 100.001 21.5Z" fill="#8D7FFF" stroke="white"/>
</svg>
