<svg width="20" height="20" viewBox="0 0 20 20" fill="none" xmlns="http://www.w3.org/2000/svg">
<path fill-rule="evenodd" clip-rule="evenodd" d="M9.58312 0.994357C9.61663 1.28987 9.5319 1.58665 9.34756 1.81945C9.16323 2.05224 8.89437 2.20199 8.60011 2.23577C7.69516 2.32855 6.81048 2.56428 5.97877 2.93426C5.70937 3.05842 5.40188 3.07002 5.12396 2.96652C4.84604 2.86302 4.62045 2.65289 4.49681 2.38235C4.37317 2.11182 4.36161 1.80304 4.46468 1.52394C4.56775 1.24485 4.777 1.01831 5.0464 0.894146C6.0923 0.423268 7.20661 0.123822 8.34692 0.00720642C8.64119 -0.0264434 8.93672 0.0586427 9.16854 0.243757C9.40036 0.428871 9.54948 0.698858 9.58312 0.994357ZM10.9295 1.0153C10.9524 0.869737 11.0036 0.730125 11.0802 0.604436C11.1568 0.478748 11.2573 0.369445 11.3759 0.282774C11.4946 0.196103 11.6291 0.133761 11.7718 0.0993096C11.9145 0.0648585 12.0625 0.0589734 12.2074 0.0819906C14.6396 0.467877 16.6235 1.53131 17.9893 3.27228C19.3447 5.00129 20 7.2852 20 9.95798C20 13.0182 19.1391 15.5683 17.3638 17.3526C15.5869 19.1355 13.0475 20 10.0002 20C6.3809 20 3.48848 18.7765 1.74886 16.2877C1.6572 16.1677 1.59065 16.0303 1.55321 15.8839C1.51577 15.7374 1.50821 15.5848 1.53098 15.4353C1.55376 15.2858 1.6064 15.1425 1.68575 15.014C1.7651 14.8854 1.8695 14.7743 1.9927 14.6873C2.1159 14.6003 2.25533 14.5393 2.40263 14.5078C2.54993 14.4763 2.70205 14.4751 2.84984 14.5041C2.99763 14.5332 3.13805 14.5919 3.26264 14.6769C3.38724 14.7618 3.49344 14.8712 3.57487 14.9984C4.78278 16.7245 6.88134 17.7565 10.0002 17.7565C12.6364 17.7565 14.5384 17.0146 15.7835 15.7657C17.0286 14.5168 17.7644 12.6053 17.7644 9.95798C17.7644 7.64267 17.1999 5.89272 16.2333 4.66028C15.2756 3.4383 13.8354 2.61119 11.8589 2.2971C11.5665 2.25074 11.3043 2.08969 11.1301 1.84935C10.9558 1.609 10.8837 1.30902 10.9295 1.0153ZM1.11736 8.83622C1.41362 8.83622 1.69774 8.95441 1.90723 9.16478C2.11672 9.37515 2.23441 9.66048 2.23441 9.95798C2.23639 10.9302 2.33271 11.8052 2.52335 12.5829C2.59327 12.8721 2.54593 13.1773 2.39175 13.4314C2.23756 13.6856 1.98917 13.8678 1.7012 13.938C1.41324 14.0082 1.10929 13.9607 0.856229 13.8058C0.603168 13.651 0.421721 13.4016 0.351803 13.1124C0.11117 12.0785 -0.00681668 11.0197 0.000304023 9.95798C0.000304023 9.66048 0.117993 9.37515 0.327481 9.16478C0.536969 8.95441 0.821095 8.83622 1.11736 8.83622ZM3.74615 4.6857C3.92806 4.45087 4.00961 4.15309 3.97288 3.85787C3.93615 3.56264 3.78414 3.29417 3.55029 3.1115C3.31645 2.92883 3.01991 2.84692 2.72593 2.88381C2.43195 2.92069 2.1646 3.07334 1.9827 3.30818C1.2492 4.27 0.717221 5.37101 0.418826 6.54484C0.349454 6.82947 0.393744 7.13006 0.542223 7.38232C0.690702 7.63458 0.931581 7.81848 1.21334 7.89468C1.4951 7.97089 1.79537 7.93336 2.04993 7.79011C2.30448 7.64686 2.49312 7.40927 2.57548 7.12815C2.83315 6.16194 3.23082 5.35128 3.74615 4.6857ZM10.0016 4.87715C10.2979 4.87715 10.582 4.99534 10.7915 5.20571C11.001 5.41608 11.1187 5.7014 11.1187 5.99891V8.78088H13.889C14.1852 8.78088 14.4694 8.89907 14.6789 9.10944C14.8883 9.31981 15.006 9.60513 15.006 9.90265C15.006 10.2002 14.8883 10.4855 14.6789 10.6959C14.4694 10.9062 14.1852 11.0244 13.889 11.0244H11.1172V13.8064C11.1172 14.1039 10.9995 14.3892 10.79 14.5996C10.5805 14.81 10.2964 14.9281 10.0002 14.9281C9.70389 14.9281 9.41977 14.81 9.21028 14.5996C9.00079 14.3892 8.8831 14.1039 8.8831 13.8064V11.0244H6.11281C5.81655 11.0244 5.53242 10.9062 5.32294 10.6959C5.11345 10.4855 4.99576 10.2002 4.99576 9.90265C4.99576 9.60513 5.11345 9.31981 5.32294 9.10944C5.53242 8.89907 5.81655 8.78088 6.11281 8.78088H8.8831V5.99891C8.8831 5.7014 9.00079 5.41608 9.21028 5.20571C9.41977 4.99534 9.70538 4.87715 10.0016 4.87715Z" fill="white"/>
</svg>
