<svg width="13" height="13" viewBox="0 0 13 13" fill="none" xmlns="http://www.w3.org/2000/svg">
<path d="M6.5 0C10.0899 0 13 2.91077 13 6.5C12.9999 10.0899 10.0898 13 6.5 13C2.9101 13 4.90409e-08 10.0898 0 6.5C0 2.91023 2.9101 1.28853e-07 6.5 0ZM6.64062 2C4.07781 2.00012 2.00018 4.07782 2 6.64062C2 9.20358 4.07769 11.2811 6.64062 11.2812C9.20366 11.2812 11.2812 9.20333 11.2812 6.64062C11.2811 4.07775 9.20355 2 6.64062 2ZM9.07031 8.25781C9.13098 8.258 9.19064 8.27432 9.24316 8.30469C9.29569 8.33509 9.33971 8.37912 9.37012 8.43164C9.40037 8.48409 9.4168 8.54394 9.41699 8.60449C9.41712 8.66507 9.4011 8.72472 9.37109 8.77734C9.01648 9.39384 8.04409 10.3389 6.6416 10.3389C5.23932 10.3387 4.26766 9.39379 3.91309 8.77734C3.88297 8.72475 3.86712 8.66511 3.86719 8.60449C3.86725 8.54375 3.88371 8.48425 3.91406 8.43164C3.94438 8.37914 3.98761 8.33512 4.04004 8.30469C4.09264 8.27424 4.15309 8.25795 4.21387 8.25781H9.07031ZM4.75684 4.70801C5.08337 4.13443 6.06152 4.33983 6.06152 5.36426C6.04118 6.29711 4.75684 7.00391 4.75684 7.00391C4.75684 7.00391 3.47249 6.29711 3.45215 5.36426C3.45215 4.33987 4.43059 4.13486 4.75684 4.70801ZM8.52637 4.70801C8.85285 4.13431 9.83105 4.33977 9.83105 5.36426C9.81071 6.2971 8.52637 7.00391 8.52637 7.00391C8.51105 6.99545 7.24189 6.29148 7.22168 5.36426C7.22168 4.33994 8.20006 4.13499 8.52637 4.70801Z" fill="currentColor"/>
</svg>
