<svg width="22" height="22" viewBox="0 0 22 22" fill="none" xmlns="http://www.w3.org/2000/svg">
<path d="M11 21.9991C17.0752 21.9991 22 17.0743 22 10.9991C22 4.92525 17.0752 0 11 0C4.92479 0 0 4.92479 0 10.9995C0 17.0743 4.92479 21.9991 11 21.9991Z" fill="#E04F5F"/>
<path d="M11.0003 20C15.971 20 20 15.9702 20 11C20 6.02915 15.971 2 11.0003 2C6.02965 2 2 6.02915 2 11C2 15.9709 6.02965 20 11.0003 20Z" fill="#FBE158"/>
<path d="M11.1018 17.0996C8.68351 17.0996 7.00844 15.5105 6.39698 14.4736C6.34478 14.385 6.31737 14.2845 6.31748 14.1823C6.3176 14.0801 6.34524 13.9797 6.39764 13.8912C6.45004 13.8026 6.52536 13.7291 6.61606 13.6779C6.70676 13.6267 6.80966 13.5996 6.91446 13.5994H15.2887C15.3934 13.5996 15.4963 13.6267 15.5869 13.6778C15.6776 13.729 15.753 13.8024 15.8054 13.8908C15.8579 13.9792 15.8857 14.0795 15.886 14.1817C15.8864 14.2839 15.8592 14.3843 15.8073 14.473C15.1958 15.5099 13.5202 17.0996 11.1018 17.0996ZM7.85142 7.62967C7.28924 6.6649 5.60156 7.00922 5.60156 8.7325C5.63652 10.3015 7.85142 11.4899 7.85142 11.4899C7.85142 11.4899 10.0663 10.3015 10.1013 8.7325C10.1013 7.00922 8.41417 6.66434 7.85142 7.62967ZM14.3517 7.62967C13.7895 6.6649 12.1018 7.00922 12.1018 8.7325C12.1368 10.3015 14.3517 11.4899 14.3517 11.4899C14.3517 11.4899 16.5666 10.3015 16.6016 8.7325C16.6016 7.00922 14.9145 6.66434 14.3517 7.62967Z" fill="#FA5655"/>
<path d="M8.60156 16.5913C9.37354 16.9252 10.2171 17.0988 11.0714 17.0996C12.0262 17.0996 12.8742 16.8859 13.6016 16.5655C13.3831 16.1263 13.0299 15.7542 12.5847 15.4941C12.1395 15.234 11.6213 15.097 11.0926 15.0996C10.5639 15.1023 10.0474 15.2445 9.6054 15.5091C9.16338 15.7737 8.81474 16.1499 8.60156 16.5913Z" fill="#F79392"/>
</svg>
