<svg width="16" height="16" viewBox="0 0 16 16" fill="none" xmlns="http://www.w3.org/2000/svg">
<circle cx="7.69606" cy="8.41664" r="7.4695" fill="url(#paint0_linear_2551_6394)"/>
<path d="M10.6323 7.89987L8.36924 6.58866L9.51013 3.85154C9.54995 3.77024 9.56848 3.68018 9.56399 3.58978C9.55951 3.49938 9.53216 3.41159 9.4845 3.33463C9.43683 3.25767 9.37042 3.19406 9.29147 3.14974C9.21252 3.10543 9.12361 3.08186 9.03307 3.08124C8.91272 3.08079 8.79575 3.12102 8.70116 3.1954L8.6638 3.22741L4.66161 7.01488C4.60144 7.072 4.5554 7.14233 4.52712 7.22031C4.49885 7.29829 4.48911 7.38177 4.49869 7.46416C4.50827 7.54655 4.5369 7.62559 4.58231 7.695C4.62772 7.76442 4.68866 7.82233 4.76033 7.86413L7.02397 9.17641L5.86974 11.945C5.82213 12.0579 5.81491 12.1838 5.8493 12.3014C5.88368 12.4191 5.95757 12.5213 6.05852 12.5908C6.15947 12.6603 6.28131 12.693 6.40351 12.6832C6.52571 12.6734 6.6408 12.6218 6.72941 12.5371L10.7316 8.74858C10.7916 8.69143 10.8376 8.6211 10.8657 8.54315C10.8939 8.4652 10.9036 8.38178 10.8939 8.29946C10.8843 8.21714 10.8557 8.13819 10.8103 8.06884C10.7649 7.99949 10.704 7.94164 10.6323 7.89987Z" fill="white"/>
<defs>
<linearGradient id="paint0_linear_2551_6394" x1="0.226562" y1="8.41664" x2="15.1656" y2="8.41664" gradientUnits="userSpaceOnUse">
<stop stop-color="#7866FF"/>
<stop offset="0.475" stop-color="#8D7FFF"/>
<stop offset="1" stop-color="#B1A7FF"/>
</linearGradient>
</defs>
</svg>
