<svg width="32" height="30" viewBox="0 0 32 30" fill="none" xmlns="http://www.w3.org/2000/svg">
<path d="M17.4145 0.776169C16.8609 -0.258723 15.1394 -0.258723 14.5858 0.776169L0.186031 27.677C0.0568953 27.9182 -0.00698144 28.1883 0.000604949 28.4611C0.00819134 28.7339 0.086983 29.0001 0.229327 29.2339C0.371671 29.4677 0.572729 29.6611 0.812972 29.7953C1.05321 29.9296 1.32448 30.0001 1.60041 30H30.3999C30.6758 30.0006 30.9472 29.9304 31.1875 29.7964C31.4279 29.6623 31.629 29.469 31.7713 29.2352C31.9136 29.0014 31.9922 28.7351 31.9994 28.4623C32.0067 28.1895 31.9424 27.9195 31.8127 27.6786L17.4145 0.776169ZM17.6001 25.2528H14.4002V22.088H17.6001V25.2528ZM14.4002 18.9232V11.0112H17.6001L17.6017 18.9232H14.4002Z" fill="#FF6969"/>
</svg>
