<svg width="22" height="22" viewBox="0 0 22 22" fill="none" xmlns="http://www.w3.org/2000/svg">
<path d="M14.5108 6.66602C14.971 6.66626 15.3437 7.03912 15.3438 7.49023C15.3438 7.71517 15.265 7.90178 15.0986 8.05859L12.1572 11.0098L15.0889 13.9316C15.2359 14.0884 15.334 14.2846 15.334 14.5195C15.3341 14.629 15.3124 14.7377 15.2705 14.8389C15.2287 14.94 15.1672 15.032 15.0899 15.1094C15.0125 15.1867 14.9205 15.2482 14.8193 15.29C14.7182 15.3319 14.6094 15.3526 14.5 15.3525C14.3923 15.3524 14.2857 15.331 14.1865 15.2891C14.0872 15.247 13.997 15.1849 13.9219 15.1074L10.9902 12.167L8.06837 15.1074C7.99209 15.186 7.90093 15.2489 7.79981 15.291C7.69872 15.3331 7.58999 15.3537 7.48048 15.3525C7.37104 15.3526 7.26227 15.3319 7.16114 15.29C7.06007 15.2482 6.96798 15.1867 6.89063 15.1094C6.81336 15.0321 6.75277 14.9398 6.71095 14.8389C6.66911 14.7377 6.64736 14.629 6.64747 14.5195C6.64749 14.2941 6.74553 14.0984 6.90235 13.9512L9.82325 11.0098L6.90235 8.06836C6.82166 7.99726 6.75691 7.90965 6.7129 7.81152C6.66897 7.71354 6.64598 7.60738 6.64649 7.5C6.64649 7.0495 7.01952 6.68558 7.48048 6.68555C7.70591 6.68555 7.90257 6.77384 8.04981 6.93066L10.9902 9.8623L13.9512 6.92188C14.1177 6.74535 14.2949 6.66602 14.5108 6.66602Z" fill="white"/>
<path d="M10.9902 0.5C16.7266 0.500267 21.5 5.26239 21.5 11C21.5 16.747 16.7368 21.4999 11 21.5C5.25313 21.5 0.5 16.7467 0.5 11C0.500001 5.26385 5.24284 0.5 10.9902 0.5ZM14.5107 7.16602C14.4459 7.16602 14.397 7.17825 14.3154 7.26465L14.3037 7.27637L11.3428 10.2178L10.9893 10.5684L10.6367 10.2168L7.69629 7.28516L7.68457 7.27344C7.63064 7.21603 7.56603 7.18555 7.48047 7.18555C7.28382 7.18557 7.14648 7.33733 7.14648 7.5V7.50195C7.14629 7.53808 7.15416 7.57446 7.16895 7.60742C7.18372 7.64025 7.20541 7.66955 7.23242 7.69336L7.24512 7.7041L7.25684 7.71582L10.1787 10.6572L10.5283 11.0098L10.1777 11.3623L7.25684 14.3027L7.25098 14.3096L7.24414 14.3154C7.17534 14.38 7.14748 14.4488 7.14746 14.5195V14.5205C7.14747 14.5641 7.15619 14.6072 7.17285 14.6475C7.18955 14.6878 7.21328 14.725 7.24414 14.7559C7.27505 14.7868 7.31215 14.8114 7.35254 14.8281C7.3929 14.8448 7.43679 14.8526 7.48047 14.8525H7.48633C7.52789 14.8529 7.56906 14.8451 7.60742 14.8291C7.64589 14.8131 7.68093 14.7897 7.70996 14.7598L7.71387 14.7549L10.6357 11.8145L10.9902 11.458L11.3447 11.8135L14.2754 14.7549L14.2803 14.7598C14.3088 14.7891 14.3432 14.8121 14.3809 14.8281C14.4187 14.8442 14.4599 14.8525 14.501 14.8525C14.5445 14.8526 14.5877 14.8447 14.6279 14.8281C14.6683 14.8114 14.7054 14.7867 14.7363 14.7559C14.7672 14.7249 14.7919 14.6878 14.8086 14.6475C14.8252 14.6072 14.834 14.564 14.834 14.5205V14.5195C14.834 14.4358 14.802 14.3569 14.7236 14.2734H14.7227L11.8047 11.3633L11.4502 11.0107L11.8027 10.6562L14.7441 7.70605L14.75 7.7002L14.7559 7.69531C14.8208 7.63416 14.8438 7.57932 14.8438 7.49023C14.8436 7.31886 14.6985 7.16627 14.5107 7.16602Z" fill="#E63946" stroke="white"/>
</svg>
