<svg width="17" height="18" viewBox="0 0 17 18" fill="none" xmlns="http://www.w3.org/2000/svg">
<path d="M9.81818 9.81818H11.0455V12.1255L13.0418 13.2791L12.4282 14.3427L9.81818 12.8373V9.81818ZM13.0909 5.72727H1.63636V14.7273H5.45727C5.10545 13.9827 4.90909 13.1482 4.90909 12.2727C4.90909 10.7538 5.5125 9.29701 6.58657 8.22293C7.66064 7.14886 9.1174 6.54545 10.6364 6.54545C11.5118 6.54545 12.3464 6.74182 13.0909 7.09364V5.72727ZM1.63636 16.3636C1.20237 16.3636 0.786157 16.1912 0.47928 15.8844C0.172402 15.5775 0 15.1613 0 14.7273V3.27273C0 2.36455 0.728182 1.63636 1.63636 1.63636H2.45455V0H4.09091V1.63636H10.6364V0H12.2727V1.63636H13.0909C13.5249 1.63636 13.9411 1.80877 14.248 2.11564C14.5549 2.42252 14.7273 2.83874 14.7273 3.27273V8.26364C15.7418 9.29455 16.3636 10.71 16.3636 12.2727C16.3636 13.7917 15.7602 15.2484 14.6862 16.3225C13.6121 17.3966 12.1553 18 10.6364 18C9.07364 18 7.65818 17.3782 6.62727 16.3636H1.63636ZM10.6364 8.30455C9.58394 8.30455 8.57461 8.72262 7.83044 9.4668C7.08626 10.211 6.66818 11.2203 6.66818 12.2727C6.66818 14.4655 8.44364 16.2409 10.6364 16.2409C11.1575 16.2409 11.6735 16.1383 12.1549 15.9388C12.6364 15.7394 13.0738 15.4471 13.4423 15.0787C13.8108 14.7102 14.1031 14.2727 14.3025 13.7913C14.5019 13.3098 14.6045 12.7938 14.6045 12.2727C14.6045 10.08 12.8291 8.30455 10.6364 8.30455Z" fill="currentColor"/>
</svg>
