<svg width="24" height="24" viewBox="0 0 24 24" fill="none" xmlns="http://www.w3.org/2000/svg">
<path d="M13.8 23.8656C19.5732 22.9968 24 18.0156 24 12C24 5.3724 18.6276 0 12 0C5.3724 0 0 5.3724 0 12C0 18.0156 4.4268 22.998 10.2 23.8656V15.6H8.4C7.92261 15.6 7.46477 15.4104 7.12721 15.0728C6.78964 14.7352 6.6 14.2774 6.6 13.8C6.6 13.3226 6.78964 12.8648 7.12721 12.5272C7.46477 12.1896 7.92261 12 8.4 12H10.2V9.6C10.2 8.48609 10.6425 7.4178 11.4302 6.63015C12.2178 5.8425 13.2861 5.4 14.4 5.4H15C15.4774 5.4 15.9352 5.58964 16.2728 5.92721C16.6104 6.26477 16.8 6.72261 16.8 7.2C16.8 7.67739 16.6104 8.13523 16.2728 8.47279C15.9352 8.81036 15.4774 9 15 9H14.4C14.2409 9 14.0883 9.06321 13.9757 9.17574C13.8632 9.28826 13.8 9.44087 13.8 9.6V12H15.6C16.0774 12 16.5352 12.1896 16.8728 12.5272C17.2104 12.8648 17.4 13.3226 17.4 13.8C17.4 14.2774 17.2104 14.7352 16.8728 15.0728C16.5352 15.4104 16.0774 15.6 15.6 15.6H13.8V23.8656Z" fill="white"/>
</svg>
