<svg width="16" height="15" viewBox="0 0 16 15" fill="none" xmlns="http://www.w3.org/2000/svg">
<path d="M10.2262 7.875C10.1363 7.875 10.0425 7.86 9.9525 7.83C9.78342 7.77622 9.63606 7.66959 9.5321 7.52581C9.42814 7.38202 9.37308 7.20867 9.375 7.03125V5.9775C8.5275 5.8425 7.875 5.10375 7.875 4.21875V1.78125C7.875 0.79875 8.67375 0 9.65625 0H13.9688C14.9513 0 15.75 0.79875 15.75 1.78125V4.21875C15.75 5.20125 14.9513 6 13.9688 6H12.0487L10.8937 7.5375C10.7287 7.755 10.485 7.875 10.2262 7.875ZM4.875 8.8125C3.3225 8.8125 2.0625 7.5525 2.0625 6C2.0625 4.4475 3.3225 3.1875 4.875 3.1875C6.4275 3.1875 7.6875 4.4475 7.6875 6C7.6875 7.5525 6.4275 8.8125 4.875 8.8125ZM0 11.5463C0 11.58 0.0562499 15 4.875 15C9.69375 15 9.75 11.58 9.75 11.5463V11.1562C9.75 10.38 9.12 9.75 8.34375 9.75H1.40625C0.63 9.75 0 10.38 0 11.1562V11.5463Z" fill="white"/>
</svg>
