<svg width="20" height="20" viewBox="0 0 20 20" fill="none" xmlns="http://www.w3.org/2000/svg">
<path d="M3.33317 17.5C2.87484 17.5 2.48262 17.3369 2.1565 17.0108C1.83039 16.6847 1.66706 16.2922 1.6665 15.8333V4.16667C1.6665 3.70833 1.82984 3.31611 2.1565 2.99C2.48317 2.66389 2.87539 2.50056 3.33317 2.5H16.6665C17.1248 2.5 17.5173 2.66333 17.844 2.99C18.1707 3.31667 18.3337 3.70889 18.3332 4.16667V15.8333C18.3332 16.2917 18.1701 16.6842 17.844 17.0108C17.5179 17.3375 17.1254 17.5006 16.6665 17.5H3.33317ZM7.49984 14.1667C7.73595 14.1667 7.934 14.0867 8.094 13.9267C8.254 13.7667 8.33373 13.5689 8.33317 13.3333C8.33261 13.0978 8.25261 12.9 8.09317 12.74C7.93373 12.58 7.73595 12.5 7.49984 12.5H4.99984C4.76373 12.5 4.56595 12.58 4.4065 12.74C4.24706 12.9 4.16706 13.0978 4.1665 13.3333C4.16595 13.5689 4.24595 13.7669 4.4065 13.9275C4.56706 14.0881 4.76484 14.1678 4.99984 14.1667H7.49984ZM12.1248 10.1458L11.5207 9.54167C11.354 9.375 11.1596 9.29528 10.9373 9.3025C10.7151 9.30972 10.5207 9.39639 10.354 9.5625C10.2012 9.72917 10.1212 9.92361 10.114 10.1458C10.1068 10.3681 10.1868 10.5625 10.354 10.7292L11.5415 11.9167C11.7082 12.0833 11.9026 12.1667 12.1248 12.1667C12.3471 12.1667 12.5415 12.0833 12.7082 11.9167L15.6665 8.95833C15.8332 8.79167 15.9165 8.59722 15.9165 8.375C15.9165 8.15278 15.8332 7.95833 15.6665 7.79167C15.4998 7.625 15.3021 7.54167 15.0732 7.54167C14.8443 7.54167 14.6462 7.625 14.479 7.79167L12.1248 10.1458ZM7.49984 10.8333C7.73595 10.8333 7.934 10.7533 8.094 10.5933C8.254 10.4333 8.33373 10.2356 8.33317 10C8.33261 9.76444 8.25261 9.56667 8.09317 9.40667C7.93373 9.24667 7.73595 9.16667 7.49984 9.16667H4.99984C4.76373 9.16667 4.56595 9.24667 4.4065 9.40667C4.24706 9.56667 4.16706 9.76444 4.1665 10C4.16595 10.2356 4.24595 10.4336 4.4065 10.5942C4.56706 10.7547 4.76484 10.8344 4.99984 10.8333H7.49984ZM7.49984 7.5C7.73595 7.5 7.934 7.42 8.094 7.26C8.254 7.1 8.33373 6.90222 8.33317 6.66667C8.33261 6.43111 8.25261 6.23333 8.09317 6.07333C7.93373 5.91333 7.73595 5.83333 7.49984 5.83333H4.99984C4.76373 5.83333 4.56595 5.91333 4.4065 6.07333C4.24706 6.23333 4.16706 6.43111 4.1665 6.66667C4.16595 6.90222 4.24595 7.10028 4.4065 7.26083C4.56706 7.42139 4.76484 7.50111 4.99984 7.5H7.49984Z" fill="#FFAA00"/>
</svg>
