<svg width="150" height="150" viewBox="0 0 150 150" fill="none" xmlns="http://www.w3.org/2000/svg">
<path d="M41.672 47.7304C41.004 54.8554 40.5353 67.4648 44.7423 72.832C44.7423 72.832 42.7618 58.9804 60.5157 41.6015C67.6642 34.6054 69.3165 25.0898 66.8204 17.9531C65.4024 13.9101 62.8126 10.5703 60.5626 8.23826C59.2501 6.86716 60.2579 4.60544 62.1681 4.68747C73.7228 5.2031 92.4493 8.41403 100.406 28.3828C103.899 37.1484 104.156 46.207 102.492 55.4179C101.438 61.3008 97.6876 74.3789 106.242 75.9843C112.348 77.1328 115.301 72.2812 116.625 68.789C117.176 67.3359 119.086 66.9726 120.117 68.1328C130.43 79.8633 131.309 93.6797 129.176 105.574C125.051 128.566 101.766 145.301 78.6329 145.301C49.7345 145.301 26.7306 128.766 20.7657 98.8359C18.3634 86.7539 19.5821 62.8476 38.2149 45.9726C39.5978 44.707 41.8595 45.832 41.672 47.7304Z" fill="url(#paint0_radial_3207_61538)"/>
<path d="M89.1912 90.7266C78.5389 77.0157 83.3084 61.3711 85.9217 55.1368C86.2733 54.3165 85.3358 53.543 84.5975 54.0469C80.0155 57.1641 70.6287 64.5001 66.2576 74.8243C60.3397 88.7813 60.7615 95.6133 64.2655 103.957C66.3748 108.984 63.9256 110.051 62.6951 110.238C61.4998 110.426 60.3983 109.629 59.5194 108.797C56.9914 106.369 55.1897 103.285 54.3162 99.8907C54.1287 99.1641 53.1795 98.9649 52.7459 99.5626C49.4647 104.098 47.7654 111.375 47.6834 116.52C47.4256 132.422 60.5623 145.313 76.4529 145.313C96.4803 145.313 111.07 123.164 99.5623 104.648C96.2225 99.2579 93.0819 95.7305 89.1912 90.7266Z" fill="url(#paint1_radial_3207_61538)"/>
<defs>
<radialGradient id="paint0_radial_3207_61538" cx="0" cy="0" r="1" gradientTransform="matrix(-82.7191 -0.359001 -0.589787 135.726 72.9092 145.665)" gradientUnits="userSpaceOnUse">
<stop offset="0.314" stop-color="#FF9800"/>
<stop offset="0.662" stop-color="#FF6D00"/>
<stop offset="0.972" stop-color="#F44336"/>
</radialGradient>
<radialGradient id="paint1_radial_3207_61538" cx="0" cy="0" r="1" gradientTransform="matrix(-0.874202 86.546 65.1324 0.657816 77.5545 63.3497)" gradientUnits="userSpaceOnUse">
<stop offset="0.214" stop-color="#FFF176"/>
<stop offset="0.328" stop-color="#FFF27D"/>
<stop offset="0.487" stop-color="#FFF48F"/>
<stop offset="0.672" stop-color="#FFF7AD"/>
<stop offset="0.793" stop-color="#FFF9C4"/>
<stop offset="0.822" stop-color="#FFF8BD" stop-opacity="0.804"/>
<stop offset="0.863" stop-color="#FFF6AB" stop-opacity="0.529"/>
<stop offset="0.91" stop-color="#FFF38D" stop-opacity="0.209"/>
<stop offset="0.941" stop-color="#FFF176" stop-opacity="0"/>
</radialGradient>
</defs>
</svg>
