<svg width="23" height="27" viewBox="0 0 23 27" fill="none" xmlns="http://www.w3.org/2000/svg">
<path d="M1 1.875V15H8.6685C9.1935 15 9.45775 15 9.6695 15.1312C9.8795 15.2607 9.9985 15.497 10.233 15.9678L11.017 17.5322C11.2515 18.0047 11.3687 18.2393 11.5805 18.3687C11.7922 18.5 12.0548 18.5 12.5815 18.5H21.125C21.538 18.5 21.7445 18.5 21.8722 18.3722C22 18.2445 22 18.038 22 17.625V5.375C22 4.962 22 4.7555 21.8722 4.62775C21.7445 4.5 21.538 4.5 21.125 4.5H12.5815C12.0565 4.5 11.7922 4.5 11.5805 4.36875C11.3705 4.23925 11.2515 4.003 11.017 3.53225L10.233 1.96775C9.9985 1.49525 9.88125 1.26075 9.6695 1.13125C9.45775 1 9.19525 1 8.6685 1H1.875C1.462 1 1.2555 1 1.12775 1.12775C1 1.2555 1 1.462 1 1.875Z" fill="url(#paint0_linear_922_5437)"/>
<path d="M1 15V1.875C1 1.462 1 1.2555 1.12775 1.12775C1.2555 1 1.462 1 1.875 1H8.6685C9.1935 1 9.45775 1 9.6695 1.13125C9.8795 1.26075 9.9985 1.497 10.233 1.96775L11.017 3.53225C11.2515 4.00475 11.3687 4.23925 11.5805 4.36875C11.7922 4.5 12.0548 4.5 12.5815 4.5H21.125C21.538 4.5 21.7445 4.5 21.8723 4.62775C22 4.7555 22 4.962 22 5.375V17.625C22 18.038 22 18.2445 21.8723 18.3723C21.7445 18.5 21.538 18.5 21.125 18.5H12.5815C12.0565 18.5 11.7922 18.5 11.5805 18.3688C11.3705 18.2393 11.2515 18.003 11.017 17.5322L10.233 15.9678C9.9985 15.4953 9.88125 15.2607 9.6695 15.1312C9.45775 15 9.19525 15 8.6685 15H1ZM1 15V25.5" stroke="white" stroke-width="2" stroke-linecap="round"/>
<defs>
<linearGradient id="paint0_linear_922_5437" x1="1" y1="9.75" x2="22" y2="9.75" gradientUnits="userSpaceOnUse">
<stop stop-color="#594DB7"/>
<stop offset="0.475" stop-color="#7F6FFE"/>
<stop offset="1" stop-color="#9C8FFF"/>
</linearGradient>
</defs>
</svg>
