<svg width="31" height="31" viewBox="0 0 31 31" fill="none" xmlns="http://www.w3.org/2000/svg">
<path d="M25.8337 19.375C25.8337 24.8711 22.4521 27.2826 19.839 28.0951C19.7419 28.1272 19.638 28.1326 19.5381 28.1106C19.1648 28.0214 18.9801 27.5254 19.2487 27.1405C20.3854 25.5053 21.7003 23.0124 21.7003 20.6667C21.7003 18.1479 19.5768 15.1732 17.9183 13.3378C17.5399 12.9193 16.8785 13.1957 16.8579 13.7614C16.7894 15.6344 16.4936 18.1376 15.22 20.1009C15.1749 20.1743 15.1127 20.2356 15.0386 20.2796C14.9646 20.3236 14.881 20.349 14.795 20.3536C14.709 20.3581 14.6232 20.3418 14.5449 20.3059C14.4666 20.27 14.3982 20.2156 14.3456 20.1474C13.9477 19.6437 13.5499 19.0224 13.1521 18.5303C12.9377 18.2668 12.5502 18.2629 12.3034 18.4967C11.3386 19.4099 9.98878 20.8333 9.98878 22.6042C9.98878 23.8054 10.4538 25.0648 10.9795 26.0788C11.2404 26.5825 10.8464 27.178 10.3569 27.0734C10.302 27.0605 10.249 27.0405 10.1993 27.0139C7.89628 25.8075 5.16699 23.3585 5.16699 19.375C5.16699 15.3114 10.7341 9.68106 12.8602 4.36198C13.196 3.52239 14.2293 3.12844 14.9488 3.6761C19.3017 6.9931 25.8337 13.4049 25.8337 19.375Z" fill="#FFEE00"/>
<path opacity="0.5" d="M9.98828 22.6042C9.98828 23.8054 10.4533 25.0648 10.979 26.0787C11.2399 26.5825 10.8459 27.1792 10.3564 27.0733C10.979 27.7708 15.0813 28.3095 19.5376 28.1105C19.1643 28.0214 18.9796 27.5254 19.2482 27.1405C20.3849 25.5065 21.6998 23.0123 21.6998 20.6667C21.6998 18.1479 19.5763 15.1732 17.9178 13.3377C17.5394 12.9192 16.878 13.1957 16.8574 13.7614C16.7889 15.6343 16.4931 18.1376 15.2195 20.1009C15.1744 20.1743 15.1122 20.2356 15.0381 20.2796C14.9641 20.3236 14.8805 20.349 14.7945 20.3535C14.7085 20.3581 14.6227 20.3417 14.5444 20.3058C14.4661 20.2699 14.3977 20.2156 14.3451 20.1474C13.9472 19.6437 13.5494 19.0224 13.1516 18.5315C12.9372 18.2667 12.5497 18.2629 12.3029 18.4967C11.3381 19.4099 9.98828 20.8333 9.98828 22.6042Z" fill="#FFAA00"/>
</svg>
