<svg width="24" height="20" viewBox="0 0 40 34" fill="none" xmlns="http://www.w3.org/2000/svg">
<path d="M11.1693 20.1225L19.4233 23.9388L27.6773 20.1225L21.0106 17.0376V21.3946H17.836V17.0376L11.1693 20.1225ZM17.836 14.1118V13.5711C16.672 13.2955 15.7196 12.7708 14.9788 11.9969C14.2381 11.223 13.8677 10.3272 13.8677 9.30956C13.8677 8.07985 14.4101 7.03036 15.4947 6.16109C16.5794 5.29181 17.8889 4.85718 19.4233 4.85718C20.9577 4.85718 22.2672 5.29181 23.3519 6.16109C24.4365 7.03036 24.9788 8.07985 24.9788 9.30956C24.9788 10.3272 24.6085 11.223 23.8677 11.9969C23.127 12.7708 22.1746 13.2955 21.0106 13.5711V14.1118L32.1217 19.232C32.6243 19.4652 33.0146 19.778 33.2923 20.1702C33.5701 20.5624 33.709 20.9918 33.709 21.4582V23.8752C33.709 24.3416 33.5701 24.771 33.2923 25.1632C33.0146 25.5555 32.6243 25.8682 32.1217 26.1014L21.0106 31.2216C20.5079 31.4549 19.9788 31.5715 19.4233 31.5715C18.8677 31.5715 18.3386 31.4549 17.836 31.2216L6.72487 26.1014C6.22223 25.8682 5.83202 25.5555 5.55424 25.1632C5.27646 24.771 5.13757 24.3416 5.13757 23.8752V21.4582C5.13757 20.9918 5.27646 20.5624 5.55424 20.1702C5.83202 19.778 6.22223 19.4652 6.72487 19.232L17.836 14.1118ZM17.836 26.1332L8.31218 21.7444V23.8752L19.4233 29.0272L30.5344 23.8752V21.7444L21.0106 26.1332C20.5079 26.3664 19.9788 26.483 19.4233 26.483C18.8677 26.483 18.3386 26.3664 17.836 26.1332ZM19.4233 11.2177C20.0847 11.2177 20.6468 11.0322 21.1098 10.6612C21.5728 10.2901 21.8042 9.8396 21.8042 9.30956C21.8042 8.77951 21.5728 8.32897 21.1098 7.95794C20.6468 7.58691 20.0847 7.4014 19.4233 7.4014C18.7619 7.4014 18.1997 7.58691 17.7368 7.95794C17.2738 8.32897 17.0423 8.77951 17.0423 9.30956C17.0423 9.8396 17.2738 10.2901 17.7368 10.6612C18.1997 11.0322 18.7619 11.2177 19.4233 11.2177Z" fill="currentColor"/>
</svg>
