<svg width="22" height="22" viewBox="0 0 22 22" fill="none" xmlns="http://www.w3.org/2000/svg">
<path d="M21.002 13H13.002V21H21.002V13ZM5.50195 1L10.002 9H1.00195L5.50195 1ZM17.002 9C18.0628 9 19.0802 8.57857 19.8304 7.82843C20.5805 7.07828 21.002 6.06087 21.002 5C21.002 3.93913 20.5805 2.92172 19.8304 2.17157C19.0802 1.42143 18.0628 1 17.002 1C15.9411 1 14.9237 1.42143 14.1735 2.17157C13.4234 2.92172 13.002 3.93913 13.002 5C13.002 6.06087 13.4234 7.07828 14.1735 7.82843C14.9237 8.57857 15.9411 9 17.002 9Z" stroke="currentColor" stroke-width="2" stroke-linejoin="round"/>
<path d="M1.00195 13L9.00195 21M9.00195 13L1.00195 21" stroke="currentColor" stroke-width="2" stroke-linecap="round" stroke-linejoin="round"/>
</svg>
