<svg width="75" height="83" viewBox="0 0 75 83" fill="none" xmlns="http://www.w3.org/2000/svg">
<g clip-path="url(#clip0_3472_9828)">
<path d="M35.0253 39.569L0.310547 75.979C0.70039 77.362 1.40095 78.6375 2.35868 79.708C3.3164 80.7785 4.50593 81.6155 5.83635 82.1552C7.16676 82.695 8.60282 82.923 10.0348 82.822C11.4667 82.7209 12.8566 82.2935 14.0982 81.5722L53.1589 59.3019L35.0253 39.569Z" fill="#EA4335"/>
<path d="M70.1278 33.3801L53.2367 23.6946L34.2236 40.3972L53.3141 59.2497L70.0766 49.668C71.5615 48.8896 72.8053 47.7192 73.6732 46.2836C74.541 44.8479 74.9998 43.2019 74.9998 41.5239C74.9998 39.8459 74.541 38.1998 73.6732 36.7642C72.8053 35.3286 71.5615 34.1582 70.0766 33.3798L70.1278 33.3801Z" fill="#FBBC04"/>
<path d="M0.310637 6.88843C0.100929 7.66503 -0.00352285 8.46633 9.06341e-05 9.27079V73.5964C0.00216136 74.4006 0.106516 75.2012 0.310637 75.979L36.2154 40.5014L0.310637 6.88843Z" fill="#4285F4"/>
<path d="M35.284 41.4337L53.2365 23.6949L14.2277 1.32069C12.76 0.460244 11.0908 0.00455346 9.38994 1.79873e-05C5.16914 -0.00819403 1.4584 2.79621 0.310547 6.86262L35.284 41.4337Z" fill="#34A853"/>
</g>
<defs>
<clipPath id="clip0_3472_9828">
<rect width="75" height="83" fill="white"/>
</clipPath>
</defs>
</svg>
