<svg width="70" height="70" viewBox="0 0 70 70" fill="none" xmlns="http://www.w3.org/2000/svg">
<path d="M10.7735 46.5937C10.1173 46.6484 4.97667 46.8672 4.21105 46.9218C2.78917 47.0312 2.89855 49.4375 4.32042 49.3828C5.08605 49.3281 10.8829 49.0547 10.8829 49.0547C12.4142 48.8906 12.2501 46.4843 10.7735 46.5937ZM15.8595 54.7968C15.6407 55.4531 14.0001 60.2656 13.7267 61.0312C13.2892 62.3984 15.586 63.164 16.0235 61.7968C16.297 61.0312 18.1564 55.5625 18.1564 55.5625C18.5939 54.1953 16.297 53.4297 15.8595 54.7968ZM60.922 10.0625C60.4298 10.5 56.4376 13.7265 55.8907 14.2734C54.797 15.2031 56.3282 17.0625 57.422 16.1328C58.0236 15.6406 62.4532 11.9218 62.4532 11.9218C63.6017 10.9375 62.0157 9.0781 60.922 10.0625ZM44.297 6.67185C44.5157 7.3281 45.8829 12.25 46.1017 12.9609C46.4845 14.3281 48.836 13.6718 48.4532 12.3047C48.2345 11.539 46.6486 6.0156 46.6486 6.0156C46.2111 4.59372 43.8595 5.24997 44.297 6.67185ZM12.6329 50.914C12.086 51.2968 4.97667 56.2734 4.32042 56.7656C3.17199 57.5859 4.59386 59.6093 5.7423 58.7343C6.39855 58.2422 14.0548 52.8828 14.0548 52.8828C15.2579 51.9531 13.7814 49.9843 12.6329 50.914ZM54.4689 3.17185C54.2501 3.8281 51.297 12.0312 51.0782 12.7968C50.6407 14.164 52.9376 14.9843 53.3751 13.6172C53.6485 12.8515 56.7657 3.99216 56.7657 3.99216C57.2032 2.57028 54.9064 1.80466 54.4689 3.17185Z" fill="#BDCCD4"/>
<path d="M54.1406 24.4453C55.1797 21.9843 57.1484 20.2343 59.4453 20.7812C61.0312 21.1093 61.3594 22.5859 61.25 23.4609C59.9922 32.1562 61.8516 38.8281 61.3594 45.2812C60.7578 53.4297 55.6172 61.8515 44.8437 62.6172C38.0078 64.2578 30.4062 63.1093 24.2812 57.1484C20.8906 53.8672 17.9375 51.3515 13.8359 44.6797C12.1406 41.8906 9.51562 37.4609 9.51562 34.5625C9.51562 32.1015 11.9766 31.3359 13.2344 32.4843C11.5938 29.8593 10.8281 27.9453 10.7734 25.7031C10.7188 23.8437 13.0156 22.5312 14.4922 23.9531C13.2344 21.9297 11.4844 18.375 14.1094 16.5703C14.9297 16.0234 17.0078 15.3125 19.5234 18.4843C18.8672 17.2265 18.1562 15.0937 19.9062 13.6718C20.8359 12.9062 22.6406 12.6875 24.1719 14.4375C24.0625 13.7812 24.9922 12.1406 26.5234 12.0859C28.3828 11.9765 29.8594 13.6718 30.9531 14.9297C29.8594 10.5547 34.3984 9.29684 36.9141 12.25C38.2266 13.7265 41.2891 17.4453 45.8828 25.1015C45.7734 20.5078 48.0156 16.4609 51.2969 17.0625C52.4453 17.2812 53.5937 18.0468 53.7031 20.1797C53.9219 22.0937 54.1406 24.4453 54.1406 24.4453Z" fill="#FFCA28"/>
<mask id="mask0_3207_61503" style="mask-type:luminance" maskUnits="userSpaceOnUse" x="9" y="10" width="53" height="54">
<path d="M54.1406 24.4453C55.1797 21.9843 57.1484 20.2343 59.4453 20.7812C61.0312 21.1093 61.3594 22.5859 61.25 23.4609C59.9922 32.1562 61.8516 38.8281 61.3594 45.2812C60.7578 53.4297 55.6172 61.8515 44.8437 62.6172C38.0078 64.2578 30.4062 63.1093 24.2812 57.1484C20.8906 53.8672 17.9375 51.3515 13.8359 44.6797C12.1406 41.8906 9.51562 37.4609 9.51562 34.5625C9.51562 32.1015 11.9766 31.3359 13.2344 32.4843C11.5938 29.8593 10.8281 27.9453 10.7734 25.7031C10.7188 23.8437 13.0156 22.5312 14.4922 23.9531C13.2344 21.9297 11.4844 18.375 14.1094 16.5703C14.9297 16.0234 17.0078 15.3125 19.5234 18.4843C18.8672 17.2265 18.1562 15.0937 19.9062 13.6718C20.8359 12.9062 22.6406 12.6875 24.1719 14.4375C24.0625 13.7812 24.9922 12.1406 26.5234 12.0859C28.3828 11.9765 29.8594 13.6718 30.9531 14.9297C29.8594 10.5547 34.3984 9.29684 36.9141 12.25C38.2266 13.7265 41.2891 17.4453 45.8828 25.1015C45.7734 20.5078 48.0156 16.4609 51.2969 17.0625C52.4453 17.2812 53.5937 18.0468 53.7031 20.1797C53.9219 22.0937 54.1406 24.4453 54.1406 24.4453Z" fill="white"/>
</mask>
<g mask="url(#mask0_3207_61503)">
<path d="M41.3984 62.3438C37.2422 62.2344 30.1328 62.5078 21.1641 52.5547C19.5781 50.8047 13.6719 43.6406 10.5547 35.4375C10.2812 34.7813 10.3359 33.3047 11.4297 32.9219C12.5234 32.5391 13.2891 33.5234 13.8906 34.4531C14.3281 35.1094 16.6797 38.9922 18.0469 40.5781C18.5938 41.1797 18.8672 40.7422 18.9766 40.6328C15.8594 35.3281 11.7031 28.5469 11.7031 25.9766C11.7031 24.5547 13.2344 23.625 14.3281 25.0469C15.2031 26.1406 19.0859 31.0078 19.5781 31.6641C20.0703 32.2656 20.4531 31.7734 20.6172 31.6641C18.375 28.7656 13.4531 21.2188 13.8359 18.8125C14.0547 17.3906 15.9688 16.3516 17.2812 17.6641C18.2656 18.6484 23.6797 24.6641 23.6797 24.6641C23.6797 24.6641 24.2266 25.2656 24.6641 24.7188C22.0391 21.4375 18.375 16.3516 20.5625 14.5469C21.4375 13.8359 22.5859 13.5078 24.9375 16.0234C26.4688 17.6641 36.75 26.9609 45.8281 32.9766C46.7031 33.5234 47.3047 32.6484 47.25 31.8281C46.4844 23.6797 47.3047 17.8281 50.75 17.7734C52.3359 17.7734 52.9922 18.9766 53.1016 20.6172C53.2109 22.2031 53.7031 26.6328 54.8516 31.1719C56 35.7656 57.6953 42.1641 57.2031 46.9766C56.7109 51.7891 53.2656 57.5859 50.0391 59.5547C46.7578 61.5234 44.5156 62.0156 44.1328 62.125C43.75 62.2344 43.2031 63.4375 44.5703 63.1641C45.9375 62.9453 50.1484 62.5625 50.1484 62.5625L56.2188 59.3359L61.4141 52.8281L63.6562 43.5859L62.9453 17.1172L48.125 14.5469L34.125 7.98438L11.1016 14L7.16406 35.9844L16.625 52.3906L28.3828 63.2734C28.3828 63.2734 40.6328 64.1484 41.5078 64.0391C42.3281 63.9844 42.7656 62.3984 41.3984 62.3438Z" fill="#FAA700"/>
</g>
<mask id="mask1_3207_61503" style="mask-type:luminance" maskUnits="userSpaceOnUse" x="9" y="10" width="53" height="54">
<path d="M54.1406 24.4453C55.1797 21.9843 57.1484 20.2343 59.4453 20.7812C61.0312 21.1093 61.3594 22.5859 61.25 23.4609C59.9922 32.1562 61.8516 38.8281 61.3594 45.2812C60.7578 53.4297 55.6172 61.8515 44.8437 62.6172C38.0078 64.2578 30.4062 63.1093 24.2812 57.1484C20.8906 53.8672 17.9375 51.3515 13.8359 44.6797C12.1406 41.8906 9.51562 37.4609 9.51562 34.5625C9.51562 32.1015 11.9766 31.3359 13.2344 32.4843C11.5938 29.8593 10.8281 27.9453 10.7734 25.7031C10.7188 23.8437 13.0156 22.5312 14.4922 23.9531C13.2344 21.9297 11.4844 18.375 14.1094 16.5703C14.9297 16.0234 17.0078 15.3125 19.5234 18.4843C18.8672 17.2265 18.1562 15.0937 19.9062 13.6718C20.8359 12.9062 22.6406 12.6875 24.1719 14.4375C24.0625 13.7812 24.9922 12.1406 26.5234 12.0859C28.3828 11.9765 29.8594 13.6718 30.9531 14.9297C29.8594 10.5547 34.3984 9.29684 36.9141 12.25C38.2266 13.7265 41.2891 17.4453 45.8828 25.1015C45.7734 20.5078 48.0156 16.4609 51.2969 17.0625C52.4453 17.2812 53.5937 18.0468 53.7031 20.1797C53.9219 22.0937 54.1406 24.4453 54.1406 24.4453Z" fill="white"/>
</mask>
<g mask="url(#mask1_3207_61503)">
<path d="M52.5001 16.5156C52.1172 16.7343 52.1172 17.1171 52.5001 17.7187C52.7735 18.1562 52.9923 18.7031 52.9376 20.1249C52.7188 31.0624 56.6563 35.6015 56.4376 45.9374C56.2188 57.039 47.7969 63.7109 34.3438 62.1249C32.9766 61.9609 33.4141 63.2187 33.4141 63.2187C33.4141 63.2187 36.9688 63.9843 38.2813 63.8749C42.9297 63.6015 44.8985 62.5078 44.8985 62.5078C51.6251 61.0859 58.1329 54.5781 58.1329 45.8281C58.1329 38.7734 55.0157 30.4609 54.1954 24.3906C53.9219 22.3671 54.7969 20.3437 54.961 19.3046C55.1251 17.6093 53.8672 15.7499 52.5001 16.5156ZM13.2891 32.4296C12.961 31.8828 12.4688 32.2109 12.7422 32.7578C13.0704 33.414 15.8594 39.5937 21.8204 46.2656C22.0938 46.539 22.3672 47.0859 22.4219 47.3046C22.586 48.0703 23.5157 47.9609 23.6797 47.3046C23.7344 47.0312 23.8438 46.7578 23.8985 46.4843C23.9532 46.3203 24.0079 45.9374 23.6797 45.6093C20.1251 42.0546 16.6797 38.0078 13.2891 32.4296ZM14.4922 23.8984C14.3282 23.6796 14.1094 23.4609 14.0547 23.2968C13.7813 23.4062 13.6172 23.5703 13.8907 24.2265C16.2422 29.4218 23.6251 37.0781 25.4297 38.8281C25.8672 39.2656 25.9219 39.539 26.0313 39.9218C26.4141 41.3437 27.2891 41.1796 27.6172 40.5781C27.836 40.1406 28.0547 39.7578 28.1094 39.539C28.1641 39.3203 28.2188 39.0468 27.8907 38.7734C23.3516 34.7812 18.1563 28.7656 14.4922 23.8984ZM19.5782 18.3749C19.3047 17.9374 18.8126 17.2265 18.8126 17.2265C18.8126 17.2265 18.1563 17.3906 18.5938 18.2109C21.2188 23.1328 28.1094 30.8984 30.7891 33.0859C31.0626 33.3046 31.5001 33.9062 31.6641 34.3984C31.9922 35.4374 32.8126 35.3828 33.2501 34.8359C33.4688 34.5624 33.6876 34.289 33.7969 33.9609C33.961 33.6874 33.8516 33.3046 33.4141 32.9218C25.5938 26.1953 19.5782 18.3749 19.5782 18.3749ZM31.9922 10.6093C31.7188 11.4296 31.1172 12.7968 32.211 15.039C34.2344 19.2499 38.3907 23.1328 41.0157 29.6406C40.2501 29.0937 39.6485 28.6015 38.7188 27.8906C36.8047 23.2968 31.4454 17.2265 31.0079 14.7656C30.6797 13.0703 30.2422 11.3203 30.2422 11.3203L31.9922 10.6093Z" fill="#B55E19"/>
</g>
</svg>
