<svg width="20" height="16" viewBox="0 0 20 16" fill="none" xmlns="http://www.w3.org/2000/svg">
<path d="M5.21739 13.4194C4.49275 13.4194 3.87681 13.1685 3.36957 12.6667C2.86232 12.1649 2.6087 11.5556 2.6087 10.8387V3.09677H4.34783V10.8387C4.34783 11.0824 4.4313 11.2869 4.59826 11.452C4.76522 11.6172 4.97159 11.6995 5.21739 11.6989C5.46319 11.6984 5.66985 11.6158 5.83739 11.4512C6.00493 11.2866 6.08812 11.0824 6.08696 10.8387V5.67742C6.08696 4.96057 6.34058 4.35125 6.84783 3.84946C7.35507 3.34767 7.97101 3.09677 8.69565 3.09677C9.42029 3.09677 10.0362 3.34767 10.5435 3.84946C11.0507 4.35125 11.3043 4.96057 11.3043 5.67742V10.8387C11.3043 11.0824 11.3878 11.2869 11.5548 11.452C11.7217 11.6172 11.9281 11.6995 12.1739 11.6989C12.4197 11.6984 12.6264 11.6158 12.7939 11.4512C12.9614 11.2866 13.0446 11.0824 13.0435 10.8387V4.8172C13.0435 4.10036 13.2971 3.49104 13.8043 2.98925C14.3116 2.48745 14.9275 2.23656 15.6522 2.23656H16.6739L15.6522 1.22581L16.8696 0L20 3.09677L16.8696 6.17204L15.6522 4.94624L16.6739 3.95699H15.6522C15.4058 3.95699 15.1994 4.03957 15.033 4.20473C14.8667 4.36989 14.7832 4.57405 14.7826 4.8172V10.8387C14.7826 11.5556 14.529 12.1649 14.0217 12.6667C13.5145 13.1685 12.8986 13.4194 12.1739 13.4194C11.4493 13.4194 10.8333 13.1685 10.3261 12.6667C9.81884 12.1649 9.56522 11.5556 9.56522 10.8387V5.67742C9.56522 5.43369 9.48174 5.22953 9.31478 5.06495C9.14783 4.90036 8.94145 4.81778 8.69565 4.8172C8.44985 4.81663 8.24348 4.89921 8.07652 5.06495C7.90957 5.23068 7.82609 5.43484 7.82609 5.67742V10.8387C7.82609 11.5556 7.57246 12.1649 7.06522 12.6667C6.55797 13.1685 5.94203 13.4194 5.21739 13.4194ZM1.73913 16C1.26087 16 0.851594 15.8317 0.511304 15.4951C0.171015 15.1584 0.00057971 14.7533 0 14.2796V7.39785H19.1304V14.2796C19.1304 14.7527 18.9603 15.1578 18.62 15.4951C18.2797 15.8323 17.8701 16.0006 17.3913 16H1.73913ZM1.73913 14.2796H17.3913V9.11828H1.73913V14.2796Z" fill="white"/>
</svg>
