<svg width="27" height="27" viewBox="0 0 27 27" fill="none" xmlns="http://www.w3.org/2000/svg">
<path d="M25.2956 10.4649C24.8412 9.99 24.3711 9.50063 24.1939 9.07031C24.03 8.67616 24.0204 8.02286 24.0107 7.39004C23.9926 6.21362 23.9733 4.88049 23.0464 3.95357C22.1195 3.02665 20.7864 3.00737 19.61 2.98929C18.9771 2.97964 18.3238 2.97 17.9297 2.80607C17.5006 2.62888 17.01 2.15879 16.5351 1.70437C15.7034 0.905223 14.7584 0 13.5 0C12.2416 0 11.2978 0.905223 10.4649 1.70437C9.99 2.15879 9.50063 2.62888 9.07031 2.80607C8.67857 2.97 8.02286 2.97964 7.39004 2.98929C6.21362 3.00737 4.88049 3.02665 3.95357 3.95357C3.02665 4.88049 3.01339 6.21362 2.98929 7.39004C2.97964 8.02286 2.97 8.67616 2.80607 9.07031C2.62888 9.49942 2.15879 9.99 1.70437 10.4649C0.905223 11.2966 0 12.2416 0 13.5C0 14.7584 0.905223 15.7022 1.70437 16.5351C2.15879 17.01 2.62888 17.4994 2.80607 17.9297C2.97 18.3238 2.97964 18.9771 2.98929 19.61C3.00737 20.7864 3.02665 22.1195 3.95357 23.0464C4.88049 23.9733 6.21362 23.9926 7.39004 24.0107C8.02286 24.0204 8.67616 24.03 9.07031 24.1939C9.49942 24.3711 9.99 24.8412 10.4649 25.2956C11.2966 26.0948 12.2416 27 13.5 27C14.7584 27 15.7022 26.0948 16.5351 25.2956C17.01 24.8412 17.4994 24.3711 17.9297 24.1939C18.3238 24.03 18.9771 24.0204 19.61 24.0107C20.7864 23.9926 22.1195 23.9733 23.0464 23.0464C23.9733 22.1195 23.9926 20.7864 24.0107 19.61C24.0204 18.9771 24.03 18.3238 24.1939 17.9297C24.3711 17.5006 24.8412 17.01 25.2956 16.5351C26.0948 15.7034 27 14.7584 27 13.5C27 12.2416 26.0948 11.2978 25.2956 10.4649ZM13.5 21.2143C13.2139 21.2143 12.9343 21.1295 12.6964 20.9705C12.4585 20.8116 12.2732 20.5857 12.1637 20.3214C12.0542 20.0571 12.0256 19.7663 12.0814 19.4857C12.1372 19.2051 12.2749 18.9474 12.4772 18.7451C12.6795 18.5428 12.9372 18.405 13.2178 18.3492C13.4984 18.2934 13.7892 18.3221 14.0535 18.4315C14.3178 18.541 14.5437 18.7264 14.7027 18.9643C14.8616 19.2021 14.9464 19.4818 14.9464 19.7679C14.9464 20.1515 14.794 20.5194 14.5228 20.7906C14.2515 21.0619 13.8836 21.2143 13.5 21.2143ZM14.4643 15.3418V15.4286C14.4643 15.6843 14.3627 15.9296 14.1819 16.1104C14.001 16.2913 13.7557 16.3929 13.5 16.3929C13.2443 16.3929 12.999 16.2913 12.8181 16.1104C12.6373 15.9296 12.5357 15.6843 12.5357 15.4286V14.4643C12.5357 14.2085 12.6373 13.9633 12.8181 13.7824C12.999 13.6016 13.2443 13.5 13.5 13.5C15.0947 13.5 16.3929 12.4152 16.3929 11.0893C16.3929 9.76339 15.0947 8.67857 13.5 8.67857C11.9053 8.67857 10.6071 9.76339 10.6071 11.0893V11.5714C10.6071 11.8272 10.5055 12.0724 10.3247 12.2533C10.1439 12.4341 9.8986 12.5357 9.64286 12.5357C9.38711 12.5357 9.14184 12.4341 8.961 12.2533C8.78017 12.0724 8.67857 11.8272 8.67857 11.5714V11.0893C8.67857 8.69665 10.841 6.75 13.5 6.75C16.159 6.75 18.3214 8.69665 18.3214 11.0893C18.3214 13.1842 16.6629 14.938 14.4643 15.3418Z" fill="currentColor"/>
</svg>
