<svg width="26" height="61" viewBox="0 0 26 61" fill="none" xmlns="http://www.w3.org/2000/svg">
<path d="M1 11.7483C1 7.98641 1 6.10546 1.436 4.66787C1.81949 3.40391 2.43139 2.37627 3.184 1.73223C4.04 1 5.16 1 7.4 1H18.6C20.84 1 21.96 1 22.816 1.73223C23.5686 2.37627 24.1805 3.40391 24.564 4.66787C25 6.10546 25 7.98641 25 11.7483V56.4379C25 58.0703 25 58.8865 24.798 59.3332C24.7107 59.5275 24.5993 59.6876 24.4716 59.8024C24.3438 59.9173 24.2027 59.9841 24.058 59.9983C23.724 60.0319 23.32 59.5784 22.512 58.6749L13 48.024L3.488 58.6715C2.68 59.5784 2.276 60.0319 1.94 59.9983C1.79567 59.9836 1.65495 59.9166 1.52754 59.8017C1.40014 59.6869 1.28907 59.5271 1.202 59.3332C1 58.8865 1 58.0703 1 56.4379V11.7483Z" fill="currentColor" stroke="white" stroke-linecap="round" stroke-linejoin="round"/>
<path d="M7.892 40.3V42.952C7.804 42.976 7.664 43 7.472 43.024C7.28 43.048 7.092 43.06 6.908 43.06C6.724 43.06 6.56 43.044 6.416 43.012C6.28 42.988 6.164 42.94 6.068 42.868C5.972 42.796 5.9 42.696 5.852 42.568C5.804 42.44 5.78 42.272 5.78 42.064V35.728C5.868 35.712 6.008 35.692 6.2 35.668C6.392 35.636 6.576 35.62 6.752 35.62C6.936 35.62 7.096 35.636 7.232 35.668C7.376 35.692 7.496 35.74 7.592 35.812C7.688 35.884 7.76 35.984 7.808 36.112C7.856 36.24 7.88 36.408 7.88 36.616V38.524L10.376 35.656C10.92 35.656 11.308 35.76 11.54 35.968C11.78 36.168 11.9 36.408 11.9 36.688C11.9 36.896 11.848 37.092 11.744 37.276C11.64 37.46 11.472 37.668 11.24 37.9L9.74 39.4C9.94 39.624 10.148 39.856 10.364 40.096C10.588 40.336 10.804 40.572 11.012 40.804C11.228 41.028 11.432 41.244 11.624 41.452C11.824 41.66 11.996 41.84 12.14 41.992C12.14 42.168 12.108 42.324 12.044 42.46C11.98 42.596 11.892 42.712 11.78 42.808C11.676 42.904 11.556 42.976 11.42 43.024C11.284 43.072 11.14 43.096 10.988 43.096C10.66 43.096 10.392 43.016 10.184 42.856C9.976 42.688 9.776 42.492 9.584 42.268L7.892 40.3ZM19.7508 42.748C19.6388 42.86 19.4748 42.944 19.2588 43C19.0508 43.064 18.7988 43.096 18.5028 43.096C18.2068 43.096 17.9268 43.052 17.6628 42.964C17.3988 42.876 17.1828 42.664 17.0148 42.328L15.8268 39.904C15.7068 39.656 15.5988 39.424 15.5028 39.208C15.4068 38.984 15.3028 38.728 15.1908 38.44L15.1188 38.452C15.1508 38.884 15.1668 39.324 15.1668 39.772C15.1748 40.22 15.1788 40.66 15.1788 41.092V42.952C15.0908 42.976 14.9548 43 14.7708 43.024C14.5948 43.048 14.4188 43.06 14.2428 43.06C14.0668 43.06 13.9108 43.048 13.7748 43.024C13.6388 43 13.5268 42.952 13.4388 42.88C13.3508 42.808 13.2828 42.712 13.2348 42.592C13.1868 42.464 13.1628 42.3 13.1628 42.1V36.1C13.2748 35.94 13.4468 35.82 13.6788 35.74C13.9108 35.66 14.1588 35.62 14.4228 35.62C14.7188 35.62 14.9988 35.668 15.2628 35.764C15.5348 35.852 15.7508 36.06 15.9108 36.388L17.1108 38.812C17.2308 39.06 17.3388 39.296 17.4348 39.52C17.5308 39.736 17.6348 39.988 17.7468 40.276L17.8068 40.264C17.7748 39.832 17.7548 39.4 17.7468 38.968C17.7388 38.536 17.7348 38.104 17.7348 37.672V35.728C17.8228 35.704 17.9548 35.68 18.1308 35.656C18.3148 35.632 18.4948 35.62 18.6708 35.62C19.0228 35.62 19.2908 35.684 19.4748 35.812C19.6588 35.932 19.7508 36.188 19.7508 36.58V42.748Z" fill="white"/>
<path d="M8.892 24.524C9.348 24.524 9.752 24.584 10.104 24.704C10.456 24.816 10.756 24.972 11.004 25.172C11.252 25.372 11.44 25.608 11.568 25.88C11.696 26.152 11.76 26.444 11.76 26.756C11.76 27.596 11.284 28.396 10.332 29.156L8.76 30.416H11.64C11.688 30.504 11.732 30.616 11.772 30.752C11.82 30.888 11.844 31.036 11.844 31.196C11.844 31.484 11.78 31.692 11.652 31.82C11.524 31.94 11.356 32 11.148 32H6.984C6.808 31.88 6.668 31.728 6.564 31.544C6.468 31.352 6.42 31.128 6.42 30.872C6.42 30.6 6.476 30.372 6.588 30.188C6.7 29.996 6.824 29.844 6.96 29.732L8.616 28.316C8.824 28.14 8.996 27.984 9.132 27.848C9.268 27.704 9.376 27.576 9.456 27.464C9.544 27.352 9.604 27.248 9.636 27.152C9.676 27.056 9.696 26.964 9.696 26.876C9.696 26.652 9.596 26.476 9.396 26.348C9.204 26.22 8.964 26.156 8.676 26.156C8.356 26.156 8.068 26.208 7.812 26.312C7.564 26.408 7.356 26.512 7.188 26.624C7.052 26.528 6.94 26.408 6.852 26.264C6.764 26.12 6.72 25.952 6.72 25.76C6.72 25.344 6.916 25.036 7.308 24.836C7.7 24.628 8.228 24.524 8.892 24.524ZM17.0695 28.352C17.0695 27.648 16.9655 27.104 16.7575 26.72C16.5575 26.336 16.2695 26.144 15.8935 26.144C15.5175 26.144 15.2295 26.336 15.0295 26.72C14.8375 27.104 14.7415 27.648 14.7415 28.352C14.7415 29.056 14.8375 29.604 15.0295 29.996C15.2295 30.38 15.5175 30.572 15.8935 30.572C16.2695 30.572 16.5575 30.38 16.7575 29.996C16.9655 29.604 17.0695 29.056 17.0695 28.352ZM19.1215 28.352C19.1215 28.968 19.0415 29.516 18.8815 29.996C18.7215 30.476 18.4975 30.88 18.2095 31.208C17.9295 31.528 17.5895 31.772 17.1895 31.94C16.7975 32.108 16.3695 32.192 15.9055 32.192C15.4335 32.192 14.9975 32.108 14.5975 31.94C14.2055 31.772 13.8655 31.528 13.5775 31.208C13.2975 30.88 13.0775 30.476 12.9175 29.996C12.7655 29.516 12.6895 28.968 12.6895 28.352C12.6895 27.736 12.7655 27.192 12.9175 26.72C13.0775 26.24 13.2975 25.84 13.5775 25.52C13.8655 25.192 14.2055 24.944 14.5975 24.776C14.9975 24.608 15.4335 24.524 15.9055 24.524C16.3695 24.524 16.7975 24.608 17.1895 24.776C17.5895 24.944 17.9295 25.192 18.2095 25.52C18.4975 25.84 18.7215 26.24 18.8815 26.72C19.0415 27.192 19.1215 27.736 19.1215 28.352Z" fill="white"/>
<path fill-rule="evenodd" clip-rule="evenodd" d="M11.6667 8.22222C11.6667 7.89807 11.7954 7.58719 12.0246 7.35798C12.2539 7.12877 12.5647 7 12.8889 7H14.1111C14.4353 7 14.7461 7.12877 14.9754 7.35798C15.2046 7.58719 15.3333 7.89807 15.3333 8.22222V10.6667H17.7778C18.1019 10.6667 18.4128 10.7954 18.642 11.0246C18.8712 11.2539 19 11.5647 19 11.8889V13.1111C19 13.4353 18.8712 13.7461 18.642 13.9754C18.4128 14.2046 18.1019 14.3333 17.7778 14.3333H15.3333V16.7778C15.3333 17.1019 15.2046 17.4128 14.9754 17.642C14.7461 17.8712 14.4353 18 14.1111 18H12.8889C12.5647 18 12.2539 17.8712 12.0246 17.642C11.7954 17.4128 11.6667 17.1019 11.6667 16.7778V14.3333H9.22222C8.89807 14.3333 8.58719 14.2046 8.35798 13.9754C8.12877 13.7461 8 13.4353 8 13.1111V11.8889C8 11.5647 8.12877 11.2539 8.35798 11.0246C8.58719 10.7954 8.89807 10.6667 9.22222 10.6667H11.6667V8.22222Z" fill="white"/>
</svg>
