<svg width="15" height="15" viewBox="0 0 15 15" fill="none" xmlns="http://www.w3.org/2000/svg">
<path d="M9.66667 14H5.33333M9.66667 14V7.93301C9.66667 7.81808 9.62101 7.70785 9.53975 7.62658C9.45848 7.54531 9.34826 7.49965 9.23333 7.49965H5.76667C5.65174 7.49965 5.54152 7.54531 5.46025 7.62658C5.37899 7.70785 5.33333 7.81808 5.33333 7.93301V14M9.66667 14H13.5667C13.6816 14 13.7918 13.9543 13.8731 13.8731C13.9543 13.7918 14 13.6816 14 13.5666V11.9054C14 11.7905 13.9543 11.6803 13.8731 11.599C13.7918 11.5177 13.6816 11.4721 13.5667 11.4721H10.1C9.98507 11.4721 9.87485 11.5177 9.79359 11.599C9.71232 11.6803 9.66667 11.7905 9.66667 11.9054V14ZM5.33333 14V10.4609C5.33333 10.346 5.28768 10.2358 5.20641 10.1545C5.12515 10.0732 5.01493 10.0276 4.9 10.0276H1.43333C1.31841 10.0276 1.20819 10.0732 1.12692 10.1545C1.04565 10.2358 1 10.346 1 10.4609V13.5666C1 13.6816 1.04565 13.7918 1.12692 13.8731C1.20819 13.9543 1.31841 14 1.43333 14H5.33333ZM6.63767 2.52544L7.29417 1.13365C7.31189 1.09386 7.34076 1.06006 7.37729 1.03634C7.41382 1.01262 7.45645 1 7.5 1C7.54355 1 7.58618 1.01262 7.62271 1.03634C7.65924 1.06006 7.68811 1.09386 7.70583 1.13365L8.36306 2.52544L9.83061 2.75007C10.0191 2.77896 10.0942 3.02164 9.95772 3.16031L8.89606 4.2437L9.14667 5.77345C9.17844 5.9699 8.982 6.12014 8.813 6.02696L7.5 5.3047L6.187 6.02696C6.01872 6.11941 5.82156 5.9699 5.85333 5.77345L6.10394 4.2437L5.04228 3.16031C4.90506 3.02164 4.98089 2.77896 5.16867 2.75007L6.63767 2.52544Z" stroke="white" stroke-width="1.5" stroke-linecap="round" stroke-linejoin="round"/>
</svg>
