<svg width="16" height="23" viewBox="0 0 16 23" fill="none" xmlns="http://www.w3.org/2000/svg">
<path d="M3.19922 13.8503V21.6C3.1991 21.7416 3.23661 21.8808 3.3079 22.0032C3.37919 22.1256 3.48171 22.2269 3.60498 22.2967C3.72825 22.3665 3.86785 22.4024 4.0095 22.4005C4.15116 22.3987 4.28978 22.3593 4.41122 22.2864L7.99922 20.1328L11.5872 22.2864C11.7087 22.3593 11.8473 22.3987 11.9889 22.4005C12.1306 22.4024 12.2702 22.3665 12.3935 22.2967C12.5167 22.2269 12.6192 22.1256 12.6905 22.0032C12.7618 21.8808 12.7993 21.7416 12.7992 21.6V13.8503C11.3548 14.7354 9.69323 15.2026 7.99922 15.1999C6.24002 15.1999 4.59682 14.7063 3.19922 13.8503Z" fill="url(#paint0_radial_2660_9228)"/>
<path d="M12.8 14.4C11.4163 15.4407 9.73134 16.0023 8 16C6.14299 16.0027 4.34336 15.3567 2.912 14.1736C2.00047 13.4238 1.26651 12.4812 0.762984 11.4137C0.259454 10.3462 -0.00112524 9.18032 3.65235e-06 8.00001C3.65235e-06 3.58161 3.5816 0 8 0C12.4184 0 16 3.58161 16 8.00001C16.0006 9.24209 15.7117 10.4672 15.1563 11.5782C14.6008 12.6891 13.794 13.6553 12.8 14.4Z" fill="url(#paint1_radial_2660_9228)"/>
<path d="M8.26978 4.168L9.34178 6.34401L11.7442 6.69121C11.9898 6.72641 12.0882 7.02881 11.9098 7.20321L10.173 8.89521L10.5834 11.2872C10.5926 11.3423 10.5863 11.3989 10.5651 11.4505C10.5439 11.5022 10.5087 11.5469 10.4635 11.5797C10.4182 11.6125 10.3648 11.6319 10.3091 11.636C10.2534 11.64 10.1976 11.6284 10.1482 11.6024L8.00098 10.472L5.85378 11.6024C5.80426 11.6284 5.74845 11.6401 5.69266 11.636C5.63687 11.632 5.58332 11.6124 5.53806 11.5796C5.49279 11.5467 5.45762 11.5018 5.43651 11.45C5.4154 11.3982 5.40919 11.3416 5.41858 11.2864L5.83138 8.89441L4.09218 7.20241C4.05226 7.16336 4.02403 7.11394 4.01067 7.05972C3.9973 7.00549 3.99934 6.94862 4.01655 6.89549C4.03377 6.84236 4.06546 6.79509 4.10808 6.759C4.1507 6.72291 4.20255 6.69943 4.25778 6.69121L6.66018 6.34401L7.73218 4.168C7.757 4.11792 7.79532 4.07577 7.84281 4.0463C7.89031 4.01684 7.94509 4.00122 8.00098 4.00122C8.05688 4.00122 8.11166 4.01684 8.15915 4.0463C8.20665 4.07577 8.24496 4.11792 8.26978 4.168Z" fill="url(#paint2_radial_2660_9228)"/>
<defs>
<radialGradient id="paint0_radial_2660_9228" cx="0" cy="0" r="1" gradientUnits="userSpaceOnUse" gradientTransform="translate(7.99922 12.5167) rotate(90) scale(13.4755 21.1909)">
<stop stop-color="#163697"/>
<stop offset="1" stop-color="#29C3FF"/>
</radialGradient>
<radialGradient id="paint1_radial_2660_9228" cx="0" cy="0" r="1" gradientUnits="userSpaceOnUse" gradientTransform="translate(-34.5711 -56) rotate(56.6151) scale(89.3081 76.4882)">
<stop offset="0.772" stop-color="#FFCD0F"/>
<stop offset="0.991" stop-color="#E67505"/>
</radialGradient>
<radialGradient id="paint2_radial_2660_9228" cx="0" cy="0" r="1" gradientUnits="userSpaceOnUse" gradientTransform="translate(10.001 11.6376) rotate(-106.66) scale(13.9519 20.1287)">
<stop stop-color="#B03111"/>
<stop offset="1" stop-color="#E67505"/>
</radialGradient>
</defs>
</svg>
