<svg width="12" height="11" viewBox="0 0 12 11" fill="none" xmlns="http://www.w3.org/2000/svg">
<path fill-rule="evenodd" clip-rule="evenodd" d="M5.05817 1.08839C5.28145 0.753506 5.58397 0.47894 5.93887 0.289071C6.29377 0.0992023 6.69006 -9.36718e-05 7.09256 6.63068e-08H7.22272C7.40025 -2.17553e-05 7.57565 0.038631 7.73673 0.11327C7.89781 0.187909 8.04069 0.296742 8.15544 0.432199C8.2702 0.567656 8.35406 0.726486 8.40121 0.897641C8.44835 1.0688 8.45765 1.24817 8.42844 1.42328L8.05444 3.66667H9.50889C9.78013 3.66665 10.048 3.72682 10.2932 3.84283C10.5383 3.95885 10.7547 4.12782 10.9267 4.33756C11.0987 4.5473 11.222 4.79259 11.2877 5.05575C11.3534 5.3189 11.3599 5.59336 11.3068 5.85933L10.5734 9.526C10.4904 9.94166 10.2658 10.3157 9.93802 10.5844C9.61023 10.8532 9.19944 11 8.77556 11H1.83333C1.3471 11 0.880788 10.8068 0.536971 10.463C0.193154 10.1192 0 9.6529 0 9.16667V4.27778C0 4.1157 0.0643847 3.96026 0.17899 3.84566C0.293596 3.73105 0.449034 3.66667 0.611111 3.66667H3.01278C3.11336 3.66668 3.21239 3.64187 3.30109 3.59443C3.38978 3.54699 3.4654 3.47839 3.52122 3.39472L5.05817 1.08839ZM2.44444 4.88889H1.22222V9.16667C1.22222 9.32874 1.28661 9.48418 1.40121 9.59879C1.51582 9.71339 1.67126 9.77778 1.83333 9.77778H2.44444V4.88889Z" fill="white"/>
</svg>
