<svg width="25" height="19" viewBox="0 0 25 19" fill="none" xmlns="http://www.w3.org/2000/svg">
<path d="M24.2695 10.2061L16.0664 18.4092C15.334 19.1417 14.0645 18.629 14.0645 17.5792V12.8917H7.42383C6.77441 12.8917 6.25195 12.3692 6.25195 11.7198V7.03229C6.25195 6.38287 6.77441 5.86041 7.42383 5.86041H14.0645V1.17291C14.0645 0.127992 15.3291 -0.389587 16.0664 0.342835L24.2695 8.54596C24.7236 9.00494 24.7236 9.74713 24.2695 10.2061ZM9.37695 18.1651V16.212C9.37695 15.8897 9.11328 15.626 8.79102 15.626H4.68945C3.8252 15.626 3.12695 14.9278 3.12695 14.0635V4.68854C3.12695 3.82428 3.8252 3.12604 4.68945 3.12604H8.79102C9.11328 3.12604 9.37695 2.86237 9.37695 2.5401V0.586976C9.37695 0.26471 9.11328 0.0010385 8.79102 0.0010385H4.68945C2.10156 0.0010385 0.00195312 2.10065 0.00195312 4.68854V14.0635C0.00195312 16.6514 2.10156 18.751 4.68945 18.751H8.79102C9.11328 18.751 9.37695 18.4874 9.37695 18.1651Z" fill="white"/>
</svg>
