<svg width="35" height="41" viewBox="0 0 35 41" fill="none" xmlns="http://www.w3.org/2000/svg">
<g filter="url(#filter0_iii_2658_8694)">
<path d="M14.7607 1.43473L20.9465 12.0014L12.219 14.4821C6.19134 12.4903 2.64147 8.65619 0.500225 4.71616C-0.402114 3.05368 -0.39486 0.00146489 3.19273 0.00146489H12.2567C12.763 0.00137711 13.2605 0.133755 13.6997 0.385445C14.139 0.637135 14.5047 0.997926 14.7607 1.43473Z" fill="#4686EC"/>
<path d="M14.7607 1.43473L20.9465 12.0014L12.219 14.4821C6.19134 12.4903 2.64147 8.65619 0.500225 4.71616C-0.402114 3.05368 -0.39486 0.00146489 3.19273 0.00146489H12.2567C12.763 0.00137711 13.2605 0.133755 13.6997 0.385445C14.139 0.637135 14.5047 0.997926 14.7607 1.43473Z" fill="url(#paint0_radial_2658_8694)"/>
<path d="M14.7607 1.43473L20.9465 12.0014L12.219 14.4821C6.19134 12.4903 2.64147 8.65619 0.500225 4.71616C-0.402114 3.05368 -0.39486 0.00146489 3.19273 0.00146489H12.2567C12.763 0.00137711 13.2605 0.133755 13.6997 0.385445C14.139 0.637135 14.5047 0.997926 14.7607 1.43473Z" fill="#6EFFDC"/>
</g>
<g filter="url(#filter1_iii_2658_8694)">
<path d="M20.2395 1.43472L14.0537 12.0014L22.7812 14.4821C28.8088 12.4889 32.3587 8.65472 34.4999 4.71469C35.4023 3.05222 35.395 4.36237e-08 31.8074 4.36237e-08H22.7434C22.2372 -8.7733e-05 21.7397 0.132289 21.3004 0.38398C20.8612 0.63567 20.4954 0.997912 20.2395 1.43472Z" fill="#4686EC"/>
<path d="M20.2395 1.43472L14.0537 12.0014L22.7812 14.4821C28.8088 12.4889 32.3587 8.65472 34.4999 4.71469C35.4023 3.05222 35.395 4.36237e-08 31.8074 4.36237e-08H22.7434C22.2372 -8.7733e-05 21.7397 0.132289 21.3004 0.38398C20.8612 0.63567 20.4954 0.997912 20.2395 1.43472Z" fill="url(#paint1_radial_2658_8694)"/>
<path d="M20.2395 1.43472L14.0537 12.0014L22.7812 14.4821C28.8088 12.4889 32.3587 8.65472 34.4999 4.71469C35.4023 3.05222 35.395 4.36237e-08 31.8074 4.36237e-08H22.7434C22.2372 -8.7733e-05 21.7397 0.132289 21.3004 0.38398C20.8612 0.63567 20.4954 0.997912 20.2395 1.43472Z" fill="url(#paint2_linear_2658_8694)"/>
</g>
<path d="M20.2395 1.43472L14.0537 12.0014L22.7812 14.4821C28.8088 12.4889 32.3587 8.65472 34.4999 4.71469C35.4023 3.05222 35.395 4.36237e-08 31.8074 4.36237e-08H22.7434C22.2372 -8.7733e-05 21.7397 0.132289 21.3004 0.38398C20.8612 0.63567 20.4954 0.997912 20.2395 1.43472Z" fill="#6EFFDC"/>
<path d="M17.6792 40.0634C25.7297 40.0634 32.2559 33.5373 32.2559 25.487C32.2559 17.4367 25.7297 10.9106 17.6792 10.9106C9.62874 10.9106 3.10254 17.4367 3.10254 25.487C3.10254 33.5373 9.62874 40.0634 17.6792 40.0634Z" fill="url(#paint3_linear_2658_8694)"/>
<path d="M17.6792 40.0634C25.7297 40.0634 32.2559 33.5373 32.2559 25.487C32.2559 17.4367 25.7297 10.9106 17.6792 10.9106C9.62874 10.9106 3.10254 17.4367 3.10254 25.487C3.10254 33.5373 9.62874 40.0634 17.6792 40.0634Z" fill="url(#paint4_linear_2658_8694)"/>
<path d="M17.6794 38.0902C24.6403 38.0902 30.2831 32.4475 30.2831 25.4868C30.2831 18.5261 24.6403 12.8833 17.6794 12.8833C10.7186 12.8833 5.07568 18.5261 5.07568 25.4868C5.07568 32.4475 10.7186 38.0902 17.6794 38.0902Z" fill="url(#paint5_linear_2658_8694)"/>
<path d="M17.6789 36.4899C23.756 36.4899 28.6825 31.5635 28.6825 25.4865C28.6825 19.4095 23.756 14.4832 17.6789 14.4832C11.6018 14.4832 6.67529 19.4095 6.67529 25.4865C6.67529 31.5635 11.6018 36.4899 17.6789 36.4899Z" fill="url(#paint6_linear_2658_8694)"/>
<path d="M17.6789 36.4899C23.756 36.4899 28.6825 31.5635 28.6825 25.4865C28.6825 19.4095 23.756 14.4832 17.6789 14.4832C11.6018 14.4832 6.67529 19.4095 6.67529 25.4865C6.67529 31.5635 11.6018 36.4899 17.6789 36.4899Z" fill="url(#paint7_radial_2658_8694)"/>
<path d="M17.6789 36.4899C23.756 36.4899 28.6825 31.5635 28.6825 25.4865C28.6825 19.4095 23.756 14.4832 17.6789 14.4832C11.6018 14.4832 6.67529 19.4095 6.67529 25.4865C6.67529 31.5635 11.6018 36.4899 17.6789 36.4899Z" fill="url(#paint8_radial_2658_8694)"/>
<path d="M17.6789 36.4899C23.756 36.4899 28.6825 31.5635 28.6825 25.4865C28.6825 19.4095 23.756 14.4832 17.6789 14.4832C11.6018 14.4832 6.67529 19.4095 6.67529 25.4865C6.67529 31.5635 11.6018 36.4899 17.6789 36.4899Z" fill="url(#paint9_radial_2658_8694)"/>
<g filter="url(#filter2_ii_2658_8694)">
<path d="M20.567 31.9174H14.8077C14.5302 31.9181 14.2584 31.8392 14.0244 31.69C13.7904 31.5409 13.6041 31.3278 13.4876 31.076C13.3675 30.8263 13.3214 30.5474 13.3548 30.2723C13.3883 29.9972 13.4998 29.7375 13.6762 29.5238L18.4635 23.6485C18.8407 23.1843 18.6666 22.6911 18.6086 22.546C18.5405 22.3776 18.4245 22.2328 18.2749 22.1297C18.1253 22.0266 17.9488 21.9696 17.7672 21.9658H17.6946C17.2304 21.9658 16.8097 22.1834 16.5341 22.5605C16.0698 23.2133 15.1559 23.3729 14.4886 22.9087C14.3312 22.7974 14.1973 22.6562 14.0946 22.4931C13.9919 22.33 13.9224 22.1482 13.89 21.9582C13.8577 21.7682 13.8632 21.5737 13.9061 21.3858C13.9491 21.1979 14.0287 21.0203 14.1404 20.8632C14.9528 19.7172 16.2729 19.0354 17.6801 19.0354H17.8687C19.3484 19.1079 20.6395 19.9928 21.2488 21.342C21.8726 22.7346 21.6695 24.3159 20.7121 25.4909L17.8832 28.9725H20.5525C21.3649 28.9725 22.0177 29.6253 22.0177 30.4377C22.0177 31.2501 21.3794 31.9174 20.567 31.9174Z" fill="#6A6372"/>
</g>
<defs>
<filter id="filter0_iii_2658_8694" x="-0.125" y="-0.0985352" width="21.1713" height="14.7057" filterUnits="userSpaceOnUse" color-interpolation-filters="sRGB">
<feFlood flood-opacity="0" result="BackgroundImageFix"/>
<feBlend mode="normal" in="SourceGraphic" in2="BackgroundImageFix" result="shape"/>
<feColorMatrix in="SourceAlpha" type="matrix" values="0 0 0 0 0 0 0 0 0 0 0 0 0 0 0 0 0 0 127 0" result="hardAlpha"/>
<feOffset dx="-0.1" dy="-0.1"/>
<feGaussianBlur stdDeviation="0.1"/>
<feComposite in2="hardAlpha" operator="arithmetic" k2="-1" k3="1"/>
<feColorMatrix type="matrix" values="0 0 0 0 0.317647 0 0 0 0 0.458824 0 0 0 0 0.886275 0 0 0 1 0"/>
<feBlend mode="normal" in2="shape" result="effect1_innerShadow_2658_8694"/>
<feColorMatrix in="SourceAlpha" type="matrix" values="0 0 0 0 0 0 0 0 0 0 0 0 0 0 0 0 0 0 127 0" result="hardAlpha"/>
<feOffset dx="0.1" dy="0.1"/>
<feGaussianBlur stdDeviation="0.1"/>
<feComposite in2="hardAlpha" operator="arithmetic" k2="-1" k3="1"/>
<feColorMatrix type="matrix" values="0 0 0 0 0.317647 0 0 0 0 0.458824 0 0 0 0 0.886275 0 0 0 1 0"/>
<feBlend mode="normal" in2="effect1_innerShadow_2658_8694" result="effect2_innerShadow_2658_8694"/>
<feColorMatrix in="SourceAlpha" type="matrix" values="0 0 0 0 0 0 0 0 0 0 0 0 0 0 0 0 0 0 127 0" result="hardAlpha"/>
<feOffset dx="-0.125" dy="0.125"/>
<feGaussianBlur stdDeviation="0.125"/>
<feComposite in2="hardAlpha" operator="arithmetic" k2="-1" k3="1"/>
<feColorMatrix type="matrix" values="0 0 0 0 0.372549 0 0 0 0 0.607843 0 0 0 0 0.960784 0 0 0 1 0"/>
<feBlend mode="normal" in2="effect2_innerShadow_2658_8694" result="effect3_innerShadow_2658_8694"/>
</filter>
<filter id="filter1_iii_2658_8694" x="13.9287" y="-0.1" width="21.1713" height="14.7072" filterUnits="userSpaceOnUse" color-interpolation-filters="sRGB">
<feFlood flood-opacity="0" result="BackgroundImageFix"/>
<feBlend mode="normal" in="SourceGraphic" in2="BackgroundImageFix" result="shape"/>
<feColorMatrix in="SourceAlpha" type="matrix" values="0 0 0 0 0 0 0 0 0 0 0 0 0 0 0 0 0 0 127 0" result="hardAlpha"/>
<feOffset dx="-0.1" dy="-0.1"/>
<feGaussianBlur stdDeviation="0.1"/>
<feComposite in2="hardAlpha" operator="arithmetic" k2="-1" k3="1"/>
<feColorMatrix type="matrix" values="0 0 0 0 0.317647 0 0 0 0 0.458824 0 0 0 0 0.886275 0 0 0 1 0"/>
<feBlend mode="normal" in2="shape" result="effect1_innerShadow_2658_8694"/>
<feColorMatrix in="SourceAlpha" type="matrix" values="0 0 0 0 0 0 0 0 0 0 0 0 0 0 0 0 0 0 127 0" result="hardAlpha"/>
<feOffset dx="0.1" dy="0.1"/>
<feGaussianBlur stdDeviation="0.1"/>
<feComposite in2="hardAlpha" operator="arithmetic" k2="-1" k3="1"/>
<feColorMatrix type="matrix" values="0 0 0 0 0.317647 0 0 0 0 0.458824 0 0 0 0 0.886275 0 0 0 1 0"/>
<feBlend mode="normal" in2="effect1_innerShadow_2658_8694" result="effect2_innerShadow_2658_8694"/>
<feColorMatrix in="SourceAlpha" type="matrix" values="0 0 0 0 0 0 0 0 0 0 0 0 0 0 0 0 0 0 127 0" result="hardAlpha"/>
<feOffset dx="-0.125" dy="0.125"/>
<feGaussianBlur stdDeviation="0.125"/>
<feComposite in2="hardAlpha" operator="arithmetic" k2="-1" k3="1"/>
<feColorMatrix type="matrix" values="0 0 0 0 0.372549 0 0 0 0 0.607843 0 0 0 0 0.960784 0 0 0 1 0"/>
<feBlend mode="normal" in2="effect2_innerShadow_2658_8694" result="effect3_innerShadow_2658_8694"/>
</filter>
<filter id="filter2_ii_2658_8694" x="13.1942" y="18.9354" width="8.92334" height="13.1321" filterUnits="userSpaceOnUse" color-interpolation-filters="sRGB">
<feFlood flood-opacity="0" result="BackgroundImageFix"/>
<feBlend mode="normal" in="SourceGraphic" in2="BackgroundImageFix" result="shape"/>
<feColorMatrix in="SourceAlpha" type="matrix" values="0 0 0 0 0 0 0 0 0 0 0 0 0 0 0 0 0 0 127 0" result="hardAlpha"/>
<feOffset dx="-0.15" dy="0.15"/>
<feGaussianBlur stdDeviation="0.15"/>
<feComposite in2="hardAlpha" operator="arithmetic" k2="-1" k3="1"/>
<feColorMatrix type="matrix" values="0 0 0 0 0.286275 0 0 0 0 0.223529 0 0 0 0 0.345098 0 0 0 1 0"/>
<feBlend mode="normal" in2="shape" result="effect1_innerShadow_2658_8694"/>
<feColorMatrix in="SourceAlpha" type="matrix" values="0 0 0 0 0 0 0 0 0 0 0 0 0 0 0 0 0 0 127 0" result="hardAlpha"/>
<feOffset dx="0.1" dy="-0.1"/>
<feGaussianBlur stdDeviation="0.1"/>
<feComposite in2="hardAlpha" operator="arithmetic" k2="-1" k3="1"/>
<feColorMatrix type="matrix" values="0 0 0 0 0.482353 0 0 0 0 0.47451 0 0 0 0 0.490196 0 0 0 1 0"/>
<feBlend mode="normal" in2="effect1_innerShadow_2658_8694" result="effect2_innerShadow_2658_8694"/>
</filter>
<radialGradient id="paint0_radial_2658_8694" cx="0" cy="0" r="1" gradientUnits="userSpaceOnUse" gradientTransform="translate(13.4095 13.4597) rotate(-123.322) scale(6.67825 24.9408)">
<stop stop-color="#3669D9"/>
<stop offset="1" stop-color="#3669D9" stop-opacity="0"/>
</radialGradient>
<radialGradient id="paint1_radial_2658_8694" cx="0" cy="0" r="1" gradientUnits="userSpaceOnUse" gradientTransform="translate(21.5911 13.4607) rotate(-57.2644) scale(4.4227 9.70128)">
<stop stop-color="#3669D9"/>
<stop offset="1" stop-color="#3669D9" stop-opacity="0"/>
</radialGradient>
<linearGradient id="paint2_linear_2658_8694" x1="31.0516" y1="-0.783365" x2="28.4477" y2="5.70119" gradientUnits="userSpaceOnUse">
<stop stop-color="#3D89EC"/>
<stop offset="1" stop-color="#3D89EC" stop-opacity="0"/>
</linearGradient>
<linearGradient id="paint3_linear_2658_8694" x1="28.9222" y1="17.9522" x2="15.3627" y2="30.35" gradientUnits="userSpaceOnUse">
<stop stop-color="#EFEAF6"/>
<stop offset="1" stop-color="#B5A8C3"/>
</linearGradient>
<linearGradient id="paint4_linear_2658_8694" x1="12.5858" y1="40.7713" x2="15.873" y2="21.708" gradientUnits="userSpaceOnUse">
<stop stop-color="#D0A9F4"/>
<stop offset="1" stop-color="#D0A9F4" stop-opacity="0"/>
</linearGradient>
<linearGradient id="paint5_linear_2658_8694" x1="29.1632" y1="23.2832" x2="17.6794" y2="23.2832" gradientUnits="userSpaceOnUse">
<stop stop-color="#D3C6E2"/>
<stop offset="1" stop-color="#D6C6E8"/>
</linearGradient>
<linearGradient id="paint6_linear_2658_8694" x1="10.7721" y1="28.3458" x2="29.0843" y2="22.804" gradientUnits="userSpaceOnUse">
<stop stop-color="#E0D3EF"/>
<stop offset="1" stop-color="#C1B0D4"/>
</linearGradient>
<radialGradient id="paint7_radial_2658_8694" cx="0" cy="0" r="1" gradientUnits="userSpaceOnUse" gradientTransform="translate(21.8547 23.8187) rotate(156.644) scale(16.5336 14.0882)">
<stop offset="0.837" stop-color="#F6ECFE" stop-opacity="0"/>
<stop offset="1" stop-color="#F6ECFE"/>
</radialGradient>
<radialGradient id="paint8_radial_2658_8694" cx="0" cy="0" r="1" gradientUnits="userSpaceOnUse" gradientTransform="translate(16.2735 26.7911) rotate(-41.2934) scale(13.004 12.4863)">
<stop offset="0.91" stop-color="#B396CF" stop-opacity="0"/>
<stop offset="0.992" stop-color="#B796D5"/>
</radialGradient>
<radialGradient id="paint9_radial_2658_8694" cx="0" cy="0" r="1" gradientUnits="userSpaceOnUse" gradientTransform="translate(17.3612 24.5697) rotate(37.9302) scale(12.2423 13.8734)">
<stop offset="0.926" stop-color="#AB9CBB" stop-opacity="0"/>
<stop offset="1" stop-color="#AB9CBB"/>
</radialGradient>
</defs>
</svg>
