<svg width="20" height="22" viewBox="0 0 20 22" fill="none" xmlns="http://www.w3.org/2000/svg">
<path d="M16.3121 12.8199C17.009 12.4195 17.5856 11.8392 17.9817 11.1398C18.3778 10.4405 18.5789 9.64758 18.5641 8.84395C18.5359 7.1861 17.8583 5.60551 16.6771 4.44195C16.6419 4.73356 16.548 5.01502 16.401 5.26938C16.2541 5.52373 16.0572 5.74571 15.8223 5.92193C15.5873 6.09816 15.319 6.22498 15.0337 6.29476C14.7484 6.36453 14.4519 6.37582 14.1621 6.32795C13.36 5.6538 12.8021 4.7343 12.5748 3.71148C12.3474 2.68866 12.4631 1.61943 12.9041 0.668945C8.97407 0.668945 6.45907 2.98795 5.98807 6.32895C5.40792 6.39024 4.82606 6.22976 4.35935 5.87973C3.89265 5.5297 3.57567 5.01605 3.47207 4.44195C0.690068 6.80795 0.547067 11.5939 4.36507 13.3679" fill="#FFBC44"/>
<path d="M16.3121 12.8199C17.009 12.4195 17.5856 11.8392 17.9817 11.1398C18.3778 10.4405 18.5789 9.64758 18.5641 8.84395C18.5359 7.1861 17.8583 5.60551 16.6771 4.44195C16.6419 4.73356 16.548 5.01502 16.401 5.26938C16.2541 5.52373 16.0572 5.74571 15.8223 5.92193C15.5873 6.09816 15.319 6.22498 15.0337 6.29476C14.7484 6.36453 14.4519 6.37582 14.1621 6.32795C13.36 5.6538 12.8021 4.7343 12.5748 3.71148C12.3474 2.68866 12.4631 1.61943 12.9041 0.668945C8.97407 0.668945 6.45907 2.98795 5.98807 6.32895C5.40792 6.39024 4.82606 6.22976 4.35935 5.87973C3.89265 5.5297 3.57567 5.01605 3.47207 4.44195C0.690068 6.80795 0.547067 11.5939 4.36507 13.3679" stroke="#191919" stroke-linecap="round" stroke-linejoin="round"/>
<path d="M10.4276 21.3299C11.26 21.3404 12.0862 21.1855 12.8582 20.8742C13.6302 20.563 14.3328 20.1015 14.9251 19.5166C15.5174 18.9317 15.9877 18.2351 16.3087 17.467C16.6297 16.699 16.7949 15.8748 16.7949 15.0424C16.7949 14.21 16.6297 13.3858 16.3087 12.6178C15.9877 11.8497 15.5174 11.153 14.9251 10.5682C14.3328 9.98327 13.6302 9.52181 12.8582 9.21054C12.0862 8.89927 11.26 8.7444 10.4276 8.75489C8.75997 8.75489 7.16059 9.41738 5.98136 10.5966C4.80213 11.7758 4.13965 13.3752 4.13965 15.0429C4.13965 16.7106 4.80213 18.31 5.98136 19.4892C7.16059 20.6684 8.75997 21.3299 10.4276 21.3299Z" fill="#66E1FF"/>
<path d="M5.98068 19.4899C4.80126 18.3105 4.13867 16.7109 4.13867 15.0429C4.13867 13.375 4.80126 11.7753 5.98068 10.5959C7.1601 9.4165 8.75973 8.75391 10.4277 8.75391C12.0956 8.75391 13.6953 9.4165 14.8747 10.5959L5.98068 19.4899Z" fill="#C2F3FF"/>
<path d="M10.4276 21.3299C11.26 21.3404 12.0862 21.1855 12.8582 20.8742C13.6302 20.563 14.3328 20.1015 14.9251 19.5166C15.5174 18.9317 15.9877 18.2351 16.3087 17.467C16.6297 16.699 16.7949 15.8748 16.7949 15.0424C16.7949 14.21 16.6297 13.3858 16.3087 12.6178C15.9877 11.8497 15.5174 11.153 14.9251 10.5682C14.3328 9.98327 13.6302 9.52181 12.8582 9.21054C12.0862 8.89927 11.26 8.7444 10.4276 8.75489C8.75997 8.75489 7.16059 9.41738 5.98136 10.5966C4.80213 11.7758 4.13965 13.3752 4.13965 15.0429C4.13965 16.7106 4.80213 18.31 5.98136 19.4892C7.16059 20.6684 8.75997 21.3299 10.4276 21.3299Z" stroke="#191919" stroke-linecap="round" stroke-linejoin="round"/>
<path d="M13.5717 15.043H10.4277V11" stroke="#191919" stroke-linecap="round" stroke-linejoin="round"/>
</svg>
