<svg width="14" height="14" viewBox="0 0 14 14" fill="none" xmlns="http://www.w3.org/2000/svg">
<path fill-rule="evenodd" clip-rule="evenodd" d="M11.6667 3.62481e-09C12.2618 -3.31504e-05 12.8345 0.227365 13.2675 0.635668C13.7006 1.04397 13.9612 1.60231 13.9961 2.19645L14 2.33334V11.6667C14 12.2619 13.7726 12.8346 13.3643 13.2676C12.956 13.7006 12.3977 13.9612 11.8036 13.9962L11.6667 14.0001H2.33333C1.73817 14.0001 1.16549 13.7727 0.732464 13.3644C0.299439 12.9561 0.0388053 12.3977 0.00388898 11.8036L3.62479e-09 11.6667V2.33334C-3.31502e-05 1.73818 0.227364 1.16549 0.635665 0.732467C1.04397 0.29944 1.60231 0.0388054 2.19644 0.003889L2.33333 3.62481e-09H11.6667ZM4.27778 8.55559C3.96836 8.55559 3.67161 8.6785 3.45282 8.8973C3.23403 9.11609 3.11111 9.41284 3.11111 9.72226C3.11111 10.0317 3.23403 10.3284 3.45282 10.5472C3.67161 10.766 3.96836 10.8889 4.27778 10.8889C4.5872 10.8889 4.88394 10.766 5.10274 10.5472C5.32153 10.3284 5.44444 10.0317 5.44444 9.72226C5.44444 9.41284 5.32153 9.11609 5.10274 8.8973C4.88394 8.6785 4.5872 8.55559 4.27778 8.55559ZM3.88889 5.83336C3.68261 5.83336 3.48478 5.9153 3.33892 6.06116C3.19306 6.20703 3.11111 6.40486 3.11111 6.61114C3.11111 6.81742 3.19306 7.01525 3.33892 7.16111C3.48478 7.30697 3.68261 7.38892 3.88889 7.38892C4.61087 7.38892 5.30328 7.67572 5.81379 8.18624C6.32431 8.69676 6.61111 9.38917 6.61111 10.1111C6.61111 10.3174 6.69306 10.5153 6.83892 10.6611C6.98478 10.807 7.18261 10.8889 7.38889 10.8889C7.59517 10.8889 7.793 10.807 7.93886 10.6611C8.08472 10.5153 8.16667 10.3174 8.16667 10.1111C8.16667 8.97661 7.71597 7.88853 6.91373 7.08629C6.1115 6.28405 5.02343 5.83336 3.88889 5.83336ZM4.27778 3.11112C4.13 3.11112 3.98326 3.11605 3.83756 3.1259C3.63552 3.1444 3.44872 3.24111 3.31698 3.39541C3.18525 3.5497 3.11901 3.74935 3.13241 3.95179C3.1458 4.15423 3.23776 4.34342 3.38868 4.47901C3.53959 4.6146 3.73751 4.68585 3.94022 4.67757C4.65948 4.62938 5.38073 4.73557 6.05558 4.989C6.73043 5.24244 7.34328 5.63727 7.85302 6.14701C8.36275 6.65674 8.75758 7.26959 9.01102 7.94445C9.26445 8.6193 9.37064 9.34056 9.32244 10.0598C9.31298 10.1632 9.3243 10.2674 9.35573 10.3663C9.38717 10.4652 9.43808 10.5568 9.50548 10.6358C9.57287 10.7147 9.65538 10.7794 9.74815 10.8259C9.84092 10.8725 9.94207 10.9 10.0456 10.9068C10.1492 10.9137 10.2531 10.8997 10.3512 10.8658C10.4493 10.8319 10.5396 10.7787 10.6168 10.7093C10.694 10.6399 10.7565 10.5558 10.8007 10.4619C10.8449 10.368 10.8699 10.2662 10.8741 10.1625C10.9344 9.25923 10.8085 8.35322 10.5043 7.5006C10.2001 6.64799 9.72403 5.86693 9.1056 5.20584C8.48717 4.54475 7.73956 4.01771 6.90911 3.65739C6.07865 3.29707 5.18304 3.11114 4.27778 3.11112Z" fill="white"/>
</svg>
