<svg width="171" height="175" viewBox="0 0 171 175" fill="none" xmlns="http://www.w3.org/2000/svg">
<path d="M60.3248 92.6909C60.2365 98.4238 58.4834 105.63 49.5361 102.002C35.4581 96.2965 30.7738 84.9435 30.7738 84.9435C26.1803 82.8488 24.4902 78.3136 24.4902 78.3136C24.4902 78.3136 23.4586 78.6819 22.3739 78.2735C21.5944 77.9803 20.7898 77.2888 20.3155 75.7754C19.1804 72.1523 21.5313 70.8619 21.5313 70.8619C21.8971 67.359 24.0841 67.8025 24.0841 67.8025C21.9778 60.5938 24.6416 60.2706 25.585 60.5137C26.8412 60.8369 28.3017 65.4272 28.3017 65.4272C28.3017 65.4272 27.7745 60.9171 29.235 59.5866C29.964 58.9226 30.572 59.0128 30.9982 59.2709C31.3943 59.5089 31.6566 59.9173 31.7676 60.3658C32.4512 63.0669 33.3896 65.5325 34.3683 67.6522C34.9131 68.8348 35.4706 69.9098 36.0004 70.8619C37.6501 73.8211 39.045 75.575 39.045 75.575C46.0475 81.0573 51.6827 83.8511 55.3176 85.2542C57.0985 85.9408 58.5161 87.2287 59.3788 88.8298C60.0095 89.9898 60.3475 91.3153 60.3248 92.6909Z" fill="#9C8FFF"/>
<path d="M53.8489 103.858C52.4683 103.858 50.916 103.51 49.2013 102.815C36.0974 97.5035 30.9904 87.5413 30.0975 85.5949C26.4914 83.8275 24.6466 80.7088 23.9702 79.3165C23.3838 79.3842 22.558 79.3601 21.7222 78.9471C20.671 78.4275 19.9139 77.4481 19.4717 76.0366C18.5346 73.045 19.707 71.1618 20.7051 70.3647C20.9127 69.0058 21.4202 68.0243 22.2165 67.4436C22.4694 67.2591 22.7244 67.1357 22.9644 67.0545C22.1048 63.6903 22.2379 61.4855 23.3658 60.3308C24.1094 59.5694 25.1136 59.4876 25.8054 59.665C26.4295 59.8248 27.0067 60.4727 27.5112 61.3105C27.6952 60.367 28.0353 59.4891 28.6369 58.9414C29.5269 58.1312 30.554 57.9778 31.455 58.5211C32.0312 58.8683 32.4466 59.4477 32.6246 60.1523C34.6661 68.2331 39.1062 74.2086 39.6765 74.953C46.6292 80.385 52.1905 83.1077 55.6368 84.436C59.0259 85.7421 61.2649 89.0652 61.2082 92.7054C61.1285 97.8362 59.8458 101.253 57.3956 102.861C56.384 103.526 55.1983 103.857 53.8489 103.858ZM24.4853 77.4382C24.8464 77.4382 25.1873 77.6561 25.3185 78.0088C25.3337 78.0492 26.9535 82.2376 31.1424 84.1466C31.3459 84.2395 31.5063 84.4054 31.5911 84.6113C31.6366 84.7206 36.3273 95.7024 49.8685 101.191C52.6863 102.333 54.8914 102.403 56.4223 101.398C58.8313 99.8166 59.3946 95.7834 59.443 92.6783C59.4882 89.7682 57.702 87.113 54.9983 86.0711C51.4251 84.694 45.6621 81.8743 38.4977 76.2631C38.4435 76.2207 38.3945 76.1719 38.3517 76.1183C38.1413 75.8538 33.1764 69.5419 30.9121 60.5793C30.8489 60.3288 30.713 60.1252 30.539 60.0203C30.4324 59.9565 30.2539 59.8488 29.8302 60.2343C29.0554 60.9398 28.9824 63.6366 29.1782 65.3262C29.2302 65.7751 28.9304 66.1898 28.4855 66.2841C28.0407 66.3802 27.5965 66.1221 27.4594 65.6911C26.8051 63.6361 25.8218 61.6241 25.3439 61.3584C25.237 61.3348 24.8928 61.2863 24.6332 61.552C24.3702 61.8214 23.6144 63.0502 24.9328 67.5583C25.0213 67.8609 24.9618 68.1926 24.7408 68.4187C24.5197 68.645 24.2159 68.7413 23.9087 68.662C23.9115 68.6659 23.8892 68.6598 23.8517 68.6598C23.7411 68.6598 23.4867 68.6829 23.2373 68.8755C22.8021 69.2114 22.5158 69.9297 22.4091 70.9532C22.3794 71.2391 22.2107 71.4922 21.9576 71.6309C21.7933 71.7279 20.2804 72.7142 21.1578 75.5154C21.4487 76.4445 21.8982 77.068 22.4936 77.369C23.3043 77.7787 24.1896 77.4881 24.1985 77.4852C24.2932 77.4532 24.3899 77.4382 24.4853 77.4382Z" fill="#594DB7"/>
<g opacity="0.3">
<path d="M60.3244 92.6912C60.2361 98.424 58.483 105.63 49.5357 102.002C35.4577 96.2967 30.7734 84.9438 30.7734 84.9438C26.1799 82.8491 24.4899 78.3139 24.4899 78.3139C24.4899 78.3139 23.4582 78.6822 22.3735 78.2738C21.6268 75.8834 22.7746 73.9917 22.7746 73.9917C22.5576 70.822 24.4899 68.8977 24.4899 68.8977C27.6253 66.8231 31.5175 67.0436 34.368 67.6525C34.9128 68.8351 35.4703 69.91 36 70.8622C31.119 68.9179 26.5583 69.6419 26.5583 69.6419C21.584 72.4332 27.8851 75.0767 27.8851 75.0767L32.5568 76.9434C27.1965 76.5725 25.7915 80.6718 30.7734 81.2932C35.7578 81.912 39.0447 75.5753 39.0447 75.5753C39.1531 80.326 34.3352 83.7887 34.3352 83.7887C35.8786 86.7027 37.5968 88.9962 39.2754 90.7896C42.6973 94.4456 48.384 94.733 52.2706 91.5684C55.3211 89.0846 58.0122 88.7824 59.3785 88.83C60.0091 89.9901 60.3471 91.3156 60.3244 92.6912Z" fill="#7F6FFE"/>
</g>
<path d="M30.888 85.8132L30.6616 84.0737C37.7852 83.1593 38.1507 75.851 38.1628 75.5405L39.9272 75.608C39.9236 75.6988 39.4746 84.711 30.888 85.8132Z" fill="#594DB7"/>
<path d="M35.9069 72.1595C34.2267 71.5036 32.4372 70.921 30.6924 70.5782C29.8178 70.4194 28.9413 70.3113 28.1286 70.3625C27.322 70.4219 26.5913 70.6173 26.1572 71.0506C25.928 71.2734 25.7736 71.5356 25.7394 71.7265C25.6874 71.9153 25.7442 72.1519 25.9148 72.4423C26.0859 72.7277 26.3614 73.0234 26.6754 73.2959C26.989 73.5727 27.3558 73.8181 27.7241 74.0677C29.2264 75.0513 30.9014 75.9055 32.5583 76.9434C31.5701 76.9239 30.6079 76.7504 29.6625 76.5054C28.7191 76.2516 27.7932 75.914 26.9031 75.4426C26.4569 75.2076 26.0232 74.9392 25.5995 74.6196C25.1788 74.2967 24.7626 73.9287 24.407 73.4268C24.2289 73.1793 24.0748 72.8836 23.9657 72.5525C23.9109 72.3884 23.8851 72.2026 23.8535 72.0261C23.8503 71.8428 23.8358 71.6528 23.8625 71.4716C23.9131 71.1049 24.0348 70.7602 24.1971 70.4707C24.3563 70.1761 24.5531 69.9273 24.768 69.6939C25.209 69.2276 25.7681 68.9 26.3222 68.6961C26.8792 68.4867 27.4407 68.3956 27.9831 68.3506C29.069 68.2743 30.0977 68.3874 31.0853 68.5897C32.0749 68.7856 33.0266 69.0672 33.9523 69.4012C34.8834 69.7374 35.7677 70.1111 36.6667 70.5763L35.9069 72.1595Z" fill="#594DB7"/>
<path d="M25.5747 77.1816C25.3152 77.1816 25.0566 77.1467 24.7987 77.0762C22.0302 76.3207 20.8041 71.6046 20.6733 71.0692L22.3892 70.6553C22.3893 70.6555 22.3893 70.6558 22.3894 70.656C22.7913 72.2912 23.9279 75.0207 25.2674 75.3852C25.832 75.5399 26.5006 75.2284 27.2545 74.4627L28.5169 75.6891C27.5392 76.682 26.5527 77.1816 25.5747 77.1816Z" fill="#594DB7"/>
<path d="M24.8909 79.0948L24.0908 77.531L24.0659 77.5443C24.1457 77.4966 24.5388 77.2163 24.4286 76.4009L26.1787 76.1675C26.4061 77.8502 25.4762 78.7993 24.8909 79.0948Z" fill="#594DB7"/>
<path d="M24.5744 70.9647C23.5764 69.3167 23.2446 68.0753 23.231 68.0234L24.9391 67.5791C24.942 67.5894 25.2312 68.6466 26.0875 70.0604L24.5744 70.9647Z" fill="#594DB7"/>
<path d="M28.4126 69.6777C27.7745 68.0549 27.4407 65.6464 27.4268 65.5448L29.1764 65.3088C29.1796 65.3315 29.4963 67.6131 30.0573 69.0399L28.4126 69.6777Z" fill="#594DB7"/>
<path d="M116.99 88.9559C114.323 119.444 102.021 136.022 96.5221 142.02C95.0616 143.614 92.6728 143.964 90.8011 142.877L86.5961 140.439L80.4614 137.51L82.4038 132.955L103.585 83.2481C106.32 83.1228 108.554 83.4811 110.361 84.0699C115.247 85.666 116.99 88.9559 116.99 88.9559Z" fill="white"/>
<g opacity="0.3">
<path d="M88.8653 136.829L86.5572 135.107L82.4038 132.955L103.585 83.2485C103.613 83.2472 103.64 83.246 103.667 83.2448C107.552 83.0799 110.848 86.0497 111.136 89.9017C112.583 109.203 103.114 126.821 97.611 135.28C95.6995 138.219 91.6817 138.93 88.8653 136.829Z" fill="#594DB7"/>
</g>
<path d="M93.1191 144.375C92.1702 144.375 91.2149 144.133 90.3555 143.635L86.1826 141.213L80.0791 138.299C79.6545 138.096 79.4649 137.598 79.6486 137.167L102.771 82.9067C102.904 82.5957 103.204 82.3879 103.544 82.3726C114.118 81.8864 117.626 88.274 117.771 88.5458C117.849 88.6948 117.884 88.863 117.869 89.0304C115.163 119.969 102.496 136.807 97.1751 142.61C96.115 143.766 94.6255 144.375 93.1191 144.375ZM81.6028 137.08L86.9798 139.647C87.0011 139.658 87.0221 139.669 87.0427 139.681L91.2462 142.12C92.7549 142.996 94.6993 142.705 95.8695 141.429C101.053 135.775 113.375 119.386 116.085 89.1582C115.442 88.1525 112.252 83.9193 104.177 84.106L81.6028 137.08Z" fill="#594DB7"/>
<path d="M135.369 83.7888C136.34 102.072 125.233 100.541 125.233 100.541C119.394 105.896 104.662 107.387 104.662 107.387C100.389 123.012 92.8824 136.81 82.1795 143.899C71.4765 150.985 65.2611 164.247 64.5573 168.542C63.8561 172.839 56.7199 175.254 54.3412 173.598C51.9625 171.942 36.5046 163.495 32.6654 161.669C28.8286 159.845 29.0986 157.534 29.0986 157.534C29.265 155.738 29.6384 154.234 30.1656 152.979C34.0754 143.661 46.5038 148.058 46.5038 148.058C50.7188 138.394 55.1786 133.24 55.1786 133.24C54.4496 132.836 53.206 132.192 53.206 132.192C45.3157 132.516 32.9908 139.173 29.5299 143.899C27.8953 146.134 25.726 147.622 23.6323 148.276C22.6687 148.577 21.7177 148.702 20.8449 148.637C19.6038 148.552 18.5166 148.088 17.7472 147.226C15.26 144.435 7.80104 140.246 3.36901 136.166C-1.06302 132.085 1.74705 127.79 1.74705 127.79C2.26164 127.164 2.77369 126.602 3.28072 126.101C11.8093 117.665 18.9353 126.179 18.9353 126.179C35.9092 111.789 46.0168 114.796 46.0168 114.796C48.7739 98.3665 56.3919 89.8273 56.3919 89.8273C56.3919 89.8248 56.3919 89.8248 56.3919 89.8248C69.5215 81.2806 94.7464 87.0912 94.7464 87.0912C94.7464 87.0912 99.2012 87.67 104.761 87.8454C109.907 88.0032 116.003 87.8153 120.395 86.4999C129.529 83.7637 131.207 77.2666 134.07 78.1512C136.887 79.0206 135.419 83.6334 135.371 83.7888H135.369Z" fill="#9C8FFF"/>
<g opacity="0.3">
<path d="M125.234 100.541C119.394 105.896 104.663 107.387 104.663 107.387C100.39 123.012 92.8827 136.81 82.1797 143.899C71.4768 150.985 65.2613 164.247 64.5576 168.541C63.8563 172.839 56.7202 175.254 54.3415 173.598C51.9628 171.942 36.5049 163.495 32.6656 161.669C28.8289 159.844 29.0988 157.534 29.0988 157.534C29.2653 155.738 29.6387 154.234 30.1658 152.979C35.1459 158.158 40.5385 160.775 45.3754 162.012C52.9939 163.96 60.9677 160.561 64.8766 153.779C67.0312 150.041 69.1503 146.829 71.05 144.174C75.4394 138.041 74.3956 128.461 66.5308 125.911C53.3362 121.632 51.8012 118.77 51.8012 118.77L77.2608 122.932L78.0352 117.778L85.8311 119.762C89.3864 120.668 93.1209 118.973 94.6911 115.677C96.1162 112.686 96.6739 109.799 96.7899 107.291C96.9905 102.954 93.2484 99.483 88.8973 99.8972C62.1323 102.445 56.4975 90.0597 56.3922 89.8273C56.3922 89.8248 56.3922 89.8248 56.3922 89.8248C69.5218 81.2806 94.7467 87.0912 94.7467 87.0912C94.7467 87.0912 99.2014 87.67 104.761 87.8454C106.69 90.7297 106.551 94.8272 106.138 97.6224C105.875 99.4067 107.279 101.005 109.094 100.962C115.184 100.82 120.655 98.2788 120.655 98.2788L123.002 97.4995C124.59 96.972 125.737 95.58 125.919 93.9264C125.921 93.9069 125.922 93.8965 125.922 93.8965C125.153 93.0521 125.882 91.2355 125.882 91.2355C125.556 83.9442 135.369 83.7888 135.369 83.7888C136.34 102.072 125.234 100.541 125.234 100.541Z" fill="#594DB7"/>
</g>
<g opacity="0.3">
<path d="M63.1522 126.931C59.3685 128.594 55.1786 133.24 55.1786 133.24C54.4496 132.836 53.206 132.193 53.206 132.193C45.3157 132.516 32.9908 139.173 29.5299 143.899C27.8953 146.134 25.726 147.622 23.6323 148.276C22.6687 148.577 21.7177 148.702 20.8449 148.637C19.6038 148.552 18.5166 148.088 17.7472 147.226C15.26 144.435 7.80104 140.246 3.36901 136.166C-1.06302 132.085 1.74705 127.79 1.74705 127.79C2.26164 127.164 2.77369 126.602 3.28072 126.101C3.42202 131.418 9.20636 135.433 14.5717 138.021C18.9928 140.153 24.2938 139.621 28.0826 136.511C33.3365 132.199 40.1805 130.17 44.111 129.301C45.7901 128.931 46.9538 127.413 46.8841 125.706C46.8224 124.193 46.9794 123.007 47.1709 122.161C47.3195 121.504 48.1855 121.342 48.578 121.891C50.4019 124.441 52.2016 126.291 53.4231 127.419C54.242 128.175 55.4295 128.392 56.4604 127.962C59.7002 126.611 63.1522 126.931 63.1522 126.931Z" fill="#594DB7"/>
</g>
<path d="M56.4552 175.001C55.4051 175.001 54.4915 174.774 53.8349 174.317C51.5441 172.722 36.0458 164.25 32.2848 162.461C27.9286 160.389 28.2075 157.554 28.2215 157.434C28.6352 152.975 30.3246 149.765 33.2408 147.916C37.7763 145.039 43.858 146.373 46.0131 146.987C49.2108 139.842 52.4529 135.29 53.8296 133.511C53.5071 133.341 53.2029 133.182 53.0095 133.081C45.3446 133.512 33.5676 139.876 30.245 144.414C28.0445 147.419 24.7512 149.378 21.6502 149.525C19.7729 149.615 18.1516 149.004 17.0861 147.808C15.8903 146.465 13.3396 144.684 10.6392 142.799C7.99161 140.95 4.99083 138.855 2.76908 136.81C-2.15175 132.279 0.975146 127.362 1.00723 127.313C1.0247 127.286 1.04369 127.26 1.0639 127.235C4.18607 123.441 7.5451 121.51 11.0478 121.495C11.0611 121.495 11.0746 121.495 11.0879 121.495C14.9288 121.495 17.8031 123.812 19.0038 124.975C33.0233 113.326 42.3709 113.368 45.301 113.767C48.1818 97.8572 55.4181 89.5932 55.7303 89.243C55.7823 89.1846 55.8419 89.1334 55.9076 89.0908C69.0514 80.5394 93.3478 85.8742 94.902 86.2278C95.8203 86.3428 111.511 88.2483 120.14 85.6619C125.094 84.1767 127.743 81.5567 129.677 79.6435C131.299 78.0391 132.579 76.7719 134.333 77.3137C135.159 77.569 135.805 78.1054 136.2 78.8651C137.124 80.6451 136.471 83.1885 136.258 83.9009C136.614 91.0658 135.194 96.1595 132.036 99.041C129.494 101.359 126.614 101.487 125.541 101.444C120.032 106.174 108.2 107.85 105.356 108.192C100.622 125.14 92.5772 138.067 82.669 144.628C72.1864 151.569 66.0892 164.649 65.4292 168.683C65.0632 170.921 63.1541 172.966 60.3226 174.152C58.9761 174.716 57.6303 175.001 56.4552 175.001ZM40.0983 147.902C38.1218 147.902 35.9794 148.258 34.1854 149.398C31.7563 150.941 30.3407 153.706 29.9778 157.616C29.9734 157.686 29.907 159.385 33.0475 160.879C36.9584 162.739 52.4415 171.205 54.8483 172.88C55.7118 173.481 57.7255 173.337 59.6362 172.536C61.9042 171.585 63.4183 170.04 63.6863 168.402C64.4049 164.008 70.6059 150.508 81.6893 143.168C91.3543 136.768 99.2105 123.979 103.811 107.158C103.906 106.807 104.21 106.552 104.573 106.515C104.718 106.501 119.081 104.991 124.634 99.8975C124.828 99.7192 125.092 99.6365 125.354 99.6732C125.472 99.6872 128.363 100.03 130.867 97.7255C133.585 95.2233 134.837 90.4205 134.486 83.8362C134.48 83.7281 134.495 83.6197 134.529 83.5171C134.754 82.8266 135.213 80.7868 134.629 79.6673C134.449 79.3215 134.188 79.1058 133.808 78.9886C133.104 78.7704 132.335 79.4897 130.923 80.8863C128.973 82.8147 126.027 85.7289 120.65 87.3407C111.44 90.1023 95.314 88.0504 94.6318 87.9616C94.6034 87.9579 94.575 87.9527 94.5472 87.9463C94.2991 87.8891 69.6719 82.351 56.9801 90.4899C56.2024 91.4146 49.423 99.8342 46.8881 114.941C46.8464 115.19 46.6994 115.408 46.4842 115.541C46.2691 115.674 46.0068 115.71 45.764 115.637C45.6708 115.611 35.8244 113.015 19.5097 126.847C19.3301 126.999 19.0966 127.074 18.8613 127.053C18.626 127.033 18.4086 126.921 18.2576 126.74C18.2292 126.707 15.2628 123.249 11.0867 123.249C11.071 123.249 11.0558 123.249 11.0402 123.249C8.10808 123.267 5.22368 124.967 2.46693 128.302C2.22585 128.701 0.309909 132.154 3.96932 135.523C6.10364 137.488 8.92559 139.458 11.6545 141.364C14.5632 143.395 17.0753 145.149 18.4087 146.646C19.3104 147.658 20.6239 147.818 21.5659 147.773C24.1061 147.652 26.9523 145.929 28.8169 143.382C32.4652 138.399 44.9301 131.653 53.17 131.317C53.3264 131.31 53.4778 131.345 53.6148 131.416C53.666 131.442 54.8768 132.07 55.6081 132.474C55.8399 132.601 56.0013 132.826 56.0481 133.086C56.095 133.345 56.0219 133.611 55.8492 133.812C55.8054 133.862 51.4189 138.998 47.3139 148.408C47.1291 148.831 46.6455 149.04 46.2074 148.885C46.1629 148.869 43.3567 147.902 40.0983 147.902Z" fill="#594DB7"/>
<path d="M19.5538 126.807C19.3552 126.953 19.1392 127.104 18.9193 127.242C18.7003 127.384 18.4745 127.521 18.2471 127.658C18.0178 127.793 17.7898 127.93 17.5514 128.061C17.3159 128.195 17.0795 128.33 16.8281 128.462C16.9004 128.189 16.9992 127.929 17.1049 127.674C17.2096 127.417 17.3304 127.171 17.4542 126.927C17.581 126.686 17.7132 126.448 17.856 126.219C17.998 125.987 18.1469 125.769 18.3186 125.553L19.5538 126.807Z" fill="#594DB7"/>
<path d="M35.5932 139.223C23.5263 132.232 23.8226 122.121 23.8411 121.694L25.6052 121.767C25.5907 122.152 25.3758 131.273 36.4828 137.708L35.5932 139.223Z" fill="#594DB7"/>
<path d="M52.666 132.887C52.5724 132.808 52.516 132.754 52.448 132.689C52.381 132.627 52.3216 132.564 52.2604 132.5C52.139 132.373 52.0231 132.246 51.9105 132.116C51.6837 131.859 51.4756 131.59 51.2789 131.316C50.8806 130.771 50.5273 130.202 50.2124 129.617C49.91 129.024 49.6191 128.432 49.3996 127.811C49.2796 127.505 49.1935 127.186 49.1011 126.873C49.0159 126.557 48.9543 126.232 48.8955 125.911L50.012 127.493C50.3755 128.012 50.762 128.51 51.1587 128.99C51.5615 129.467 51.9803 129.923 52.4159 130.353C52.6332 130.568 52.8616 130.77 53.0848 130.969C53.1971 131.068 53.3117 131.164 53.4259 131.255L53.5958 131.388C53.6483 131.43 53.7145 131.479 53.7466 131.5L52.666 132.887Z" fill="#594DB7"/>
<path d="M54.4834 132.701C54.7707 132.318 55.047 131.993 55.3528 131.667C55.6513 131.34 55.9689 131.034 56.2882 130.73C56.6123 130.431 56.9475 130.144 57.2868 129.863C57.6339 129.591 57.9802 129.319 58.3423 129.066C59.0657 128.562 59.8114 128.086 60.6098 127.705C60.8108 127.612 61.013 127.522 61.2163 127.437C61.4272 127.363 61.6351 127.287 61.8465 127.219L62.1639 127.121C62.2713 127.092 62.3828 127.072 62.4914 127.047C62.7091 126.998 62.9298 126.96 63.1522 126.932C62.501 127.557 61.8379 128.071 61.2019 128.624C61.0379 128.753 60.8806 128.892 60.7208 129.026C60.563 129.163 60.3974 129.287 60.2404 129.424C59.9257 129.696 59.6141 129.969 59.3119 130.254C59.0011 130.527 58.7076 130.822 58.4116 131.11L57.9695 131.545C57.825 131.693 57.6842 131.844 57.5368 131.988C57.2493 132.285 56.9682 132.586 56.6876 132.886L55.8753 133.78L54.4834 132.701Z" fill="#594DB7"/>
<path d="M47.3351 148.355C47.206 148.65 47.0605 148.952 46.9062 149.247C46.7537 149.543 46.5906 149.837 46.4246 150.13C46.0923 150.719 45.7455 151.299 45.328 151.885C45.2175 151.173 45.2476 150.472 45.3129 149.786C45.3466 149.443 45.3901 149.102 45.4491 148.766C45.5066 148.427 45.5773 148.098 45.6723 147.765L47.3351 148.355Z" fill="#594DB7"/>
<path d="M71.3719 155.479C63.0762 155.145 57.3761 151.578 54.0551 148.643C50.4521 145.459 48.8252 142.374 48.7578 142.244L50.3266 141.439L49.5422 141.842L50.3261 141.438C50.3872 141.555 56.6132 153.131 71.4433 153.726L71.3719 155.479Z" fill="#594DB7"/>
<path d="M125.016 101.427C123.198 101.427 119.795 100.243 118.233 95.6001C116.221 89.6222 119.614 86.0418 119.759 85.8921L121.032 87.1076C120.918 87.2278 118.247 90.1108 119.907 95.0441C121.516 99.8262 125.024 99.6777 125.173 99.6671L125.299 101.417C125.209 101.423 125.115 101.427 125.016 101.427Z" fill="#594DB7"/>
<path d="M104.81 108.252C104.314 108.383 103.843 108.428 103.356 108.454C102.872 108.475 102.386 108.46 101.901 108.414C101.416 108.37 100.931 108.293 100.452 108.173C99.9741 108.06 99.4999 107.9 99.0435 107.674C99.5251 107.497 99.9899 107.376 100.451 107.255C100.912 107.133 101.367 107.031 101.82 106.934C102.273 106.838 102.724 106.752 103.174 106.677C103.621 106.608 104.083 106.54 104.514 106.523L104.549 106.522C105.038 106.503 105.45 106.882 105.469 107.368C105.485 107.787 105.203 108.149 104.81 108.252Z" fill="#594DB7"/>
<path d="M64.1863 87.4098C59.5233 85.0301 55.4523 81.8351 52.085 77.9137C48.8321 74.126 46.3708 69.8212 44.7698 65.123C43.1667 60.4225 42.5051 55.5632 42.803 50.6807C43.1114 45.6238 44.4388 40.7617 46.75 36.233C49.0613 31.7043 52.2178 27.7762 56.132 24.5582C59.9115 21.4516 64.2346 19.1358 68.9797 17.6763C73.7249 16.2167 78.6538 15.6841 83.63 16.0951C88.7817 16.5203 93.7566 17.9427 98.4196 20.3224C103.083 22.702 107.154 25.8971 110.521 29.8185C113.774 33.6062 116.235 37.9109 117.836 42.6091C119.439 47.3096 120.101 52.169 119.803 57.0514C119.494 62.1083 118.167 66.9704 115.856 71.4991C113.545 76.0278 110.388 79.9559 106.474 83.174C102.694 86.2805 98.3713 88.5963 93.6261 90.0558C88.881 91.5154 83.9521 92.0481 78.9758 91.6371C73.8264 91.212 68.8492 89.7894 64.1863 87.4098ZM97.8 21.5374C79.4236 12.1604 57.0741 19.0333 47.9776 36.8591C38.8811 54.6848 46.4307 76.8166 64.8071 86.1937C83.1823 95.5717 105.533 88.6978 114.629 70.872C123.726 53.0462 116.175 30.9155 97.8 21.5374Z" fill="#7F6FFE"/>
<path d="M111.028 31.511C107.659 27.2341 103.311 23.5843 98.1107 20.9299C79.3666 11.3645 56.6467 18.3551 47.3647 36.5461C40.1721 50.6431 43.1595 67.3289 53.5944 78.577C44.8175 67.438 42.6725 52.0445 49.3796 38.9018C52.5849 32.6223 57.3898 27.6777 63.0812 24.2872C61.9051 25.6755 61.4057 27.1538 61.8361 28.4605C62.7908 31.3524 67.9467 32.3002 73.3552 30.5768C78.7625 28.8545 82.3732 25.1136 81.4197 22.2206C80.9216 20.7079 79.2715 19.727 77.038 19.3824C84.6351 18.3033 92.6925 19.4925 100.126 23.2856C104.342 25.4373 107.998 28.2444 111.028 31.511Z" fill="white"/>
<path opacity="0.3" d="M93.327 85.9296C73.7696 92.1606 52.5975 81.0937 46.0381 61.2095C44.5624 56.7358 43.9515 52.1964 44.1148 47.7763C43.4752 53.1444 43.9777 58.7602 45.7982 64.2779C52.3577 84.1621 73.5297 95.2291 93.0871 88.998C108.244 84.1687 117.982 70.368 118.544 55.1462C116.879 69.1242 107.459 81.4266 93.327 85.9296Z" fill="#611940"/>
<path d="M81.2381 66.6008C81.4756 66.5934 81.8281 66.6697 82.1766 66.7173C82.2358 66.7248 82.2707 66.9404 82.2358 66.9959C82.0979 67.2269 81.847 67.2878 81.6304 67.3964C81.3257 67.5491 81.021 67.5565 80.7109 67.4058C80.4888 67.2992 80.2434 67.2264 80.0826 67.0261C80.0462 66.9805 80.0442 66.9002 80.0403 66.8353C80.0363 66.7495 80.0861 66.7039 80.1742 66.694C80.4913 66.6653 80.8075 66.6177 81.2381 66.6008Z" fill="#A8619F"/>
<path d="M74.9069 41.799C74.7879 42.0433 74.5733 42.085 74.3782 42.1325C73.5488 42.3387 72.7517 42.6381 71.9471 42.9182C70.9355 43.2731 71.2481 43.399 70.468 42.5519C69.0391 41.0034 67.4241 39.672 65.5561 38.6649C64.9298 38.3293 64.2841 38.0393 63.5945 37.8411C62.9354 37.6502 62.2727 37.5893 61.5907 37.6428C60.5925 37.7231 59.8571 38.2168 59.3129 39.0331C59.0755 39.3915 58.9012 39.7826 58.7937 40.1925C58.6518 40.7417 58.5467 41.2968 58.5293 41.8708C58.4795 43.3717 58.723 44.8364 59.064 46.2897C59.3647 47.5675 59.7979 48.8052 60.2654 50.0315C60.3286 50.1955 60.3898 50.3596 60.4436 50.5009C60.4053 50.598 60.3938 50.6743 60.3495 50.7259C59.66 51.5804 58.9645 52.429 58.2824 53.2642C58.0544 53.291 58.0255 53.1175 57.9857 53.0084C57.5834 51.8739 57.1751 50.7388 56.8037 49.5943C56.277 47.973 55.8902 46.3174 55.6024 44.6391C55.3361 43.0961 55.231 41.5417 55.3246 39.9779C55.3858 38.9841 55.57 38.0096 55.9375 37.0767C56.2267 36.3407 56.635 35.6844 57.2249 35.1466C57.9623 34.4755 58.836 34.126 59.8243 34.0403C61.1575 33.9238 62.4485 34.132 63.7091 34.5573C64.891 34.9558 66.0191 35.4782 67.1094 36.081C68.9505 37.1015 70.6632 38.3105 72.3106 39.6111C73.0922 40.2292 73.851 40.8735 74.6172 41.509C74.7232 41.5987 74.8153 41.7073 74.9069 41.799Z" fill="#647592"/>
<path d="M106.688 38.0321C106.987 39.2832 107.079 40.5536 107.013 41.8354C106.853 44.9843 106.075 48.0014 105.073 50.969C104.835 51.6748 104.567 52.3707 104.309 53.0706C104.236 53.2669 104.037 53.2882 103.897 53.1162C103.265 52.3474 102.634 51.5772 102.01 50.8029C101.922 50.6924 101.868 50.5551 101.924 50.4064C101.996 50.2062 102.069 50.0059 102.144 49.8077C102.623 48.509 103.066 47.1965 103.357 45.8423C103.696 44.2726 103.895 42.6934 103.704 41.0859C103.623 40.4049 103.43 39.766 103.087 39.1751C102.74 38.5764 102.267 38.105 101.602 37.8552C101.405 37.7808 101.2 37.7119 100.991 37.6797C100.206 37.5597 99.4375 37.6281 98.6693 37.8571C97.9125 38.0861 97.2021 38.4063 96.5235 38.7935C94.6521 39.8651 93.0216 41.2326 91.5907 42.8386C91.52 42.9189 91.4702 43.0215 91.3876 43.083C91.3069 43.14 91.175 43.2128 91.1043 43.1861C89.9433 42.736 88.7519 42.3776 87.574 41.9846C87.4669 41.9504 87.4246 41.7977 87.4918 41.7288C87.5167 41.704 87.5362 41.6753 87.5625 41.6505C87.6123 41.5989 87.6641 41.5494 87.7179 41.5038C89.3673 40.0906 91.0605 38.7325 92.8672 37.5196C94.2274 36.6061 95.6428 35.7838 97.1468 35.124C98.1276 34.6948 99.1373 34.3533 100.191 34.1496C101.108 33.9701 102.043 33.9399 102.957 34.098C104.168 34.3097 105.133 34.9525 105.815 35.986C106.23 36.615 106.512 37.302 106.688 38.0321Z" fill="#647592"/>
<path d="M65.2121 81.0609C65.3575 82.5336 65.1375 83.9561 64.6774 85.3524C64.6351 85.4857 64.5604 85.6097 64.4992 85.7356C64.4589 85.8159 64.3075 85.8862 64.2309 85.8615C64.1293 85.8273 64.0223 85.8059 63.9301 85.7549C61.6948 84.5494 59.6316 83.1135 57.8672 81.2766C57.7447 81.1487 57.6372 81.0074 57.5242 80.8701C57.4669 80.7997 57.5068 80.6471 57.5989 80.5955C57.7846 80.4944 57.9762 80.3992 58.16 80.2941C58.2521 80.2406 58.3342 80.1722 58.4203 80.1112C58.495 80.0577 58.5314 79.8788 58.4681 79.8292C58.4144 79.7891 58.3342 79.7355 58.2844 79.7489C57.9434 79.8461 57.6103 79.9606 57.2728 80.0656C57.0542 80.1326 56.8396 80.1306 56.6923 79.9303C56.3358 79.4441 55.9893 78.9519 55.6443 78.4577C55.6099 78.4061 55.6194 78.3244 55.6039 78.2193C56.0426 78.1087 56.4852 77.9997 56.9332 77.9159C57.0308 77.8971 57.1249 77.8282 57.2016 77.7593C57.2459 77.7192 57.2763 77.6314 57.2668 77.5744C57.2553 77.5135 57.2016 77.4391 57.1463 77.4123C57.0542 77.3682 56.9452 77.334 56.8456 77.338C56.3477 77.3568 55.8494 77.3915 55.3535 77.4218C55.1619 77.4312 54.999 77.3776 54.9035 77.2042C54.3075 76.1092 53.8535 74.9593 53.5722 73.7424C53.5493 73.6433 53.5607 73.5347 53.5627 73.4297C53.5627 73.4009 53.5916 73.3727 53.607 73.3419C53.839 73.2235 54.0934 73.2601 54.3409 73.2562C55.017 73.2487 55.6951 73.22 56.3697 73.2601C58.4403 73.39 60.3485 74.0056 62.0019 75.282C63.8998 76.7447 64.9742 78.6708 65.2121 81.0609Z" fill="#D2ABD6"/>
<path d="M108.745 73.3215C108.761 73.4454 108.801 73.5524 108.78 73.6456C108.491 74.8565 108.044 76.0104 107.473 77.1148C107.345 77.3626 107.148 77.4523 106.857 77.4162C106.435 77.3626 106.006 77.3532 105.581 77.3344C105.475 77.3284 105.359 77.3284 105.264 77.3686C105.176 77.4067 105.067 77.4925 105.052 77.5728C105.038 77.6471 105.115 77.775 105.188 77.8206C105.305 77.891 105.448 77.9217 105.584 77.9559C105.961 78.0476 106.341 78.1314 106.732 78.2211C106.691 78.3544 106.682 78.467 106.628 78.5512C106.456 78.8204 106.274 79.0816 106.086 79.3408C105.365 80.3381 105.509 80.1914 104.452 79.8538C104.318 79.8097 104.18 79.7755 104.044 79.7393C103.958 79.7165 103.8 79.8137 103.802 79.8994C103.802 79.9604 103.818 80.0501 103.858 80.0769C104.153 80.2697 104.456 80.4466 104.755 80.632C104.822 80.6742 104.829 80.8516 104.768 80.922C104.653 81.0553 104.54 81.1926 104.418 81.3205C103.324 82.4437 102.12 83.4395 100.809 84.2975C100.038 84.805 99.2299 85.2531 98.4368 85.726C98.3467 85.7795 98.2451 85.8177 98.1475 85.8593C98.0385 85.9089 97.8408 85.8326 97.795 85.7067C97.6666 85.3404 97.5366 84.9741 97.4251 84.6023C97.1533 83.6794 97.0169 82.7351 97.0497 81.7721C97.1418 78.9706 98.3023 76.7217 100.592 75.0776C101.76 74.2365 103.073 73.7215 104.49 73.4469C105.157 73.319 105.824 73.2352 106.502 73.2392C107.247 73.2436 107.993 73.2149 108.745 73.3215Z" fill="#D2ABD6"/>
<path d="M85.4164 72.86C85.5045 72.8506 85.6364 72.9686 85.6309 73.0509C85.5428 74.1572 85.2959 75.2214 84.7806 76.2112C84.7328 76.3029 84.6467 76.3733 84.5854 76.4477C84.3708 76.4477 84.2733 76.2876 84.1488 76.1711C83.6201 75.6769 83.0052 75.3394 82.3157 75.1183C82.0762 75.04 81.8387 74.9964 81.5878 74.9751C80.266 74.8625 79.1398 75.2858 78.172 76.1726C78.0933 76.243 78.0147 76.3158 77.9365 76.3862C77.8598 76.4512 77.695 76.4432 77.6532 76.3709C77.0438 75.3409 76.7511 74.2231 76.7202 73.033C76.7182 72.9607 76.8656 72.8422 76.9423 72.8536C77.1165 72.8824 77.2928 72.9071 77.465 72.9433C77.9629 73.0519 78.4478 73.0157 78.9442 72.9012C79.7029 72.7277 80.3367 72.3807 80.8291 71.778C80.9172 71.6695 81.0128 71.5683 81.0994 71.4712C81.308 71.5168 81.4001 71.6774 81.5211 71.8048C82.5113 72.8442 83.5668 73.1778 84.9962 72.9051C85.1351 72.8809 85.2765 72.8734 85.4164 72.86Z" fill="#A8619F"/>
<path d="M84.0465 76.9494C84.1481 77.0658 84.1521 77.2086 84.054 77.3325C83.5193 78.0056 82.9104 78.5875 82.073 78.8716C81.7763 78.9727 81.4621 79.0297 81.1594 79.108C80.8662 79.0376 80.5849 78.9935 80.3206 78.9038C79.4548 78.6044 78.7901 78.0398 78.2554 77.3112C78.1847 77.214 78.2037 77.0193 78.2938 76.9181C78.7458 76.4091 79.282 76.0121 79.8974 75.7206C80.7517 75.3142 81.606 75.3295 82.4549 75.738C83.0678 76.0339 83.6005 76.4364 84.0465 76.9494Z" fill="#D2ABD6"/>
<path d="M68.8881 65.7581C70.068 67.2917 69.1813 68.972 67.8864 69.4428C67.5494 69.5648 67.2123 69.6773 66.8882 69.6471C65.5241 69.6585 64.3173 68.6894 64.0165 67.6044C63.8094 66.853 63.9553 66.1967 64.3765 65.5846C64.7559 65.0354 65.3229 64.738 65.9552 64.5605C66.0568 64.5318 66.1678 64.5224 66.2733 64.5283C67.3134 64.5833 68.2344 64.9075 68.8881 65.7581Z" fill="#2B3245"/>
<path d="M97.9355 65.5803C98.265 65.9734 98.399 66.4537 98.3761 66.8294C98.3701 67.901 97.9335 68.6049 97.1807 69.1065C96.2975 69.6958 95.3376 69.8505 94.3419 69.4059C92.7483 68.6946 92.6293 67.0391 93.2441 66.0185C93.6275 65.3816 94.1926 64.9716 94.8896 64.7367C95.0583 64.6797 95.2326 64.6396 95.4068 64.5974C96.4757 64.3446 97.2803 64.7967 97.9355 65.5803Z" fill="#2B3245"/>
<path d="M108.506 64.0836C109.117 66.2903 109.389 68.5352 109.238 70.8237C109.197 71.4224 109.079 72.0177 108.994 72.6145C108.983 72.6869 108.824 72.788 108.745 72.7726C107.69 72.559 106.623 72.555 105.554 72.618C103.51 72.7399 101.654 73.4036 100.014 74.6205C98.0327 76.0891 96.8473 78.0688 96.468 80.4852C96.2399 81.931 96.3126 83.3878 96.7532 84.8069C96.805 84.9749 96.8508 85.1484 96.9086 85.3159C97.3088 86.4813 97.4029 86.2696 96.3111 86.7712C94.2366 87.7229 92.0753 88.4307 89.8728 89.0161C88.2578 89.4453 86.6123 89.7522 84.9704 90.0595C84.7618 90.0996 84.5452 90.0976 84.3306 90.115C84.118 90.1323 83.8995 90.1244 83.6929 90.1665C82.2775 90.4505 80.8521 90.338 79.4287 90.3018C78.1681 90.0823 76.8886 90.0005 75.63 89.7333C74.0648 89.3997 72.5055 89.0488 70.9691 88.6002C69.1932 88.0813 67.4597 87.4389 65.7739 86.6741C65.6111 86.5997 65.4523 86.5194 65.295 86.4376C65.1974 86.3881 65.1207 86.1839 65.1591 86.0639C65.2108 85.8944 65.2681 85.7283 65.3258 85.5603C65.5842 84.8203 65.7605 84.0649 65.8815 83.2907C66.3564 80.2012 65.1556 76.4951 61.912 74.3379C60.8337 73.6207 59.6592 73.1364 58.3966 72.8465C56.7761 72.4727 55.1496 72.5471 53.4868 72.7513C53.3757 72.7017 53.3239 72.5699 53.2836 72.4346C53.2627 72.3657 53.2413 72.2973 53.2338 72.2269C53.092 70.9223 52.9789 69.6217 53.0805 68.2997C53.3105 65.2861 54.1668 62.4524 55.4274 59.7247C56.5346 57.3292 57.9426 55.113 59.5173 53C60.0057 52.3457 60.5115 51.7014 61.0019 51.0491C61.2588 50.7076 61.5381 50.3814 61.6975 49.9829C61.7204 49.9274 61.6994 49.8322 61.6631 49.7846C61.6342 49.7484 61.5426 49.7351 61.4888 49.7504C61.3201 49.796 61.1767 49.9333 60.9527 49.861C60.3627 48.4017 59.9296 46.8726 59.585 45.3142C59.4068 44.5112 59.3361 43.7008 59.2918 42.8865C59.2475 42.0319 59.2918 41.1814 59.5621 40.3595C59.6293 40.1593 59.706 39.959 59.7921 39.7662C60.3418 38.538 61.6561 38.2118 62.5353 38.3779C63.2707 38.5152 63.9816 38.7382 64.6562 39.0723C65.5549 39.5169 66.3803 40.0716 67.1794 40.6688C68.2348 41.4604 69.1987 42.3586 70.1715 43.2453C70.2422 43.3102 70.2711 43.4228 70.3189 43.5125C70.0545 43.7891 69.7 43.8768 69.3939 44.0409C68.7979 44.3596 68.2005 44.6778 67.6603 45.0862C67.4895 45.2141 67.3387 45.3648 67.1908 45.5174C67.162 45.5482 67.1679 45.6607 67.1968 45.6835C67.2446 45.7197 67.3387 45.739 67.3905 45.7157C67.6165 45.6106 67.8371 45.4946 68.0516 45.3722C69.95 44.2966 71.9558 43.4862 74.0573 42.9063C75.6052 42.481 77.1759 42.1776 78.7661 41.9754C78.8716 41.962 78.9787 41.9526 79.0862 41.9526C80.4772 41.9526 81.8697 41.9105 83.2568 41.97C84.1056 42.0042 84.952 42.1474 85.7914 42.3303C86.9026 42.5747 88.0118 42.8185 89.1016 43.1561C90.8755 43.7073 92.5787 44.4131 94.1897 45.336C94.4063 45.4599 94.6244 45.5804 94.8524 45.681C94.9385 45.7192 95.0555 45.7152 95.1511 45.6944C95.2372 45.6756 95.178 45.4981 95.0172 45.3683C94.7952 45.1928 94.5786 45.0039 94.3351 44.8592C93.7546 44.5157 93.1607 44.1935 92.5707 43.8654C92.385 43.7623 92.1913 43.6711 91.9827 43.566C92.0305 43.4629 92.048 43.3484 92.1147 43.2874C93.1836 42.2936 94.2605 41.3097 95.4444 40.4493C96.1359 39.9476 96.8503 39.4842 97.6165 39.0971C98.2891 38.7595 98.9961 38.5271 99.7334 38.3878C100.822 38.1816 102.072 38.6356 102.601 39.91C102.875 40.5717 103.013 41.2641 103.048 41.9794C103.097 43.051 102.978 44.1098 102.772 45.1551C102.477 46.6525 102.033 48.1113 101.509 49.5477C101.461 49.6776 101.373 49.7916 101.287 49.9408C101.113 49.8664 100.956 49.796 100.797 49.7346C100.77 49.7232 100.711 49.7405 100.699 49.7613C100.667 49.8203 100.613 49.9026 100.632 49.9482C100.716 50.141 100.802 50.3393 100.923 50.5088C101.213 50.9152 101.519 51.3058 101.822 51.7009C103.062 53.3068 104.247 54.947 105.286 56.6903C106.667 59.0199 107.782 61.4665 108.506 64.0836ZM98.4559 69.2063C99.3984 68.1173 99.4407 66.6259 98.904 65.6207C98.5206 64.9015 97.9272 64.4212 97.1704 64.1158C96.6626 63.9096 96.1284 63.9042 95.5997 63.8487C94.1858 63.8065 92.6782 64.7642 92.159 66.2576C92.0076 66.6923 91.8986 67.1443 91.9653 67.6157C92.1092 68.6591 92.607 69.4809 93.5112 70.0435C94.0379 70.3716 94.6164 70.5297 95.2293 70.5585C96.5212 70.6214 97.6076 70.1848 98.4559 69.2063ZM88.2513 70.5605C88.2742 70.4861 88.2055 70.3662 88.1457 70.2933C88.1189 70.2611 87.9964 70.2685 87.9466 70.3027C87.7723 70.4212 87.6001 70.5471 87.4467 70.6898C87.0559 71.0542 86.6477 71.3957 86.1842 71.6643C85.4234 72.1069 84.6094 72.3072 83.7302 72.2061C83.556 72.1872 83.3797 72.1451 83.2129 72.0896C82.5807 71.874 82.1097 71.4546 81.7607 70.8975C81.6113 70.6571 81.5058 70.3919 81.3659 70.1461C81.3181 70.0603 81.222 70.0014 81.1513 69.9325C80.9407 70.0623 80.9079 70.2834 80.7988 70.4569C80.6111 70.7543 80.4404 71.069 80.2183 71.3416C79.8484 71.7976 79.3446 72.0871 78.772 72.1788C78.1761 72.274 77.5767 72.2532 76.9827 72.0435C76.2987 71.8031 75.7052 71.4314 75.1646 70.962C74.9769 70.7999 74.8081 70.617 74.6204 70.4509C74.5437 70.382 74.4501 70.325 74.352 70.2888C74.2948 70.266 74.2141 70.2849 74.1489 70.3022C74.0588 70.323 74.007 70.4757 74.0513 70.5654C74.1126 70.6933 74.1663 70.8266 74.245 70.9431C74.5054 71.3283 74.8389 71.649 75.2049 71.933C75.4289 72.1064 75.6549 72.2745 75.883 72.446C75.9327 72.8103 75.9845 73.1592 76.0268 73.5102C76.1553 74.5783 76.5212 75.5716 76.9962 76.5293C77.2317 77.0081 77.5324 77.4487 77.8794 77.8547C78.6167 78.7166 79.5363 79.2891 80.64 79.5672C80.9945 79.6569 81.341 79.653 81.6935 79.5632C82.5383 79.3476 83.2816 78.9531 83.9274 78.3712C84.4885 77.8656 84.9311 77.2708 85.2781 76.6031C85.9392 75.3293 86.345 73.9825 86.3793 72.4683C86.6283 72.2889 86.8314 72.1461 87.0285 71.9974C87.3999 71.7188 87.7355 71.4021 88.0113 71.0284C88.1134 70.8886 88.2015 70.726 88.2513 70.5605ZM82.966 67.2702C83.2114 66.9253 83.1423 66.496 82.7898 66.2462C82.6748 66.1659 82.5503 66.0881 82.4164 66.0519C82.0081 65.9374 81.5924 65.8422 81.1827 65.865C80.6943 65.8497 80.2402 65.9339 79.8036 66.0841C79.1907 66.2977 79.0394 67.0016 79.5009 67.4497C79.5507 67.4992 79.6005 67.5488 79.6562 67.5944C79.9609 67.8462 80.3209 68.0008 80.6983 68.1035C81.449 68.3077 82.51 67.9092 82.966 67.2702ZM68.9453 69.9538C70.2039 69.0745 70.5947 67.751 70.1999 66.3949C69.6921 64.6611 67.9491 63.7153 66.5411 63.864C66.2578 63.8908 65.9741 63.9096 65.6923 63.9518C65.5524 63.9706 65.4219 64.0375 65.286 64.0796C63.4853 64.6155 62.2461 66.8529 63.6481 68.9104C64.4546 70.0931 65.6231 70.5962 67.0405 70.562C67.7345 70.5451 68.3762 70.3503 68.9453 69.9538Z" fill="#647592"/>
<mask id="mask0_875_45325" style="mask-type:luminance" maskUnits="userSpaceOnUse" x="53" y="38" width="57" height="53">
<path d="M108.506 64.0836C109.117 66.2903 109.389 68.5352 109.238 70.8237C109.197 71.4224 109.079 72.0177 108.994 72.6145C108.983 72.6869 108.824 72.788 108.745 72.7726C107.69 72.559 106.623 72.555 105.554 72.618C103.51 72.7399 101.654 73.4036 100.014 74.6205C98.0327 76.0891 96.8473 78.0688 96.468 80.4852C96.2399 81.931 96.3126 83.3878 96.7532 84.8069C96.805 84.9749 96.8508 85.1484 96.9086 85.3159C97.3088 86.4813 97.4029 86.2696 96.3111 86.7712C94.2366 87.7229 92.0753 88.4307 89.8728 89.0161C88.2578 89.4453 86.6123 89.7522 84.9704 90.0595C84.7618 90.0996 84.5452 90.0976 84.3306 90.115C84.118 90.1323 83.8995 90.1244 83.6929 90.1665C82.2775 90.4505 80.8521 90.338 79.4287 90.3018C78.1681 90.0823 76.8886 90.0005 75.63 89.7333C74.0648 89.3997 72.5055 89.0488 70.9691 88.6002C69.1932 88.0813 67.4597 87.4389 65.7739 86.6741C65.6111 86.5997 65.4523 86.5194 65.295 86.4376C65.1974 86.3881 65.1207 86.1839 65.1591 86.0639C65.2108 85.8944 65.2681 85.7283 65.3258 85.5603C65.5842 84.8203 65.7605 84.0649 65.8815 83.2907C66.3564 80.2012 65.1556 76.4951 61.912 74.3379C60.8337 73.6207 59.6592 73.1364 58.3966 72.8465C56.7761 72.4727 55.1496 72.5471 53.4868 72.7513C53.3757 72.7017 53.3239 72.5699 53.2836 72.4346C53.2627 72.3657 53.2413 72.2973 53.2338 72.2269C53.092 70.9223 52.9789 69.6217 53.0805 68.2997C53.3105 65.2861 54.1668 62.4524 55.4274 59.7247C56.5346 57.3292 57.9426 55.113 59.5173 53C60.0057 52.3457 60.5115 51.7014 61.0019 51.0491C61.2588 50.7076 61.5381 50.3814 61.6975 49.9829C61.7204 49.9274 61.6994 49.8322 61.6631 49.7846C61.6342 49.7484 61.5426 49.7351 61.4888 49.7504C61.3201 49.796 61.1767 49.9333 60.9527 49.861C60.3627 48.4017 59.9296 46.8726 59.585 45.3142C59.4068 44.5112 59.3361 43.7008 59.2918 42.8865C59.2475 42.0319 59.2918 41.1814 59.5621 40.3595C59.6293 40.1593 59.706 39.959 59.7921 39.7662C60.3418 38.538 61.6561 38.2118 62.5353 38.3779C63.2707 38.5152 63.9816 38.7382 64.6562 39.0723C65.5549 39.5169 66.3803 40.0716 67.1794 40.6688C68.2348 41.4604 69.1987 42.3586 70.1715 43.2453C70.2422 43.3102 70.2711 43.4228 70.3189 43.5125C70.0545 43.7891 69.7 43.8768 69.3939 44.0409C68.7979 44.3596 68.2005 44.6778 67.6603 45.0862C67.4895 45.2141 67.3387 45.3648 67.1908 45.5174C67.162 45.5482 67.1679 45.6607 67.1968 45.6835C67.2446 45.7197 67.3387 45.739 67.3905 45.7157C67.6165 45.6106 67.8371 45.4946 68.0516 45.3722C69.95 44.2966 71.9558 43.4862 74.0573 42.9063C75.6052 42.481 77.1759 42.1776 78.7661 41.9754C78.8716 41.962 78.9787 41.9526 79.0862 41.9526C80.4772 41.9526 81.8697 41.9105 83.2568 41.97C84.1056 42.0042 84.952 42.1474 85.7914 42.3303C86.9026 42.5747 88.0118 42.8185 89.1016 43.1561C90.8755 43.7073 92.5787 44.4131 94.1897 45.336C94.4063 45.4599 94.6244 45.5804 94.8524 45.681C94.9385 45.7192 95.0555 45.7152 95.1511 45.6944C95.2372 45.6756 95.178 45.4981 95.0172 45.3683C94.7952 45.1928 94.5786 45.0039 94.3351 44.8592C93.7546 44.5157 93.1607 44.1935 92.5707 43.8654C92.385 43.7623 92.1913 43.6711 91.9827 43.566C92.0305 43.4629 92.048 43.3484 92.1147 43.2874C93.1836 42.2936 94.2605 41.3097 95.4444 40.4493C96.1359 39.9476 96.8503 39.4842 97.6165 39.0971C98.2891 38.7595 98.9961 38.5271 99.7334 38.3878C100.822 38.1816 102.072 38.6356 102.601 39.91C102.875 40.5717 103.013 41.2641 103.048 41.9794C103.097 43.051 102.978 44.1098 102.772 45.1551C102.477 46.6525 102.033 48.1113 101.509 49.5477C101.461 49.6776 101.373 49.7916 101.287 49.9408C101.113 49.8664 100.956 49.796 100.797 49.7346C100.77 49.7232 100.711 49.7405 100.699 49.7613C100.667 49.8203 100.613 49.9026 100.632 49.9482C100.716 50.141 100.802 50.3393 100.923 50.5088C101.213 50.9152 101.519 51.3058 101.822 51.7009C103.062 53.3068 104.247 54.947 105.286 56.6903C106.667 59.0199 107.782 61.4665 108.506 64.0836ZM98.4559 69.2063C99.3984 68.1173 99.4407 66.6259 98.904 65.6207C98.5206 64.9015 97.9272 64.4212 97.1704 64.1158C96.6626 63.9096 96.1284 63.9042 95.5997 63.8487C94.1858 63.8065 92.6782 64.7642 92.159 66.2576C92.0076 66.6923 91.8986 67.1443 91.9653 67.6157C92.1092 68.6591 92.607 69.4809 93.5112 70.0435C94.0379 70.3716 94.6164 70.5297 95.2293 70.5585C96.5212 70.6214 97.6076 70.1848 98.4559 69.2063ZM88.2513 70.5605C88.2742 70.4861 88.2055 70.3662 88.1457 70.2933C88.1189 70.2611 87.9964 70.2685 87.9466 70.3027C87.7723 70.4212 87.6001 70.5471 87.4467 70.6898C87.0559 71.0542 86.6477 71.3957 86.1842 71.6643C85.4234 72.1069 84.6094 72.3072 83.7302 72.2061C83.556 72.1872 83.3797 72.1451 83.2129 72.0896C82.5807 71.874 82.1097 71.4546 81.7607 70.8975C81.6113 70.6571 81.5058 70.3919 81.3659 70.1461C81.3181 70.0603 81.222 70.0014 81.1513 69.9325C80.9407 70.0623 80.9079 70.2834 80.7988 70.4569C80.6111 70.7543 80.4404 71.069 80.2183 71.3416C79.8484 71.7976 79.3446 72.0871 78.772 72.1788C78.1761 72.274 77.5767 72.2532 76.9827 72.0435C76.2987 71.8031 75.7052 71.4314 75.1646 70.962C74.9769 70.7999 74.8081 70.617 74.6204 70.4509C74.5437 70.382 74.4501 70.325 74.352 70.2888C74.2948 70.266 74.2141 70.2849 74.1489 70.3022C74.0588 70.323 74.007 70.4757 74.0513 70.5654C74.1126 70.6933 74.1663 70.8266 74.245 70.9431C74.5054 71.3283 74.8389 71.649 75.2049 71.933C75.4289 72.1064 75.6549 72.2745 75.883 72.446C75.9327 72.8103 75.9845 73.1592 76.0268 73.5102C76.1553 74.5783 76.5212 75.5716 76.9962 76.5293C77.2317 77.0081 77.5324 77.4487 77.8794 77.8547C78.6167 78.7166 79.5363 79.2891 80.64 79.5672C80.9945 79.6569 81.341 79.653 81.6935 79.5632C82.5383 79.3476 83.2816 78.9531 83.9274 78.3712C84.4885 77.8656 84.9311 77.2708 85.2781 76.6031C85.9392 75.3293 86.345 73.9825 86.3793 72.4683C86.6283 72.2889 86.8314 72.1461 87.0285 71.9974C87.3999 71.7188 87.7355 71.4021 88.0113 71.0284C88.1134 70.8886 88.2015 70.726 88.2513 70.5605ZM82.966 67.2702C83.2114 66.9253 83.1423 66.496 82.7898 66.2462C82.6748 66.1659 82.5503 66.0881 82.4164 66.0519C82.0081 65.9374 81.5924 65.8422 81.1827 65.865C80.6943 65.8497 80.2402 65.9339 79.8036 66.0841C79.1907 66.2977 79.0394 67.0016 79.5009 67.4497C79.5507 67.4992 79.6005 67.5488 79.6562 67.5944C79.9609 67.8462 80.3209 68.0008 80.6983 68.1035C81.449 68.3077 82.51 67.9092 82.966 67.2702ZM68.9453 69.9538C70.2039 69.0745 70.5947 67.751 70.1999 66.3949C69.6921 64.6611 67.9491 63.7153 66.5411 63.864C66.2578 63.8908 65.9741 63.9096 65.6923 63.9518C65.5524 63.9706 65.4219 64.0375 65.286 64.0796C63.4853 64.6155 62.2461 66.8529 63.6481 68.9104C64.4546 70.0931 65.6231 70.5962 67.0405 70.562C67.7345 70.5451 68.3762 70.3503 68.9453 69.9538Z" fill="white"/>
</mask>
<g mask="url(#mask0_875_45325)">
<path d="M67.1362 45.9476C68.0229 45.2225 68.9449 44.5251 69.863 43.8103C70.1353 43.5982 70.4385 43.5471 70.7158 43.5997C71.136 42.8661 71.2007 41.9456 70.7721 41.1659C70.2439 40.2048 69.2461 39.8856 68.3107 39.4529C67.5136 39.0841 66.716 38.7154 65.9189 38.3471C65.0084 37.9263 64.0246 37.3062 63.0503 37.0643C60.5978 36.4556 59.501 38.7491 58.8628 40.6371C58.3341 42.2009 57.8939 44.4195 58.3794 46.0567C58.4286 46.2227 58.4929 46.3818 58.57 46.532C58.5208 46.5781 58.471 46.6227 58.4222 46.6688C56.2734 48.7025 59.5279 51.9358 61.6732 49.9055C62.888 48.7561 64.1769 47.7206 65.5854 46.815C66.0837 46.4943 66.607 46.2153 67.1362 45.9476Z" fill="#D2ABD6"/>
</g>
<mask id="mask1_875_45325" style="mask-type:luminance" maskUnits="userSpaceOnUse" x="53" y="38" width="57" height="53">
<path d="M108.506 64.0836C109.117 66.2903 109.389 68.5352 109.238 70.8237C109.197 71.4224 109.079 72.0177 108.994 72.6145C108.983 72.6869 108.824 72.788 108.745 72.7726C107.69 72.559 106.623 72.555 105.554 72.618C103.51 72.7399 101.654 73.4036 100.014 74.6205C98.0327 76.0891 96.8473 78.0688 96.468 80.4852C96.2399 81.931 96.3126 83.3878 96.7532 84.8069C96.805 84.9749 96.8508 85.1484 96.9086 85.3159C97.3088 86.4813 97.4029 86.2696 96.3111 86.7712C94.2366 87.7229 92.0753 88.4307 89.8728 89.0161C88.2578 89.4453 86.6123 89.7522 84.9704 90.0595C84.7618 90.0996 84.5452 90.0976 84.3306 90.115C84.118 90.1323 83.8995 90.1244 83.6929 90.1665C82.2775 90.4505 80.8521 90.338 79.4287 90.3018C78.1681 90.0823 76.8886 90.0005 75.63 89.7333C74.0648 89.3997 72.5055 89.0488 70.9691 88.6002C69.1932 88.0813 67.4597 87.4389 65.7739 86.6741C65.6111 86.5997 65.4523 86.5194 65.295 86.4376C65.1974 86.3881 65.1207 86.1839 65.1591 86.0639C65.2108 85.8944 65.2681 85.7283 65.3258 85.5603C65.5842 84.8203 65.7605 84.0649 65.8815 83.2907C66.3564 80.2012 65.1556 76.4951 61.912 74.3379C60.8337 73.6207 59.6592 73.1364 58.3966 72.8465C56.7761 72.4727 55.1496 72.5471 53.4868 72.7513C53.3757 72.7017 53.3239 72.5699 53.2836 72.4346C53.2627 72.3657 53.2413 72.2973 53.2338 72.2269C53.092 70.9223 52.9789 69.6217 53.0805 68.2997C53.3105 65.2861 54.1668 62.4524 55.4274 59.7247C56.5346 57.3292 57.9426 55.113 59.5173 53C60.0057 52.3457 60.5115 51.7014 61.0019 51.0491C61.2588 50.7076 61.5381 50.3814 61.6975 49.9829C61.7204 49.9274 61.6994 49.8322 61.6631 49.7846C61.6342 49.7484 61.5426 49.7351 61.4888 49.7504C61.3201 49.796 61.1767 49.9333 60.9527 49.861C60.3627 48.4017 59.9296 46.8726 59.585 45.3142C59.4068 44.5112 59.3361 43.7008 59.2918 42.8865C59.2475 42.0319 59.2918 41.1814 59.5621 40.3595C59.6293 40.1593 59.706 39.959 59.7921 39.7662C60.3418 38.538 61.6561 38.2118 62.5353 38.3779C63.2707 38.5152 63.9816 38.7382 64.6562 39.0723C65.5549 39.5169 66.3803 40.0716 67.1794 40.6688C68.2348 41.4604 69.1987 42.3586 70.1715 43.2453C70.2422 43.3102 70.2711 43.4228 70.3189 43.5125C70.0545 43.7891 69.7 43.8768 69.3939 44.0409C68.7979 44.3596 68.2005 44.6778 67.6603 45.0862C67.4895 45.2141 67.3387 45.3648 67.1908 45.5174C67.162 45.5482 67.1679 45.6607 67.1968 45.6835C67.2446 45.7197 67.3387 45.739 67.3905 45.7157C67.6165 45.6106 67.8371 45.4946 68.0516 45.3722C69.95 44.2966 71.9558 43.4862 74.0573 42.9063C75.6052 42.481 77.1759 42.1776 78.7661 41.9754C78.8716 41.962 78.9787 41.9526 79.0862 41.9526C80.4772 41.9526 81.8697 41.9105 83.2568 41.97C84.1056 42.0042 84.952 42.1474 85.7914 42.3303C86.9026 42.5747 88.0118 42.8185 89.1016 43.1561C90.8755 43.7073 92.5787 44.4131 94.1897 45.336C94.4063 45.4599 94.6244 45.5804 94.8524 45.681C94.9385 45.7192 95.0555 45.7152 95.1511 45.6944C95.2372 45.6756 95.178 45.4981 95.0172 45.3683C94.7952 45.1928 94.5786 45.0039 94.3351 44.8592C93.7546 44.5157 93.1607 44.1935 92.5707 43.8654C92.385 43.7623 92.1913 43.6711 91.9827 43.566C92.0305 43.4629 92.048 43.3484 92.1147 43.2874C93.1836 42.2936 94.2605 41.3097 95.4444 40.4493C96.1359 39.9476 96.8503 39.4842 97.6165 39.0971C98.2891 38.7595 98.9961 38.5271 99.7334 38.3878C100.822 38.1816 102.072 38.6356 102.601 39.91C102.875 40.5717 103.013 41.2641 103.048 41.9794C103.097 43.051 102.978 44.1098 102.772 45.1551C102.477 46.6525 102.033 48.1113 101.509 49.5477C101.461 49.6776 101.373 49.7916 101.287 49.9408C101.113 49.8664 100.956 49.796 100.797 49.7346C100.77 49.7232 100.711 49.7405 100.699 49.7613C100.667 49.8203 100.613 49.9026 100.632 49.9482C100.716 50.141 100.802 50.3393 100.923 50.5088C101.213 50.9152 101.519 51.3058 101.822 51.7009C103.062 53.3068 104.247 54.947 105.286 56.6903C106.667 59.0199 107.782 61.4665 108.506 64.0836ZM98.4559 69.2063C99.3984 68.1173 99.4407 66.6259 98.904 65.6207C98.5206 64.9015 97.9272 64.4212 97.1704 64.1158C96.6626 63.9096 96.1284 63.9042 95.5997 63.8487C94.1858 63.8065 92.6782 64.7642 92.159 66.2576C92.0076 66.6923 91.8986 67.1443 91.9653 67.6157C92.1092 68.6591 92.607 69.4809 93.5112 70.0435C94.0379 70.3716 94.6164 70.5297 95.2293 70.5585C96.5212 70.6214 97.6076 70.1848 98.4559 69.2063ZM88.2513 70.5605C88.2742 70.4861 88.2055 70.3662 88.1457 70.2933C88.1189 70.2611 87.9964 70.2685 87.9466 70.3027C87.7723 70.4212 87.6001 70.5471 87.4467 70.6898C87.0559 71.0542 86.6477 71.3957 86.1842 71.6643C85.4234 72.1069 84.6094 72.3072 83.7302 72.2061C83.556 72.1872 83.3797 72.1451 83.2129 72.0896C82.5807 71.874 82.1097 71.4546 81.7607 70.8975C81.6113 70.6571 81.5058 70.3919 81.3659 70.1461C81.3181 70.0603 81.222 70.0014 81.1513 69.9325C80.9407 70.0623 80.9079 70.2834 80.7988 70.4569C80.6111 70.7543 80.4404 71.069 80.2183 71.3416C79.8484 71.7976 79.3446 72.0871 78.772 72.1788C78.1761 72.274 77.5767 72.2532 76.9827 72.0435C76.2987 71.8031 75.7052 71.4314 75.1646 70.962C74.9769 70.7999 74.8081 70.617 74.6204 70.4509C74.5437 70.382 74.4501 70.325 74.352 70.2888C74.2948 70.266 74.2141 70.2849 74.1489 70.3022C74.0588 70.323 74.007 70.4757 74.0513 70.5654C74.1126 70.6933 74.1663 70.8266 74.245 70.9431C74.5054 71.3283 74.8389 71.649 75.2049 71.933C75.4289 72.1064 75.6549 72.2745 75.883 72.446C75.9327 72.8103 75.9845 73.1592 76.0268 73.5102C76.1553 74.5783 76.5212 75.5716 76.9962 76.5293C77.2317 77.0081 77.5324 77.4487 77.8794 77.8547C78.6167 78.7166 79.5363 79.2891 80.64 79.5672C80.9945 79.6569 81.341 79.653 81.6935 79.5632C82.5383 79.3476 83.2816 78.9531 83.9274 78.3712C84.4885 77.8656 84.9311 77.2708 85.2781 76.6031C85.9392 75.3293 86.345 73.9825 86.3793 72.4683C86.6283 72.2889 86.8314 72.1461 87.0285 71.9974C87.3999 71.7188 87.7355 71.4021 88.0113 71.0284C88.1134 70.8886 88.2015 70.726 88.2513 70.5605ZM82.966 67.2702C83.2114 66.9253 83.1423 66.496 82.7898 66.2462C82.6748 66.1659 82.5503 66.0881 82.4164 66.0519C82.0081 65.9374 81.5924 65.8422 81.1827 65.865C80.6943 65.8497 80.2402 65.9339 79.8036 66.0841C79.1907 66.2977 79.0394 67.0016 79.5009 67.4497C79.5507 67.4992 79.6005 67.5488 79.6562 67.5944C79.9609 67.8462 80.3209 68.0008 80.6983 68.1035C81.449 68.3077 82.51 67.9092 82.966 67.2702ZM68.9453 69.9538C70.2039 69.0745 70.5947 67.751 70.1999 66.3949C69.6921 64.6611 67.9491 63.7153 66.5411 63.864C66.2578 63.8908 65.9741 63.9096 65.6923 63.9518C65.5524 63.9706 65.4219 64.0375 65.286 64.0796C63.4853 64.6155 62.2461 66.8529 63.6481 68.9104C64.4546 70.0931 65.6231 70.5962 67.0405 70.562C67.7345 70.5451 68.3762 70.3503 68.9453 69.9538Z" fill="white"/>
</mask>
<g mask="url(#mask1_875_45325)">
<path d="M103.8 39.1204C102.613 37.4401 101.045 36.7987 99.0189 36.7452C97.1564 36.6961 94.3579 37.0213 94.0667 39.334C94.0483 39.4807 94.0438 39.6255 94.0498 39.7687C93.1242 39.6166 92.1962 39.8996 91.6615 40.8096C91.0965 41.7712 91.3374 43.454 92.486 43.9408C92.7668 44.0597 93.0426 44.1866 93.3154 44.3175C93.7277 44.7279 94.1618 45.116 94.6143 45.4808C94.6736 45.4867 94.7348 45.4971 94.7975 45.514C96.3006 45.9234 97.5527 47.0402 98.6415 48.1004C99.0035 48.4528 99.353 48.8171 99.6955 49.1869C100.736 49.8882 101.895 50.3106 103.072 49.625C104.789 48.6253 104.831 46.137 105.124 44.3978C105.459 42.4082 104.959 40.762 103.8 39.1204Z" fill="#D2ABD6"/>
</g>
<path d="M76.0305 41.7146C79.4493 41.0152 82.8088 41.0137 86.1778 41.6918C86.4701 41.6283 86.6319 41.377 86.8355 41.1862C88.8658 39.2824 91.0459 37.5728 93.4192 36.1106C94.9675 35.1569 96.5806 34.3386 98.3137 33.7621C99.6474 33.3185 101.006 33.0999 102.412 33.2015C103.947 33.3126 105.216 33.9401 106.201 35.1232C106.684 35.7037 107.035 36.3619 107.282 37.0697C107.527 37.774 107.694 38.4972 107.782 39.2422C107.916 40.3753 107.934 41.5015 107.843 42.641C107.625 45.3463 106.989 47.96 106.157 50.531C105.808 51.6101 105.391 52.6668 105.006 53.734C104.934 53.9328 104.869 54.1335 104.795 54.3516C105.007 54.6827 105.217 55.0108 105.428 55.3375C106.84 57.5229 108.039 59.8128 108.923 62.2629C109.441 63.7028 109.82 65.1794 110.055 66.6887C110.352 68.595 110.377 70.5083 110.065 72.4161C109.817 73.9274 109.39 75.3891 108.756 76.7879C108.657 77.007 108.495 77.2072 108.542 77.4947C108.849 77.6732 109.205 77.696 109.558 77.7346C110.336 77.8199 111.115 77.9056 111.892 78.0043C112.028 78.0216 112.163 78.0885 112.284 78.1574C112.373 78.208 112.445 78.2927 112.435 78.4167C112.425 78.5371 112.295 78.7215 112.19 78.7269C111.977 78.7379 111.762 78.7592 111.553 78.7354C110.669 78.6343 109.787 78.5133 108.903 78.4097C108.657 78.381 108.405 78.375 108.157 78.3859C108.061 78.3899 107.942 78.4469 107.881 78.5198C107.744 78.6818 107.64 78.8697 107.519 79.0452C107.196 79.5131 106.872 79.98 106.55 80.4484C106.496 80.5257 106.545 80.6655 106.642 80.7081C107.653 81.1498 108.663 81.5884 109.673 82.0306C109.967 82.1589 110.259 82.2888 110.547 82.4276C110.64 82.4727 110.728 82.5386 110.798 82.614C110.837 82.6556 110.852 82.7364 110.848 82.7978C110.842 82.894 110.699 83.01 110.624 82.9897C110.42 82.9356 110.21 82.895 110.016 82.8152C108.931 82.3686 107.85 81.9116 106.767 81.4596C106.538 81.3644 106.307 81.2757 106.063 81.179C105.971 81.2291 105.859 81.2578 105.794 81.3292C102.992 84.4266 99.5274 86.55 95.6899 88.1158C93.3475 89.0715 90.9269 89.7788 88.456 90.328C87.065 90.6373 85.6651 90.8975 84.2551 91.0809C83.1987 91.2182 82.1367 91.3734 81.0623 91.3476C80.5983 91.3362 80.1358 91.3362 79.6778 91.247C79.5384 91.2197 79.395 91.2053 79.2531 91.1974C78.2196 91.1404 77.2064 90.9406 76.1873 90.7761C74.7803 90.5491 73.3938 90.2368 72.0157 89.8824C69.2158 89.1622 66.5064 88.1961 63.93 86.8806C61.2117 85.4923 58.7537 83.754 56.6851 81.4977C56.5905 81.3941 56.482 81.3034 56.4188 81.2429C56.2147 81.1597 56.0927 81.2444 55.9632 81.298C54.7808 81.7892 53.5994 82.2819 52.4145 82.7666C52.187 82.8598 51.947 82.9262 51.7085 82.9867C51.6602 82.9991 51.5796 82.9386 51.5328 82.893C51.4641 82.8261 51.4681 82.6412 51.5318 82.6016C51.711 82.4895 51.8843 82.3622 52.0765 82.2774C52.9552 81.8913 53.8409 81.5195 54.7216 81.1384C55.079 80.9837 55.4315 80.8167 55.7726 80.662C55.7756 80.5971 55.791 80.5569 55.777 80.5322C55.3608 79.7916 54.8331 79.125 54.3751 78.4112C53.9265 78.3418 53.5068 78.4038 53.0816 78.4593C52.1994 78.5748 51.3137 78.6685 50.429 78.7641C50.326 78.775 50.2174 78.7458 50.1124 78.7299C50.0163 78.7155 49.8789 78.5183 49.8789 78.4097C49.8789 78.2878 49.9586 78.2174 50.0432 78.153C50.2214 78.0176 50.434 77.9953 50.6481 77.972C51.4621 77.8843 52.2766 77.7976 53.0891 77.6975C53.3321 77.6677 53.589 77.6484 53.7786 77.459C53.8299 77.1859 53.6537 76.9822 53.5556 76.7641C53.0592 75.6583 52.6828 74.5153 52.4374 73.3306C52.2646 72.4969 52.1402 71.6573 52.0914 70.8032C51.8957 67.3688 52.5927 64.1008 53.9061 60.9449C54.6852 59.0723 55.6431 57.2914 56.7364 55.5828C56.9087 55.3137 57.0725 55.0376 57.2642 54.7823C57.4762 54.4993 57.5449 54.2188 57.3767 53.8911C57.296 53.734 57.2447 53.562 57.18 53.3969C56.255 51.0485 55.5182 48.6435 54.9899 46.1761C54.5648 44.189 54.3616 42.1835 54.4507 40.1493C54.4916 39.2204 54.6574 38.3163 54.9192 37.4296C55.1313 36.7118 55.448 36.0377 55.8896 35.4261C56.8898 34.0412 58.2514 33.3215 59.9541 33.1981C61.5512 33.0821 63.0712 33.4052 64.5548 33.951C65.8268 34.4189 67.0391 35.0147 68.2081 35.6987C70.7392 37.1797 73.0573 38.9418 75.2015 40.9339C75.4599 41.1733 75.7163 41.4182 76.0305 41.7146ZM91.9799 43.5654C92.188 43.671 92.3812 43.7612 92.5674 43.8643C93.1578 44.1919 93.7513 44.5146 94.3318 44.8586C94.5747 45.0028 94.7918 45.1912 95.0139 45.3681C95.1747 45.4965 95.2344 45.6745 95.1473 45.6933C95.0522 45.7136 94.9347 45.7181 94.8491 45.6804C94.622 45.5798 94.403 45.4584 94.1874 45.3344C92.5758 44.411 90.8732 43.7062 89.0988 43.155C88.009 42.8165 86.8997 42.5731 85.7875 42.3297C84.9496 42.1463 84.1023 42.0036 83.2539 41.9679C81.8659 41.9099 80.4739 41.951 79.0833 41.952C78.9768 41.952 78.8693 41.9619 78.7637 41.9753C77.1726 42.1775 75.6023 42.4799 74.0555 42.9062C71.9525 43.4856 69.9466 44.2965 68.0498 45.3716C67.8337 45.494 67.6137 45.6105 67.3886 45.7146C67.3373 45.7384 67.2432 45.7181 67.1955 45.6824C67.1656 45.6601 67.1606 45.5461 67.189 45.5163C67.3363 45.3642 67.4882 45.212 67.6575 45.0851C68.1991 44.6772 68.7956 44.3595 69.3925 44.0403C69.6992 43.8762 70.0527 43.7889 70.3165 43.5119C70.2692 43.4231 70.2409 43.3101 70.1692 43.2452C69.1954 42.3595 68.2335 41.4593 67.1765 40.6697C66.378 40.0724 65.5535 39.5163 64.6549 39.0727C63.9793 38.7386 63.2698 38.5166 62.5325 38.3778C61.6543 38.2117 60.3404 38.5389 59.7903 39.7671C59.7037 39.9609 59.6265 40.1597 59.5603 40.3609C59.2904 41.1832 59.2451 42.0338 59.2904 42.8868C59.3338 43.7007 59.4049 44.5121 59.5827 45.3146C59.9277 46.8735 60.3608 48.4026 60.9518 49.8628C61.1763 49.9352 61.3197 49.7984 61.487 49.7523C61.5403 49.7374 61.6334 49.7498 61.6613 49.786C61.6986 49.8341 61.719 49.9288 61.6971 49.9838C61.5368 50.3843 61.2575 50.7104 61.0016 51.05C60.5097 51.7032 60.0054 52.3466 59.517 53.0024C57.9412 55.1159 56.5338 57.3315 55.4266 59.7276C54.166 62.4552 53.3097 65.2885 53.0791 68.3016C52.9781 69.6231 53.0921 70.9242 53.2325 72.2298C53.24 72.2996 53.2629 72.3685 53.2833 72.4364C53.3241 72.5732 53.3744 72.7046 53.4854 72.7547C55.1483 72.5505 56.7753 72.4746 58.3968 72.8484C59.6579 73.1388 60.8333 73.6236 61.9117 74.3408C65.1552 76.4979 66.3566 80.2025 65.8801 83.293C65.7606 84.0682 65.5829 84.8236 65.3255 85.5627C65.2672 85.7297 65.2095 85.8972 65.1577 86.0668C65.1204 86.1877 65.196 86.3904 65.2936 86.441C65.4519 86.5223 65.6103 86.6036 65.7726 86.6769C67.4588 87.4417 69.1919 88.0836 70.9687 88.6031C72.5046 89.0517 74.0639 89.4031 75.6302 89.7367C76.8883 90.0043 78.1668 90.0846 79.4274 90.3052C80.8512 90.3404 82.2771 90.4529 83.692 90.1694C83.9001 90.1278 84.1177 90.1347 84.3308 90.1178C84.5439 90.101 84.7604 90.1015 84.969 90.0623C86.612 89.7555 88.2564 89.4487 89.8725 89.0189C92.075 88.4336 94.2362 87.7258 96.3098 86.7736C97.4016 86.272 97.309 86.4851 96.9082 85.3178C96.8505 85.1503 96.8057 84.9783 96.7529 84.8088C96.3123 83.3907 96.2406 81.9334 96.4676 80.4876C96.847 78.0712 98.0319 76.0915 100.013 74.6223C101.654 73.406 103.509 72.7423 105.554 72.6208C106.622 72.5574 107.689 72.5609 108.746 72.775C108.823 72.7909 108.983 72.6882 108.994 72.6159C109.078 72.0191 109.197 71.4248 109.237 70.825C109.389 68.5375 109.118 66.2927 108.506 64.085C107.781 61.4684 106.668 59.0213 105.281 56.6916C104.243 54.9484 103.058 53.3072 101.819 51.7023C101.515 51.3082 101.209 50.9156 100.92 50.5107C100.799 50.3402 100.712 50.1429 100.629 49.9496C100.61 49.904 100.662 49.8212 100.695 49.7637C100.708 49.7419 100.767 49.7255 100.793 49.7355C100.953 49.7974 101.11 49.8673 101.284 49.9421C101.37 49.7929 101.458 49.6785 101.505 49.5491C102.028 48.1141 102.473 46.6549 102.769 45.157C102.976 44.1116 103.095 43.0539 103.043 41.9822C103.009 41.266 102.873 40.5741 102.598 39.9123C102.069 38.638 100.817 38.1845 99.7296 38.3902C98.9918 38.5294 98.2858 38.7619 97.6127 39.1009C96.8465 39.4866 96.1321 39.95 95.44 40.4521C94.2561 41.3116 93.1792 42.296 92.1108 43.2893C92.0446 43.3483 92.0267 43.4623 91.9799 43.5654ZM107.013 41.836C107.079 40.5542 106.987 39.2834 106.687 38.0318C106.512 37.3022 106.231 36.6147 105.814 35.9852C105.131 34.9512 104.166 34.3093 102.956 34.0982C102.041 33.9386 101.107 33.9708 100.189 34.1487C99.1366 34.353 98.127 34.6945 97.1462 35.1242C95.6407 35.7835 94.2262 36.6048 92.8651 37.5188C91.0589 38.7312 89.3661 40.0903 87.7162 41.5034C87.6625 41.5495 87.6117 41.5996 87.5609 41.6497C87.5355 41.6744 87.5151 41.7037 87.4907 41.729C87.4245 41.7979 87.4668 41.949 87.5728 41.9842C88.7523 42.3773 89.9436 42.7347 91.1037 43.1852C91.1754 43.213 91.3068 43.1406 91.3865 43.0821C91.4696 43.0212 91.5199 42.9181 91.5906 42.8388C93.0219 41.2338 94.6509 39.8653 96.5224 38.7946C97.2014 38.406 97.9124 38.0853 98.6691 37.8578C99.4363 37.6273 100.205 37.5599 100.992 37.6809C101.199 37.7126 101.404 37.781 101.603 37.8553C102.266 38.1047 102.739 38.5755 103.087 39.1748C103.43 39.7656 103.622 40.4055 103.703 41.0856C103.894 42.6945 103.696 44.2727 103.357 45.8415C103.065 47.1972 102.623 48.5077 102.143 49.8068C102.07 50.0061 101.996 50.2058 101.923 50.4056C101.868 50.5553 101.922 50.6931 102.01 50.8026C102.635 51.5773 103.266 52.3476 103.897 53.1174C104.037 53.2884 104.237 53.2671 104.309 53.0703C104.568 52.3714 104.836 51.6755 105.074 50.9702C106.075 48.0011 106.853 44.984 107.013 41.836ZM74.9063 41.7989C74.8147 41.7072 74.7236 41.6001 74.617 41.5114C73.8508 40.8759 73.0916 40.2311 72.311 39.6145C70.6635 38.3128 68.9519 37.1029 67.1098 36.0843C66.0195 35.4811 64.8924 34.9587 63.7104 34.5592C62.4499 34.1334 61.1589 33.9252 59.8246 34.0417C58.8369 34.1279 57.9626 34.4769 57.2258 35.1485C56.6359 35.6863 56.2276 36.3416 55.9374 37.0791C55.5699 38.0125 55.3852 38.9859 55.325 39.9798C55.2299 41.5431 55.3364 43.0985 55.6018 44.642C55.8906 46.3198 56.2769 47.9758 56.8026 49.5962C57.1745 50.7412 57.5828 51.8747 57.986 53.0093C58.0249 53.1189 58.0553 53.2914 58.2833 53.2651C58.9638 52.4314 59.6594 51.5813 60.3509 50.7283C60.3932 50.6762 60.4051 50.5994 60.444 50.5018C60.3907 50.3615 60.329 50.1969 60.2662 50.0329C59.7978 48.8071 59.3661 47.5694 59.0654 46.2911C58.7239 44.8383 58.4804 43.3736 58.5292 41.8712C58.5481 41.2982 58.6522 40.7426 58.7946 40.1944C58.9011 39.7835 59.0759 39.3924 59.3143 39.034C59.8575 38.2182 60.5938 37.7235 61.592 37.6442C62.2731 37.5902 62.9358 37.6516 63.5959 37.842C64.285 38.0407 64.9302 38.3297 65.5565 38.6667C67.424 39.6734 69.04 41.0033 70.4689 42.5533C71.249 43.3994 70.9359 43.274 71.9485 42.9196C72.7526 42.638 73.5501 42.3386 74.3796 42.1334C74.5727 42.0853 74.7878 42.0437 74.9063 41.7989ZM108.746 73.3212C107.993 73.2151 107.247 73.2429 106.502 73.2399C105.824 73.2369 105.158 73.3197 104.491 73.4481C103.074 73.7217 101.761 74.2382 100.592 75.0783C98.3037 76.723 97.1427 78.9713 97.0496 81.7728C97.0177 82.7369 97.1547 83.6801 97.4265 84.6036C97.536 84.9758 97.667 85.3421 97.7964 85.7079C97.8407 85.8333 98.0378 85.9096 98.1489 85.8601C98.246 85.8169 98.347 85.7798 98.4376 85.7257C99.2307 85.2539 100.039 84.8043 100.809 84.2982C102.12 83.4382 103.324 82.4435 104.418 81.3198C104.541 81.1929 104.653 81.0556 104.769 80.9218C104.829 80.8519 104.821 80.6734 104.755 80.6328C104.456 80.4479 104.153 80.269 103.859 80.0766C103.817 80.0499 103.804 79.9602 103.803 79.8992C103.801 79.8139 103.958 79.7163 104.044 79.7391C104.18 79.7753 104.317 79.8105 104.452 79.8536C105.509 80.1916 105.365 80.3384 106.086 79.3406C106.273 79.0818 106.456 78.8206 106.628 78.552C106.682 78.4672 106.692 78.3552 106.732 78.2224C106.34 78.1316 105.962 78.0474 105.585 77.9557C105.449 77.9225 105.304 77.8922 105.189 77.8209C105.115 77.7753 105.038 77.6469 105.052 77.573C105.068 77.4927 105.177 77.408 105.265 77.3698C105.358 77.3297 105.474 77.3292 105.58 77.3341C106.006 77.3545 106.434 77.3639 106.856 77.4159C107.147 77.4521 107.345 77.3624 107.472 77.116C108.044 76.0107 108.489 74.8568 108.779 73.6459C108.802 73.5532 108.76 73.4451 108.746 73.3212ZM55.6043 78.2199C55.6207 78.3235 55.6098 78.4067 55.6456 78.4578C55.9896 78.9525 56.3366 79.4452 56.6931 79.9309C56.84 80.1317 57.0556 80.1322 57.2726 80.0652C57.6107 79.9612 57.9447 79.8462 58.2848 79.75C58.3351 79.7356 58.4157 79.7901 58.4685 79.8303C58.5317 79.8789 58.4959 80.0588 58.4212 80.1118C58.335 80.1733 58.2519 80.2417 58.1603 80.2937C57.9756 80.3993 57.7854 80.494 57.5987 80.5966C57.5071 80.6472 57.4663 80.8003 57.5245 80.8712C57.6366 81.008 57.7446 81.1488 57.8671 81.2761C59.6315 83.1131 61.6951 84.55 63.93 85.7555C64.0221 85.805 64.1296 85.8279 64.2307 85.8616C64.3074 85.8873 64.4597 85.8165 64.4985 85.7367C64.5603 85.6093 64.6345 85.4853 64.6783 85.352C65.1373 83.9567 65.3584 82.5342 65.2115 81.0605C64.9735 78.6724 63.8991 76.7453 62.0018 75.2821C60.3479 74.0062 58.4396 73.3896 56.3685 73.2617C55.6944 73.2201 55.0158 73.2493 54.3397 73.2583C54.0938 73.2612 53.8399 73.2255 53.6069 73.3435C53.5904 73.3738 53.5631 73.4015 53.5621 73.4303C53.5596 73.5348 53.5491 73.6439 53.572 73.7445C53.8533 74.9594 54.3074 76.1098 54.9038 77.2052C54.9984 77.3787 55.1627 77.4333 55.3534 77.4219C55.8502 77.3926 56.3471 77.3589 56.8445 77.3391C56.9445 77.3351 57.0541 77.3703 57.1462 77.4144C57.2014 77.4407 57.2562 77.515 57.2661 77.5755C57.2756 77.6335 57.2457 77.7207 57.2014 77.7604C57.1252 77.8283 57.0307 77.8982 56.9341 77.9165C56.485 78.0003 56.0429 78.1088 55.6043 78.2199Z" fill="#2B3245"/>
<path d="M86.3794 72.4692C86.346 73.9844 85.9403 75.3297 85.2781 76.6045C84.9316 77.2712 84.4885 77.8655 83.9279 78.3716C83.2827 78.954 82.5389 79.3485 81.6945 79.5636C81.3406 79.6539 80.9941 79.6578 80.6406 79.5681C79.5373 79.2881 78.6173 78.7166 77.8799 77.8551C77.5324 77.4491 77.2327 77.0075 76.9962 76.5297C76.5218 75.5721 76.1554 74.5782 76.0274 73.5096C75.9856 73.1596 75.9338 72.8112 75.8845 72.4469C75.6565 72.2744 75.4295 72.1069 75.2064 71.9339C74.8395 71.6489 74.5074 71.3287 74.2461 70.9435C74.1674 70.8275 74.1146 70.6932 74.0524 70.5663C74.0076 70.4756 74.0604 70.3234 74.1495 70.3021C74.2157 70.2863 74.2959 70.2669 74.3541 70.2892C74.4507 70.3259 74.5448 70.3834 74.6224 70.4518C74.8086 70.6164 74.9784 70.7998 75.1656 70.9629C75.7053 71.4327 76.2992 71.804 76.9843 72.0449C77.5772 72.2531 78.1772 72.2754 78.7736 72.1797C79.3461 72.0875 79.8485 71.7976 80.2194 71.342C80.4409 71.0694 80.6122 70.7557 80.8004 70.4568C80.9094 70.2843 80.9423 70.0627 81.1529 69.9329C81.2236 70.0013 81.3177 70.0607 81.3665 70.146C81.5069 70.3918 81.6114 70.658 81.7613 70.8974C82.1093 71.4546 82.5817 71.8744 83.2145 72.089C83.3808 72.1455 83.556 72.1867 83.7308 72.2065C84.61 72.3081 85.4235 72.1068 86.1842 71.6642C86.6487 71.3941 87.056 71.0546 87.4463 70.6897C87.6002 70.546 87.7719 70.4201 87.9467 70.3016C87.9959 70.2679 88.1204 70.26 88.1458 70.2917C88.2056 70.3656 88.2747 70.4855 88.2518 70.5604C88.2016 70.7259 88.1144 70.8875 88.0114 71.0278C87.7371 71.402 87.4005 71.7187 87.0296 71.9978C86.8315 72.147 86.6283 72.2893 86.3794 72.4692ZM81.0986 71.4719C81.0125 71.5691 80.9164 71.6707 80.8278 71.7787C80.3359 72.3805 79.7011 72.7279 78.9444 72.9024C78.4475 73.0169 77.9626 73.0526 77.4652 72.9445C77.2925 72.9069 77.1162 72.8836 76.9415 72.8553C76.8648 72.8429 76.7169 72.9604 76.7189 73.0342C76.7503 74.2238 77.0425 75.3421 77.6514 76.3721C77.6942 76.4444 77.859 76.4519 77.9347 76.3859C78.0149 76.316 78.0935 76.2447 78.1717 76.1728C79.138 75.287 80.2652 74.8623 81.587 74.9748C81.8374 74.9961 82.0744 75.0407 82.3154 75.1185C83.0044 75.3401 83.6203 75.6776 84.1495 76.1713C84.2735 76.2873 84.3705 76.4474 84.5846 76.4489C84.6468 76.3745 84.7325 76.3027 84.7803 76.2115C85.2966 75.2211 85.5445 74.1574 85.6311 73.0521C85.6376 72.9703 85.5062 72.8523 85.4175 72.8608C85.2771 72.8741 85.1347 72.8811 84.9963 72.9074C83.5665 73.1785 82.5105 72.8464 81.5203 71.8055C81.3983 71.6771 81.3062 71.5175 81.0986 71.4719ZM81.1589 79.1081C81.463 79.0308 81.7757 78.9733 82.0739 78.8722C82.9103 78.5887 83.5202 78.0068 84.0539 77.3327C84.1525 77.2082 84.1485 77.066 84.0474 76.95C83.6003 76.437 83.0676 76.035 82.4548 75.7391C81.6059 75.3297 80.7516 75.3148 79.8973 75.7212C79.2834 76.0137 78.7462 76.4107 78.2942 76.9188C78.2041 77.0199 78.1841 77.2137 78.2558 77.3113C78.7905 78.04 79.4562 78.605 80.3215 78.9034C80.5853 78.9946 80.8661 79.0382 81.1589 79.1081Z" fill="#2B3245"/>
<path d="M95.5996 63.8485C96.1293 63.904 96.6636 63.9099 97.1714 64.1151C97.9266 64.4205 98.5221 64.9023 98.9049 65.6205C99.4411 66.6262 99.3988 68.1176 98.4553 69.2056C97.608 70.1836 96.5217 70.6203 95.2307 70.5588C94.6159 70.5296 94.0383 70.3719 93.5121 70.0438C92.6065 69.4797 92.1096 68.6589 91.9648 67.615C91.8995 67.1442 92.0071 66.6911 92.1584 66.2564C92.6787 64.765 94.1862 63.8068 95.5996 63.8485ZM98.3762 66.8304C98.3991 66.4537 98.2647 65.9739 97.9351 65.5803C97.2789 64.7972 96.4754 64.3451 95.4055 64.5994C95.2322 64.6405 95.058 64.6807 94.8897 64.7372C94.1917 64.9721 93.6271 65.3831 93.2438 66.019C92.6274 67.0411 92.7474 68.6956 94.3405 69.4069C95.3368 69.852 96.2961 69.6968 97.1793 69.108C97.9321 68.6064 98.3707 67.902 98.3762 66.8304Z" fill="#2B3245"/>
<path d="M66.5418 63.8637C67.9492 63.716 69.6932 64.6617 70.1995 66.3956C70.5948 67.7502 70.204 69.0746 68.9454 69.9539C68.3764 70.3515 67.7341 70.5458 67.0406 70.5626C65.6237 70.5973 64.4557 70.0922 63.6492 68.9106C62.2452 66.8521 63.4864 64.6156 65.2852 64.0793C65.4216 64.0387 65.553 63.9717 65.6919 63.9514C65.9737 63.9098 66.2585 63.8915 66.5418 63.8637ZM66.8883 69.6471C67.2119 69.6774 67.5484 69.5643 67.8855 69.4424C69.1819 68.971 70.0681 67.2912 68.8892 65.7586C68.2345 64.9081 67.3135 64.5829 66.2734 64.5279C66.1684 64.5224 66.0569 64.5323 65.9558 64.5606C65.323 64.7376 64.7565 65.0345 64.3771 65.5851C63.9554 66.1968 63.809 66.8531 64.0176 67.6035C64.3178 68.6885 65.5237 69.659 66.8883 69.6471Z" fill="#2B3245"/>
<path d="M81.1831 65.8659C81.5923 65.8416 82.008 65.9372 82.4178 66.0517C82.5502 66.0889 82.6762 66.1667 82.7902 66.247C83.1426 66.4954 83.2123 66.9251 82.9664 67.2706C82.5118 67.9085 81.4509 68.3085 80.6982 68.1033C80.3223 68.0007 79.9618 67.847 79.6556 67.5942C79.6014 67.5491 79.5511 67.4991 79.5008 67.4495C79.0403 67.0019 79.1906 66.2986 79.8045 66.0849C80.2406 65.9333 80.6942 65.849 81.1831 65.8659ZM81.2393 66.6019C80.8072 66.6178 80.491 66.6659 80.1744 66.6956C80.0883 66.7035 80.037 66.7496 80.042 66.8354C80.0455 66.9003 80.0474 66.9801 80.0843 67.0262C80.2451 67.2275 80.4895 67.2998 80.7116 67.4069C81.0218 67.5561 81.326 67.5491 81.6306 67.3965C81.8482 67.2874 82.0981 67.2275 82.2365 66.9965C82.2699 66.9405 82.2365 66.7253 82.1778 66.7174C81.8278 66.6703 81.4763 66.593 81.2393 66.6019Z" fill="#2B3245"/>
<path d="M104.532 85.1802V89.8246C104.532 89.8246 97.9252 97.2934 80.4619 97.2934C62.9986 97.2934 56.3921 89.8246 56.3921 89.8246V85.1802H104.532Z" fill="#9C8FFF"/>
<g opacity="0.3">
<path d="M80.4619 85.1802V95.3218C62.9986 95.3218 56.3921 87.5207 56.3921 87.5207V85.1802H80.4619Z" fill="#594DB7"/>
</g>
<g opacity="0.3">
<path d="M80.4619 85.1802V95.3218C97.9252 95.3218 104.532 87.5207 104.532 87.5207V85.1802H80.4619Z" fill="#594DB7"/>
</g>
<path d="M80.4619 98.1699C62.802 98.1699 56.0085 90.7198 55.7279 90.4028C55.5864 90.2428 55.5083 90.0369 55.5083 89.8239V85.1794C55.5083 84.6951 55.9035 84.3025 56.3911 84.3025H104.533C105.02 84.3025 105.415 84.695 105.415 85.1794V89.8239C105.415 90.0369 105.337 90.2428 105.196 90.4028C104.915 90.72 98.1215 98.1699 80.4619 98.1699ZM57.2739 89.4648C58.5387 90.6707 65.3623 96.416 80.4619 96.416C95.6265 96.416 102.392 90.6786 103.65 89.4673V86.0563H57.2739V89.4648Z" fill="#594DB7"/>
<path d="M134.895 110.494C133.971 110.616 133.124 109.97 133.001 109.053L124.995 48.9811C124.873 48.0637 125.522 47.2216 126.446 47.1001C127.369 46.9787 128.217 47.6239 128.339 48.5412L136.346 108.613C136.468 109.531 135.819 110.373 134.895 110.494Z" fill="white"/>
<g opacity="0.3">
<path d="M136.346 108.613L128.339 48.5412C128.217 47.6239 127.369 46.9787 126.446 47.1001C126.44 47.1008 126.435 47.1023 126.43 47.103L134.328 106.358C134.45 107.27 133.808 108.107 132.893 108.236L133.002 109.053C133.124 109.97 133.972 110.616 134.895 110.494C135.819 110.373 136.468 109.53 136.346 108.613Z" fill="#594DB7"/>
</g>
<path d="M134.672 111.386C133.404 111.386 132.298 110.45 132.126 109.168L124.12 49.096C124.03 48.4203 124.21 47.75 124.628 47.2087C125.045 46.6674 125.65 46.3202 126.33 46.2308C127.733 46.0448 129.029 47.0309 129.215 48.4262L137.221 108.498C137.312 109.174 137.131 109.844 136.714 110.385C136.296 110.927 135.692 111.274 135.011 111.363H135.011C134.897 111.378 134.784 111.386 134.672 111.386ZM126.668 47.9625C126.633 47.9625 126.597 47.9647 126.562 47.9694C126.349 47.9975 126.16 48.1061 126.029 48.2755C125.899 48.4446 125.842 48.6545 125.87 48.866L133.877 108.938C133.935 109.374 134.34 109.683 134.78 109.625C134.992 109.597 135.182 109.488 135.312 109.319C135.443 109.149 135.499 108.94 135.471 108.728L127.464 48.6562C127.411 48.2553 127.065 47.9625 126.668 47.9625Z" fill="#594DB7"/>
<path d="M160.41 56.8517L169.309 66.3247L131.374 71.3135L128.511 49.8323L166.446 44.8435L162.136 53.4199L160.41 56.8517Z" fill="#FF0031"/>
<g opacity="0.5">
<path d="M160.918 58.6168L168.285 66.4593L169.309 66.3247L161.32 57.8191L160.918 58.6168Z" fill="white"/>
<path d="M129.018 51.5974L165.46 46.8051L166.446 44.8435L128.511 49.8322L131.374 71.3135L131.642 71.2783L129.018 51.5974Z" fill="white"/>
</g>
<g opacity="0.3">
<path d="M169.309 66.3241L131.374 71.3128L130.624 65.6841C143.717 66.237 145.997 58.4659 145.997 58.4659C145.997 58.4659 148.768 61.1168 156.035 58.3716C158.548 57.422 160.568 55.511 162.136 53.4192L160.41 56.851L169.309 66.3241Z" fill="#594DB7"/>
</g>
<path d="M131.374 72.1885C131.181 72.1885 130.992 72.1257 130.837 72.0077C130.652 71.8661 130.53 71.6573 130.499 71.4266L127.636 49.9468C127.572 49.4668 127.912 49.026 128.396 48.9625L166.33 43.9738C166.653 43.9299 166.974 44.0698 167.164 44.3338C167.354 44.598 167.381 44.9445 167.235 45.2349L161.473 56.6975L169.954 65.7244C170.179 65.9645 170.251 66.3095 170.14 66.6188C170.028 66.9279 169.752 67.149 169.424 67.1921L131.49 72.1808C131.452 72.186 131.413 72.1885 131.374 72.1885ZM129.503 50.586L132.134 70.327L167.494 65.6768L159.764 57.449C159.513 57.1813 159.455 56.7863 159.62 56.4588L164.913 45.9292L129.503 50.586Z" fill="#594DB7"/>
<path d="M151.596 64.0292C154.688 60.9574 154.688 55.9771 151.596 52.9053C148.504 49.8336 143.49 49.8336 140.397 52.9053C137.305 55.9771 137.305 60.9575 140.397 64.0292C143.49 67.101 148.504 67.101 151.596 64.0292Z" fill="#FFD008"/>
<path d="M145.981 66.9048C144.125 66.9048 142.33 66.3034 140.832 65.1635C139.031 63.7931 137.876 61.8077 137.578 59.5737C137.28 57.3396 137.876 55.1242 139.256 53.3352C140.636 51.5463 142.634 50.3983 144.883 50.1025C147.133 49.8075 149.363 50.3985 151.164 51.7692C152.965 53.1396 154.121 55.125 154.418 57.359C155.033 61.9708 151.756 66.2197 147.113 66.8305C146.734 66.8802 146.356 66.9048 145.981 66.9048ZM146.013 51.1703C145.689 51.1703 145.362 51.1917 145.034 51.2348C143.089 51.4904 141.362 52.4831 140.168 54.0298C138.975 55.5766 138.46 57.4922 138.718 59.4239C138.975 61.3556 139.974 63.072 141.532 64.257C143.089 65.442 145.018 65.954 146.962 65.6981C150.976 65.1701 153.81 61.4965 153.279 57.5087C153.021 55.5771 152.022 53.8606 150.465 52.6756C149.17 51.6901 147.618 51.1703 146.013 51.1703Z" fill="#594DB7"/>
<path d="M143.2 59.0621C142.952 59.1343 142.689 59.1687 142.421 59.1601C142.156 59.14 141.885 59.0922 141.63 58.9916C141.378 58.8868 141.131 58.7531 140.915 58.5757C140.702 58.3955 140.513 58.185 140.354 57.9495C140.204 57.7092 140.093 57.4454 140.014 57.1713C139.941 56.8954 139.912 56.6087 139.923 56.3216C139.942 56.0351 140 55.7507 140.1 55.4805C140.207 55.2133 140.35 54.9619 140.525 54.7336C141.224 53.8072 142.527 53.4177 143.595 53.7751C144.131 53.9435 144.598 54.28 144.925 54.7084C145.085 54.9256 145.213 55.1619 145.299 55.4101C145.386 55.6591 145.421 55.9189 145.428 56.1725C145.169 55.182 144.366 54.4466 143.461 54.2725C143.012 54.1808 142.547 54.2254 142.128 54.3756C141.712 54.5362 141.349 54.8093 141.08 55.1563C140.554 55.859 140.461 56.851 140.879 57.6481C140.982 57.8464 141.109 58.0354 141.264 58.2046C141.425 58.3672 141.6 58.5224 141.801 58.6472C142.004 58.7672 142.222 58.8705 142.458 58.9399C142.693 59.0113 142.941 59.0443 143.2 59.0621Z" fill="#594DB7"/>
<path d="M149.492 58.0067C149.338 57.54 149.562 56.9565 150.021 56.6727C150.473 56.3787 151.123 56.4066 151.549 56.7527C151.989 57.0803 152.174 57.6911 152.005 58.1921C151.85 58.6992 151.355 59.059 150.865 59.0516C151.336 58.9299 151.685 58.5535 151.768 58.1293C151.812 57.9185 151.791 57.7007 151.719 57.5042C151.643 57.3093 151.513 57.1391 151.348 57.013C151.014 56.7653 150.543 56.7215 150.164 56.9185C149.78 57.1051 149.508 57.5224 149.492 58.0067Z" fill="#594DB7"/>
<path d="M147.479 61.9192C147.968 62.298 148.146 63.0612 147.867 63.6756C147.603 64.2958 146.907 64.7175 146.219 64.6531C145.53 64.6174 144.908 64.1096 144.732 63.4699C144.537 62.8341 144.799 62.1162 145.314 61.7839C144.909 62.2374 144.81 62.872 145.023 63.3712C145.125 63.6211 145.301 63.8333 145.513 63.9885C145.73 64.1385 145.985 64.2256 146.245 64.2425C146.767 64.2688 147.289 63.9872 147.545 63.519C147.814 63.0579 147.804 62.4343 147.479 61.9192Z" fill="#594DB7"/>
<path d="M128.314 89.6286C128.314 89.6286 125.679 87.2528 128.962 84.6353C132.246 82.0178 138.408 83.1051 137.273 87.897C137.273 87.897 139.381 89.991 137.638 92.4877C137.638 92.4877 139.26 94.5414 137.557 96.4341C137.557 96.4341 139.138 100.421 134.435 100.703C129.733 100.984 128.111 99.1723 129.206 95.9911C129.206 95.9911 127.929 94.8233 128.537 92.9508C128.537 92.9508 127.219 91.6421 128.314 89.6286Z" fill="#9C8FFF"/>
<g opacity="0.3">
<path d="M133.242 96.7435C133.242 96.7435 131.965 95.5757 132.573 93.7032C132.573 93.7032 131.255 92.3945 132.35 90.381C132.35 90.381 129.715 88.0051 132.998 85.3876C133.871 84.6924 134.946 84.2613 136.033 84.0888C134.221 82.8104 131.025 82.9921 128.962 84.6359C125.679 87.2534 128.314 89.6293 128.314 89.6293C127.219 91.6427 128.537 92.9515 128.537 92.9515C127.929 94.824 129.206 95.9918 129.206 95.9918C128.138 99.0948 129.656 100.894 134.095 100.719C132.879 99.9307 132.616 98.5611 133.242 96.7435Z" fill="#594DB7"/>
</g>
<path d="M133.528 101.608C131.188 101.608 129.562 101.032 128.688 99.8919C127.959 98.941 127.802 97.6957 128.221 96.1859C127.815 95.6227 127.276 94.5596 127.574 93.1396C127.179 92.5373 126.658 91.3417 127.274 89.7745C126.888 89.2642 126.399 88.3981 126.432 87.3175C126.47 86.1003 127.135 84.9675 128.41 83.9514C130.649 82.1663 134.129 81.8503 136.333 83.2309C137.847 84.1795 138.521 85.772 138.222 87.6466C138.994 88.6412 139.748 90.496 138.679 92.4767C139.224 93.4733 139.608 95.1035 138.535 96.62C138.713 97.3374 138.892 98.6842 138.158 99.8275C137.48 100.884 136.245 101.473 134.489 101.578C134.156 101.598 133.836 101.608 133.528 101.608ZM133.08 84.1184C131.831 84.1184 130.501 84.5331 129.515 85.3192C128.667 85.9952 128.224 86.681 128.198 87.3575C128.162 88.2748 128.905 88.9769 128.912 88.9838C129.205 89.2561 129.281 89.695 129.091 90.0454C128.318 91.4676 129.153 92.3221 129.161 92.3307C129.395 92.5634 129.479 92.9067 129.377 93.22C128.947 94.5431 129.795 95.3381 129.804 95.3459C130.061 95.5814 130.154 95.9458 130.041 96.2748C129.649 97.414 129.666 98.2737 130.093 98.8293C130.686 99.6033 132.209 99.9584 134.382 99.8271C135.543 99.7577 136.312 99.4405 136.669 98.8846C137.208 98.0449 136.74 96.768 136.735 96.7555C136.613 96.4472 136.676 96.0967 136.899 95.8497C138.057 94.5623 137.057 93.1778 136.94 93.0242C136.708 92.722 136.694 92.3004 136.912 91.9881C138.181 90.1715 136.806 88.6774 136.645 88.5129C136.435 88.2984 136.345 87.9877 136.414 87.6961C136.734 86.3437 136.39 85.3404 135.391 84.7144C134.75 84.3124 133.934 84.1184 133.08 84.1184Z" fill="#594DB7"/>
<path d="M131.287 90.8925C130.322 90.8925 129.257 90.7725 128.096 90.4787L128.532 88.7791C133.715 90.0909 136.531 87.3933 136.648 87.2776L137.901 88.5133C137.784 88.6313 135.477 90.8925 131.287 90.8925Z" fill="#594DB7"/>
<path d="M132.604 95.0222C131.214 95.0222 129.663 94.6789 128.071 93.6966L129.003 92.2067C133.117 94.7456 136.94 91.9146 137.1 91.793L138.177 93.1826C138.04 93.2885 135.728 95.0222 132.604 95.0222Z" fill="#594DB7"/>
<path d="M133.769 98.5204C132.302 98.5204 130.556 98.0777 128.68 96.6959L129.731 95.2867C133.79 98.2756 136.866 95.8617 136.995 95.7573L138.122 97.1081C138.095 97.1303 136.369 98.5204 133.769 98.5204Z" fill="#594DB7"/>
<path d="M52.4172 110.286C52.4172 110.286 50.6697 109.732 48.7753 109.262C47.2865 108.893 46.3856 107.227 46.8862 105.686C46.8937 105.663 46.9014 105.64 46.9092 105.617C47.3379 104.376 48.5618 103.663 49.7831 103.886C50.8926 104.089 52.6543 104.47 54.1836 105.066C54.1836 105.066 56.8336 109.149 52.4172 110.286Z" fill="white"/>
<g opacity="0.3">
<path d="M52.6694 107.781C52.6694 107.781 50.9219 107.226 49.0275 106.756C48.1543 106.54 47.4863 105.876 47.1817 105.054C47.0726 105.227 46.9793 105.414 46.9092 105.617C46.9013 105.64 46.8936 105.663 46.8862 105.686C46.3856 107.227 47.2865 108.893 48.7753 109.262C50.6697 109.732 52.4172 110.286 52.4172 110.286C55.13 109.588 55.1758 107.778 54.808 106.486C54.4353 107.028 53.773 107.496 52.6694 107.781Z" fill="#594DB7"/>
</g>
<path d="M52.4171 111.164C52.3263 111.164 52.2359 111.15 52.1486 111.122C52.1314 111.117 50.4041 110.57 48.5613 110.113C47.6332 109.883 46.824 109.255 46.341 108.391C45.834 107.484 45.7265 106.4 46.0459 105.417L46.0729 105.336C46.6419 103.69 48.2684 102.72 49.9426 103.024C51.1597 103.246 52.9393 103.639 54.506 104.25C54.6785 104.317 54.8253 104.437 54.9255 104.591C55.0768 104.824 56.3805 106.922 55.6217 108.853C55.182 109.971 54.1783 110.739 52.6386 111.136C52.5659 111.154 52.4914 111.164 52.4171 111.164ZM49.3347 104.723C48.6341 104.723 47.9921 105.184 47.7441 105.902L47.7263 105.955C47.5565 106.478 47.6143 107.056 47.8848 107.54C48.1349 107.987 48.5272 108.297 48.9892 108.412C50.486 108.783 51.8736 109.2 52.4306 109.372C53.2539 109.12 53.7737 108.732 53.9768 108.215C54.2913 107.415 53.8679 106.325 53.5769 105.776C52.2105 105.276 50.6897 104.944 49.6235 104.749C49.5267 104.732 49.4302 104.723 49.3347 104.723Z" fill="#594DB7"/>
<path d="M85.9907 112.596C82.3961 120.058 78.4484 128.246 78.4484 128.246C69.6121 123.173 51.8008 118.77 51.8008 118.77L50.9355 115.656C52.5046 107.547 56.5985 99.6146 56.5985 99.6146C65.6619 100.048 74.2358 103.328 79.5431 105.816C82.9334 107.407 84.9892 108.675 84.9892 108.675L85.9907 112.596Z" fill="white"/>
<g opacity="0.3">
<path d="M85.9907 112.597C82.3961 120.058 78.4484 128.247 78.4484 128.247C69.6121 123.173 51.8008 118.77 51.8008 118.77L50.9355 115.656C50.9355 115.656 77.5302 123.486 79.5431 105.816C82.9334 107.407 84.9892 108.675 84.9892 108.675L85.9907 112.597Z" fill="#594DB7"/>
</g>
<path d="M78.4493 129.123C78.2957 129.123 78.1431 129.084 78.0075 129.006C69.3774 124.051 51.7647 119.665 51.5878 119.621C51.2785 119.544 51.0346 119.308 50.9499 119.003L50.085 115.889C50.0489 115.759 50.0435 115.623 50.0691 115.49C51.6423 107.353 55.6429 99.5436 55.8125 99.2152C55.9707 98.9088 56.2977 98.7234 56.6407 98.7394C71.5491 99.4535 84.8946 107.585 85.4553 107.931C85.6496 108.05 85.7894 108.24 85.8456 108.46L86.8456 112.38C86.8963 112.579 86.8753 112.789 86.7862 112.974C83.1917 120.437 79.2457 128.625 79.2457 128.625C79.1395 128.846 78.9455 129.012 78.7104 129.084C78.6249 129.111 78.5369 129.123 78.4493 129.123ZM52.5154 118.045C55.4296 118.787 69.7738 122.564 78.0592 127.025C79.1384 124.785 82.1907 118.451 85.0555 112.503L84.2234 109.242C82.188 108.053 70.1531 101.325 57.1317 100.523C56.2321 102.368 53.1664 108.957 51.8423 115.621L52.5154 118.045Z" fill="#594DB7"/>
<path d="M70.0597 110.114L67.2282 109.093C66.9368 108.988 66.7865 108.668 66.8923 108.378L67.9207 105.566C68.0266 105.276 68.3486 105.127 68.64 105.232L71.4714 106.254C71.7628 106.359 71.9132 106.679 71.8074 106.968L70.7789 109.781C70.6731 110.07 70.3511 110.22 70.0597 110.114Z" fill="#594DB7"/>
<path d="M76.0733 112.285L73.2419 111.263C72.9505 111.158 72.8001 110.838 72.9059 110.549L73.9344 107.736C74.0403 107.447 74.3623 107.297 74.6537 107.402L77.4851 108.424C77.7765 108.529 77.9269 108.849 77.8211 109.138L76.7926 111.951C76.6867 112.24 76.3647 112.39 76.0733 112.285Z" fill="#594DB7"/>
<path d="M67.8707 115.877L65.0393 114.855C64.7479 114.75 64.5975 114.43 64.7033 114.141L65.7318 111.329C65.8376 111.039 66.1596 110.89 66.451 110.995L69.2824 112.016C69.5738 112.122 69.7242 112.441 69.6184 112.731L68.5899 115.543C68.4841 115.833 68.1621 115.982 67.8707 115.877Z" fill="#594DB7"/>
<path d="M73.8844 118.047L71.0529 117.026C70.7616 116.921 70.6112 116.601 70.717 116.311L71.7454 113.499C71.8513 113.209 72.1733 113.06 72.4646 113.165L75.2961 114.187C75.5875 114.292 75.7379 114.612 75.6321 114.901L74.6036 117.714C74.4978 118.003 74.1758 118.152 73.8844 118.047Z" fill="#594DB7"/>
<path d="M77.2606 125.391C77.1106 125.391 76.9616 125.354 76.8282 125.279C67.4335 120.037 50.9207 116.548 50.7549 116.514L51.1183 114.797C51.7862 114.937 67.1553 118.184 76.859 123.298C77.995 120.893 81.3484 113.84 84.2037 108.277L85.7768 109.073C82.3109 115.827 78.1029 124.795 78.0609 124.885C77.9571 125.106 77.7652 125.274 77.5311 125.349C77.4429 125.377 77.3516 125.391 77.2606 125.391Z" fill="#594DB7"/>
<path d="M78.1003 124.458L76.4263 125.017L77.6155 128.534L79.2895 127.975L78.1003 124.458Z" fill="#594DB7"/>
<path d="M58.8966 117.67L57.2197 117.12L59.8672 109.15L57.8574 108.684C57.6098 108.627 57.3993 108.466 57.2794 108.243C57.1597 108.021 57.1424 107.757 57.2318 107.521L60.1818 99.734L61.8344 100.352L59.2388 107.203L61.2089 107.66C61.4502 107.717 61.6567 107.871 61.7779 108.085C61.8993 108.3 61.9241 108.556 61.8465 108.789L58.8966 117.67Z" fill="#594DB7"/>
<path d="M82.3745 121.944C83.8247 122.719 88.0294 125.201 92.4715 129.995C93.695 131.316 95.8833 131.12 96.8027 129.575C96.8211 129.544 96.8394 129.513 96.8576 129.481C97.4378 128.477 97.3049 127.215 96.5342 126.346C94.6059 124.172 90.2657 119.722 84.69 116.74C84.3981 116.584 84.0548 116.554 83.7378 116.65C82.8616 116.917 81.3328 117.837 81.7337 121.004C81.784 121.401 82.0191 121.753 82.3745 121.944Z" fill="white"/>
<g opacity="0.3">
<path d="M92.9758 126.989C88.5337 122.194 84.3289 119.713 82.8787 118.937C82.5234 118.747 82.2883 118.395 82.238 117.997C82.2293 117.929 82.2265 117.868 82.2196 117.802C81.8003 118.462 81.5389 119.467 81.7335 121.004C81.7838 121.402 82.0189 121.754 82.3743 121.944C83.8245 122.72 88.0293 125.201 92.4714 129.996C93.6948 131.316 95.8832 131.12 96.8025 129.575C96.821 129.544 96.8393 129.513 96.8575 129.482C97.3015 128.713 97.3265 127.793 96.9687 127.014C95.928 128.135 94.0684 128.168 92.9758 126.989Z" fill="#594DB7"/>
</g>
<path d="M94.4784 131.75C93.4672 131.75 92.5155 131.339 91.8216 130.59C87.5179 125.944 83.4883 123.536 81.9556 122.716C81.3543 122.394 80.9437 121.795 80.8574 121.113C80.3619 117.199 82.5257 116.102 83.4788 115.812C84.0201 115.647 84.6139 115.704 85.1084 115.968C90.7311 118.975 95.0954 123.398 97.1964 125.766C98.2195 126.92 98.3911 128.588 97.6232 129.918L97.5624 130.021C96.9873 130.988 96.0064 131.61 94.8714 131.729C94.7396 131.743 94.6085 131.75 94.4784 131.75ZM82.7928 121.172C84.404 122.034 88.6358 124.561 93.121 129.402C93.522 129.835 94.0932 130.048 94.6863 129.985C95.2602 129.925 95.7544 129.613 96.0425 129.129L96.0905 129.047C96.4831 128.367 96.3946 127.515 95.8715 126.926C93.8487 124.645 89.6517 120.39 84.2713 117.513C84.1896 117.469 84.0891 117.46 83.9963 117.489C82.8511 117.837 82.3715 119.015 82.6095 120.895C82.6246 121.015 82.6932 121.118 82.7928 121.172Z" fill="#594DB7"/>
</svg>
