<svg width="19" height="12" viewBox="0 0 19 12" fill="none" xmlns="http://www.w3.org/2000/svg">
<path fill-rule="evenodd" clip-rule="evenodd" d="M10.4572 1.3263C10.2277 0.123585 8.71843 -0.367837 7.68258 0.300793L5.44439 1.74799C5.29246 1.84574 5.11106 1.89818 4.92511 1.89812H2.79851C2.08246 1.89812 1.39573 2.15743 0.889408 2.619C0.383083 3.08056 0.0986328 3.70658 0.0986328 4.35934V7.64096C0.0986328 8.29372 0.383083 8.91973 0.889408 9.3813C1.39573 9.84287 2.08246 10.1022 2.79851 10.1022H4.92511C5.11146 10.1022 5.29322 10.1549 5.44529 10.2531L7.68258 11.6987C8.71753 12.3681 10.2277 11.8767 10.4572 10.6732C10.7469 9.15543 10.8981 7.59338 10.8981 6.00015C10.8981 4.40692 10.7469 2.84569 10.4572 1.3263ZM17.916 2.63731C17.8895 2.42296 17.7714 2.22676 17.5874 2.09118C17.4033 1.95561 17.1681 1.89157 16.9326 1.91292C16.6972 1.93428 16.4804 2.03932 16.3293 2.20529C16.1781 2.37127 16.1048 2.58483 16.1251 2.79975C16.3568 4.92812 16.3568 7.07218 16.1251 9.20055C16.1117 9.30851 16.122 9.41782 16.1554 9.52213C16.1887 9.62643 16.2445 9.72366 16.3194 9.80817C16.3943 9.89268 16.4869 9.96278 16.5917 10.0144C16.6966 10.066 16.8117 10.0982 16.9303 10.1089C17.0489 10.1197 17.1686 10.1088 17.2826 10.0771C17.3966 10.0453 17.5025 9.99319 17.5942 9.9238C17.6859 9.8544 17.7616 9.76909 17.8168 9.67282C17.8721 9.57655 17.9058 9.47124 17.916 9.36299C18.1595 7.12659 18.1595 4.87371 17.916 2.63731ZM14.3837 3.47166C14.3758 3.36304 14.3443 3.25693 14.291 3.15951C14.2377 3.06209 14.1637 2.97532 14.0733 2.90425C13.9828 2.83317 13.8777 2.77922 13.7642 2.74553C13.6506 2.71184 13.5309 2.69908 13.4119 2.70801C13.2928 2.71694 13.177 2.74737 13.071 2.79753C12.965 2.84769 12.871 2.91657 12.7945 3.00017C12.7181 3.08377 12.6606 3.1804 12.6255 3.28445C12.5904 3.3885 12.5783 3.49787 12.5901 3.60621C12.7342 5.19946 12.7342 6.80084 12.5901 8.39409C12.5745 8.6089 12.6522 8.82067 12.8064 8.98373C12.9606 9.14679 13.1789 9.24807 13.4143 9.26573C13.6496 9.28338 13.8832 9.216 14.0645 9.07811C14.2459 8.94022 14.3605 8.74288 14.3837 8.52864C14.5359 6.84583 14.5359 5.15446 14.3837 3.47166Z" fill="white"/>
</svg>
