<svg width="22" height="25" viewBox="0 0 22 25" fill="none" xmlns="http://www.w3.org/2000/svg">
<path d="M10.9395 12.5C14.3916 12.5 17.1895 9.70215 17.1895 6.25C17.1895 2.79785 14.3916 0 10.9395 0C7.4873 0 4.68945 2.79785 4.68945 6.25C4.68945 9.70215 7.4873 12.5 10.9395 12.5ZM15.3145 14.0625H14.499C13.415 14.5605 12.209 14.8438 10.9395 14.8438C9.66992 14.8438 8.46875 14.5605 7.37988 14.0625H6.56445C2.94141 14.0625 0.00195312 17.002 0.00195312 20.625V22.6562C0.00195312 23.9502 1.05176 25 2.3457 25H19.5332C20.8271 25 21.877 23.9502 21.877 22.6562V20.625C21.877 17.002 18.9375 14.0625 15.3145 14.0625Z" fill="currentColor"/>
</svg>
