<svg width="32" height="32" viewBox="0 0 32 32" fill="none" xmlns="http://www.w3.org/2000/svg">
<path d="M4 5.41601C5.50024 3.71208 7.34657 2.34764 9.41584 1.41371C11.4851 0.479778 13.7297 -0.00217125 16 7.35325e-06C24.8368 7.35325e-06 32 7.16321 32 16C32 24.8368 24.8368 32 16 32C7.1632 32 0 24.8368 0 16C0 15.2352 0.0522667 14.4848 0.1568 13.7488C0.198147 13.4812 0.335032 13.2377 0.54212 13.0632C0.749208 12.8888 1.01248 12.7953 1.2832 12.8C2.0448 12.8 2.6048 13.5136 2.5088 14.2704C2.09323 17.5126 2.85926 20.796 4.66666 23.5195C6.47406 26.243 9.20192 28.2245 12.3509 29.1012C15.4998 29.9779 18.8591 29.6911 21.8139 28.2934C24.7687 26.8957 27.1212 24.4805 28.4409 21.49C29.7605 18.4995 29.9589 15.1338 28.9998 12.009C28.0407 8.88418 25.9883 6.20932 23.2182 4.47408C20.4481 2.73884 17.1458 2.05932 13.9156 2.55991C10.6855 3.0605 7.74371 4.70771 5.6288 7.20001H8.4C8.71826 7.20001 9.02348 7.32643 9.24853 7.55148C9.47357 7.77652 9.6 8.08175 9.6 8.40001C9.6 8.71827 9.47357 9.02349 9.24853 9.24853C9.02348 9.47358 8.71826 9.60001 8.4 9.60001H2.8C2.48174 9.60001 2.17652 9.47358 1.95147 9.24853C1.72643 9.02349 1.6 8.71827 1.6 8.40001V2.80001C1.6 2.48175 1.72643 2.17652 1.95147 1.95148C2.17652 1.72644 2.48174 1.60001 2.8 1.60001C3.11826 1.60001 3.42348 1.72644 3.64853 1.95148C3.87357 2.17652 4 2.48175 4 2.80001V5.41601ZM14.7648 9.904C14.3995 9.70124 13.9876 9.59734 13.5699 9.60258C13.1521 9.60783 12.7429 9.72204 12.3829 9.93392C12.0228 10.1458 11.7243 10.448 11.5168 10.8106C11.3093 11.1733 11.2001 11.5838 11.2 12.0016V20C11.2001 20.4178 11.3093 20.8283 11.5168 21.191C11.7243 21.5536 12.0228 21.8558 12.3829 22.0677C12.7429 22.2796 13.1521 22.3938 13.5699 22.399C13.9876 22.4043 14.3995 22.3004 14.7648 22.0976L21.9632 18.1008C22.3375 17.893 22.6495 17.5889 22.8667 17.2199C23.0839 16.8509 23.1984 16.4306 23.1984 16.0024C23.1984 15.5743 23.0839 15.1539 22.8667 14.7849C22.6495 14.416 22.3375 14.1118 21.9632 13.904L14.7648 9.904Z" fill="white"/>
</svg>
