<svg width="24" height="24" viewBox="0 0 24 24" fill="none" xmlns="http://www.w3.org/2000/svg">
<path fill-rule="evenodd" clip-rule="evenodd" d="M12 0C6.3432 0 3.5148 0 1.7568 1.7568C0 3.516 0 6.3432 0 12C0 17.6568 0 20.4852 1.7568 22.242C3.516 24 6.3432 24 12 24C17.6568 24 20.4852 24 22.242 22.242C24 20.4864 24 17.6568 24 12C24 6.3432 24 3.5148 22.242 1.7568C20.4864 0 17.6568 0 12 0ZM12 5.1C12.2387 5.1 12.4676 5.19482 12.6364 5.3636C12.8052 5.53239 12.9 5.76131 12.9 6V13.2C12.9 13.4387 12.8052 13.6676 12.6364 13.8364C12.4676 14.0052 12.2387 14.1 12 14.1C11.7613 14.1 11.5324 14.0052 11.3636 13.8364C11.1948 13.6676 11.1 13.4387 11.1 13.2V6C11.1 5.76131 11.1948 5.53239 11.3636 5.3636C11.5324 5.19482 11.7613 5.1 12 5.1ZM12 18C12.3183 18 12.6235 17.8736 12.8485 17.6485C13.0736 17.4235 13.2 17.1183 13.2 16.8C13.2 16.4817 13.0736 16.1765 12.8485 15.9515C12.6235 15.7264 12.3183 15.6 12 15.6C11.6817 15.6 11.3765 15.7264 11.1515 15.9515C10.9264 16.1765 10.8 16.4817 10.8 16.8C10.8 17.1183 10.9264 17.4235 11.1515 17.6485C11.3765 17.8736 11.6817 18 12 18Z" fill="currentColor"/>
</svg>
