<svg width="22" height="23" viewBox="0 0 22 23" fill="none" xmlns="http://www.w3.org/2000/svg">
<g clip-path="url(#clip0_107_756)">
<path d="M9.20854 11.8766C8.72582 11.4274 8.28457 10.9571 7.88482 10.4657C7.48506 9.97438 7.11924 9.45496 6.78737 8.90745C6.71194 9.10399 6.66291 9.30404 6.64029 9.5076C6.61766 9.71116 6.60634 9.91121 6.60634 10.1077C6.60634 11.2729 7.04382 12.2627 7.91876 13.0769C8.7937 13.8911 9.85721 14.2983 11.1093 14.2983C11.3205 14.2983 11.5354 14.2842 11.7542 14.2561C11.9729 14.2281 12.1879 14.1859 12.3991 14.1298C11.8107 13.8209 11.2526 13.4805 10.7246 13.1085C10.1966 12.7365 9.69127 12.3258 9.20854 11.8766ZM10.4983 10.6974C11.2677 11.4133 12.1275 12.0275 13.0779 12.5399C14.0283 13.0523 15.0465 13.4489 16.1327 13.7297C15.5293 14.4457 14.7901 15.0037 13.9151 15.4038C13.0402 15.8039 12.1124 16.0039 11.1319 16.0039C9.36694 16.0039 7.86973 15.4319 6.64029 14.2877C5.41084 13.1436 4.79612 11.7503 4.79612 10.1077C4.79612 9.19524 5.01108 8.33187 5.44101 7.51764C5.87094 6.7034 6.47058 6.01551 7.23992 5.45397C7.54163 6.46475 7.96778 7.41235 8.5184 8.29678C9.06901 9.1812 9.72898 9.9814 10.4983 10.6974ZM17.0604 12.2135C16.7587 12.1433 16.4608 12.0661 16.1666 11.9819C15.8724 11.8977 15.582 11.7994 15.2954 11.6871C15.4161 11.4344 15.5029 11.1782 15.5556 10.9185C15.6084 10.6588 15.6348 10.3885 15.6348 10.1077C15.6348 8.94255 15.1936 7.94932 14.3111 7.12807C13.4286 6.30681 12.3614 5.89619 11.1093 5.89619C10.8076 5.89619 10.5172 5.92075 10.2381 5.96989C9.95903 6.01902 9.68373 6.09974 9.41219 6.21205C9.29151 5.94532 9.18969 5.67859 9.10672 5.41186C9.02375 5.14512 8.94455 4.87137 8.86913 4.5906C9.23117 4.46425 9.60076 4.36949 9.97789 4.30632C10.355 4.24315 10.7397 4.21156 11.1319 4.21156C12.8969 4.21156 14.3941 4.78363 15.6235 5.92777C16.853 7.07191 17.4677 8.46524 17.4677 10.1077C17.4677 10.4727 17.4338 10.8307 17.3659 11.1817C17.298 11.5327 17.1962 11.8766 17.0604 12.2135ZM10.2042 2.52694V0H12.0144V2.52694H10.2042ZM10.2042 20.2155V17.6886H12.0144V20.2155H10.2042ZM17.513 5.34868L16.2232 4.14839L18.1465 2.37953L19.4363 3.55877L17.513 5.34868ZM4.07203 17.836L2.78224 16.6567L4.70561 14.8668L5.99539 16.0671L4.07203 17.836ZM19.2553 10.9501V9.26544H21.9706V10.9501H19.2553ZM0.247925 10.9501V9.26544H2.96326V10.9501H0.247925ZM18.1465 17.857L16.2232 16.0671L17.513 14.8668L19.4137 16.6567L18.1465 17.857ZM4.70561 5.34868L2.80487 3.55877L4.07203 2.35847L5.99539 4.14839L4.70561 5.34868Z" fill="currentColor"/>
</g>
<defs>
<clipPath id="clip0_107_756">
<rect width="21.6393" height="23" fill="white" transform="translate(0.131165)"/>
</clipPath>
</defs>
</svg>
