<svg width="14" height="20" viewBox="0 0 14 20" fill="none" xmlns="http://www.w3.org/2000/svg">
<path d="M1 4.2C1 3.08 1 2.52 1.218 2.092C1.40974 1.71569 1.71569 1.40974 2.092 1.218C2.52 1 3.08 1 4.2 1H9.8C10.92 1 11.48 1 11.908 1.218C12.2843 1.40974 12.5903 1.71569 12.782 2.092C13 2.52 13 3.08 13 4.2V17.505C13 17.991 13 18.234 12.899 18.367C12.8554 18.4248 12.7997 18.4725 12.7358 18.5067C12.6719 18.5409 12.6013 18.5608 12.529 18.565C12.362 18.575 12.16 18.44 11.756 18.171L7 15L2.244 18.17C1.84 18.44 1.638 18.575 1.47 18.565C1.39784 18.5606 1.32748 18.5407 1.26377 18.5065C1.20007 18.4723 1.14453 18.4247 1.101 18.367C1 18.234 1 17.991 1 17.505V4.2Z" stroke="currentColor" stroke-width="1.5" stroke-linecap="round" stroke-linejoin="round"/>
</svg>
