<svg width="24" height="25" viewBox="0 0 24 25" fill="none" xmlns="http://www.w3.org/2000/svg">
<path d="M22.8885 15.0765L20.8084 13.8753C21.0184 12.7425 21.0184 11.5804 20.8084 10.4476L22.8885 9.24638C23.1277 9.10966 23.2352 8.82646 23.157 8.56279C22.615 6.82451 21.6922 5.25224 20.4861 3.94365C20.3006 3.74345 19.9979 3.69463 19.7635 3.83134L17.6834 5.03252C16.8094 4.28056 15.8035 3.69951 14.7147 3.31865V0.921188C14.7147 0.647751 14.5242 0.408493 14.2557 0.349899C12.4637 -0.0504913 10.6277 -0.0309601 8.92364 0.349899C8.65508 0.408493 8.46465 0.647751 8.46465 0.921188V3.32353C7.38067 3.70927 6.37481 4.29033 5.4959 5.0374L3.42071 3.83623C3.18145 3.69951 2.8836 3.74345 2.69805 3.94853C1.492 5.25224 0.569146 6.82451 0.0271543 8.56767C-0.0558535 8.83134 0.0564511 9.11455 0.295709 9.25127L2.37579 10.4524C2.16583 11.5853 2.16583 12.7474 2.37579 13.8802L0.295709 15.0813C0.0564511 15.2181 -0.0509707 15.5013 0.0271543 15.7649C0.569146 17.5032 1.492 19.0755 2.69805 20.3841C2.8836 20.5843 3.18633 20.6331 3.42071 20.4964L5.50079 19.2952C6.37481 20.0472 7.38067 20.6282 8.46954 21.0091V23.4114C8.46954 23.6849 8.65997 23.9241 8.92852 23.9827C10.7205 24.3831 12.5565 24.3636 14.2606 23.9827C14.5291 23.9241 14.7195 23.6849 14.7195 23.4114V21.0091C15.8035 20.6233 16.8094 20.0423 17.6883 19.2952L19.7684 20.4964C20.0076 20.6331 20.3055 20.5892 20.491 20.3841C21.6971 19.0804 22.6199 17.5081 23.1619 15.7649C23.2352 15.4964 23.1277 15.2132 22.8885 15.0765ZM11.5897 16.0677C9.43633 16.0677 7.6834 14.3147 7.6834 12.1614C7.6834 10.0081 9.43633 8.25517 11.5897 8.25517C13.743 8.25517 15.4959 10.0081 15.4959 12.1614C15.4959 14.3147 13.743 16.0677 11.5897 16.0677Z" fill="#1F2937"/>
</svg>
