<svg width="14" height="14" viewBox="0 0 14 14" fill="none" xmlns="http://www.w3.org/2000/svg">
<path d="M5.49982 1.50069C5.63243 1.50069 5.7596 1.55337 5.85337 1.64713C5.94713 1.74089 5.99981 1.86806 5.99981 2.00066C5.99981 2.13326 5.94713 2.26043 5.85337 2.3542C5.7596 2.44796 5.63243 2.50063 5.49982 2.50063H2.49992C2.10211 2.50063 1.72059 2.65866 1.43929 2.93995C1.158 3.22124 0.999968 3.60275 0.999968 4.00055V11.0001C0.999968 11.3979 1.158 11.7795 1.43929 12.0607C1.72059 12.342 2.10211 12.5001 2.49992 12.5001H9.4997C9.89751 12.5001 10.279 12.342 10.5603 12.0607C10.8416 11.7795 10.9996 11.3979 10.9996 11.0001V9.00026C10.9996 8.86766 11.0523 8.74049 11.1461 8.64673C11.2399 8.55296 11.367 8.50029 11.4996 8.50029C11.6322 8.50029 11.7594 8.55296 11.8532 8.64673C11.9469 8.74049 11.9996 8.86766 11.9996 9.00026V11.0001C11.9996 11.6631 11.7362 12.299 11.2674 12.7678C10.7986 13.2366 10.1627 13.5 9.4997 13.5H2.49992C1.8369 13.5 1.20104 13.2366 0.73221 12.7678C0.263384 12.299 0 11.6631 0 11.0001V4.00055C0 3.33754 0.263384 2.7017 0.73221 2.23288C1.20104 1.76407 1.8369 1.50069 2.49992 1.50069H5.49982ZM8.77972 0.550746C8.86389 0.509625 8.95792 0.492977 9.0511 0.502701C9.14427 0.512425 9.23284 0.548129 9.3067 0.605743L13.8066 4.10554C13.8668 4.15228 13.9155 4.21216 13.949 4.28062C13.9826 4.34908 14 4.42429 14 4.50052C14 4.57674 13.9826 4.65196 13.949 4.72042C13.9155 4.78888 13.8668 4.84876 13.8066 4.8955L9.3067 8.39529C9.2328 8.45278 9.14424 8.48836 9.0511 8.49799C8.95797 8.50761 8.864 8.49089 8.77991 8.44973C8.69581 8.40857 8.62496 8.34462 8.57543 8.26516C8.52589 8.18571 8.49966 8.09395 8.49973 8.00032V6.5254C6.2678 6.75539 4.87584 8.49829 4.10387 9.92421L3.94687 10.2242C3.89643 10.3248 3.81349 10.4055 3.71148 10.4532C3.60947 10.5008 3.49436 10.5126 3.3848 10.4867C3.27524 10.4608 3.17763 10.3987 3.10777 10.3104C3.03792 10.2221 2.99991 10.1128 2.9999 10.0002C2.9999 7.92432 3.51789 6.05943 4.53686 4.70051C5.47483 3.45058 6.82278 2.65363 8.49973 2.52163V1.00072C8.49954 0.907016 8.52569 0.815144 8.5752 0.735584C8.6247 0.656023 8.69557 0.591976 8.77972 0.550746Z" fill="currentColor"/>
</svg>
