<svg width="15" height="15" viewBox="0 0 15 15" fill="none" xmlns="http://www.w3.org/2000/svg">
<path fill-rule="evenodd" clip-rule="evenodd" d="M1.098 13.902C2.1975 15 3.9645 15 7.5 15C11.0355 15 12.8033 15 13.9012 13.9012C15 12.804 15 11.0355 15 7.5C15 3.9645 15 2.19675 13.9012 1.098C12.804 0 11.0355 0 7.5 0C3.9645 0 2.19675 0 1.098 1.098C0 2.1975 0 3.9645 0 7.5C0 11.0355 0 12.804 1.098 13.902ZM9.5625 10.5C9.5625 10.6492 9.50324 10.7923 9.39775 10.8977C9.29226 11.0032 9.14918 11.0625 9 11.0625H6C5.85082 11.0625 5.70774 11.0032 5.60225 10.8977C5.49676 10.7923 5.4375 10.6492 5.4375 10.5C5.4375 10.3508 5.49676 10.2077 5.60225 10.1023C5.70774 9.99676 5.85082 9.9375 6 9.9375H9C9.14918 9.9375 9.29226 9.99676 9.39775 10.1023C9.50324 10.2077 9.5625 10.3508 9.5625 10.5ZM10.5 8.0625C10.6492 8.0625 10.7923 8.00324 10.8977 7.89775C11.0032 7.79226 11.0625 7.64918 11.0625 7.5C11.0625 7.35082 11.0032 7.20774 10.8977 7.10225C10.7923 6.99676 10.6492 6.9375 10.5 6.9375H4.5C4.35082 6.9375 4.20774 6.99676 4.10225 7.10225C3.99676 7.20774 3.9375 7.35082 3.9375 7.5C3.9375 7.64918 3.99676 7.79226 4.10225 7.89775C4.20774 8.00324 4.35082 8.0625 4.5 8.0625H10.5ZM12.5625 4.5C12.5625 4.64918 12.5032 4.79226 12.3977 4.89775C12.2923 5.00324 12.1492 5.0625 12 5.0625H3C2.85082 5.0625 2.70774 5.00324 2.60225 4.89775C2.49676 4.79226 2.4375 4.64918 2.4375 4.5C2.4375 4.35082 2.49676 4.20774 2.60225 4.10225C2.70774 3.99676 2.85082 3.9375 3 3.9375H12C12.1492 3.9375 12.2923 3.99676 12.3977 4.10225C12.5032 4.20774 12.5625 4.35082 12.5625 4.5Z" fill="currentColor"/>
</svg>
