<svg width="30" height="19" viewBox="0 0 30 19" fill="none" xmlns="http://www.w3.org/2000/svg">
<path fill-rule="evenodd" clip-rule="evenodd" d="M17.6607 2.09517C17.2901 0.195229 14.853 -0.581076 13.1803 0.475166L9.56599 2.76131C9.32067 2.91573 9.02773 2.99858 8.72746 2.99848H5.29339C4.1371 2.99848 3.02817 3.40811 2.21055 4.13725C1.39293 4.8664 0.933594 5.85533 0.933594 6.88649V12.0705C0.933594 13.1017 1.39293 14.0906 2.21055 14.8197C3.02817 15.5489 4.1371 15.9585 5.29339 15.9585H8.72746C9.02839 15.9585 9.32189 16.0418 9.56745 16.197L13.1803 18.4805C14.8515 19.5381 17.2901 18.7618 17.6607 16.8605C18.1286 14.4629 18.3728 11.9953 18.3728 9.4785C18.3728 6.96166 18.1286 4.49537 17.6607 2.09517ZM29.7054 4.16618C29.6625 3.82757 29.4718 3.51763 29.1746 3.30346C28.8774 3.08929 28.4976 2.98812 28.1174 3.02186C27.7371 3.0556 27.3871 3.22153 27.143 3.48373C26.899 3.74592 26.7805 4.08329 26.8134 4.42279C27.1875 7.785 27.1875 11.172 26.8134 14.5342C26.7918 14.7048 26.8084 14.8774 26.8623 15.0422C26.9161 15.207 27.0061 15.3606 27.1271 15.4941C27.2481 15.6276 27.3976 15.7383 27.5669 15.8199C27.7362 15.9014 27.9221 15.9522 28.1136 15.9692C28.3051 15.9861 28.4985 15.969 28.6825 15.9188C28.8666 15.8686 29.0376 15.7863 29.1857 15.6767C29.3338 15.5671 29.456 15.4323 29.5452 15.2803C29.6344 15.1282 29.6888 14.9618 29.7054 14.7908C30.0986 11.2579 30.0986 7.69904 29.7054 4.16618ZM24.0013 5.48422C23.9886 5.31262 23.9377 5.145 23.8517 4.99111C23.7656 4.83722 23.6461 4.70015 23.5 4.58787C23.354 4.47559 23.1843 4.39036 23.0009 4.33714C22.8176 4.28392 22.6242 4.26377 22.432 4.27787C22.2398 4.29198 22.0527 4.34005 21.8815 4.41928C21.7104 4.49852 21.5587 4.60734 21.4351 4.7394C21.3116 4.87146 21.2188 5.02412 21.1621 5.18848C21.1054 5.35284 21.086 5.52563 21.1049 5.69676C21.3377 8.21364 21.3377 10.7433 21.1049 13.2602C21.0798 13.5996 21.2053 13.9341 21.4543 14.1917C21.7033 14.4493 22.0558 14.6093 22.4359 14.6372C22.8159 14.6651 23.193 14.5586 23.4859 14.3408C23.7787 14.123 23.9638 13.8112 24.0013 13.4728C24.2471 10.8144 24.2471 8.14256 24.0013 5.48422Z" fill="white"/>
</svg>
