<svg width="28" height="30" viewBox="0 0 28 30" fill="none" xmlns="http://www.w3.org/2000/svg">
<path d="M13.6611 0.511597C13.9354 0.469354 14.2151 0.489825 14.4824 0.57312C14.7501 0.656539 15.0014 0.801792 15.2188 1.00085C15.4362 1.20001 15.6145 1.44918 15.7402 1.73328L15.7441 1.74011L18.6562 8.0448L18.6592 8.05261L18.6631 8.05945C18.7231 8.17877 18.8046 8.28689 18.9043 8.37781V8.37878C18.9065 8.38085 18.9089 8.3826 18.9111 8.38464C18.9143 8.38751 18.9177 8.3906 18.9209 8.39343V8.39246C19.0399 8.50004 19.1907 8.56729 19.3545 8.58484V8.58679L25.749 9.58582V9.58679C26.0681 9.63882 26.3746 9.77465 26.6396 9.98621L26.751 10.0819C27.0012 10.3169 27.201 10.6125 27.332 10.9481L27.3838 11.0946C27.506 11.498 27.5261 11.9283 27.4404 12.3397C27.3474 12.7481 27.1487 13.114 26.873 13.3954L26.8672 13.4012L22.2471 18.2811L22.2422 18.287L22.2373 18.2919C22.15 18.3894 22.0812 18.5015 22.0332 18.6219L22.0186 18.66L22.0098 18.6991C21.9808 18.8298 21.9791 18.9652 22.0039 19.0966V19.0975L23.0957 26.0077L23.0977 26.0175C23.1634 26.3855 23.1402 26.7652 23.0332 27.118L22.9824 27.2675L22.9785 27.2772C22.8417 27.6616 22.6026 27.9856 22.2988 28.2098L22.291 28.2157L22.2842 28.2216C21.9868 28.4592 21.6396 28.6026 21.2803 28.6425H21.127C20.8056 28.6417 20.4874 28.5561 20.1992 28.3905L20.1963 28.3895L14.4561 25.1464H14.4551C14.3223 25.068 14.1706 25.0243 14.0137 25.0243C13.8904 25.0243 13.7704 25.0512 13.6602 25.1005L13.5713 25.1464L7.83301 28.4042C7.48671 28.599 7.10092 28.6855 6.7168 28.6591C6.34851 28.6237 5.99214 28.4791 5.6875 28.2362L5.68164 28.2323L5.57031 28.1385C5.31708 27.9112 5.11603 27.6147 4.99121 27.2733L4.99023 27.2714L4.94043 27.12C4.83481 26.7647 4.81167 26.3846 4.875 26.0145L4.87598 26.0077L5.96777 19.1122L5.9668 19.1112C5.99731 18.9688 5.99451 18.8207 5.95312 18.6805L5.94727 18.661L5.91309 18.5741C5.87567 18.4882 5.82774 18.4063 5.76953 18.3319L5.75586 18.3143L5.74023 18.2977L1.12012 13.3876L1.11816 13.3856C0.847426 13.1003 0.651256 12.7351 0.556641 12.329L0.554688 12.3192L0.551758 12.3094L0.514648 12.1552C0.441794 11.7971 0.453367 11.4235 0.548828 11.0702C0.676816 10.6699 0.904301 10.3215 1.2002 10.0614C1.49744 9.80013 1.85223 9.63839 2.22266 9.58875L2.23438 9.58679L8.53418 8.58679L8.5332 8.58386C8.68717 8.56612 8.82636 8.50161 8.93848 8.40222L8.94043 8.40417C8.95583 8.39159 8.9699 8.37759 8.98438 8.36414L8.9834 8.36316C9.07863 8.27466 9.15524 8.16962 9.20703 8.05261L9.20605 8.05164L12.1436 1.72644L12.1475 1.71667C12.2908 1.39127 12.5054 1.11439 12.7666 0.907104L12.8818 0.822144C13.1206 0.658947 13.3866 0.553917 13.6611 0.511597Z" fill="#FFEE00" stroke="white"/>
</svg>
