<svg width="17" height="20" viewBox="0 0 17 20" fill="none" xmlns="http://www.w3.org/2000/svg">
<path d="M8.06501 10.0533L1.0424e-05 6.02026V12.8353C-0.000989576 12.9893 0.0700104 13.1353 0.19101 13.2293L4.86901 16.0003C4.9223 16.028 4.96669 16.0702 4.99711 16.1221C5.02753 16.1739 5.04274 16.2332 5.04101 16.2933V19.8323C5.04198 19.8624 5.05084 19.8917 5.0667 19.9173C5.08257 19.9429 5.10488 19.9639 5.13141 19.9782C5.15794 19.9925 5.18776 19.9995 5.21787 19.9987C5.24799 19.9978 5.27735 19.989 5.30301 19.9733L15.899 13.2283C15.9704 13.183 16.0291 13.1203 16.0696 13.0462C16.1102 12.972 16.1313 12.8888 16.131 12.8043V6.02026L8.06501 10.0533Z" fill="#FFAA00"/>
<path d="M8.065 8.03623L16.131 4.00323L8.186 0.031233C8.14896 0.0107467 8.10733 0 8.065 0C8.02267 0 7.98104 0.0107467 7.944 0.031233L0 4.00323L8.065 8.03623Z" fill="#FFAA00"/>
</svg>
