<svg width="16" height="16" viewBox="0 0 16 16" fill="none" xmlns="http://www.w3.org/2000/svg">
<path fill-rule="evenodd" clip-rule="evenodd" d="M13.1105 0.00107371C13.5265 0.00107371 13.8646 0.339192 13.8646 0.755173V2.13431H15.2437C15.3929 2.13428 15.5387 2.17849 15.6628 2.26135C15.7868 2.34421 15.8835 2.46199 15.9406 2.59981C15.9977 2.73762 16.0126 2.88927 15.9835 3.03557C15.9544 3.18187 15.8825 3.31626 15.777 3.42172L14.2198 4.97898C13.9924 5.20586 13.6845 5.33354 13.3633 5.33417H11.7954L8.0302 9.09933C7.87855 9.24063 7.67798 9.31756 7.47073 9.31391C7.26349 9.31025 7.06575 9.22629 6.91918 9.07973C6.77262 8.93316 6.68866 8.73542 6.685 8.52818C6.68135 8.32093 6.75827 8.12036 6.89958 7.96871L10.6647 4.20355V2.63562C10.6647 2.31457 10.7927 2.00632 11.0199 1.77806L12.5772 0.220797C12.647 0.150444 12.7301 0.0946889 12.8216 0.056782C12.9132 0.0188751 13.0114 -0.000424941 13.1105 7.09613e-06M1.59849 8.53402C1.59837 7.66423 1.79167 6.8053 2.16439 6.01942C2.53711 5.23354 3.07991 4.54036 3.75351 3.99009C4.42711 3.43982 5.21464 3.04622 6.05908 2.83779C6.90353 2.62936 7.78375 2.61131 8.63603 2.78495C8.84288 2.82441 9.05694 2.78073 9.23178 2.66338C9.40663 2.54603 9.52815 2.36447 9.56998 2.1581C9.61182 1.95172 9.5706 1.73717 9.45526 1.56099C9.33992 1.38482 9.15977 1.26122 8.95389 1.21702C7.38134 0.897303 5.74762 1.09275 4.29487 1.77438C2.84211 2.45602 1.64762 3.58758 0.88843 5.00135C0.129239 6.41513 -0.154254 8.03589 0.0799663 9.62342C0.314186 11.211 1.05365 12.6808 2.18878 13.8151C3.3239 14.9494 4.79428 15.6878 6.38199 15.9208C7.96969 16.1539 9.59024 15.8692 11.0035 15.109C12.4167 14.3488 13.5474 13.1534 14.2279 11.7002C14.9085 10.2469 15.1028 8.61307 14.7819 7.04076C14.7396 6.83283 14.6164 6.65023 14.4395 6.53311C14.2626 6.416 14.0464 6.37396 13.8385 6.41625C13.6305 6.45854 13.4479 6.5817 13.3308 6.75862C13.2137 6.93555 13.1717 7.15175 13.214 7.35967C13.2915 7.73868 13.3306 8.13013 13.3313 8.53402C13.3313 10.0899 12.7132 11.582 11.6131 12.6822C10.5129 13.7824 9.02075 14.4004 7.46489 14.4004C5.90902 14.4004 4.41688 13.7824 3.31672 12.6822C2.21655 11.582 1.59849 10.0899 1.59849 8.53402ZM7.31983 5.87174C7.53171 5.86043 7.73042 5.7654 7.87224 5.60758C8.01406 5.44976 8.08738 5.24206 8.07606 5.03018C8.06474 4.8183 7.96972 4.61959 7.8119 4.47777C7.65408 4.33595 7.44638 4.26263 7.2345 4.27395C6.41526 4.3181 5.62612 4.59752 4.96163 5.07874C4.29715 5.55995 3.7855 6.22255 3.488 6.98714C3.1905 7.75173 3.11975 8.58589 3.28425 9.38966C3.44874 10.1934 3.8415 10.9327 4.41546 11.519C4.98941 12.1052 5.72023 12.5135 6.52033 12.695C7.32044 12.8765 8.15591 12.8234 8.92663 12.5422C9.69735 12.261 10.3706 11.7635 10.8658 11.1093C11.361 10.4552 11.6571 9.67213 11.7186 8.85401C11.7343 8.64241 11.6653 8.43324 11.5267 8.27252C11.3882 8.11179 11.1915 8.01268 10.9799 7.99698C10.7683 7.98128 10.5592 8.05028 10.3984 8.1888C10.2377 8.32732 10.1386 8.52401 10.1229 8.73561C10.084 9.24667 9.89863 9.73569 9.58899 10.1441C9.27935 10.5526 8.85857 10.8631 8.377 11.0386C7.89544 11.2141 7.37351 11.247 6.87369 11.1336C6.37387 11.0201 5.91734 10.765 5.55876 10.3988C5.20018 10.0326 4.95473 9.57075 4.85182 9.06865C4.7489 8.56655 4.79286 8.04543 4.97845 7.56767C5.16403 7.08991 5.48337 6.67576 5.89824 6.37479C6.31311 6.07383 6.80593 5.89881 7.31769 5.87067" fill="currentColor"/>
</svg>
