<svg width="9" height="19" viewBox="0 0 9 19" fill="none" xmlns="http://www.w3.org/2000/svg">
<path d="M6.78571 0H1.35714C0.997206 0 0.652012 0.142984 0.397498 0.397498C0.142985 0.652012 0 0.997206 0 1.35714V17.6429C0 18.0028 0.142985 18.348 0.397498 18.6025C0.652012 18.857 0.997206 19 1.35714 19H6.78571C7.14565 19 7.49085 18.857 7.74536 18.6025C7.99987 18.348 8.14286 18.0028 8.14286 17.6429V1.35714C8.14286 0.997206 7.99987 0.652012 7.74536 0.397498C7.49085 0.142984 7.14565 0 6.78571 0ZM4.07143 16.2857C3.87012 16.2857 3.67332 16.226 3.50594 16.1142C3.33855 16.0023 3.20809 15.8434 3.13105 15.6574C3.05401 15.4714 3.03385 15.2667 3.07313 15.0693C3.1124 14.8718 3.20934 14.6905 3.35169 14.5481C3.49404 14.4058 3.67541 14.3088 3.87285 14.2696C4.0703 14.2303 4.27496 14.2504 4.46094 14.3275C4.64693 14.4045 4.8059 14.535 4.91775 14.7024C5.02959 14.8698 5.08929 15.0665 5.08929 15.2679C5.08929 15.5378 4.98205 15.7967 4.79116 15.9876C4.60028 16.1785 4.34138 16.2857 4.07143 16.2857ZM4.07143 10.5179C3.87012 10.5179 3.67332 10.4582 3.50594 10.3463C3.33855 10.2345 3.20809 10.0755 3.13105 9.88952C3.05401 9.70353 3.03385 9.49887 3.07313 9.30142C3.1124 9.10398 3.20934 8.92262 3.35169 8.78027C3.49404 8.63792 3.67541 8.54097 3.87285 8.5017C4.0703 8.46243 4.27496 8.48258 4.46094 8.55962C4.64693 8.63666 4.8059 8.76712 4.91775 8.93451C5.02959 9.10189 5.08929 9.29869 5.08929 9.5C5.08929 9.76995 4.98205 10.0288 4.79116 10.2197C4.60028 10.4106 4.34138 10.5179 4.07143 10.5179ZM4.07143 4.75C3.87012 4.75 3.67332 4.6903 3.50594 4.57846C3.33855 4.46662 3.20809 4.30765 3.13105 4.12166C3.05401 3.93567 3.03385 3.73101 3.07313 3.53357C3.1124 3.33612 3.20934 3.15476 3.35169 3.01241C3.49404 2.87006 3.67541 2.77312 3.87285 2.73384C4.0703 2.69457 4.27496 2.71473 4.46094 2.79177C4.64693 2.8688 4.8059 2.99927 4.91775 3.16665C5.02959 3.33404 5.08929 3.53083 5.08929 3.73214C5.08929 4.0021 4.98205 4.26099 4.79116 4.45188C4.60028 4.64276 4.34138 4.75 4.07143 4.75Z" fill="currentColor"/>
</svg>
