<svg width="25" height="25" viewBox="0 0 25 25" fill="none" xmlns="http://www.w3.org/2000/svg">
<path d="M12.5 0C10.0277 0 7.61099 0.733112 5.55538 2.10663C3.49976 3.48015 1.89761 5.43238 0.951511 7.71645C0.00541605 10.0005 -0.242126 12.5139 0.24019 14.9386C0.722505 17.3634 1.91301 19.5907 3.66117 21.3388C5.40933 23.087 7.63661 24.2775 10.0614 24.7598C12.4861 25.2421 14.9995 24.9946 17.2835 24.0485C19.5676 23.1024 21.5199 21.5002 22.8934 19.4446C24.2669 17.389 25 14.9723 25 12.5C24.9967 9.18581 23.6787 6.00831 21.3352 3.66482C18.9917 1.32133 15.8142 0.00330923 12.5 0ZM19.9238 9.64125V10.4487C19.9238 10.5105 19.9114 10.5717 19.8874 10.6287C19.8634 10.6856 19.8282 10.7372 19.7839 10.7803C19.7396 10.8234 19.6871 10.8572 19.6296 10.8797C19.572 10.9022 19.5105 10.9129 19.4488 10.9112C18.129 10.818 16.8663 10.3361 15.82 9.52625V15.4362C15.8197 16.0903 15.6891 16.7378 15.4359 17.3409C15.1826 17.944 14.8118 18.4906 14.345 18.9487C13.8744 19.4189 13.3147 19.7904 12.6987 20.0416C12.0826 20.2927 11.4227 20.4184 10.7575 20.4112C9.41984 20.4093 8.13594 19.8844 7.18 18.9487C6.57174 18.3355 6.13362 17.5745 5.90875 16.7405C5.68388 15.9065 5.68 15.0284 5.8975 14.1925C6.09625 13.39 6.4975 12.6525 7.06375 12.0512C7.48604 11.5351 8.01834 11.1199 8.62175 10.8359C9.22515 10.5519 9.88438 10.4064 10.5513 10.41H11.5763V12.5387C11.5767 12.6006 11.564 12.6618 11.5389 12.7183C11.5138 12.7748 11.477 12.8253 11.4309 12.8665C11.3848 12.9077 11.3304 12.9385 11.2714 12.957C11.2124 12.9755 11.1501 12.9812 11.0888 12.9737C10.4936 12.795 9.85232 12.8543 9.30005 13.1391C8.74778 13.424 8.32768 13.9121 8.12831 14.5007C7.92894 15.0892 7.96587 15.7322 8.23132 16.2941C8.49677 16.8559 8.97 17.2928 9.55125 17.5125C9.88875 17.7062 10.2663 17.82 10.6538 17.8462C10.9538 17.8587 11.2538 17.8212 11.5388 17.7312C12.0145 17.5707 12.4284 17.2658 12.7226 16.8588C13.0168 16.4519 13.1767 15.9634 13.18 15.4612V4.6925C13.18 4.57337 13.2272 4.4591 13.3114 4.37474C13.3955 4.29039 13.5096 4.24283 13.6288 4.2425H15.3975C15.5124 4.24264 15.6229 4.28675 15.7064 4.36577C15.7898 4.4448 15.8399 4.55275 15.8463 4.6675C15.9107 5.21903 16.0859 5.75187 16.3613 6.23408C16.6366 6.71629 17.0065 7.13793 17.4488 7.47375C18.0464 7.92236 18.7561 8.19745 19.5 8.26875C19.6114 8.27828 19.7156 8.32785 19.7933 8.40828C19.871 8.48872 19.9169 8.59457 19.9225 8.70625L19.9238 9.64125Z" fill="white"/>
</svg>
