<svg width="16" height="15" viewBox="0 0 16 15" fill="none" xmlns="http://www.w3.org/2000/svg">
<path d="M10.0986 7.64766L11.2752 10H8.92207L9.41895 9.00781L10.0986 7.64766ZM15.0986 1.25V13.75C15.0986 14.0815 14.9669 14.3995 14.7325 14.6339C14.4981 14.8683 14.1802 15 13.8486 15H1.34863C1.01711 15 0.69917 14.8683 0.464749 14.6339C0.230329 14.3995 0.0986328 14.0815 0.0986328 13.75V1.25C0.0986328 0.918479 0.230329 0.600537 0.464749 0.366116C0.69917 0.131696 1.01711 0 1.34863 0H13.8486C14.1802 0 14.4981 0.131696 14.7325 0.366116C14.9669 0.600537 15.0986 0.918479 15.0986 1.25ZM13.783 12.2203L10.658 5.97031C10.6062 5.86631 10.5264 5.77881 10.4276 5.71766C10.3287 5.6565 10.2148 5.6241 10.0986 5.6241C9.98243 5.6241 9.86852 5.6565 9.76971 5.71766C9.6709 5.77881 9.59109 5.86631 9.53926 5.97031L8.50957 8.03125C7.84721 7.90154 7.21906 7.63549 6.66504 7.25C7.52863 6.27239 8.06294 5.04798 8.19238 3.75H9.47363C9.63939 3.75 9.79836 3.68415 9.91558 3.56694C10.0328 3.44973 10.0986 3.29076 10.0986 3.125C10.0986 2.95924 10.0328 2.80027 9.91558 2.68306C9.79836 2.56585 9.63939 2.5 9.47363 2.5H6.34863V1.875C6.34863 1.70924 6.28278 1.55027 6.16557 1.43306C6.04836 1.31585 5.88939 1.25 5.72363 1.25C5.55787 1.25 5.3989 1.31585 5.28169 1.43306C5.16448 1.55027 5.09863 1.70924 5.09863 1.875V2.5H1.97363C1.80787 2.5 1.6489 2.56585 1.53169 2.68306C1.41448 2.80027 1.34863 2.95924 1.34863 3.125C1.34863 3.29076 1.41448 3.44973 1.53169 3.56694C1.6489 3.68415 1.80787 3.75 1.97363 3.75H6.93301C6.80902 4.73615 6.39272 5.66262 5.7377 6.41016C5.46024 6.08618 5.22406 5.72902 5.03457 5.34688C4.95781 5.20373 4.82834 5.0961 4.67358 5.04677C4.51883 4.99744 4.35095 5.01029 4.20551 5.08261C4.06008 5.15492 3.9485 5.28101 3.89443 5.43417C3.84035 5.58733 3.84802 5.75553 3.91582 5.90312C4.15507 6.38547 4.45431 6.83566 4.80645 7.24297C3.97404 7.81862 2.9857 8.12635 1.97363 8.125C1.80787 8.125 1.6489 8.19085 1.53169 8.30806C1.41448 8.42527 1.34863 8.58424 1.34863 8.75C1.34863 8.91576 1.41448 9.07473 1.53169 9.19194C1.6489 9.30915 1.80787 9.375 1.97363 9.375C3.33046 9.37644 4.65049 8.93387 5.73223 8.11484C6.38673 8.61519 7.13556 8.97818 7.93379 9.18203L6.41426 12.2203C6.34008 12.3687 6.32787 12.5404 6.38033 12.6978C6.43278 12.8551 6.54559 12.9852 6.69394 13.0594C6.8423 13.1336 7.01405 13.1458 7.1714 13.0933C7.32876 13.0409 7.45883 12.928 7.53301 12.7797L8.29707 11.25H11.9002L12.6643 12.7797C12.701 12.8531 12.7518 12.9186 12.8139 12.9725C12.8759 13.0263 12.9479 13.0673 13.0259 13.0933C13.1038 13.1193 13.186 13.1296 13.268 13.1238C13.3499 13.118 13.4299 13.0961 13.5033 13.0594C13.5768 13.0226 13.6423 12.9718 13.6961 12.9098C13.7499 12.8477 13.791 12.7757 13.8169 12.6978C13.8429 12.6199 13.8533 12.5376 13.8475 12.4557C13.8416 12.3737 13.8197 12.2938 13.783 12.2203Z" fill="white"/>
</svg>
