<svg width="364" height="253" viewBox="0 0 364 253" fill="none" xmlns="http://www.w3.org/2000/svg">
<g opacity="0.5">
<path opacity="0.5" d="M181.705 230.351C266.937 230.351 336.032 228.38 336.032 225.949C336.032 223.518 266.937 221.548 181.705 221.548C96.4728 221.548 27.3784 223.518 27.3784 225.949C27.3784 228.38 96.4728 230.351 181.705 230.351Z" fill="#FFAA00"/>
<g opacity="0.3">
<path opacity="0.8" d="M181.727 225.596C244.023 225.596 294.525 175.095 294.525 112.798C294.525 50.5014 244.023 0 181.727 0C119.43 0 68.9287 50.5014 68.9287 112.798C68.9287 175.095 119.43 225.596 181.727 225.596Z" fill="#FFAA00"/>
<path opacity="0.6" d="M140.197 206.053C166.006 180.243 166.006 138.398 140.197 112.588C114.387 86.7786 72.5419 86.7786 46.7323 112.588C20.9228 138.398 20.9228 180.243 46.7323 206.053C72.5418 231.862 114.387 231.862 140.197 206.053Z" fill="#FFAA00"/>
<path opacity="0.6" d="M316.669 206.054C342.479 180.244 342.479 138.399 316.669 112.589C290.86 86.7797 249.014 86.7797 223.204 112.589C197.395 138.399 197.395 180.244 223.204 206.054C249.014 231.863 290.86 231.863 316.669 206.054Z" fill="#FFAA00"/>
<path opacity="0.5" d="M322.764 124.052C340.447 106.369 340.447 77.6992 322.764 60.0162C305.081 42.3332 276.411 42.3332 258.728 60.0162C241.045 77.6992 241.045 106.369 258.728 124.052C276.411 141.735 305.081 141.735 322.764 124.052Z" fill="#FFAA00"/>
<path opacity="0.5" d="M104.674 124.05C122.357 106.367 122.357 77.6976 104.674 60.0146C86.9907 42.3316 58.321 42.3316 40.638 60.0146C22.955 77.6976 22.955 106.367 40.638 124.05C58.321 141.733 86.9907 141.733 104.674 124.05Z" fill="#FFAA00"/>
</g>
</g>
<g opacity="0.5">
<path opacity="0.3" d="M88.8739 124.131H45.4157C44.2938 124.131 43.3843 125.04 43.3843 126.162V223.565C43.3843 224.687 44.2938 225.597 45.4157 225.597H88.8739C89.9959 225.597 90.9054 224.687 90.9054 223.565V126.162C90.9054 125.04 89.9959 124.131 88.8739 124.131Z" fill="#FFAA00"/>
<path opacity="0.3" d="M135.991 111H93.0092C91.8995 111 91 112.408 91 114.146V223.384C91 225.122 91.8995 226.53 93.0092 226.53H135.991C137.1 226.53 138 225.122 138 223.384V114.146C138 112.408 137.1 111 135.991 111Z" fill="#FFAA00"/>
<path opacity="0.3" d="M220.579 36.3103H140.458C139.336 36.3103 138.426 37.2198 138.426 38.3418V223.565C138.426 224.687 139.336 225.596 140.458 225.596H220.579C221.701 225.596 222.61 224.687 222.61 223.565V38.3418C222.61 37.2198 221.701 36.3103 220.579 36.3103Z" fill="#FFAA00"/>
<path opacity="0.3" d="M270.473 110.063H224.596C223.474 110.063 222.565 110.972 222.565 112.094V223.565C222.565 224.687 223.474 225.597 224.596 225.597H270.473C271.595 225.597 272.505 224.687 272.505 223.565V112.094C272.505 110.972 271.595 110.063 270.473 110.063Z" fill="#FFAA00"/>
<path opacity="0.3" d="M317.995 128.674H274.536C273.414 128.674 272.505 129.584 272.505 130.706V223.565C272.505 224.687 273.414 225.597 274.536 225.597H317.995C319.116 225.597 320.026 224.687 320.026 223.565V130.706C320.026 129.584 319.116 128.674 317.995 128.674Z" fill="#FFAA00"/>
</g>
<g opacity="0.2">
<path d="M180.518 87.2351C191.012 87.2351 199.519 78.728 199.519 68.234C199.519 57.7399 191.012 49.2328 180.518 49.2328C170.024 49.2328 161.517 57.7399 161.517 68.234C161.517 78.728 170.024 87.2351 180.518 87.2351Z" fill="#FFAA00"/>
</g>
<g opacity="0.8">
<path d="M274.626 192.732C275.34 190.119 275.814 187.444 277.191 185.125C280.447 179.637 285.953 176.064 291.999 174.3C308.415 169.509 309.948 157.251 312.136 163.38C314.325 169.509 309.728 176.128 313.669 180.917C317.608 185.706 314.475 194.68 308.162 196.651C301.849 198.621 279.245 213.61 279.245 225.596C279.245 225.596 262.244 225.596 262.23 225.596C261.36 225.596 261.359 219.042 261.394 218.552C261.71 214.203 263.406 210.379 266.004 206.914C268.463 203.634 271.144 200.458 273.09 196.829C273.79 195.524 274.243 194.137 274.626 192.732Z" fill="#FFAA00"/>
<g opacity="0.8">
<path d="M286.92 200.511C286.773 197.612 287.307 194.645 288.494 191.94C289.085 190.587 289.836 189.301 290.713 188.11L290.876 187.886C290.93 187.81 290.985 187.736 291.045 187.665L291.395 187.235C291.623 186.943 291.874 186.672 292.12 186.395C292.361 186.115 292.629 185.86 292.887 185.595C293.144 185.33 293.418 185.078 293.691 184.83C295.898 182.85 298.412 181.376 300.588 179.541L301.003 179.192L301.424 178.843L302.267 178.157C302.828 177.702 303.383 177.247 303.914 176.767C304.449 176.291 304.953 175.784 305.411 175.235C305.529 175.1 305.631 174.954 305.743 174.813C305.852 174.671 305.945 174.519 306.049 174.372C306.148 174.222 306.234 174.064 306.328 173.91C306.411 173.75 306.489 173.587 306.572 173.425C306.516 173.597 306.462 173.771 306.399 173.943C306.327 174.11 306.262 174.282 306.182 174.447C306.097 174.608 306.018 174.775 305.925 174.933C305.829 175.088 305.741 175.251 305.637 175.402C305.234 176.018 304.758 176.582 304.263 177.122C303.764 177.658 303.236 178.165 302.704 178.66L301.908 179.397L301.117 180.137C300.041 181.145 298.874 182.031 297.722 182.905C297.146 183.342 296.569 183.773 296.008 184.217C295.443 184.658 294.893 185.11 294.367 185.584C293.32 186.533 292.344 187.57 291.478 188.688C290.61 189.806 289.849 191.008 289.213 192.277C288.576 193.545 288.068 194.882 287.689 196.262C287.304 197.642 287.066 199.067 286.92 200.511Z" fill="white"/>
</g>
</g>
<path d="M335.039 203.456C332.678 210.858 326.245 214.976 318.922 216.599C298.095 221.21 288.345 224.122 285.106 225.164C284.216 225.451 283.288 225.596 282.353 225.596H265.513L271.642 206.722C271.642 206.722 279.814 188.066 299.076 191.701C318.336 195.337 325.632 181.208 330.303 177.182C331.292 176.328 335.059 172.71 335.647 175.593C335.774 176.209 335.625 176.843 335.499 177.459C333.73 186.128 337.802 194.799 335.039 203.456Z" fill="#FFAA00"/>
<path d="M327.896 191.835C327.814 192.144 327.735 192.455 327.643 192.763L327.494 193.222C327.443 193.374 327.399 193.529 327.337 193.678L327.162 194.129L327.073 194.355L326.973 194.576C326.839 194.869 326.71 195.167 326.554 195.452C325.959 196.605 325.201 197.68 324.326 198.654C323.445 199.625 322.433 200.475 321.351 201.216C320.268 201.957 319.114 202.587 317.924 203.128C317.626 203.258 317.328 203.392 317.027 203.518L316.116 203.878C315.504 204.1 314.889 204.317 314.268 204.506C314.113 204.555 313.958 204.607 313.802 204.652L313.334 204.787C313.021 204.875 312.709 204.967 312.394 205.043L311.451 205.28L310.503 205.494C307.971 206.045 305.41 206.408 302.847 206.669C302.206 206.726 301.565 206.792 300.924 206.838L299.961 206.913C299.641 206.936 299.32 206.956 298.998 206.975C298.679 206.995 298.353 207.011 298.04 207.033L297.103 207.104L296.633 207.139C296.477 207.15 296.323 207.174 296.167 207.192L295.235 207.301L295.002 207.328L294.771 207.367L293.847 207.519L293.616 207.556C293.539 207.569 293.463 207.589 293.387 207.604L292.472 207.799L292.243 207.848L292.017 207.907L291.566 208.027C290.958 208.171 290.373 208.381 289.778 208.566L288.906 208.894L288.687 208.976L288.474 209.069L288.047 209.257C287.906 209.321 287.763 209.381 287.622 209.446L287.206 209.655L286.79 209.865L286.686 209.917L286.585 209.975L286.383 210.091C285.84 210.392 285.318 210.729 284.807 211.083C283.791 211.798 282.849 212.624 282.009 213.55C281.906 213.667 281.795 213.779 281.696 213.899L281.398 214.261L281.247 214.443L281.107 214.63L280.825 215.007C280.467 215.523 280.126 216.053 279.82 216.606C279.516 217.16 279.243 217.731 279.007 218.321C278.769 218.91 278.567 219.516 278.428 220.141C278.548 218.862 278.937 217.613 279.444 216.422C279.695 215.823 280.008 215.252 280.334 214.687L280.593 214.274L280.724 214.066L280.863 213.866L281.144 213.463C281.238 213.33 281.342 213.204 281.441 213.073C282.245 212.042 283.18 211.104 284.209 210.287C285.239 209.468 286.362 208.769 287.538 208.181L287.981 207.963L288.203 207.855L288.429 207.759L289.337 207.373C289.954 207.153 290.569 206.916 291.2 206.741L291.672 206.6L291.908 206.53L292.146 206.472L293.101 206.241C293.18 206.223 293.26 206.2 293.341 206.185L293.582 206.139L294.063 206.048L294.546 205.958L294.787 205.912L295.029 205.878L295.999 205.743C296.161 205.723 296.322 205.695 296.485 205.681L296.972 205.638L297.945 205.551C298.27 205.523 298.582 205.503 298.9 205.478L299.85 205.41L300.8 205.331C301.433 205.284 302.065 205.215 302.696 205.155C303.327 205.092 303.958 205.023 304.587 204.95C305.215 204.87 305.845 204.799 306.471 204.703C307.726 204.537 308.972 204.32 310.211 204.082L311.138 203.895L312.06 203.687C312.368 203.621 312.67 203.536 312.977 203.462L313.435 203.347C313.587 203.307 313.738 203.262 313.889 203.221C315.1 202.884 316.295 202.499 317.454 202.029C319.771 201.097 321.974 199.85 323.793 198.131C324.705 197.276 325.504 196.299 326.19 195.239C326.538 194.712 326.841 194.155 327.127 193.588C327.204 193.448 327.265 193.301 327.333 193.157L327.533 192.722C327.598 192.576 327.653 192.426 327.714 192.279L327.896 191.835Z" fill="#FFAA00"/>
<path opacity="0.8" d="M327.896 191.835C327.814 192.144 327.735 192.455 327.643 192.763L327.494 193.222C327.443 193.374 327.399 193.529 327.337 193.678L327.162 194.129L327.073 194.355L326.973 194.576C326.839 194.869 326.71 195.167 326.554 195.452C325.959 196.605 325.201 197.68 324.326 198.654C323.445 199.625 322.433 200.475 321.351 201.216C320.268 201.957 319.114 202.587 317.924 203.128C317.626 203.258 317.328 203.392 317.027 203.518L316.116 203.878C315.504 204.1 314.889 204.317 314.268 204.506C314.113 204.555 313.958 204.607 313.802 204.652L313.334 204.787C313.021 204.875 312.709 204.967 312.394 205.043L311.451 205.28L310.503 205.494C307.971 206.045 305.41 206.408 302.847 206.669C302.206 206.726 301.565 206.792 300.924 206.838L299.961 206.913C299.641 206.936 299.32 206.956 298.998 206.975C298.679 206.995 298.353 207.011 298.04 207.033L297.103 207.104L296.633 207.139C296.477 207.15 296.323 207.174 296.167 207.192L295.235 207.301L295.002 207.328L294.771 207.367L293.847 207.519L293.616 207.556C293.539 207.569 293.463 207.589 293.387 207.604L292.472 207.799L292.243 207.848L292.017 207.907L291.566 208.027C290.958 208.171 290.373 208.381 289.778 208.566L288.906 208.894L288.687 208.976L288.474 209.069L288.047 209.257C287.906 209.321 287.763 209.381 287.622 209.446L287.206 209.655L286.79 209.865L286.686 209.917L286.585 209.975L286.383 210.091C285.84 210.392 285.318 210.729 284.807 211.083C283.791 211.798 282.849 212.624 282.009 213.55C281.906 213.667 281.795 213.779 281.696 213.899L281.398 214.261L281.247 214.443L281.107 214.63L280.825 215.007C280.467 215.523 280.126 216.053 279.82 216.606C279.516 217.16 279.243 217.731 279.007 218.321C278.769 218.91 278.567 219.516 278.428 220.141C278.548 218.862 278.937 217.613 279.444 216.422C279.695 215.823 280.008 215.252 280.334 214.687L280.593 214.274L280.724 214.066L280.863 213.866L281.144 213.463C281.238 213.33 281.342 213.204 281.441 213.073C282.245 212.042 283.18 211.104 284.209 210.287C285.239 209.468 286.362 208.769 287.538 208.181L287.981 207.963L288.203 207.855L288.429 207.759L289.337 207.373C289.954 207.153 290.569 206.916 291.2 206.741L291.672 206.6L291.908 206.53L292.146 206.472L293.101 206.241C293.18 206.223 293.26 206.2 293.341 206.185L293.582 206.139L294.063 206.048L294.546 205.958L294.787 205.912L295.029 205.878L295.999 205.743C296.161 205.723 296.322 205.695 296.485 205.681L296.972 205.638L297.945 205.551C298.27 205.523 298.582 205.503 298.9 205.478L299.85 205.41L300.8 205.331C301.433 205.284 302.065 205.215 302.696 205.155C303.327 205.092 303.958 205.023 304.587 204.95C305.215 204.87 305.845 204.799 306.471 204.703C307.726 204.537 308.972 204.32 310.211 204.082L311.138 203.895L312.06 203.687C312.368 203.621 312.67 203.536 312.977 203.462L313.435 203.347C313.587 203.307 313.738 203.262 313.889 203.221C315.1 202.884 316.295 202.499 317.454 202.029C319.771 201.097 321.974 199.85 323.793 198.131C324.705 197.276 325.504 196.299 326.19 195.239C326.538 194.712 326.841 194.155 327.127 193.588C327.204 193.448 327.265 193.301 327.333 193.157L327.533 192.722C327.598 192.576 327.653 192.426 327.714 192.279L327.896 191.835Z" fill="white"/>
<g opacity="0.8">
<path d="M88.7837 192.732C88.0697 190.119 87.5957 187.444 86.2195 185.125C82.963 179.637 77.4569 176.064 71.4116 174.3C54.9949 169.509 53.4629 157.251 51.2739 163.38C49.0851 169.509 53.6818 176.128 49.7416 180.917C45.8017 185.706 48.9348 194.68 55.2483 196.651C61.5615 198.621 84.1656 213.61 84.1656 225.596C84.1656 225.596 101.166 225.596 101.18 225.596C102.051 225.596 102.051 219.042 102.016 218.552C101.7 214.203 100.004 210.379 97.4063 206.914C94.9472 203.634 92.2657 200.458 90.32 196.829C89.6205 195.524 89.1674 194.137 88.7837 192.732Z" fill="#FFAA00"/>
<g opacity="0.8">
<path d="M76.4905 200.511C76.6372 197.612 76.1029 194.645 74.9158 191.94C74.3251 190.587 73.5747 189.301 72.697 188.11L72.5337 187.886C72.48 187.81 72.4246 187.736 72.3649 187.665L72.0151 187.235C71.7872 186.943 71.5354 186.672 71.2899 186.395C71.0486 186.115 70.7807 185.86 70.5225 185.595C70.2661 185.33 69.9925 185.078 69.7191 184.83C67.5118 182.85 64.9982 181.376 62.8219 179.541L62.407 179.192L61.9857 178.843L61.1426 178.157C60.5822 177.702 60.0273 177.247 59.496 176.767C58.9614 176.291 58.4568 175.784 57.9988 175.235C57.8806 175.1 57.7785 174.954 57.667 174.813C57.5579 174.671 57.4645 174.519 57.3612 174.372C57.2624 174.222 57.1763 174.064 57.0823 173.91C56.999 173.75 56.9214 173.587 56.8384 173.425C56.8944 173.597 56.9478 173.771 57.0105 173.943C57.0826 174.11 57.1484 174.282 57.2275 174.447C57.313 174.608 57.3915 174.775 57.4851 174.933C57.5812 175.088 57.6694 175.251 57.7733 175.402C58.1761 176.018 58.6519 176.582 59.1472 177.122C59.6466 177.658 60.1743 178.165 60.7058 178.66L61.5026 179.397L62.2933 180.137C63.3689 181.145 64.536 182.031 65.6883 182.905C66.2647 183.342 66.8415 183.773 67.4027 184.217C67.967 184.658 68.5177 185.11 69.0429 185.584C70.0903 186.533 71.0662 187.57 71.9324 188.688C72.8004 189.806 73.5608 191.008 74.1969 192.277C74.834 193.545 75.3419 194.882 75.7214 196.262C76.1066 197.642 76.3445 199.067 76.4905 200.511Z" fill="white"/>
</g>
</g>
<path d="M28.3709 203.456C30.7321 210.858 37.165 214.976 44.4883 216.599C65.3149 221.21 75.0655 224.122 78.3041 225.164C79.1942 225.451 80.1222 225.596 81.0575 225.596H97.8968L91.7679 206.722C91.7679 206.722 83.596 188.066 64.3341 191.701C45.0742 195.337 37.7778 181.208 33.1072 177.182C32.1183 176.328 28.3515 172.71 27.7626 175.593C27.6359 176.209 27.785 176.843 27.9117 177.459C29.6801 186.128 25.6084 194.799 28.3709 203.456Z" fill="#FFAA00"/>
<path d="M35.5142 191.835C35.5963 192.144 35.6754 192.455 35.7666 192.763L35.9157 193.222C35.9672 193.374 36.0109 193.529 36.0727 193.678L36.2479 194.129L36.337 194.355L36.4373 194.576C36.571 194.869 36.6998 195.167 36.8558 195.452C37.4508 196.605 38.2087 197.68 39.0843 198.654C39.965 199.625 40.9773 200.475 42.0595 201.216C43.1418 201.957 44.2962 202.587 45.4857 203.128C45.7845 203.258 46.0825 203.392 46.3834 203.518L47.2935 203.878C47.9057 204.1 48.5206 204.317 49.1419 204.506C49.2971 204.555 49.452 204.607 49.608 204.652L50.0763 204.787C50.3884 204.875 50.7006 204.967 51.0158 205.043L51.9593 205.28L52.9066 205.494C55.4391 206.045 57.9997 206.408 60.5628 206.669C61.2043 206.726 61.8447 206.792 62.486 206.838L63.4486 206.913C63.7689 206.936 64.0902 206.956 64.4114 206.975C64.7305 206.995 65.057 207.011 65.37 207.033L66.3074 207.104L66.7766 207.139C66.9326 207.15 67.0866 207.174 67.2427 207.192L68.1749 207.301L68.408 207.328L68.6389 207.367L69.563 207.519L69.7939 207.556C69.8709 207.569 69.947 207.589 70.023 207.604L70.938 207.799L71.1671 207.848L71.3932 207.907L71.8442 208.027C72.4521 208.171 73.037 208.381 73.6317 208.566L74.5042 208.894L74.723 208.976L74.9358 209.069L75.3625 209.257C75.5043 209.321 75.6471 209.381 75.788 209.446L76.2035 209.655L76.6199 209.865L76.7242 209.917L76.8254 209.975L77.0269 210.091C77.57 210.392 78.0919 210.729 78.6026 211.083C79.6191 211.798 80.5604 212.624 81.4005 213.55C81.5039 213.667 81.6145 213.779 81.7136 213.899L82.0124 214.261L82.1624 214.443L82.3034 214.63L82.5852 215.007C82.9428 215.523 83.2844 216.053 83.5896 216.606C83.8936 217.16 84.1672 217.731 84.4024 218.321C84.6406 218.91 84.8431 219.516 84.9822 220.141C84.8616 218.862 84.4733 217.613 83.9657 216.422C83.7144 215.823 83.4023 215.252 83.0759 214.687L82.8165 214.274L82.6858 214.066L82.547 213.866L82.2664 213.463C82.1721 213.33 82.0679 213.204 81.9694 213.073C81.1647 212.042 80.2304 211.104 79.2009 210.287C78.1713 209.468 77.0475 208.769 75.8719 208.181L75.4292 207.963L75.2073 207.855L74.9812 207.759L74.0732 207.373C73.4562 207.153 72.841 206.916 72.2097 206.741L71.7384 206.6L71.5023 206.53L71.2641 206.472L70.3085 206.241C70.2294 206.223 70.1494 206.2 70.0694 206.185L69.8282 206.139L69.3469 206.048L68.8644 205.958L68.6232 205.912L68.381 205.878L67.4112 205.743C67.249 205.723 67.0878 205.695 66.9248 205.681L66.4383 205.638L65.4646 205.551C65.1403 205.523 64.8281 205.503 64.5099 205.478L63.5592 205.41L62.6097 205.331C61.9763 205.284 61.345 205.215 60.7137 205.155C60.0824 205.092 59.452 205.023 58.8228 204.95C58.1946 204.87 57.5642 204.799 56.939 204.703C55.6834 204.537 54.438 204.32 53.1985 204.082L52.2714 203.895L51.3492 203.687C51.041 203.621 50.7391 203.536 50.433 203.462L49.9751 203.347C49.8229 203.307 49.672 203.262 49.5211 203.221C48.31 202.884 47.1144 202.499 45.9552 202.029C43.6385 201.097 41.4355 199.85 39.6165 198.131C38.7046 197.276 37.906 196.299 37.2198 195.239C36.8713 194.712 36.5682 194.155 36.2824 193.588C36.2055 193.448 36.1445 193.301 36.0767 193.157L35.8769 192.722C35.8112 192.576 35.7563 192.426 35.6954 192.279L35.5142 191.835Z" fill="#FFAA00"/>
<path opacity="0.8" d="M35.5142 191.835C35.5963 192.144 35.6754 192.455 35.7666 192.763L35.9157 193.222C35.9672 193.374 36.0109 193.529 36.0727 193.678L36.2479 194.129L36.337 194.355L36.4373 194.576C36.571 194.869 36.6998 195.167 36.8558 195.452C37.4508 196.605 38.2087 197.68 39.0843 198.654C39.965 199.625 40.9773 200.475 42.0595 201.216C43.1418 201.957 44.2962 202.587 45.4857 203.128C45.7845 203.258 46.0825 203.392 46.3834 203.518L47.2935 203.878C47.9057 204.1 48.5206 204.317 49.1419 204.506C49.2971 204.555 49.452 204.607 49.608 204.652L50.0763 204.787C50.3884 204.875 50.7006 204.967 51.0158 205.043L51.9593 205.28L52.9066 205.494C55.4391 206.045 57.9997 206.408 60.5628 206.669C61.2043 206.726 61.8447 206.792 62.486 206.838L63.4486 206.913C63.7689 206.936 64.0902 206.956 64.4114 206.975C64.7305 206.995 65.057 207.011 65.37 207.033L66.3074 207.104L66.7766 207.139C66.9326 207.15 67.0866 207.174 67.2427 207.192L68.1749 207.301L68.408 207.328L68.6389 207.367L69.563 207.519L69.7939 207.556C69.8709 207.569 69.947 207.589 70.023 207.604L70.938 207.799L71.1671 207.848L71.3932 207.907L71.8442 208.027C72.4521 208.171 73.037 208.381 73.6317 208.566L74.5042 208.894L74.723 208.976L74.9358 209.069L75.3625 209.257C75.5043 209.321 75.6471 209.381 75.788 209.446L76.2035 209.655L76.6199 209.865L76.7242 209.917L76.8254 209.975L77.0269 210.091C77.57 210.392 78.0919 210.729 78.6026 211.083C79.6191 211.798 80.5604 212.624 81.4005 213.55C81.5039 213.667 81.6145 213.779 81.7136 213.899L82.0124 214.261L82.1624 214.443L82.3034 214.63L82.5852 215.007C82.9428 215.523 83.2844 216.053 83.5896 216.606C83.8936 217.16 84.1672 217.731 84.4024 218.321C84.6406 218.91 84.8431 219.516 84.9822 220.141C84.8616 218.862 84.4733 217.613 83.9657 216.422C83.7144 215.823 83.4023 215.252 83.0759 214.687L82.8165 214.274L82.6858 214.066L82.547 213.866L82.2664 213.463C82.1721 213.33 82.0679 213.204 81.9694 213.073C81.1647 212.042 80.2304 211.104 79.2009 210.287C78.1713 209.468 77.0475 208.769 75.8719 208.181L75.4292 207.963L75.2073 207.855L74.9812 207.759L74.0732 207.373C73.4562 207.153 72.841 206.916 72.2097 206.741L71.7384 206.6L71.5023 206.53L71.2641 206.472L70.3085 206.241C70.2294 206.223 70.1494 206.2 70.0694 206.185L69.8282 206.139L69.3469 206.048L68.8644 205.958L68.6232 205.912L68.381 205.878L67.4112 205.743C67.249 205.723 67.0878 205.695 66.9248 205.681L66.4383 205.638L65.4646 205.551C65.1403 205.523 64.8281 205.503 64.5099 205.478L63.5592 205.41L62.6097 205.331C61.9763 205.284 61.345 205.215 60.7137 205.155C60.0824 205.092 59.452 205.023 58.8228 204.95C58.1946 204.87 57.5642 204.799 56.939 204.703C55.6834 204.537 54.438 204.32 53.1985 204.082L52.2714 203.895L51.3492 203.687C51.041 203.621 50.7391 203.536 50.433 203.462L49.9751 203.347C49.8229 203.307 49.672 203.262 49.5211 203.221C48.31 202.884 47.1144 202.499 45.9552 202.029C43.6385 201.097 41.4355 199.85 39.6165 198.131C38.7046 197.276 37.906 196.299 37.2198 195.239C36.8713 194.712 36.5682 194.155 36.2824 193.588C36.2055 193.448 36.1445 193.301 36.0767 193.157L35.8769 192.722C35.8112 192.576 35.7563 192.426 35.6954 192.279L35.5142 191.835Z" fill="white"/>
<path d="M221.179 153.18C245.697 128.662 245.697 88.9109 221.179 64.3932C196.662 39.8755 156.911 39.8756 132.393 64.3932C107.875 88.9109 107.875 128.662 132.393 153.18C156.911 177.697 196.662 177.697 221.179 153.18Z" fill="#E3BE9E"/>
<path d="M237.138 91.4843L204.348 70.0603V71.4323C205.571 72.1753 206.458 73.6893 206.132 75.1553C205.787 76.7103 205.157 78.1063 204.348 79.3983V95.2303H186.762C182.723 98.7883 178.744 102.411 174.822 106.096C174.41 106.708 174.002 107.313 173.611 107.898V116.484H167.516C166.617 117.664 165.705 118.835 164.763 119.981C158.027 128.18 150.71 135.785 142.222 142.175C141.455 142.752 140.655 142.859 139.93 142.663V146.901L177.647 171.544C211.922 171.083 239.571 143.169 239.571 108.784C239.572 102.781 238.712 96.9823 237.138 91.4843Z" fill="#BC9373"/>
<path d="M140.485 136.443L139.014 137.789C136.68 140.124 136.68 143.906 139.014 146.241C141.348 148.575 145.131 148.575 147.465 146.241L150.358 143.183L148.835 144.793L140.485 136.443Z" fill="#503324"/>
<path d="M174.15 118.035L167.695 111.58L164.547 114.457L171.222 121.13L174.15 118.035Z" fill="#38281B"/>
<path d="M145.857 131.534L140.485 136.443L148.834 144.793L150.358 143.183L155.826 137.405L147.999 129.578L145.857 131.534Z" fill="#60954F"/>
<path d="M211.149 112.287C221.397 102.039 221.396 85.4233 211.149 75.1753C200.9 64.9273 184.283 64.9273 174.037 75.1753C165.298 83.9143 164.017 97.2813 170.182 107.384C169.26 106.836 168.053 106.951 167.26 107.744C166.321 108.683 166.321 110.206 167.26 111.145L167.695 111.58L174.15 118.035L171.222 121.13L164.547 114.457L145.857 131.535L147.999 129.579L155.826 137.406L174.15 118.035L174.74 118.625C175.681 119.565 177.202 119.565 178.141 118.625C178.865 117.901 179.026 116.832 178.632 115.949C188.769 122.33 202.32 121.115 211.149 112.287ZM178.505 107.817C170.724 100.038 170.724 87.4233 178.505 79.6433C186.286 71.8643 198.898 71.8643 206.679 79.6433C214.46 87.4243 214.46 100.038 206.679 107.818C198.898 115.598 186.286 115.598 178.505 107.817Z" fill="#503324"/>
<path d="M206.679 79.6432C198.898 71.8642 186.286 71.8642 178.505 79.6432C170.724 87.4242 170.724 100.038 178.505 107.817C186.286 115.598 198.898 115.598 206.679 107.818C214.46 100.038 214.46 87.4232 206.679 79.6432ZM179.963 106.36C172.989 99.3852 172.989 88.0772 179.963 81.1012C186.939 74.1262 198.247 74.1262 205.223 81.1012C212.197 88.0762 212.197 99.3852 205.223 106.36C198.247 113.335 186.939 113.335 179.963 106.36Z" fill="#CCCDCD"/>
<path d="M205.223 81.1012C198.247 74.1262 186.939 74.1262 179.963 81.1012C172.989 88.0772 172.989 99.3852 179.963 106.36C186.939 113.335 198.247 113.335 205.223 106.36C212.197 99.3852 212.197 88.0762 205.223 81.1012Z" fill="#FFFFF4"/>
<path d="M205.223 81.1013C205.173 81.0533 205.124 81.0113 205.074 80.9673L179.829 106.211C179.873 106.261 179.915 106.312 179.963 106.36C186.939 113.335 198.247 113.335 205.223 106.36C212.197 99.3853 212.197 88.0763 205.223 81.1013Z" fill="#E8E8E0"/>
<path d="M150.358 143.183L148.834 144.793L150.358 143.183Z" fill="#C17D49"/>
<path d="M148.834 144.793L145.019 140.978L139.403 146.595C141.752 148.566 145.256 148.449 147.463 146.241L148.834 144.793Z" fill="#38281B"/>
<path d="M168.046 117.954L171.222 121.13L174.15 118.035L171.058 114.942L168.046 117.954Z" fill="#24151A"/>
<path d="M145.021 140.978L148.835 144.793L150.358 143.183L155.827 137.405L152.211 133.789L145.021 140.978Z" fill="#487437"/>
<path d="M168.046 117.954L152.21 133.789L155.826 137.405L174.15 118.035L171.222 121.13L168.046 117.954Z" fill="#38281B"/>
<path d="M211.149 112.287C221.397 102.039 221.396 85.4232 211.149 75.1752C211.095 75.1212 211.036 75.0702 210.982 75.0172L206.514 79.4862C206.568 79.5392 206.625 79.5892 206.679 79.6432C214.46 87.4242 214.46 100.038 206.679 107.818C198.898 115.598 186.286 115.598 178.505 107.817C178.451 107.763 178.401 107.706 178.347 107.652L171.057 114.942L174.74 118.624C175.681 119.564 177.202 119.564 178.141 118.624C178.865 117.9 179.026 116.831 178.632 115.948C188.769 122.33 202.32 121.115 211.149 112.287Z" fill="#38281B"/>
<path d="M206.679 79.6432C206.626 79.5892 206.568 79.5392 206.514 79.4862L205.056 80.9442C205.11 80.9952 205.167 81.0472 205.222 81.1012C212.196 88.0762 212.196 99.3852 205.222 106.36C198.246 113.335 186.938 113.335 179.962 106.36C179.909 106.305 179.857 106.25 179.805 106.194L178.347 107.652C178.401 107.706 178.451 107.763 178.505 107.817C186.286 115.598 198.898 115.598 206.679 107.818C214.46 100.038 214.46 87.4232 206.679 79.6432Z" fill="#B6BABA"/>
</svg>
