<svg width="17" height="17" viewBox="0 0 17 17" fill="none" xmlns="http://www.w3.org/2000/svg">
<path d="M8.5 2.66667C8.5 2.22464 8.3244 1.80072 8.01184 1.48816C7.69928 1.17559 7.27536 1 6.83333 1H1.83333C1.61232 1 1.40036 1.0878 1.24408 1.24408C1.0878 1.40036 1 1.61232 1 1.83333V13.5C1 13.721 1.0878 13.933 1.24408 14.0893C1.40036 14.2455 1.61232 14.3333 1.83333 14.3333H6.83333C7.27536 14.3333 7.69928 14.5089 8.01184 14.8215C8.3244 15.134 8.5 15.558 8.5 16M8.5 2.66667C8.5 2.22464 8.67559 1.80072 8.98816 1.48816C9.30072 1.17559 9.72464 1 10.1667 1H15.1667C15.3877 1 15.5996 1.0878 15.7559 1.24408C15.9122 1.40036 16 1.61232 16 1.83333V13.5C16 13.721 15.9122 13.933 15.7559 14.0893C15.5996 14.2455 15.3877 14.3333 15.1667 14.3333H10.1667C9.72464 14.3333 9.30072 14.5089 8.98816 14.8215C8.67559 15.134 8.5 15.558 8.5 16M8.5 2.66667V16M4.33333 4.33333H5.16667M4.33333 7.66667H5.16667M11.8333 4.33333H12.6667M11.8333 7.66667H12.6667M11.8333 11H12.6667" stroke="white" stroke-width="2" stroke-linecap="round" stroke-linejoin="round"/>
</svg>
