<svg width="15" height="15" viewBox="0 0 15 15" fill="none" xmlns="http://www.w3.org/2000/svg">
<path d="M3 6.75H4.125V5.25H3V6.75ZM4.875 8.25H6V3.75H4.875V8.25ZM6.9375 9.75H8.0625V2.25H6.9375V9.75ZM9 8.25H10.125V3.75H9V8.25ZM10.875 6.75H12V5.25H10.875V6.75ZM0 15V1.5C0 1.0875 0.147 0.7345 0.441 0.441C0.735 0.1475 1.088 0.0005 1.5 0H13.5C13.9125 0 14.2657 0.147 14.5597 0.441C14.8537 0.735 15.0005 1.088 15 1.5V10.5C15 10.9125 14.8532 11.2657 14.5597 11.5597C14.2662 11.8538 13.913 12.0005 13.5 12H3L0 15Z" fill="#FFAA00"/>
</svg>
