<svg width="24" height="24" viewBox="0 0 24 24" fill="none" xmlns="http://www.w3.org/2000/svg">
<path d="M22.7469 11.8734C22.7469 5.86804 17.8788 1 11.8734 1C5.86804 1 1 5.86804 1 11.8734C1 17.8788 5.86804 22.7469 11.8734 22.7469" stroke="white" stroke-width="1.5" stroke-linecap="round" stroke-linejoin="round"/>
<path d="M12.9603 1.05438C12.9603 1.05438 16.2224 5.34939 16.2224 11.8735M10.7856 22.6925C10.7856 22.6925 7.52361 18.3975 7.52361 11.8735C7.52361 5.34939 10.7856 1.05438 10.7856 1.05438M1.68457 15.6792H11.873M1.68457 8.06775H22.0614" stroke="white" stroke-width="1.5" stroke-linecap="round" stroke-linejoin="round"/>
<path d="M22.6155 18.3073C23.1527 18.6378 23.119 19.4414 22.5666 19.5045L19.7754 19.8209L18.5239 22.3348C18.2759 22.8339 17.5094 22.5893 17.3821 21.9716L16.0175 15.3214C15.9099 14.7995 16.3796 14.4711 16.833 14.7506L22.6155 18.3073Z" stroke="white" stroke-width="1.5"/>
</svg>
